<?xml version="1.0" encoding="UTF-8" standalone="no"?>
<!-- Created with Inkscape (http://www.inkscape.org/) -->

<svg
   width="1369.3551"
   height="439.31628"
   viewBox="0 0 362.30853 116.23576"
   version="1.1"
   id="svg5"
   inkscape:version="1.3.2 (091e20e, 2023-11-25, custom)"
   sodipodi:docname="SixSigma.svg"
   xml:space="preserve"
   inkscape:export-filename="025_ANOVA_nd.png"
   inkscape:export-xdpi="300"
   inkscape:export-ydpi="300"
   xmlns:inkscape="http://www.inkscape.org/namespaces/inkscape"
   xmlns:sodipodi="http://sodipodi.sourceforge.net/DTD/sodipodi-0.dtd"
   xmlns:xlink="http://www.w3.org/1999/xlink"
   xmlns="http://www.w3.org/2000/svg"
   xmlns:svg="http://www.w3.org/2000/svg"><sodipodi:namedview
     id="namedview7"
     pagecolor="#ffffff"
     bordercolor="#666666"
     borderopacity="1.0"
     inkscape:showpageshadow="2"
     inkscape:pageopacity="0.0"
     inkscape:pagecheckerboard="0"
     inkscape:deskcolor="#d1d1d1"
     inkscape:document-units="mm"
     showgrid="false"
     inkscape:zoom="1.1304762"
     inkscape:cx="551.0952"
     inkscape:cy="218.93429"
     inkscape:window-width="1920"
     inkscape:window-height="1017"
     inkscape:window-x="3832"
     inkscape:window-y="979"
     inkscape:window-maximized="1"
     inkscape:current-layer="layer1"
     showguides="true" /><defs
     id="defs2"><inkscape:perspective
   sodipodi:type="inkscape:persp3d"
   inkscape:vp_x="-149.3461 : -1.8289018e-14 : 0"
   inkscape:vp_y="6.1230318e-14 : -999.99995 : 0"
   inkscape:vp_z="-124.418 : -124.41799 : 0"
   inkscape:persp3d-origin="74.075528 : 42.756459 : 1"
   id="perspective5772" /><inkscape:path-effect
   effect="bspline"
   id="path-effect4166"
   is_visible="true"
   lpeversion="1"
   weight="33.333333"
   steps="2"
   helper_size="0"
   apply_no_weight="true"
   apply_with_weight="true"
   only_selected="false"
   uniform="false" /><inkscape:path-effect
   effect="bspline"
   id="path-effect1915"
   is_visible="true"
   lpeversion="1"
   weight="33.333333"
   steps="2"
   helper_size="0"
   apply_no_weight="true"
   apply_with_weight="true"
   only_selected="false"
   uniform="false" /><inkscape:path-effect
   effect="bspline"
   id="path-effect1899"
   is_visible="true"
   lpeversion="1"
   weight="33.333333"
   steps="2"
   helper_size="0"
   apply_no_weight="true"
   apply_with_weight="true"
   only_selected="false"
   uniform="false" /><inkscape:path-effect
   effect="bspline"
   id="path-effect1883"
   is_visible="true"
   lpeversion="1"
   weight="33.333333"
   steps="2"
   helper_size="0"
   apply_no_weight="true"
   apply_with_weight="true"
   only_selected="false"
   uniform="false" /><inkscape:path-effect
   effect="bspline"
   id="path-effect1867"
   is_visible="true"
   lpeversion="1"
   weight="33.333333"
   steps="2"
   helper_size="0"
   apply_no_weight="true"
   apply_with_weight="true"
   only_selected="false"
   uniform="false" /><inkscape:path-effect
   effect="bspline"
   id="path-effect638"
   is_visible="true"
   lpeversion="1"
   weight="33.333333"
   steps="2"
   helper_size="0"
   apply_no_weight="true"
   apply_with_weight="true"
   only_selected="false"
   uniform="false" /><linearGradient
   id="linearGradient6703"><stop
     style="stop-color:#000000;stop-opacity:1.0000000;"
     offset="0.0000000"
     id="stop6704" /><stop
     style="stop-color:#7f7f7f;stop-opacity:1.0000000;"
     offset="0.50000000"
     id="stop6705" /><stop
     style="stop-color:#ffffff;stop-opacity:1.0000000;"
     offset="1.0000000"
     id="stop6706" /></linearGradient><linearGradient
   id="linearGradient879"><stop
     style="stop-color:#c3c3c3;stop-opacity:0.54918033;"
     offset="0.0000000"
     id="stop880" /><stop
     style="stop-color:#d4e1e4;stop-opacity:1.0000000;"
     offset="0.50000000"
     id="stop884" /><stop
     style="stop-color:#ddf0f0;stop-opacity:0.59016395;"
     offset="1.0000000"
     id="stop881" /></linearGradient><linearGradient
   x1="1453.8076"
   y1="384.45895"
   x2="1583.5951"
   y2="383.24872"
   id="linearGradient882"
   xlink:href="#linearGradient879"
   gradientTransform="scale(0.55994156,1.7859006)"
   gradientUnits="userSpaceOnUse" /><linearGradient
   x1="568.58307"
   y1="1189.8646"
   x2="567.13934"
   y2="1038.1013"
   id="linearGradient883"
   xlink:href="#linearGradient879"
   spreadMethod="pad"
   gradientTransform="scale(1.4640424,0.68304032)"
   gradientUnits="userSpaceOnUse" /><clipPath
   id="clip0_525_147"><rect
     width="24"
     height="24"
     fill="#ffffff"
     id="rect26341"
     x="0"
     y="0" /></clipPath><style
   id="style4881">.cls-1{fill:none;stroke:#020202;stroke-miterlimit:10;stroke-width:1.91px;}</style><inkscape:path-effect
   effect="bspline"
   id="path-effect638-2"
   is_visible="true"
   lpeversion="1"
   weight="33.333333"
   steps="2"
   helper_size="0"
   apply_no_weight="true"
   apply_with_weight="true"
   only_selected="false"
   uniform="false" /><inkscape:path-effect
   effect="bspline"
   id="path-effect638-2-6"
   is_visible="true"
   lpeversion="1"
   weight="33.333333"
   steps="2"
   helper_size="0"
   apply_no_weight="true"
   apply_with_weight="true"
   only_selected="false"
   uniform="false" /><inkscape:path-effect
   effect="bspline"
   id="path-effect4166-3"
   is_visible="true"
   lpeversion="1"
   weight="33.333333"
   steps="2"
   helper_size="0"
   apply_no_weight="true"
   apply_with_weight="true"
   only_selected="false"
   uniform="false" /><inkscape:path-effect
   effect="bspline"
   id="path-effect4166-8"
   is_visible="true"
   lpeversion="1"
   weight="33.333333"
   steps="2"
   helper_size="0"
   apply_no_weight="true"
   apply_with_weight="true"
   only_selected="false"
   uniform="false" /><inkscape:path-effect
   effect="bspline"
   id="path-effect1883-9"
   is_visible="true"
   lpeversion="1"
   weight="33.333333"
   steps="2"
   helper_size="0"
   apply_no_weight="true"
   apply_with_weight="true"
   only_selected="false"
   uniform="false" /><inkscape:perspective
   sodipodi:type="inkscape:persp3d"
   inkscape:vp_x="-33.653483 : -4.0135822e-15 : 0"
   inkscape:vp_y="1.3797571e-14 : -219.45312 : 0"
   inkscape:vp_z="-28.036212 : -27.303918 : 0"
   inkscape:persp3d-origin="126.22519 : 84.106617 : 1"
   id="perspective5772-4" /><inkscape:path-effect
   effect="bspline"
   id="path-effect1915-0"
   is_visible="true"
   lpeversion="1"
   weight="33.333333"
   steps="2"
   helper_size="0"
   apply_no_weight="true"
   apply_with_weight="true"
   only_selected="false"
   uniform="false" /><inkscape:path-effect
   effect="bspline"
   id="path-effect1915-0-0"
   is_visible="true"
   lpeversion="1"
   weight="33.333333"
   steps="2"
   helper_size="0"
   apply_no_weight="true"
   apply_with_weight="true"
   only_selected="false"
   uniform="false" /><inkscape:path-effect
   effect="bspline"
   id="path-effect1915-0-0-7"
   is_visible="true"
   lpeversion="1"
   weight="33.333333"
   steps="2"
   helper_size="0"
   apply_no_weight="true"
   apply_with_weight="true"
   only_selected="false"
   uniform="false" /><clipPath
   id="clipPath3874">
      <path
   clip-rule="nonzero"
   d="m 73,7 h 8 v 17.378906 h -8 z m 0,0"
   id="path9388" />
    </clipPath>
    <clipPath
   id="clipPath1301">
      <path
   clip-rule="nonzero"
   d="m 133,7 h 10 v 17.378906 h -10 z m 0,0"
   id="path4916" />
    </clipPath>
    <clipPath
   id="clipPath2579">
      <path
   clip-rule="nonzero"
   d="m 195,7 h 8 v 17.378906 h -8 z m 0,0"
   id="path9102" />
    </clipPath>
    <clipPath
   id="clipPath8860">
      <path
   clip-rule="nonzero"
   d="m 256,7 h 10 v 17.378906 h -10 z m 0,0"
   id="path9738" />
    </clipPath>
  <clipPath
   id="clipPath9647">
      <path
   clip-rule="nonzero"
   d="m 73,7 h 8 v 17.378906 h -8 z m 0,0"
   id="path6766" />
    </clipPath>
    <clipPath
   id="clipPath6656">
      <path
   clip-rule="nonzero"
   d="m 133,7 h 10 v 17.378906 h -10 z m 0,0"
   id="path3032" />
    </clipPath>
    <clipPath
   id="clipPath2119">
      <path
   clip-rule="nonzero"
   d="m 195,7 h 8 v 17.378906 h -8 z m 0,0"
   id="path4555" />
    </clipPath>
    <clipPath
   id="clipPath7997">
      <path
   clip-rule="nonzero"
   d="m 243,7 h 11 v 17.378906 h -11 z m 0,0"
   id="path2380" />
    </clipPath>
  <clipPath
   id="clipPath1676">
      <path
   clip-rule="nonzero"
   d="m 74,7 h 9 v 17.378906 h -9 z m 0,0"
   id="path6703" />
    </clipPath>
    <clipPath
   id="clipPath1007">
      <path
   clip-rule="nonzero"
   d="m 134,7 h 10 v 17.378906 h -10 z m 0,0"
   id="path8889" />
    </clipPath>
    <clipPath
   id="clipPath4024">
      <path
   clip-rule="nonzero"
   d="m 196,7 h 8 v 17.378906 h -8 z m 0,0"
   id="path7996" />
    </clipPath>
    <clipPath
   id="clipPath3916">
      <path
   clip-rule="nonzero"
   d="m 245,7 h 10 v 17.378906 h -10 z m 0,0"
   id="path1765" />
    </clipPath>
    <clipPath
   id="clipPath1198">
      <path
   clip-rule="nonzero"
   d="m 286,6 h 8.83984 V 18 H 286 Z m 0,0"
   id="path9852" />
    </clipPath>
  <clipPath
   id="clipPath6491">
      <path
   clip-rule="nonzero"
   d="m 74,7 h 9 v 17.378906 h -9 z m 0,0"
   id="path1887" />
    </clipPath>
    <clipPath
   id="clipPath4822">
      <path
   clip-rule="nonzero"
   d="m 134,7 h 10 v 17.378906 h -10 z m 0,0"
   id="path8281" />
    </clipPath>
    <clipPath
   id="clipPath756">
      <path
   clip-rule="nonzero"
   d="m 196,7 h 8 v 17.378906 h -8 z m 0,0"
   id="path5431" />
    </clipPath>
    <clipPath
   id="clipPath5448">
      <path
   clip-rule="nonzero"
   d="m 245,7 h 10 v 17.378906 h -10 z m 0,0"
   id="path6537" />
    </clipPath>
    <clipPath
   id="clipPath9683">
      <path
   clip-rule="nonzero"
   d="m 286,6 h 8.83984 V 18 H 286 Z m 0,0"
   id="path8557" />
    </clipPath>
  <inkscape:path-effect
   effect="bspline"
   id="path-effect638-2-3"
   is_visible="true"
   lpeversion="1"
   weight="33.333333"
   steps="2"
   helper_size="0"
   apply_no_weight="true"
   apply_with_weight="true"
   only_selected="false"
   uniform="false" /><inkscape:path-effect
   effect="bspline"
   id="path-effect638-2-3-4"
   is_visible="true"
   lpeversion="1"
   weight="33.333333"
   steps="2"
   helper_size="0"
   apply_no_weight="true"
   apply_with_weight="true"
   only_selected="false"
   uniform="false" /></defs><g
     inkscape:label="Ebene 1"
     inkscape:groupmode="layer"
     id="layer1"
     transform="translate(41.335271,-72.149737)"><path
       style="fill:none;stroke:#000000;stroke-width:1.42881;stroke-linecap:butt;stroke-linejoin:miter;stroke-dasharray:none;stroke-opacity:1"
       d="m -103.87537,105.26529 c 97.4955787,0 194.991163,0 292.48676,0"
       id="path636"
       inkscape:path-effect="#path-effect638"
       inkscape:original-d="m -103.87537,105.26529 c 97.4955787,0 194.991163,0 292.48676,0"
       sodipodi:nodetypes="cc"
       transform="matrix(0.939328,0,0,0.96452,63.109732,72.812333)" /><path
       style="fill:#ececec;fill-opacity:1;stroke:#000000;stroke-width:1.15167;stroke-linecap:round;stroke-linejoin:round;stroke-miterlimit:10;stroke-dasharray:none"
       id="nd"
       d="m 239.7145,174.46458 c -6.80817,-0.0854 -13.64217,-0.22333 -20.40748,-0.63024 -7.16274,-0.43095 -14.19746,-1.1459 -20.93962,-2.44698 -6.71807,-1.29691 -12.65767,-3.26338 -18.14495,-5.56222 -5.33447,-2.23451 -10.00203,-4.98067 -14.10821,-7.77426 -4.2247,-2.87464 -8.14206,-5.85606 -11.7762,-8.92429 -3.74656,-3.16273 -7.33267,-6.36887 -10.88955,-9.58481 -3.48564,-3.1521 -6.9773,-6.30054 -10.60284,-9.41338 -3.54315,-3.04321 -7.373,-6.06518 -11.85597,-8.7896 -2.32267,-1.41155 -4.88131,-2.67042 -7.74638,-3.80529 -2.78696,-1.10417 -6.15245,-1.72668 -9.67414,-1.85845 -3.571511,-0.13336 -6.961831,0.73829 -9.843251,1.68244 -2.94747,0.96588 -5.39798,2.32376 -7.676,3.64731 -4.69328,2.72485 -8.47332,5.83072 -12.16666,8.90139 -3.5792,2.97612 -6.8872,6.03411 -10.24669,9.07246 -3.537993,3.20038 -7.074284,6.40158 -10.801997,9.54922 -3.616943,3.05425 -7.406459,6.06639 -11.613924,8.92879 -4.314765,2.93559 -9.03727,5.69562 -14.464453,8.13767 -5.331915,2.39946 -11.426021,4.27102 -18.0290846,5.66738 -6.355001,1.34446 -13.327978,2.077 -20.1619664,2.48831 -7.022778,0.42236 -14.073009,0.60451 -21.141297,0.70597"
       stroke-miterlimit="10"
       sodipodi:nodetypes="ccccccccscccccccccccc" /><g
       id="USL"
       transform="matrix(0.8,0,0,0.8,-8.8092896,40.948115)"><text
         xml:space="preserve"
         style="font-size:7.05557px;font-family:Bahnschrift;-inkscape-font-specification:'Bahnschrift, Normal';direction:rtl;fill:#000000;stroke:#b10e0e;stroke-width:1;stroke-dasharray:none;stroke-opacity:1"
         x="265.7402"
         y="178.73509"
         id="text1-3"><tspan
           sodipodi:role="line"
           id="tspan1-3"
           style="stroke:none;stroke-width:1"
           x="265.7402"
           y="178.73509">USL</tspan></text><path
         style="fill:none;stroke:#b10e0e;stroke-width:0.840478;stroke-linecap:butt;stroke-linejoin:miter;stroke-dasharray:none;stroke-opacity:1"
         d="m -58.673859,107.61863 c 0,-23.366218 0,-46.732437 0,-70.098655"
         id="path636-9-9"
         inkscape:path-effect="#path-effect638-2-3"
         inkscape:original-d="m -58.673859,107.61863 c 0,-23.366218 0,-46.732437 0,-70.098655"
         sodipodi:nodetypes="cc"
         transform="matrix(1.17416,0,0,1.20565,328.40224,39.830273)" /></g><g
       id="LSL"
       transform="matrix(0.8,0,0,0.8,-8.8092896,40.948115)"><text
         xml:space="preserve"
         style="font-size:7.05557px;font-family:Bahnschrift;-inkscape-font-specification:'Bahnschrift, Normal';direction:rtl;fill:#000000;stroke:#b10e0e;stroke-width:1;stroke-dasharray:none;stroke-opacity:1"
         x="26.912905"
         y="178.73509"
         id="text1"><tspan
           sodipodi:role="line"
           id="tspan1"
           style="stroke:none;stroke-width:1"
           x="26.912905"
           y="178.73509">LSL</tspan></text><path
         style="fill:none;stroke:#b10e0e;stroke-width:0.840478;stroke-linecap:butt;stroke-linejoin:miter;stroke-dasharray:none;stroke-opacity:1"
         d="m -58.673859,107.61863 c 0,-23.366218 0,-46.732437 0,-70.098655"
         id="path636-9"
         inkscape:path-effect="#path-effect638-2"
         inkscape:original-d="m -58.673859,107.61863 c 0,-23.366218 0,-46.732437 0,-70.098655"
         sodipodi:nodetypes="cc"
         transform="matrix(1.17416,0,0,1.20565,89.898778,39.830273)" /></g><path
       style="fill:none;stroke:#000000;stroke-width:0.840478;stroke-linecap:butt;stroke-linejoin:miter;stroke-dasharray:0.840478, 0.840478;stroke-dashoffset:0;stroke-opacity:1"
       d="m -58.673859,107.61863 c 0,-23.366218 0,-46.732437 0,-70.098655"
       id="Mean"
       sodipodi:nodetypes="cc"
       transform="matrix(0.939328,0,0,0.96452,158.68317,72.806054)"
       inkscape:original-d="m -58.673859,107.61863 c 0,-23.366218 0,-46.732437 0,-70.098655"
       inkscape:path-effect="#path-effect638-2-3-4" /><g
       id="USLSix"
       transform="matrix(1.5207919,0,0,1.5207919,-104.38225,-79.604348)"><path
         style="fill:#ececec;fill-opacity:1;stroke:#000000;stroke-width:0.491203;stroke-linecap:round;stroke-linejoin:round;stroke-miterlimit:10;stroke-dasharray:none"
         id="path2445-7-7-84"
         d="m 132.84,167.00443 c 0.67786,-0.002 1.35572,-0.008 2.03326,-0.026 0.64788,-0.017 1.29821,-0.0446 1.94202,-0.12579 0.68161,-0.086 1.35106,-0.2287 1.99265,-0.48837 0.63931,-0.25884 1.20454,-0.65132 1.72672,-1.1101 0.50764,-0.44597 0.95181,-0.99405 1.34257,-1.55159 0.40203,-0.57372 0.77482,-1.16876 1.12065,-1.78112 0.35653,-0.63122 0.69779,-1.2711 1.03627,-1.91293 0.3317,-0.62911 0.66398,-1.25747 1.00899,-1.87873 0.33718,-0.60737 0.70163,-1.21051 1.12825,-1.75425 0.22102,-0.2817 0.46451,-0.53295 0.73716,-0.75945 0.26521,-0.22037 0.58548,-0.3446 0.92061,-0.3709 0.33987,-0.0266 0.66251,0.14734 0.93671,0.33578 0.28048,0.19276 0.51368,0.46377 0.73046,0.72794 0.44662,0.54382 0.80634,1.16368 1.15782,1.77652 0.34059,0.59398 0.65539,1.2043 0.97508,1.8107 0.33668,0.63873 0.67321,1.27762 1.02795,1.90582 0.34419,0.60958 0.70481,1.21075 1.1052,1.78201 0.41061,0.58589 0.86002,1.13676 1.37647,1.62413 0.5074,0.47888 1.08733,0.8524 1.71569,1.1311 0.60476,0.26832 1.26832,0.41453 1.91866,0.49661 0.66831,0.0843 1.33922,0.12066 2.01185,0.14089 0.28796,0.008 0.57604,0.0145 0.86416,0.0186"
         stroke-miterlimit="10"
         sodipodi:nodetypes="cccccccccsccscccsccccsc" /><path
         style="fill:#ececec;fill-opacity:1;stroke:#000000;stroke-width:0.491203;stroke-linecap:round;stroke-linejoin:round;stroke-miterlimit:10;stroke-dasharray:none"
         id="path2445-7-7-84-4"
         d="m 153.90753,167.00443 c 0.67786,-0.002 1.35572,-0.008 2.03326,-0.026 0.64788,-0.017 1.29821,-0.0446 1.94202,-0.12579 0.68161,-0.086 1.35106,-0.2287 1.99265,-0.48837 0.63931,-0.25884 1.20454,-0.65132 1.72672,-1.1101 0.50764,-0.44597 0.95181,-0.99405 1.34257,-1.55159 0.40203,-0.57372 0.77482,-1.16876 1.12065,-1.78112 0.35653,-0.63122 0.69779,-1.2711 1.03627,-1.91293 0.3317,-0.62911 0.66398,-1.25747 1.00899,-1.87873 0.33718,-0.60737 0.70163,-1.21051 1.12825,-1.75425 0.22102,-0.2817 0.46451,-0.53295 0.73716,-0.75945 0.26521,-0.22037 0.58548,-0.3446 0.92061,-0.3709 0.33987,-0.0266 0.66251,0.14734 0.93671,0.33578 0.28048,0.19276 0.51368,0.46377 0.73046,0.72794 0.44662,0.54382 0.80634,1.16368 1.15782,1.77652 0.34059,0.59398 0.65539,1.2043 0.97508,1.8107 0.33668,0.63873 0.67321,1.27762 1.02795,1.90582 0.34419,0.60958 0.70481,1.21075 1.1052,1.78201 0.41061,0.58589 0.86002,1.13676 1.37647,1.62413 0.5074,0.47888 1.08733,0.8524 1.71569,1.1311 0.60476,0.26832 1.26832,0.41453 1.91866,0.49661 0.66831,0.0843 1.33922,0.12066 2.01185,0.14089 0.28796,0.008 0.57604,0.0145 0.86416,0.0186"
         stroke-miterlimit="10"
         sodipodi:nodetypes="cccccccccsccscccsccccsc" /><path
         style="fill:#ececec;fill-opacity:1;stroke:#000000;stroke-width:0.491203;stroke-linecap:round;stroke-linejoin:round;stroke-miterlimit:10;stroke-dasharray:none"
         id="path2445-7-7-84-5"
         d="m 174.97506,167.00443 c 0.67786,-0.002 1.35572,-0.008 2.03326,-0.026 0.64788,-0.017 1.29821,-0.0446 1.94202,-0.12579 0.68161,-0.086 1.35106,-0.2287 1.99265,-0.48837 0.63931,-0.25884 1.20454,-0.65132 1.72672,-1.1101 0.50764,-0.44597 0.95181,-0.99405 1.34257,-1.55159 0.40203,-0.57372 0.77482,-1.16876 1.12065,-1.78112 0.35653,-0.63122 0.69779,-1.2711 1.03627,-1.91293 0.3317,-0.62911 0.66398,-1.25747 1.00899,-1.87873 0.33718,-0.60737 0.70163,-1.21051 1.12825,-1.75425 0.22102,-0.2817 0.46451,-0.53295 0.73716,-0.75945 0.26521,-0.22037 0.58548,-0.3446 0.92061,-0.3709 0.33987,-0.0266 0.66251,0.14734 0.93671,0.33578 0.28048,0.19276 0.51368,0.46377 0.73046,0.72794 0.44662,0.54382 0.80634,1.16368 1.15782,1.77652 0.34059,0.59398 0.65539,1.2043 0.97508,1.8107 0.33668,0.63873 0.67321,1.27762 1.02795,1.90582 0.34419,0.60958 0.70481,1.21075 1.1052,1.78201 0.41061,0.58589 0.86002,1.13676 1.37647,1.62413 0.5074,0.47888 1.08733,0.8524 1.71569,1.1311 0.60476,0.26832 1.26832,0.41453 1.91866,0.49661 0.66831,0.0843 1.33922,0.12066 2.01185,0.14089 0.28796,0.008 0.57604,0.0145 0.86416,0.0186"
         stroke-miterlimit="10"
         sodipodi:nodetypes="cccccccccsccscccsccccsc" /></g><g
       id="LSLSix"
       transform="matrix(1.510963,0,0,1.510963,-113.46602,-77.960464)"><path
         style="fill:#ececec;fill-opacity:1;stroke:#000000;stroke-width:0.491203;stroke-linecap:round;stroke-linejoin:round;stroke-miterlimit:10;stroke-dasharray:none"
         id="path2445-7-7-84-67-1"
         d="m 76.014338,167.00443 c 0.67786,-0.002 1.35572,-0.008 2.03326,-0.026 0.64788,-0.017 1.29821,-0.0446 1.94202,-0.12579 0.68161,-0.086 1.35106,-0.2287 1.99265,-0.48837 0.63931,-0.25884 1.20454,-0.65132 1.72672,-1.1101 0.50764,-0.44597 0.95181,-0.99405 1.34257,-1.55159 0.40203,-0.57372 0.77482,-1.16876 1.12065,-1.78112 0.35653,-0.63122 0.69779,-1.2711 1.03627,-1.91293 0.3317,-0.62911 0.66398,-1.25747 1.00899,-1.87873 0.33718,-0.60737 0.70163,-1.21051 1.12825,-1.75425 0.22102,-0.2817 0.46451,-0.53295 0.73716,-0.75945 0.26521,-0.22037 0.58548,-0.3446 0.92061,-0.3709 0.33987,-0.0266 0.66251,0.14734 0.93671,0.33578 0.28048,0.19276 0.51368,0.46377 0.73046,0.72794 0.44662,0.54382 0.80634,1.16368 1.15782,1.77652 0.34059,0.59398 0.65539,1.2043 0.97508,1.8107 0.33668,0.63873 0.67321,1.27762 1.02795,1.90582 0.34419,0.60958 0.70481,1.21075 1.1052,1.78201 0.41061,0.58589 0.86002,1.13676 1.37647,1.62413 0.5074,0.47888 1.08733,0.8524 1.715682,1.1311 0.60476,0.26832 1.26832,0.41453 1.91866,0.49661 0.66831,0.0843 1.33922,0.12066 2.01185,0.14089 0.28796,0.008 0.57604,0.0145 0.86416,0.0186"
         stroke-miterlimit="10"
         sodipodi:nodetypes="cccccccccsccscccsccccsc" /><path
         style="fill:#ececec;fill-opacity:1;stroke:#000000;stroke-width:0.491203;stroke-linecap:round;stroke-linejoin:round;stroke-miterlimit:10;stroke-dasharray:none"
         id="path2445-7-7-84-1-6"
         d="m 97.081868,167.00443 c 0.67786,-0.002 1.35572,-0.008 2.03326,-0.026 0.647875,-0.017 1.298202,-0.0446 1.942012,-0.12579 0.68161,-0.086 1.35106,-0.2287 1.99265,-0.48837 0.63931,-0.25884 1.20454,-0.65132 1.72672,-1.1101 0.50764,-0.44597 0.95181,-0.99405 1.34257,-1.55159 0.40203,-0.57372 0.77482,-1.16876 1.12065,-1.78112 0.35653,-0.63122 0.69779,-1.2711 1.03627,-1.91293 0.3317,-0.62911 0.66398,-1.25747 1.00899,-1.87873 0.33718,-0.60737 0.70163,-1.21051 1.12825,-1.75425 0.22102,-0.2817 0.46451,-0.53295 0.73716,-0.75945 0.26521,-0.22037 0.58548,-0.3446 0.92061,-0.3709 0.33987,-0.0266 0.66251,0.14734 0.93671,0.33578 0.28048,0.19276 0.51368,0.46377 0.73046,0.72794 0.44662,0.54382 0.80634,1.16368 1.15782,1.77652 0.34059,0.59398 0.65539,1.2043 0.97508,1.8107 0.33668,0.63873 0.67321,1.27762 1.02795,1.90582 0.34419,0.60958 0.70481,1.21075 1.1052,1.78201 0.41061,0.58589 0.86002,1.13676 1.37647,1.62413 0.5074,0.47888 1.08733,0.8524 1.71569,1.1311 0.60476,0.26832 1.26832,0.41453 1.91866,0.49661 0.66831,0.0843 1.33922,0.12066 2.01185,0.14089 0.28796,0.008 0.57604,0.0145 0.86416,0.0186"
         stroke-miterlimit="10"
         sodipodi:nodetypes="cccccccccsccscccsccccsc" /><path
         style="fill:#ececec;fill-opacity:1;stroke:#000000;stroke-width:0.491203;stroke-linecap:round;stroke-linejoin:round;stroke-miterlimit:10;stroke-dasharray:none"
         id="path2445-7-7-84-41-7"
         d="m 118.14939,167.00443 c 0.67786,-0.002 1.35572,-0.008 2.03326,-0.026 0.64788,-0.017 1.29821,-0.0446 1.94202,-0.12579 0.68161,-0.086 1.35106,-0.2287 1.99265,-0.48837 0.63931,-0.25884 1.20454,-0.65132 1.72672,-1.1101 0.50764,-0.44597 0.95181,-0.99405 1.34257,-1.55159 0.40203,-0.57372 0.77482,-1.16876 1.12065,-1.78112 0.35653,-0.63122 0.69779,-1.2711 1.03627,-1.91293 0.3317,-0.62911 0.66398,-1.25747 1.00899,-1.87873 0.33718,-0.60737 0.70163,-1.21051 1.12825,-1.75425 0.22102,-0.2817 0.46451,-0.53295 0.73716,-0.75945 0.26521,-0.22037 0.58548,-0.3446 0.92061,-0.3709 0.33987,-0.0266 0.66251,0.14734 0.93671,0.33578 0.28048,0.19276 0.51368,0.46377 0.73046,0.72794 0.44662,0.54382 0.80634,1.16368 1.15782,1.77652 0.34059,0.59398 0.65539,1.2043 0.97508,1.8107 0.33668,0.63873 0.67321,1.27762 1.02795,1.90582 0.34419,0.60958 0.70481,1.21075 1.1052,1.78201 0.41061,0.58589 0.86002,1.13676 1.37647,1.62413 0.5074,0.47888 1.08733,0.8524 1.71569,1.1311 0.60476,0.26832 1.26832,0.41453 1.91866,0.49661 0.66831,0.0843 1.33922,0.12066 2.01185,0.14089 0.28796,0.008 0.57604,0.0145 0.86416,0.0186"
         stroke-miterlimit="10"
         sodipodi:nodetypes="cccccccccsccscccsccccsc" /></g><text
       xml:space="preserve"
       style="font-size:35.6385px;font-family:Bahnschrift;-inkscape-font-specification:'Bahnschrift, Normal';direction:rtl;fill:#000000;stroke:#000000;stroke-width:8.5869;stroke-dasharray:none;stroke-dashoffset:0;stroke-opacity:1"
       x="56.813442"
       y="140.78648"
       id="SixLSL"><tspan
         sodipodi:role="line"
         id="tspan2"
         style="stroke:none;stroke-width:8.5869"
         x="56.813442"
         y="140.78648">3σ</tspan></text><text
       xml:space="preserve"
       style="font-size:35.6385px;font-family:Bahnschrift;-inkscape-font-specification:'Bahnschrift, Normal';direction:rtl;fill:#000000;stroke:#000000;stroke-width:8.5869;stroke-dasharray:none;stroke-dashoffset:0;stroke-opacity:1"
       x="192.34682"
       y="139.52043"
       id="SixUSL"><tspan
         sodipodi:role="line"
         id="tspan2-1"
         style="stroke:none;stroke-width:8.5869"
         x="192.34682"
         y="139.52043">3σ</tspan></text><text
       xml:space="preserve"
       style="font-size:35.6385px;font-family:Bahnschrift;-inkscape-font-specification:'Bahnschrift, Normal';direction:rtl;fill:#000000;stroke:#000000;stroke-width:8.5869;stroke-dasharray:none;stroke-dashoffset:0;stroke-opacity:1"
       x="123.19822"
       y="105.86031"
       id="TwelveSig"><tspan
         sodipodi:role="line"
         id="tspan2-1-1"
         style="stroke:none;stroke-width:8.5869"
         x="123.19822"
         y="105.86031">6σ</tspan></text></g></svg>
