<?xml version="1.0" encoding="UTF-8" standalone="no"?>
<svg
   version="1.1"
   viewBox="0 0 982.7 453.5"
   id="svg19"
   sodipodi:docname="004_HALP.svg"
   inkscape:version="1.3.2 (091e20e, 2023-11-25, custom)"
   xmlns:inkscape="http://www.inkscape.org/namespaces/inkscape"
   xmlns:sodipodi="http://sodipodi.sourceforge.net/DTD/sodipodi-0.dtd"
   xmlns="http://www.w3.org/2000/svg"
   xmlns:svg="http://www.w3.org/2000/svg">
  <defs
     id="defs1">
    <style
       id="style1">
      .cls-1 {
        stroke: red;
        stroke-width: 5.7px;
      }

      .cls-1, .cls-2, .cls-3, .cls-4, .cls-5 {
        fill: none;
        stroke-linejoin: round;
      }

      .cls-6 {
        fill: #4d4d4d;
        font-family: ArialMT, Arial;
        font-size: 26.7px;
      }

      .cls-6, .cls-7, .cls-8 {
        isolation: isolate;
      }

      .cls-2 {
        stroke-width: 5.7px;
      }

      .cls-2, .cls-3 {
        stroke: #000;
      }

      .cls-3 {
        stroke-width: 1.4px;
      }

      .cls-8 {
        fill: #828282;
        opacity: .8;
      }

      .cls-4 {
        stroke-width: 3.2px;
      }

      .cls-4, .cls-5 {
        stroke: #ebebeb;
      }

      .cls-5 {
        stroke-width: 1.6px;
      }
    </style>
  </defs>
  <!-- Generator: Adobe Illustrator 28.7.1, SVG Export Plug-In . SVG Version: 1.2.0 Build 142)  -->
  <g
     id="g19">
    <g
       id="svg5">
      <sodipodi:namedview
         id="namedview7"
         bordercolor="#666666"
         borderopacity="1.0"
         inkscape:current-layer="svg5"
         inkscape:cx="540.21211"
         inkscape:cy="267.66828"
         inkscape:deskcolor="#d1d1d1"
         inkscape:document-units="mm"
         inkscape:pagecheckerboard="0"
         inkscape:pageopacity="0.0"
         inkscape:showpageshadow="2"
         inkscape:window-height="1017"
         inkscape:window-maximized="1"
         inkscape:window-width="1920"
         inkscape:window-x="3832"
         inkscape:window-y="979"
         inkscape:zoom="1.0255231"
         pagecolor="#ffffff"
         showgrid="false" />
      <g
         id="_x3C_defs">
        <inkscape:path-effect
           id="path-effect779"
           apply_no_weight="true"
           apply_with_weight="true"
           effect="bspline"
           helper_size="0"
           is_visible="true"
           lpeversion="1"
           only_selected="false"
           steps="2"
           uniform="false"
           weight="33.333333" />
        <inkscape:path-effect
           id="path-effect765"
           apply_no_weight="true"
           apply_with_weight="true"
           effect="bspline"
           helper_size="0"
           is_visible="true"
           lpeversion="1"
           only_selected="false"
           steps="2"
           uniform="false"
           weight="33.333333" />
        <inkscape:path-effect
           id="path-effect638"
           apply_no_weight="true"
           apply_with_weight="true"
           effect="bspline"
           helper_size="0"
           is_visible="true"
           lpeversion="1"
           only_selected="false"
           steps="2"
           uniform="false"
           weight="33.333333" />
        <inkscape:path-effect
           id="path-effect638-2"
           apply_no_weight="true"
           apply_with_weight="true"
           effect="bspline"
           helper_size="0"
           is_visible="true"
           lpeversion="1"
           only_selected="false"
           steps="2"
           uniform="false"
           weight="33.333333" />
        <inkscape:path-effect
           id="path-effect1867"
           apply_no_weight="true"
           apply_with_weight="true"
           effect="bspline"
           helper_size="0"
           is_visible="true"
           lpeversion="1"
           only_selected="false"
           steps="2"
           uniform="false"
           weight="33.333333" />
        <inkscape:path-effect
           id="path-effect1883"
           apply_no_weight="true"
           apply_with_weight="true"
           effect="bspline"
           helper_size="0"
           is_visible="true"
           lpeversion="1"
           only_selected="false"
           steps="2"
           uniform="false"
           weight="33.333333" />
        <inkscape:path-effect
           id="path-effect1899"
           apply_no_weight="true"
           apply_with_weight="true"
           effect="bspline"
           helper_size="0"
           is_visible="true"
           lpeversion="1"
           only_selected="false"
           steps="2"
           uniform="false"
           weight="33.333333" />
        <inkscape:path-effect
           id="path-effect1915"
           apply_no_weight="true"
           apply_with_weight="true"
           effect="bspline"
           helper_size="0"
           is_visible="true"
           lpeversion="1"
           only_selected="false"
           steps="2"
           uniform="false"
           weight="33.333333" />
      </g>
      <g
         id="g1">
        <path
           id="path222"
           d="M252.3,58.1c-79,0-143.1,64.1-143.1,143.1s64.1,143.1,143.1,143.1,143.1-64.1,143.1-143.1h0c0-79-64.1-143-143.1-143.1h0ZM252.3,329.7c-71,0-128.5-57.5-128.5-128.5s57.5-128.5,128.5-128.5,128.5,57.5,128.5,128.5h0c0,70.9-57.6,128.4-128.5,128.5h0ZM252.3,106.6c-52.2,0-94.6,42.3-94.6,94.6s42.3,94.6,94.6,94.6,94.6-42.3,94.6-94.6h0c0-52.2-42.4-94.5-94.6-94.6h0ZM252.3,281.2c-44.2,0-80-35.8-80-80s35.8-80,80-80,80,35.8,80,80h0c0,44.2-35.8,80-80,80h0ZM252.3,155.1c-25.4,0-46.1,20.6-46.1,46.1s20.6,46.1,46.1,46.1,46.1-20.6,46.1-46.1h0c0-25.4-20.6-46-46.1-46.1ZM252.3,232.7c-17.4,0-31.5-14.1-31.5-31.5s14.1-31.5,31.5-31.5,31.5,14.1,31.5,31.5h0c0,17.4-14.1,31.5-31.5,31.5Z" />
        <circle
           id="path904"
           class="cls-8"
           cx="196.7"
           cy="197.7"
           r="10.2" />
        <circle
           id="path904-4"
           class="cls-8"
           cx="242.4"
           cy="141.2"
           r="10.2" />
        <circle
           id="path904-6"
           class="cls-8"
           cx="247.9"
           cy="207.4"
           r="10.2" />
        <circle
           id="path904-2"
           class="cls-8"
           cx="265.9"
           cy="244.6"
           r="10.2" />
        <circle
           id="path904-42"
           class="cls-8"
           cx="300.4"
           cy="190.8"
           r="10.2" />
        <circle
           id="path904-5"
           class="cls-8"
           cx="265.9"
           cy="167.4"
           r="10.2" />
        <g
           id="text12"
           class="cls-7">
          <g
             class="cls-7"
             id="g9">
            <path
               d="M184.5,448.8c-.9-.8-1.4-1.9-1.4-3.5s.4-2.6,1.2-3.3c.8-.7,2.1-1.1,3.8-1.1h4.2l.2,2.3h-4.4c-.8,0-1.3.2-1.7.5-.4.3-.6.9-.6,1.6s.3,1.3.8,1.7c.5.4,1.3.5,2.3.5s2-.1,2.5-.4c.5-.2.8-.6.8-1.1l.3,2.1c-.3.4-.6.7-1,1-.4.3-.8.5-1.3.6s-1.1.2-1.7.2c-1.8,0-3.2-.4-4.1-1.1ZM192.2,440.3c0-1-.3-1.7-.8-2.3-.5-.5-1.3-.8-2.2-.8s-1.2,0-1.7.3c-.6.2-1.1.4-1.5.8l-2.1-1.5c.6-.7,1.3-1.2,2.2-1.6.9-.4,1.9-.6,3.1-.6s2.3.2,3.2.7c.9.4,1.5,1.1,2,1.9.5.8.7,1.8.7,3v9.6h-2.8v-9.4Z"
               id="path1" />
            <path
               d="M197.4,452.4c1.4-1.6,2.5-3.4,3.2-5.4.7-2,1.1-4.2,1.1-6.6s-.4-4.6-1.1-6.6c-.7-2-1.8-3.8-3.2-5.4l2-1.8c1.7,1.8,3,3.9,3.8,6.2.8,2.3,1.3,4.8,1.3,7.6s-.4,5.3-1.3,7.6c-.8,2.3-2.1,4.4-3.8,6.2l-2-1.8Z"
               id="path2" />
            <path
               d="M214.7,428.9h14.7v2.8h-14.7v-2.8ZM220.6,430.6h2.9v19.1h-2.9v-19.1Z"
               id="path3" />
            <path
               d="M231.4,428.9h2.9v20.8h-2.9v-20.8ZM240.4,440.7c0-1-.3-1.9-.8-2.4-.5-.6-1.3-.9-2.3-.9s-1.7.2-2.2.7-.8,1.2-.8,2.1l-.3-2.9c.5-.9,1.1-1.6,1.8-2,.7-.5,1.6-.7,2.5-.7,1.6,0,2.9.5,3.7,1.6.9,1.1,1.3,2.5,1.3,4.5v9h-2.9v-9Z"
               id="path4" />
            <path
               d="M250.3,449.2c-1-.5-1.7-1.3-2.2-2.3-.5-1-.8-2.2-.8-3.6v-1.7c0-1.5.2-2.7.7-3.8.5-1,1.2-1.8,2.1-2.4.9-.5,2.1-.8,3.4-.8s2.3.3,3.2.9c.9.6,1.5,1.5,2,2.7.5,1.2.7,2.6.7,4.2v1h-10v-2.3h7.2c0-1.2-.4-2.2-.9-2.8-.5-.7-1.3-1-2.2-1s-2,.4-2.6,1.1c-.6.7-.9,1.8-.9,3.1v1.9c0,1.2.3,2.2,1,2.8.6.7,1.6,1,2.8,1s1.2-.1,1.8-.4,1.1-.6,1.6-1l1.9,1.9c-.7.7-1.6,1.3-2.5,1.6-.9.4-1.8.6-2.8.6-1.4,0-2.5-.3-3.5-.8Z"
               id="path5" />
            <path
               d="M271.4,428.9h2.9v2.9h-2.9v-2.9ZM271.4,434.9h2.9v14.9h-2.9v-14.9Z"
               id="path6" />
            <path
               d="M280.7,449.3c-.8-.5-1.4-1.2-1.8-2.1-.4-.9-.6-2-.6-3.3v-3.3c0-1.3.2-2.4.6-3.3.4-.9,1-1.6,1.7-2.1s1.6-.7,2.7-.7,1.7.2,2.4.7,1.3,1.1,1.8,1.9l-.3,3c0-.6-.1-1.2-.3-1.6s-.6-.8-1-1c-.4-.2-1-.4-1.6-.4-1,0-1.7.3-2.2.9-.5.6-.8,1.4-.8,2.5v3.2c0,1.1.3,1.9.8,2.5.5.6,1.3.9,2.2.9s1.1-.1,1.6-.4.8-.6,1-1.1.3-1,.3-1.6l.2,3.1c-.3.7-.8,1.4-1.5,1.8-.7.5-1.5.7-2.5.7s-2-.2-2.8-.7ZM287.2,428.9h2.9v20.8h-2.9v-20.8Z"
               id="path7" />
            <path
               d="M297.1,449.2c-1-.5-1.7-1.3-2.2-2.3-.5-1-.8-2.2-.8-3.6v-1.7c0-1.5.2-2.7.7-3.8.5-1,1.2-1.8,2.1-2.4.9-.5,2.1-.8,3.4-.8s2.3.3,3.2.9c.9.6,1.5,1.5,2,2.7.5,1.2.7,2.6.7,4.2v1h-10v-2.3h7.2c0-1.2-.4-2.2-.9-2.8-.5-.7-1.3-1-2.2-1s-2,.4-2.6,1.1c-.6.7-.9,1.8-.9,3.1v1.9c0,1.2.3,2.2,1,2.8.6.7,1.6,1,2.8,1s1.2-.1,1.8-.4,1.1-.6,1.6-1l1.9,1.9c-.7.7-1.6,1.3-2.5,1.6-.9.4-1.8.6-2.8.6-1.4,0-2.5-.3-3.5-.8Z"
               id="path8" />
            <path
               d="M310.9,448.8c-.9-.8-1.4-1.9-1.4-3.5s.4-2.6,1.2-3.3c.8-.7,2.1-1.1,3.8-1.1h4.2l.2,2.3h-4.4c-.8,0-1.3.2-1.7.5-.4.3-.6.9-.6,1.6s.3,1.3.8,1.7c.5.4,1.3.5,2.3.5s2-.1,2.5-.4c.5-.2.8-.6.8-1.1l.3,2.1c-.3.4-.6.7-1,1-.4.3-.8.5-1.3.6s-1.1.2-1.7.2c-1.8,0-3.2-.4-4.1-1.1ZM318.7,440.3c0-1-.3-1.7-.8-2.3-.5-.5-1.3-.8-2.2-.8s-1.2,0-1.7.3c-.6.2-1.1.4-1.5.8l-2.1-1.5c.6-.7,1.3-1.2,2.2-1.6.9-.4,1.9-.6,3.1-.6s2.3.2,3.2.7c.9.4,1.5,1.1,2,1.9.5.8.7,1.8.7,3v9.6h-2.8v-9.4Z"
               id="path9" />
          </g>
        </g>
      </g>
      <line
         id="polyline3"
         class="cls-5"
         x1="798.3"
         y1="368"
         x2="798.3"
         y2="0" />
      <line
         id="polyline4"
         class="cls-4"
         x1="659.4"
         y1="368"
         x2="659.4"
         y2="0" />
      <line
         id="polyline5"
         class="cls-4"
         x1="937.3"
         y1="368"
         x2="937.3"
         y2="0" />
      <polyline
         id="polyline6"
         class="cls-2"
         points="613 351.2 616.7 351.2 620.4 351.1 624.2 351.1 627.8 351 631.6 350.8 635.3 350.7 639 350.4 642.7 350.2 646.4 349.8 650.1 349.3 653.8 348.8 657.5 348.1 661.2 347.2 664.9 346.1 668.6 344.7 672.3 343.1 676 341.1 679.7 338.7 683.4 335.9 687.1 332.6 690.8 328.7 694.6 324.1 698.3 318.9 702 312.9 705.7 306.1 709.4 298.4 713.1 289.8 716.8 280.2 720.5 269.7 724.2 258.3 727.9 245.9 731.6 232.7 735.3 218.6 739 203.9 742.7 188.5 746.4 172.6 750.1 156.5 753.8 140.3 757.5 124.2 761.2 108.4 765 93.1 768.7 78.7 772.4 65.3 776.1 53.1 779.8 42.5 783.5 33.4 787.2 26.2 790.9 21 794.6 17.8 798.3 16.7 802 17.8 805.7 21 809.4 26.2 813.1 33.4 816.8 42.5 820.5 53.1 824.2 65.3 828 78.7 831.7 93.1 835.4 108.4 839.1 124.2 842.8 140.3 846.5 156.5 850.2 172.6 853.9 188.5 857.6 203.9 861.3 218.6 865 232.7 868.7 245.9 872.4 258.3 876.1 269.7 879.8 280.2 883.5 289.8 887.2 298.4 890.9 306.1 894.6 312.9 898.4 318.9 902.1 324.1 905.8 328.7 909.5 332.6 913.2 335.9 916.9 338.7 920.6 341.1 924.3 343.1 928 344.7 931.7 346.1 935.4 347.2 939.1 348.1 942.8 348.8 946.5 349.3 950.2 349.8 953.9 350.2 957.6 350.4 961.4 350.7 965.1 350.8 968.8 351 972.5 351.1 976.2 351.1 979.9 351.2 983.6 351.2" />
      <line
         id="line6"
         class="cls-1"
         x1="659.4"
         y1="368"
         x2="659.4"
         y2="0" />
      <line
         id="line7"
         class="cls-1"
         x1="937.3"
         y1="368"
         x2="937.3"
         y2="0" />
      <line
         id="line8"
         class="cls-3"
         x1="752"
         y1="183.6"
         x2="844.6"
         y2="183.6" />
      <text
         id="text8"
         class="cls-6"
         transform="translate(635.6,402)"><tspan
           x="0"
           y="0"
           id="tspan9">LSL</tspan></text>
      <text
         id="text9"
         class="cls-6"
         transform="translate(917.9,402)"><tspan
           x="0"
           y="0"
           id="tspan10">USL</tspan></text>
      <g
         id="text12-8"
         class="cls-7">
        <g
           class="cls-7"
           id="g18">
          <path
             d="M728.3,428.9h2.9v20.8h-2.9v-20.8ZM732.5,449.3c-.7-.4-1.2-1.1-1.5-1.9l.2-3.1c0,.6.1,1.2.3,1.6.2.4.6.8,1,1,.4.2,1,.4,1.6.4,1,0,1.7-.3,2.2-.9.5-.6.8-1.4.8-2.5v-3.2c0-1.1-.3-1.9-.8-2.5s-1.3-.9-2.2-.9-1.1.1-1.6.3c-.4.2-.8.6-1,1-.2.4-.3,1-.3,1.6l-.3-2.9c.4-.9,1-1.5,1.8-2,.7-.5,1.5-.7,2.4-.7s1.9.2,2.7.7,1.3,1.2,1.7,2.1c.4.9.6,2,.6,3.3v3.2c0,1.3-.2,2.3-.6,3.2-.4.9-1,1.6-1.8,2.1s-1.7.7-2.8.7-1.7-.2-2.4-.7Z"
             id="path10" />
          <path
             d="M742.2,452.4c1.4-1.6,2.5-3.4,3.2-5.4.7-2,1.1-4.2,1.1-6.6s-.4-4.6-1.1-6.6c-.7-2-1.8-3.8-3.2-5.4l2-1.8c1.7,1.8,3,3.9,3.8,6.2.8,2.3,1.3,4.8,1.3,7.6s-.4,5.3-1.3,7.6c-.8,2.3-2.1,4.4-3.8,6.2l-2-1.8Z"
             id="path11" />
          <path
             d="M759.5,428.9h14.7v2.8h-14.7v-2.8ZM765.4,430.6h2.9v19.1h-2.9v-19.1Z"
             id="path12" />
          <path
             d="M776.2,428.9h2.9v20.8h-2.9v-20.8ZM785.2,440.7c0-1-.3-1.9-.8-2.4-.5-.6-1.3-.9-2.3-.9s-1.7.2-2.2.7-.8,1.2-.8,2.1l-.3-2.9c.5-.9,1.1-1.6,1.8-2,.7-.5,1.6-.7,2.5-.7,1.6,0,2.9.5,3.7,1.6.9,1.1,1.3,2.5,1.3,4.5v9h-2.9v-9Z"
             id="path13" />
          <path
             d="M795.1,449.2c-1-.5-1.7-1.3-2.2-2.3-.5-1-.8-2.2-.8-3.6v-1.7c0-1.5.2-2.7.7-3.8.5-1,1.2-1.8,2.1-2.4.9-.5,2.1-.8,3.4-.8s2.3.3,3.2.9c.9.6,1.5,1.5,2,2.7.5,1.2.7,2.6.7,4.2v1h-10v-2.3h7.2c0-1.2-.4-2.2-.9-2.8-.5-.7-1.3-1-2.2-1s-2,.4-2.6,1.1c-.6.7-.9,1.8-.9,3.1v1.9c0,1.2.3,2.2,1,2.8.6.7,1.6,1,2.8,1s1.2-.1,1.8-.4c.6-.2,1.1-.6,1.6-1l1.9,1.9c-.7.7-1.6,1.3-2.5,1.6s-1.8.6-2.8.6c-1.4,0-2.5-.3-3.5-.8Z"
             id="path14" />
          <path
             d="M818.1,449.3c-.8-.5-1.4-1.2-1.8-2.1-.4-.9-.6-2-.6-3.3v-3.3c0-1.3.2-2.4.6-3.3.4-.9,1-1.6,1.7-2.1s1.6-.7,2.7-.7,1.7.2,2.4.7,1.3,1.1,1.8,1.9l-.3,3c0-.6-.1-1.2-.3-1.6-.2-.4-.6-.8-1-1-.4-.2-1-.4-1.6-.4-1,0-1.7.3-2.2.9-.5.6-.8,1.4-.8,2.5v3.2c0,1.1.3,1.9.8,2.5.5.6,1.3.9,2.2.9s1.1-.1,1.6-.4.8-.6,1-1.1c.2-.5.3-1,.3-1.6l.2,3.1c-.3.7-.8,1.4-1.5,1.8-.7.5-1.5.7-2.5.7s-2-.2-2.8-.7ZM824.6,428.9h2.9v20.8h-2.9v-20.8Z"
             id="path15" />
          <path
             d="M832.6,448.8c-.9-.8-1.4-1.9-1.4-3.5s.4-2.6,1.2-3.3c.8-.7,2.1-1.1,3.8-1.1h4.2l.2,2.3h-4.4c-.8,0-1.3.2-1.7.5-.4.3-.6.9-.6,1.6s.3,1.3.8,1.7c.5.4,1.3.5,2.3.5s1.9-.1,2.5-.4c.5-.2.8-.6.8-1.1l.3,2.1c-.3.4-.6.7-1,1-.4.3-.8.5-1.3.6s-1.1.2-1.7.2c-1.8,0-3.2-.4-4.1-1.1ZM840.4,440.3c0-1-.3-1.7-.8-2.3-.5-.5-1.3-.8-2.2-.8s-1.2,0-1.7.3c-.6.2-1.1.4-1.5.8l-2.1-1.5c.6-.7,1.3-1.2,2.2-1.6.9-.4,1.9-.6,3.1-.6s2.3.2,3.2.7c.9.4,1.5,1.1,2,1.9.5.8.7,1.8.7,3v9.6h-2.8v-9.4Z"
             id="path16" />
          <path
             d="M846.5,434.9h6.7v2.6h-6.7v-2.6ZM848.8,448.8c-.6-.7-.8-1.6-.8-2.9v-15.3h2.9v15.4c0,.4,0,.6.2.8.1.2.4.3.6.3h1.4v2.8h-1.7c-1.2,0-2.1-.3-2.6-1Z"
             id="path17" />
          <path
             d="M857.8,448.8c-.9-.8-1.4-1.9-1.4-3.5s.4-2.6,1.2-3.3c.8-.7,2.1-1.1,3.8-1.1h4.2l.2,2.3h-4.4c-.8,0-1.3.2-1.7.5-.4.3-.6.9-.6,1.6s.3,1.3.8,1.7c.5.4,1.3.5,2.3.5s1.9-.1,2.5-.4c.5-.2.8-.6.8-1.1l.3,2.1c-.3.4-.6.7-1,1-.4.3-.8.5-1.3.6s-1.1.2-1.7.2c-1.8,0-3.2-.4-4.1-1.1ZM865.6,440.3c0-1-.3-1.7-.8-2.3-.5-.5-1.3-.8-2.2-.8s-1.2,0-1.7.3c-.6.2-1.1.4-1.5.8l-2.1-1.5c.6-.7,1.3-1.2,2.2-1.6.9-.4,1.9-.6,3.1-.6s2.3.2,3.2.7c.9.4,1.5,1.1,2,1.9.5.8.7,1.8.7,3v9.6h-2.8v-9.4Z"
             id="path18" />
        </g>
      </g>
    </g>
  </g>
</svg>
