<?xml version="1.0" encoding="UTF-8" standalone="no"?>
<!-- Created with Inkscape (http://www.inkscape.org/) -->

<svg
   width="790.57819"
   height="639.11829"
   viewBox="0 0 209.1738 169.10004"
   version="1.1"
   id="svg5"
   inkscape:version="1.3.2 (091e20e, 2023-11-25, custom)"
   sodipodi:docname="knn.svg"
   xml:space="preserve"
   inkscape:export-filename="002_ProductionStatistics.png"
   inkscape:export-xdpi="96"
   inkscape:export-ydpi="96"
   xmlns:inkscape="http://www.inkscape.org/namespaces/inkscape"
   xmlns:sodipodi="http://sodipodi.sourceforge.net/DTD/sodipodi-0.dtd"
   xmlns:xlink="http://www.w3.org/1999/xlink"
   xmlns="http://www.w3.org/2000/svg"
   xmlns:svg="http://www.w3.org/2000/svg"><sodipodi:namedview
     id="namedview7"
     pagecolor="#ffffff"
     bordercolor="#666666"
     borderopacity="1.0"
     inkscape:showpageshadow="2"
     inkscape:pageopacity="0.0"
     inkscape:pagecheckerboard="0"
     inkscape:deskcolor="#d1d1d1"
     inkscape:document-units="mm"
     showgrid="false"
     inkscape:zoom="0.72515434"
     inkscape:cx="402.6729"
     inkscape:cy="286.14598"
     inkscape:window-width="1920"
     inkscape:window-height="1017"
     inkscape:window-x="3832"
     inkscape:window-y="281"
     inkscape:window-maximized="1"
     inkscape:current-layer="svg5" /><defs
     id="defs2"><inkscape:path-effect
       effect="bspline"
       id="path-effect4"
       is_visible="true"
       lpeversion="1.3"
       weight="33.333333"
       steps="2"
       helper_size="0"
       apply_no_weight="true"
       apply_with_weight="true"
       only_selected="false"
       uniform="false" /><marker
       style="overflow:visible"
       id="ConcaveTriangle"
       refX="0"
       refY="0"
       orient="auto-start-reverse"
       inkscape:stockid="Concave triangle arrow"
       markerWidth="1"
       markerHeight="1"
       viewBox="0 0 1 1"
       inkscape:isstock="true"
       inkscape:collect="always"
       preserveAspectRatio="xMidYMid"><path
         transform="scale(0.7)"
         d="M -2,-4 9,0 -2,4 c 2,-2.33 2,-5.66 0,-8 z"
         style="fill:context-stroke;fill-rule:evenodd;stroke:none"
         id="path7" /></marker><inkscape:path-effect
       effect="bspline"
       id="path-effect1"
       is_visible="true"
       lpeversion="1.3"
       weight="33.333333"
       steps="2"
       helper_size="0"
       apply_no_weight="true"
       apply_with_weight="true"
       only_selected="false"
       uniform="false" /><inkscape:path-effect
       effect="bspline"
       id="path-effect1841"
       is_visible="true"
       lpeversion="1"
       weight="33.333333"
       steps="2"
       helper_size="0"
       apply_no_weight="true"
       apply_with_weight="true"
       only_selected="false"
       uniform="false" /><inkscape:path-effect
       effect="bspline"
       id="path-effect1811"
       is_visible="true"
       lpeversion="1"
       weight="33.333333"
       steps="2"
       helper_size="0"
       apply_no_weight="true"
       apply_with_weight="true"
       only_selected="false"
       uniform="false" /><linearGradient
       id="linearGradient6703"><stop
         style="stop-color:#000000;stop-opacity:1.0000000;"
         offset="0.0000000"
         id="stop6704" /><stop
         style="stop-color:#7f7f7f;stop-opacity:1.0000000;"
         offset="0.50000000"
         id="stop6705" /><stop
         style="stop-color:#ffffff;stop-opacity:1.0000000;"
         offset="1.0000000"
         id="stop6706" /></linearGradient><linearGradient
       id="linearGradient879"><stop
         style="stop-color:#c3c3c3;stop-opacity:0.54918033;"
         offset="0.0000000"
         id="stop880" /><stop
         style="stop-color:#d4e1e4;stop-opacity:1.0000000;"
         offset="0.50000000"
         id="stop884" /><stop
         style="stop-color:#ddf0f0;stop-opacity:0.59016395;"
         offset="1.0000000"
         id="stop881" /></linearGradient><linearGradient
       x1="1453.8076"
       y1="384.45895"
       x2="1583.5951"
       y2="383.24872"
       id="linearGradient882"
       xlink:href="#linearGradient879"
       gradientTransform="scale(0.55994156,1.7859006)"
       gradientUnits="userSpaceOnUse" /><linearGradient
       x1="568.58307"
       y1="1189.8646"
       x2="567.13934"
       y2="1038.1013"
       id="linearGradient883"
       xlink:href="#linearGradient879"
       spreadMethod="pad"
       gradientTransform="scale(1.4640424,0.68304032)"
       gradientUnits="userSpaceOnUse" /><clipPath
       id="clip0_525_147"><rect
         width="24"
         height="24"
         fill="#ffffff"
         id="rect26341"
         x="0"
         y="0" /></clipPath><style
       id="style4881">.cls-1{fill:none;stroke:#020202;stroke-miterlimit:10;stroke-width:1.91px;}</style><clipPath
       clipPathUnits="userSpaceOnUse"
       id="clipPath2471"><path
         d="M 0,0 H 56.693 V 272.126 H 0 Z"
         id="path2469" /></clipPath><linearGradient
       x1="0"
       y1="0"
       x2="0"
       y2="272.12964"
       gradientUnits="userSpaceOnUse"
       id="linearGradient2477"
       gradientTransform="matrix(2.3384702,0,0,2.3384702,753.59705,-989.93593)"><stop
         style="stop-opacity:1;stop-color:#ebebf7"
         offset="0"
         id="stop2473" /><stop
         style="stop-opacity:1;stop-color:#ccccec"
         offset="1"
         id="stop2475" /></linearGradient><clipPath
       clipPathUnits="userSpaceOnUse"
       id="clipPath2719"><path
         d="m -17.00807,-24.09476 v 9.92137 h 34.01614 v -9.92137 z"
         id="path2717" /></clipPath><clipPath
       clipPathUnits="userSpaceOnUse"
       id="clipPath2743"><path
         d="m 209.76639,-26.92943 v 9.92137 h 34.01616 v -9.92137 z"
         id="path2741" /></clipPath><clipPath
       clipPathUnits="userSpaceOnUse"
       id="clipPath3023"><path
         d="m -17.00807,-24.09476 v 9.92137 h 34.01614 v -9.92137 z"
         id="path3021" /></clipPath><clipPath
       clipPathUnits="userSpaceOnUse"
       id="clipPath3043"><path
         d="m 209.76639,-24.09476 v 9.92137 h 34.01616 v -9.92137 z"
         id="path3041" /></clipPath><clipPath
       clipPathUnits="userSpaceOnUse"
       id="clipPath9141"><path
         d="m -17.00807,-24.09476 v 9.92137 h 34.01614 v -9.92137 z"
         id="path9139" /></clipPath><clipPath
       clipPathUnits="userSpaceOnUse"
       id="clipPath9165"><path
         d="m 209.76639,-26.92943 v 9.92137 h 34.01616 v -9.92137 z"
         id="path9163" /></clipPath><clipPath
       clipPathUnits="userSpaceOnUse"
       id="clipPath11751"><g
         id="g11755"><path
           d="m 753.59705,-989.93593 h 132.57489 v 636.35854 H 753.59705 Z"
           id="path11753"
           style="stroke-width:2.33847" /></g></clipPath><inkscape:path-effect
       effect="bspline"
       id="path-effect638"
       is_visible="true"
       lpeversion="1"
       weight="33.333333"
       steps="2"
       helper_size="0"
       apply_no_weight="true"
       apply_with_weight="true"
       only_selected="false"
       uniform="false" /><inkscape:path-effect
       effect="bspline"
       id="path-effect638-2"
       is_visible="true"
       lpeversion="1"
       weight="33.333333"
       steps="2"
       helper_size="0"
       apply_no_weight="true"
       apply_with_weight="true"
       only_selected="false"
       uniform="false" /><inkscape:path-effect
       effect="bspline"
       id="path-effect1867"
       is_visible="true"
       lpeversion="1"
       weight="33.333333"
       steps="2"
       helper_size="0"
       apply_no_weight="true"
       apply_with_weight="true"
       only_selected="false"
       uniform="false" /><inkscape:path-effect
       effect="bspline"
       id="path-effect1883"
       is_visible="true"
       lpeversion="1"
       weight="33.333333"
       steps="2"
       helper_size="0"
       apply_no_weight="true"
       apply_with_weight="true"
       only_selected="false"
       uniform="false" /><inkscape:path-effect
       effect="bspline"
       id="path-effect1899"
       is_visible="true"
       lpeversion="1"
       weight="33.333333"
       steps="2"
       helper_size="0"
       apply_no_weight="true"
       apply_with_weight="true"
       only_selected="false"
       uniform="false" /><inkscape:path-effect
       effect="bspline"
       id="path-effect1915"
       is_visible="true"
       lpeversion="1"
       weight="33.333333"
       steps="2"
       helper_size="0"
       apply_no_weight="true"
       apply_with_weight="true"
       only_selected="false"
       uniform="false" /><clipPath
       id="clipPath4348">
      <path
   clip-rule="nonzero"
   d="M 81,2 H 97 V 18.511719 H 81 Z m 0,0"
   id="path5274" />
    </clipPath><inkscape:path-effect
       effect="bspline"
       id="path-effect1811-0"
       is_visible="true"
       lpeversion="1"
       weight="33.333333"
       steps="2"
       helper_size="0"
       apply_no_weight="true"
       apply_with_weight="true"
       only_selected="false"
       uniform="false" /><inkscape:path-effect
       effect="bspline"
       id="path-effect1841-0"
       is_visible="true"
       lpeversion="1"
       weight="33.333333"
       steps="2"
       helper_size="0"
       apply_no_weight="true"
       apply_with_weight="true"
       only_selected="false"
       uniform="false" /><inkscape:path-effect
       effect="bspline"
       id="path-effect1841-0-0"
       is_visible="true"
       lpeversion="1"
       weight="33.333333"
       steps="2"
       helper_size="0"
       apply_no_weight="true"
       apply_with_weight="true"
       only_selected="false"
       uniform="false" /><marker
       style="overflow:visible"
       id="ConcaveTriangle-7"
       refX="0"
       refY="0"
       orient="auto-start-reverse"
       inkscape:stockid="Concave triangle arrow"
       markerWidth="1"
       markerHeight="1"
       viewBox="0 0 1 1"
       inkscape:isstock="true"
       inkscape:collect="always"
       preserveAspectRatio="xMidYMid"><path
         transform="scale(0.7)"
         d="M -2,-4 9,0 -2,4 c 2,-2.33 2,-5.66 0,-8 z"
         style="fill:context-stroke;fill-rule:evenodd;stroke:none"
         id="path7-3" /></marker><inkscape:path-effect
       effect="bspline"
       id="path-effect1-3"
       is_visible="true"
       lpeversion="1.3"
       weight="33.333333"
       steps="2"
       helper_size="0"
       apply_no_weight="true"
       apply_with_weight="true"
       only_selected="false"
       uniform="false" /><marker
       style="overflow:visible"
       id="ConcaveTriangle-2"
       refX="0"
       refY="0"
       orient="auto-start-reverse"
       inkscape:stockid="Concave triangle arrow"
       markerWidth="1"
       markerHeight="1"
       viewBox="0 0 1 1"
       inkscape:isstock="true"
       inkscape:collect="always"
       preserveAspectRatio="xMidYMid"><path
         transform="scale(0.7)"
         d="M -2,-4 9,0 -2,4 c 2,-2.33 2,-5.66 0,-8 z"
         style="fill:context-stroke;fill-rule:evenodd;stroke:none"
         id="path7-5" /></marker><inkscape:path-effect
       effect="bspline"
       id="path-effect4-0"
       is_visible="true"
       lpeversion="1.3"
       weight="33.333333"
       steps="2"
       helper_size="0"
       apply_no_weight="true"
       apply_with_weight="true"
       only_selected="false"
       uniform="false" /></defs><g
     id="knn5"
     transform="translate(34.297296)"><circle
       style="fill:#b5b5b5;fill-opacity:0.472028;stroke:none;stroke-width:1.57174;stroke-dasharray:none;stroke-dashoffset:0;stroke-opacity:1"
       id="path3-6"
       cx="84.357346"
       cy="87.804031"
       r="46.640724" /><text
       xml:space="preserve"
       style="font-style:normal;font-variant:normal;font-weight:normal;font-stretch:normal;font-size:11.2889px;line-height:8.27312px;font-family:Bahnschrift;-inkscape-font-specification:'Bahnschrift, Normal';font-variant-ligatures:normal;font-variant-caps:normal;font-variant-numeric:normal;font-variant-east-asian:normal;fill:#b5b5b5;fill-opacity:0.472028;stroke:none;stroke-width:1;stroke-dasharray:none;stroke-dashoffset:0;stroke-opacity:1"
       x="112.6243"
       y="21.162161"
       id="text3-5"><tspan
         sodipodi:role="line"
         id="tspan3-1"
         style="fill:#000000;fill-opacity:1;stroke-width:1"
         x="112.6243"
         y="21.162161">knn = 5</tspan></text><path
       style="fill:#000000;fill-opacity:1;stroke:#000000;stroke-width:1;stroke-dasharray:none;stroke-dashoffset:0;stroke-opacity:1;marker-end:url(#ConcaveTriangle-2)"
       d="M 68.047294,20.979728 C 61.236483,32.777027 54.425674,44.574322 47.614864,56.371619"
       id="path4-7"
       inkscape:path-effect="#path-effect4-0"
       inkscape:original-d="M 68.047294,20.979728 C 61.236483,32.777027 54.425674,44.574322 47.614864,56.371619"
       sodipodi:nodetypes="cc"
       transform="translate(65.283471,2.6055137)" /></g><path
     style="font-variation-settings:'wght' 700;fill:none;stroke:#000000;stroke-width:1;stroke-dasharray:none;stroke-dashoffset:0;stroke-opacity:1;marker-end:url(#ConcaveTriangle)"
     d="m 58.378375,150.68918 c 51.567565,0 103.135135,0 154.702695,0"
     id="path1"
     inkscape:path-effect="#path-effect1"
     inkscape:original-d="m 58.378375,150.68918 c 51.567565,0 103.135135,0 154.702695,0"
     transform="translate(-15.901036,7.51351)" /><path
     style="font-variation-settings:'wght' 700;fill:none;stroke:#000000;stroke-width:1;stroke-dasharray:none;stroke-dashoffset:0;stroke-opacity:1;marker-end:url(#ConcaveTriangle-7)"
     d="m 58.378375,150.68918 c 51.567565,0 103.135135,0 154.702695,0"
     id="path1-7"
     inkscape:path-effect="#path-effect1-3"
     inkscape:original-d="m 58.378375,150.68918 c 51.567565,0 103.135135,0 154.702695,0"
     transform="rotate(-90,56.984614,162.39645)" /><g
     id="features"
     inkscape:label="features"
     transform="translate(-15.901036,-10.000003)"><text
       xml:space="preserve"
       style="font-size:6.35px;line-height:8.27312px;font-family:Bahnschrift;-inkscape-font-specification:'Bahnschrift, @wght=700';font-variation-settings:'wght' 700;fill:none;stroke:#000000;stroke-width:1;stroke-dasharray:none;stroke-dashoffset:0;stroke-opacity:1"
       x="117.94179"
       y="179.01736"
       id="text1"><tspan
         sodipodi:role="line"
         id="tspan1"
         style="font-style:normal;font-variant:normal;font-weight:normal;font-stretch:normal;font-size:11.2889px;font-family:Bahnschrift;-inkscape-font-specification:'Bahnschrift, Normal';font-variant-ligatures:normal;font-variant-caps:normal;font-variant-numeric:normal;font-variant-east-asian:normal;fill:#000000;fill-opacity:1;stroke:none;stroke-width:1"
         x="117.94179"
         y="179.01736">feature 1</tspan></text><text
       xml:space="preserve"
       style="font-size:6.35px;line-height:8.27312px;font-family:Bahnschrift;-inkscape-font-specification:'Bahnschrift, @wght=700';font-variation-settings:'wght' 700;fill:none;stroke:#000000;stroke-width:1;stroke-dasharray:none;stroke-dashoffset:0;stroke-opacity:1"
       x="-112.23579"
       y="58.295692"
       id="text1-0"
       transform="rotate(-90)"><tspan
         sodipodi:role="line"
         id="tspan1-8"
         style="font-style:normal;font-variant:normal;font-weight:normal;font-stretch:normal;font-size:11.2889px;font-family:Bahnschrift;-inkscape-font-specification:'Bahnschrift, Normal';font-variant-ligatures:normal;font-variant-caps:normal;font-variant-numeric:normal;font-variant-east-asian:normal;fill:#000000;fill-opacity:1;stroke:none;stroke-width:1"
         x="-112.23579"
         y="58.295692">feature 2</tspan></text></g><g
     id="knn3"
     inkscape:label="knn3"
     transform="translate(34.297296)"><circle
       style="fill:#b5b5b5;fill-opacity:0.472028;stroke:none;stroke-width:1;stroke-dasharray:none;stroke-dashoffset:0;stroke-opacity:1"
       id="path3"
       cx="84.357346"
       cy="87.804031"
       r="29.674505" /><text
       xml:space="preserve"
       style="font-style:normal;font-variant:normal;font-weight:normal;font-stretch:normal;font-size:11.2889px;line-height:8.27312px;font-family:Bahnschrift;-inkscape-font-specification:'Bahnschrift, Normal';font-variant-ligatures:normal;font-variant-caps:normal;font-variant-numeric:normal;font-variant-east-asian:normal;fill:#b5b5b5;fill-opacity:0.472028;stroke:none;stroke-width:1;stroke-dasharray:none;stroke-dashoffset:0;stroke-opacity:1"
       x="29.918921"
       y="21.162161"
       id="text3"><tspan
         sodipodi:role="line"
         id="tspan3"
         style="fill:#000000;fill-opacity:1;stroke-width:1"
         x="29.918921"
         y="21.162161">knn = 3</tspan></text><path
       style="fill:#000000;fill-opacity:1;stroke:#000000;stroke-width:1;stroke-dasharray:none;stroke-dashoffset:0;stroke-opacity:1;marker-end:url(#ConcaveTriangle)"
       d="M 45.790538,24.263512 C 51.14189,41.777027 56.493241,59.290538 61.844593,76.804051"
       id="path4"
       inkscape:path-effect="#path-effect4"
       inkscape:original-d="M 45.790538,24.263512 C 51.14189,41.777027 56.493241,59.290538 61.844593,76.804051"
       sodipodi:nodetypes="cc" /></g><path
     d="m 124.11071,82.065363 -10.91213,11.477334 m 10e-6,-11.477334 10.91212,11.477334"
     stroke="#000000"
     stroke-width="1.5"
     stroke-linecap="round"
     stroke-linejoin="round"
     id="newdata"
     style="fill:none;stroke-width:2;stroke-dasharray:none"
     inkscape:label="newdata" /><g
     id="cluster01"
     inkscape:label="cluster01"
     transform="translate(-15.901036,-10.000003)"><path
       d="m 102.68501,126.90224 4.17226,-8.23533 c 0.30167,-0.59556 0.45257,-0.89334 0.6538,-0.9907 0.17531,-0.0848 0.37739,-0.0848 0.55269,0 0.2013,0.0974 0.35213,0.39514 0.65387,0.99069 l 4.1722,8.23534 c 0.2699,0.53274 0.40488,0.79911 0.37758,1.01647 -0.0238,0.18966 -0.12214,0.3604 -0.27141,0.47114 -0.17102,0.12681 -0.45948,0.12681 -1.03632,0.12681 h -8.34448 c -0.57685,0 -0.86528,0 -1.03631,-0.12681 -0.14927,-0.11074 -0.24765,-0.28149 -0.27146,-0.47114 -0.0273,-0.21736 0.10767,-0.48373 0.37758,-1.01647 z"
       stroke="#000000"
       stroke-width="0.6315"
       stroke-linecap="round"
       stroke-linejoin="round"
       id="path1-2"
       style="fill:none;stroke-width:2;stroke-dasharray:none" /><path
       d="m 125.55264,138.49801 4.17226,-8.23533 c 0.30167,-0.59556 0.45258,-0.89334 0.6538,-0.9907 0.17532,-0.0848 0.37739,-0.0848 0.5527,0 0.20129,0.0974 0.35213,0.39514 0.65387,0.99069 l 4.17219,8.23534 c 0.2699,0.53274 0.40489,0.79911 0.37759,1.01647 -0.0238,0.18966 -0.12215,0.3604 -0.27142,0.47114 -0.17102,0.12681 -0.45948,0.12681 -1.03632,0.12681 h -8.34447 c -0.57686,0 -0.86528,0 -1.03632,-0.12681 -0.14927,-0.11074 -0.24764,-0.28149 -0.27145,-0.47114 -0.0273,-0.21736 0.10767,-0.48373 0.37757,-1.01647 z"
       stroke="#000000"
       stroke-width="0.6315"
       stroke-linecap="round"
       stroke-linejoin="round"
       id="path1-2-5"
       style="fill:none;stroke-width:2;stroke-dasharray:none" /><path
       d="m 88.942116,154.50957 4.172259,-8.23533 c 0.301673,-0.59556 0.452578,-0.89334 0.653802,-0.9907 0.175313,-0.0848 0.377389,-0.0848 0.552696,0 0.201293,0.0974 0.352129,0.39514 0.65387,0.99069 l 4.172193,8.23534 c 0.269901,0.53274 0.404885,0.79911 0.377585,1.01647 -0.02381,0.18966 -0.122146,0.3604 -0.271414,0.47114 -0.171021,0.12681 -0.459483,0.12681 -1.036321,0.12681 h -8.344474 c -0.576857,0 -0.865283,0 -1.036316,-0.12681 -0.149271,-0.11074 -0.247647,-0.28149 -0.271453,-0.47114 -0.02727,-0.21736 0.107667,-0.48373 0.377573,-1.01647 z"
       stroke="#000000"
       stroke-width="0.6315"
       stroke-linecap="round"
       stroke-linejoin="round"
       id="path1-2-54"
       style="fill:none;stroke-width:2;stroke-dasharray:none" /><path
       d="m 72.745271,107.94515 4.17226,-8.235328 c 0.30167,-0.59555 0.45258,-0.89334 0.6538,-0.9907 0.17532,-0.0848 0.37739,-0.0848 0.5527,0 0.20129,0.0974 0.35213,0.39515 0.65387,0.9907 l 4.17219,8.235328 c 0.2699,0.53274 0.40489,0.79911 0.37759,1.01647 -0.0238,0.18966 -0.12215,0.3604 -0.27142,0.47114 -0.17102,0.12682 -0.45948,0.12682 -1.03632,0.12682 h -8.34447 c -0.57686,0 -0.86528,0 -1.03632,-0.12682 -0.14927,-0.11074 -0.24764,-0.28149 -0.27145,-0.47114 -0.0273,-0.21736 0.10767,-0.48373 0.37757,-1.01647 z"
       stroke="#000000"
       stroke-width="0.6315"
       stroke-linecap="round"
       stroke-linejoin="round"
       id="path1-2-7"
       style="fill:none;stroke-width:2;stroke-dasharray:none" /><path
       d="m 75.158276,90.6362 4.172259,-8.23533 c 0.301673,-0.595559 0.452578,-0.893342 0.653802,-0.9907 0.175313,-0.0848 0.377389,-0.0848 0.552696,0 0.201293,0.09736 0.352129,0.395141 0.65387,0.990693 l 4.172193,8.235337 c 0.269901,0.532739 0.404885,0.799108 0.377585,1.016464 -0.02381,0.189665 -0.122146,0.360405 -0.271414,0.471147 -0.171021,0.126813 -0.459483,0.126813 -1.036321,0.126813 h -8.344474 c -0.576857,0 -0.865283,0 -1.036316,-0.126813 -0.149271,-0.110747 -0.247647,-0.281493 -0.271453,-0.471147 -0.02727,-0.217356 0.107667,-0.483725 0.377573,-1.016464 z"
       stroke="#000000"
       stroke-width="0.6315"
       stroke-linecap="round"
       stroke-linejoin="round"
       id="path1-2-3"
       style="fill:none;stroke-width:2;stroke-dasharray:none" /><path
       d="m 155.16897,146.53581 4.17226,-8.23533 c 0.30167,-0.59556 0.45257,-0.89334 0.6538,-0.9907 0.17531,-0.0848 0.37739,-0.0848 0.55269,0 0.2013,0.0974 0.35213,0.39514 0.65387,0.99069 l 4.1722,8.23534 c 0.2699,0.53274 0.40488,0.79911 0.37758,1.01647 -0.0238,0.18966 -0.12215,0.3604 -0.27141,0.47114 -0.17102,0.12681 -0.45949,0.12681 -1.03632,0.12681 h -8.34448 c -0.57686,0 -0.86528,0 -1.03631,-0.12681 -0.14928,-0.11074 -0.24765,-0.28149 -0.27146,-0.47114 -0.0273,-0.21736 0.10767,-0.48373 0.37758,-1.01647 z"
       stroke="#000000"
       stroke-width="0.6315"
       stroke-linecap="round"
       stroke-linejoin="round"
       id="path1-2-2"
       style="fill:none;stroke-width:2;stroke-dasharray:none" /><path
       d="m 136.13823,119.52055 4.17226,-8.23533 c 0.30167,-0.59556 0.45258,-0.89334 0.6538,-0.9907 0.17531,-0.0848 0.37739,-0.0848 0.5527,0 0.20129,0.0974 0.35213,0.39514 0.65387,0.99069 l 4.17219,8.23534 c 0.2699,0.53274 0.40489,0.79911 0.37759,1.01646 -0.0238,0.18967 -0.12215,0.36041 -0.27142,0.47115 -0.17102,0.12681 -0.45948,0.12681 -1.03632,0.12681 h -8.34447 c -0.57686,0 -0.86529,0 -1.03632,-0.12681 -0.14927,-0.11075 -0.24765,-0.28149 -0.27145,-0.47115 -0.0273,-0.21735 0.10767,-0.48372 0.37757,-1.01646 z"
       stroke="#000000"
       stroke-width="0.6315"
       stroke-linecap="round"
       stroke-linejoin="round"
       id="path1-2-9"
       style="fill:none;stroke-width:2;stroke-dasharray:none" /></g><g
     id="cluster02"
     inkscape:label="cluster02"
     transform="translate(-15.901036,-10.000003)"><ellipse
       style="fill:none;fill-opacity:1;stroke:#000000;stroke-width:2;stroke-dasharray:none;stroke-dashoffset:0;stroke-opacity:1"
       id="path2"
       cx="188.17567"
       cy="105.16892"
       rx="5.8363843"
       ry="5.8363853" /><ellipse
       style="fill:none;fill-opacity:1;stroke:#000000;stroke-width:2;stroke-dasharray:none;stroke-dashoffset:0;stroke-opacity:1"
       id="path2-8"
       cx="122.71764"
       cy="80.744659"
       rx="5.8363843"
       ry="5.8363853" /><ellipse
       style="fill:none;fill-opacity:1;stroke:#000000;stroke-width:2;stroke-dasharray:none;stroke-dashoffset:0;stroke-opacity:1"
       id="path2-7"
       cx="155.54298"
       cy="90.107605"
       rx="5.8363843"
       ry="5.8363853" /><ellipse
       style="fill:none;fill-opacity:1;stroke:#000000;stroke-width:2;stroke-dasharray:none;stroke-dashoffset:0;stroke-opacity:1"
       id="path2-4"
       cx="183.04889"
       cy="65.573883"
       rx="5.8363843"
       ry="5.8363853" /><ellipse
       style="fill:none;fill-opacity:1;stroke:#000000;stroke-width:2;stroke-dasharray:none;stroke-dashoffset:0;stroke-opacity:1"
       id="path2-5"
       cx="154.64668"
       cy="49.963467"
       rx="5.8363843"
       ry="5.8363853" /><ellipse
       style="fill:none;fill-opacity:1;stroke:#000000;stroke-width:2;stroke-dasharray:none;stroke-dashoffset:0;stroke-opacity:1"
       id="path2-87"
       cx="115.92574"
       cy="47.044548"
       rx="5.8363843"
       ry="5.8363853" /><ellipse
       style="fill:none;fill-opacity:1;stroke:#000000;stroke-width:2;stroke-dasharray:none;stroke-dashoffset:0;stroke-opacity:1"
       id="path2-42"
       cx="183.05739"
       cy="128.51695"
       rx="5.8363843"
       ry="5.8363853" /><ellipse
       style="fill:none;fill-opacity:1;stroke:#000000;stroke-width:2;stroke-dasharray:none;stroke-dashoffset:0;stroke-opacity:1"
       id="path2-40"
       cx="218.23846"
       cy="85.417633"
       rx="5.8363843"
       ry="5.8363853" /></g></svg>
