<?xml version="1.0" encoding="UTF-8" standalone="no"?>
<!-- Created with Inkscape (http://www.inkscape.org/) -->

<svg
   width="715.88116"
   height="506.78662"
   viewBox="0 0 189.41022 134.08729"
   version="1.1"
   id="svg5"
   inkscape:version="1.3.2 (091e20e, 2023-11-25, custom)"
   sodipodi:docname="chi_question.svg"
   xml:space="preserve"
   inkscape:export-filename="002_ProductionStatistics.png"
   inkscape:export-xdpi="96"
   inkscape:export-ydpi="96"
   xmlns:inkscape="http://www.inkscape.org/namespaces/inkscape"
   xmlns:sodipodi="http://sodipodi.sourceforge.net/DTD/sodipodi-0.dtd"
   xmlns:xlink="http://www.w3.org/1999/xlink"
   xmlns="http://www.w3.org/2000/svg"
   xmlns:svg="http://www.w3.org/2000/svg"><sodipodi:namedview
     id="namedview7"
     pagecolor="#ffffff"
     bordercolor="#666666"
     borderopacity="1.0"
     inkscape:showpageshadow="2"
     inkscape:pageopacity="0.0"
     inkscape:pagecheckerboard="0"
     inkscape:deskcolor="#d1d1d1"
     inkscape:document-units="mm"
     showgrid="false"
     inkscape:zoom="0.72515434"
     inkscape:cx="111.70036"
     inkscape:cy="192.37284"
     inkscape:window-width="1920"
     inkscape:window-height="1017"
     inkscape:window-x="3832"
     inkscape:window-y="1300"
     inkscape:window-maximized="1"
     inkscape:current-layer="svg5" /><defs
     id="defs2"><inkscape:path-effect
       effect="bspline"
       id="path-effect1841"
       is_visible="true"
       lpeversion="1"
       weight="33.333333"
       steps="2"
       helper_size="0"
       apply_no_weight="true"
       apply_with_weight="true"
       only_selected="false"
       uniform="false" /><inkscape:path-effect
       effect="bspline"
       id="path-effect1811"
       is_visible="true"
       lpeversion="1"
       weight="33.333333"
       steps="2"
       helper_size="0"
       apply_no_weight="true"
       apply_with_weight="true"
       only_selected="false"
       uniform="false" /><linearGradient
       id="linearGradient6703"><stop
         style="stop-color:#000000;stop-opacity:1.0000000;"
         offset="0.0000000"
         id="stop6704" /><stop
         style="stop-color:#7f7f7f;stop-opacity:1.0000000;"
         offset="0.50000000"
         id="stop6705" /><stop
         style="stop-color:#ffffff;stop-opacity:1.0000000;"
         offset="1.0000000"
         id="stop6706" /></linearGradient><linearGradient
       id="linearGradient879"><stop
         style="stop-color:#c3c3c3;stop-opacity:0.54918033;"
         offset="0.0000000"
         id="stop880" /><stop
         style="stop-color:#d4e1e4;stop-opacity:1.0000000;"
         offset="0.50000000"
         id="stop884" /><stop
         style="stop-color:#ddf0f0;stop-opacity:0.59016395;"
         offset="1.0000000"
         id="stop881" /></linearGradient><linearGradient
       x1="1453.8076"
       y1="384.45895"
       x2="1583.5951"
       y2="383.24872"
       id="linearGradient882"
       xlink:href="#linearGradient879"
       gradientTransform="scale(0.55994156,1.7859006)"
       gradientUnits="userSpaceOnUse" /><linearGradient
       x1="568.58307"
       y1="1189.8646"
       x2="567.13934"
       y2="1038.1013"
       id="linearGradient883"
       xlink:href="#linearGradient879"
       spreadMethod="pad"
       gradientTransform="scale(1.4640424,0.68304032)"
       gradientUnits="userSpaceOnUse" /><clipPath
       id="clip0_525_147"><rect
         width="24"
         height="24"
         fill="#ffffff"
         id="rect26341"
         x="0"
         y="0" /></clipPath><style
       id="style4881">.cls-1{fill:none;stroke:#020202;stroke-miterlimit:10;stroke-width:1.91px;}</style><clipPath
       clipPathUnits="userSpaceOnUse"
       id="clipPath2471"><path
         d="M 0,0 H 56.693 V 272.126 H 0 Z"
         id="path2469" /></clipPath><linearGradient
       x1="0"
       y1="0"
       x2="0"
       y2="272.12964"
       gradientUnits="userSpaceOnUse"
       id="linearGradient2477"
       gradientTransform="matrix(2.3384702,0,0,2.3384702,753.59705,-989.93593)"><stop
         style="stop-opacity:1;stop-color:#ebebf7"
         offset="0"
         id="stop2473" /><stop
         style="stop-opacity:1;stop-color:#ccccec"
         offset="1"
         id="stop2475" /></linearGradient><clipPath
       clipPathUnits="userSpaceOnUse"
       id="clipPath2719"><path
         d="m -17.00807,-24.09476 v 9.92137 h 34.01614 v -9.92137 z"
         id="path2717" /></clipPath><clipPath
       clipPathUnits="userSpaceOnUse"
       id="clipPath2743"><path
         d="m 209.76639,-26.92943 v 9.92137 h 34.01616 v -9.92137 z"
         id="path2741" /></clipPath><clipPath
       clipPathUnits="userSpaceOnUse"
       id="clipPath3023"><path
         d="m -17.00807,-24.09476 v 9.92137 h 34.01614 v -9.92137 z"
         id="path3021" /></clipPath><clipPath
       clipPathUnits="userSpaceOnUse"
       id="clipPath3043"><path
         d="m 209.76639,-24.09476 v 9.92137 h 34.01616 v -9.92137 z"
         id="path3041" /></clipPath><clipPath
       clipPathUnits="userSpaceOnUse"
       id="clipPath9141"><path
         d="m -17.00807,-24.09476 v 9.92137 h 34.01614 v -9.92137 z"
         id="path9139" /></clipPath><clipPath
       clipPathUnits="userSpaceOnUse"
       id="clipPath9165"><path
         d="m 209.76639,-26.92943 v 9.92137 h 34.01616 v -9.92137 z"
         id="path9163" /></clipPath><clipPath
       clipPathUnits="userSpaceOnUse"
       id="clipPath11751"><g
         id="g11755"><path
           d="m 753.59705,-989.93593 h 132.57489 v 636.35854 H 753.59705 Z"
           id="path11753"
           style="stroke-width:2.33847" /></g></clipPath><inkscape:path-effect
       effect="bspline"
       id="path-effect638"
       is_visible="true"
       lpeversion="1"
       weight="33.333333"
       steps="2"
       helper_size="0"
       apply_no_weight="true"
       apply_with_weight="true"
       only_selected="false"
       uniform="false" /><inkscape:path-effect
       effect="bspline"
       id="path-effect638-2"
       is_visible="true"
       lpeversion="1"
       weight="33.333333"
       steps="2"
       helper_size="0"
       apply_no_weight="true"
       apply_with_weight="true"
       only_selected="false"
       uniform="false" /><inkscape:path-effect
       effect="bspline"
       id="path-effect1867"
       is_visible="true"
       lpeversion="1"
       weight="33.333333"
       steps="2"
       helper_size="0"
       apply_no_weight="true"
       apply_with_weight="true"
       only_selected="false"
       uniform="false" /><inkscape:path-effect
       effect="bspline"
       id="path-effect1883"
       is_visible="true"
       lpeversion="1"
       weight="33.333333"
       steps="2"
       helper_size="0"
       apply_no_weight="true"
       apply_with_weight="true"
       only_selected="false"
       uniform="false" /><inkscape:path-effect
       effect="bspline"
       id="path-effect1899"
       is_visible="true"
       lpeversion="1"
       weight="33.333333"
       steps="2"
       helper_size="0"
       apply_no_weight="true"
       apply_with_weight="true"
       only_selected="false"
       uniform="false" /><inkscape:path-effect
       effect="bspline"
       id="path-effect1915"
       is_visible="true"
       lpeversion="1"
       weight="33.333333"
       steps="2"
       helper_size="0"
       apply_no_weight="true"
       apply_with_weight="true"
       only_selected="false"
       uniform="false" /><clipPath
       id="clipPath4348">
      <path
   clip-rule="nonzero"
   d="M 81,2 H 97 V 18.511719 H 81 Z m 0,0"
   id="path5274" />
    </clipPath><inkscape:path-effect
       effect="bspline"
       id="path-effect1811-0"
       is_visible="true"
       lpeversion="1"
       weight="33.333333"
       steps="2"
       helper_size="0"
       apply_no_weight="true"
       apply_with_weight="true"
       only_selected="false"
       uniform="false" /><inkscape:path-effect
       effect="bspline"
       id="path-effect1841-0"
       is_visible="true"
       lpeversion="1"
       weight="33.333333"
       steps="2"
       helper_size="0"
       apply_no_weight="true"
       apply_with_weight="true"
       only_selected="false"
       uniform="false" /><inkscape:path-effect
       effect="bspline"
       id="path-effect1841-0-0"
       is_visible="true"
       lpeversion="1"
       weight="33.333333"
       steps="2"
       helper_size="0"
       apply_no_weight="true"
       apply_with_weight="true"
       only_selected="false"
       uniform="false" /></defs><g
     inkscape:label=""
     transform="matrix(14.77962,0,0,14.77962,0.0012955,6.2795649e-4)"
     id="g10"><g
   fill="#000000"
   fill-opacity="1"
   id="g4"
   transform="matrix(0.881944,0,0,0.881944,-81.3484,-65.0196)">
    <g
   id="use3"
   transform="translate(91.925003,81.962997)">
      <path
   d="m 5.8125,-4.015625 c 0.109375,-0.109375 0.109375,-0.125 0.109375,-0.15625 0,-0.0625 -0.046875,-0.125 -0.125,-0.125 -0.0625,0 -0.09375,0.046875 -0.15625,0.125 l -2.28125,2.53125 C 2.953125,-2.90625 2.875,-3.15625 2.65625,-3.671875 2.546875,-3.90625 2.328125,-4.40625 1.453125,-4.40625 c -0.578125,0 -0.84375,0.515625 -0.84375,0.65625 0,0.015625 0,0.09375 0.125,0.09375 0.078125,0 0.109375,-0.046875 0.125,-0.109375 C 1,-4.140625 1.328125,-4.1875 1.390625,-4.1875 c 0.296875,0 0.59375,0.765625 0.765625,1.203125 0.3125,0.78125 0.640625,1.9375 0.640625,1.96875 0,0.015625 0,0.03125 -0.078125,0.109375 L 0.421875,1.65625 C 0.3125,1.765625 0.3125,1.78125 0.3125,1.8125 c 0,0.0625 0.0625,0.125 0.109375,0.125 0.078125,0 0.125,-0.078125 0.171875,-0.109375 L 2.875,-0.734375 C 3.1875,0.296875 3.3125,0.6875 3.546875,1.25 3.671875,1.546875 3.890625,2.046875 4.78125,2.046875 5.359375,2.046875 5.625,1.53125 5.625,1.390625 5.625,1.34375 5.609375,1.28125 5.515625,1.28125 5.40625,1.28125 5.40625,1.328125 5.375,1.421875 c -0.09375,0.25 -0.34375,0.40625 -0.53125,0.40625 -0.5,0 -1.1875,-2.421875 -1.40625,-3.1875 z m 0,0"
   id="path6" />
    </g>
  </g>
  <g
   fill="#000000"
   fill-opacity="1"
   id="g3"
   transform="matrix(0.881944,0,0,0.881944,-81.3484,-65.0196)">
    <g
   id="g2"
   transform="translate(98.158997,78.348)">
      <path
   d="M 3.515625,-1.265625 H 3.28125 c -0.015625,0.15625 -0.09375,0.5625 -0.1875,0.625 C 3.046875,-0.59375 2.515625,-0.59375 2.40625,-0.59375 H 1.125 c 0.734375,-0.640625 0.984375,-0.84375 1.390625,-1.171875 0.515625,-0.40625 1,-0.84375 1,-1.5 0,-0.84375 -0.734375,-1.359375 -1.625,-1.359375 -0.859375,0 -1.453125,0.609375 -1.453125,1.25 0,0.34375 0.296875,0.390625 0.375,0.390625 0.15625,0 0.359375,-0.125 0.359375,-0.375 0,-0.125 -0.046875,-0.375 -0.40625,-0.375 C 0.984375,-4.21875 1.453125,-4.375 1.78125,-4.375 c 0.703125,0 1.0625,0.546875 1.0625,1.109375 0,0.609375 -0.4375,1.078125 -0.65625,1.328125 L 0.515625,-0.265625 C 0.4375,-0.203125 0.4375,-0.1875 0.4375,0 h 2.875 z m 0,0"
   id="path1" />
    </g>
  </g>
  <g
   fill="#000000"
   fill-opacity="1"
   id="g9"
   transform="matrix(0.881944,0,0,0.881944,-81.3484,-65.0196)">
    <g
   id="g8"
   transform="translate(102.628,81.962997)">
      <path
   d="m 2.34375,-2.484375 c 0,-1.25 0.96875,-1.96875 1.3125,-2.21875 0.265625,-0.203125 0.484375,-0.5625 0.484375,-0.984375 0,-0.578125 -0.40625,-1.34375 -1.890625,-1.34375 -1.078125,0 -1.6875,0.6875 -1.6875,1.328125 0,0.34375 0.21875,0.484375 0.453125,0.484375 0.28125,0 0.453125,-0.203125 0.453125,-0.46875 0,-0.4375 -0.40625,-0.4375 -0.546875,-0.4375 0.296875,-0.53125 0.875,-0.6875 1.296875,-0.6875 1.09375,0 1.09375,0.6875 1.09375,1.078125 0,0.578125 -0.15625,0.765625 -0.34375,0.9375 -0.65625,0.71875 -0.875,1.640625 -0.875,2.25 v 0.4375 c 0,0.1875 0,0.25 0.125,0.25 0.125,0 0.125,-0.09375 0.125,-0.28125 z M 2.734375,-0.53125 C 2.734375,-0.8125 2.5,-1.0625 2.21875,-1.0625 c -0.296875,0 -0.53125,0.25 -0.53125,0.53125 C 1.6875,-0.234375 1.921875,0 2.21875,0 2.5,0 2.734375,-0.234375 2.734375,-0.53125 Z m 0,0"
   id="path3" />
    </g>
  </g>
</g></svg>
