<?xml version="1.0" encoding="UTF-8" standalone="no"?>
<!-- Created with Inkscape (http://www.inkscape.org/) -->

<svg
   width="1050"
   height="268.36777"
   viewBox="0 0 277.81249 71.005639"
   version="1.1"
   id="svg5"
   inkscape:version="1.3.2 (091e20e, 2023-11-25, custom)"
   sodipodi:docname="production_probabilities.svg"
   xml:space="preserve"
   inkscape:export-filename="002_ProductionStatistics.png"
   inkscape:export-xdpi="96"
   inkscape:export-ydpi="96"
   xmlns:inkscape="http://www.inkscape.org/namespaces/inkscape"
   xmlns:sodipodi="http://sodipodi.sourceforge.net/DTD/sodipodi-0.dtd"
   xmlns:xlink="http://www.w3.org/1999/xlink"
   xmlns="http://www.w3.org/2000/svg"
   xmlns:svg="http://www.w3.org/2000/svg"><sodipodi:namedview
     id="namedview7"
     pagecolor="#ffffff"
     bordercolor="#666666"
     borderopacity="1.0"
     inkscape:showpageshadow="2"
     inkscape:pageopacity="0.0"
     inkscape:pagecheckerboard="0"
     inkscape:deskcolor="#d1d1d1"
     inkscape:document-units="mm"
     showgrid="false"
     inkscape:zoom="0.72515434"
     inkscape:cx="662.61756"
     inkscape:cy="255.80761"
     inkscape:window-width="1920"
     inkscape:window-height="1017"
     inkscape:window-x="3832"
     inkscape:window-y="1300"
     inkscape:window-maximized="1"
     inkscape:current-layer="svg5" /><defs
     id="defs2"><marker
   style="overflow:visible"
   id="ConcaveTriangle"
   refX="6"
   refY="0"
   orient="auto-start-reverse"
   inkscape:stockid="Concave triangle arrow"
   markerWidth="1"
   markerHeight="1"
   viewBox="0 0 1 1"
   inkscape:isstock="true"
   inkscape:collect="always"
   preserveAspectRatio="xMidYMid"><path
     transform="scale(0.7)"
     d="M -2,-4 9,0 -2,4 c 2,-2.33 2,-5.66 0,-8 z"
     style="fill:context-stroke;fill-rule:evenodd;stroke:none"
     id="path7" /></marker><inkscape:path-effect
   effect="bspline"
   id="path-effect1841"
   is_visible="true"
   lpeversion="1"
   weight="33.333333"
   steps="2"
   helper_size="0"
   apply_no_weight="true"
   apply_with_weight="true"
   only_selected="false"
   uniform="false" /><inkscape:path-effect
   effect="bspline"
   id="path-effect1811"
   is_visible="true"
   lpeversion="1"
   weight="33.333333"
   steps="2"
   helper_size="0"
   apply_no_weight="true"
   apply_with_weight="true"
   only_selected="false"
   uniform="false" /><linearGradient
   id="linearGradient6703"><stop
     style="stop-color:#000000;stop-opacity:1.0000000;"
     offset="0.0000000"
     id="stop6704" /><stop
     style="stop-color:#7f7f7f;stop-opacity:1.0000000;"
     offset="0.50000000"
     id="stop6705" /><stop
     style="stop-color:#ffffff;stop-opacity:1.0000000;"
     offset="1.0000000"
     id="stop6706" /></linearGradient><linearGradient
   id="linearGradient879"><stop
     style="stop-color:#c3c3c3;stop-opacity:0.54918033;"
     offset="0.0000000"
     id="stop880" /><stop
     style="stop-color:#d4e1e4;stop-opacity:1.0000000;"
     offset="0.50000000"
     id="stop884" /><stop
     style="stop-color:#ddf0f0;stop-opacity:0.59016395;"
     offset="1.0000000"
     id="stop881" /></linearGradient><linearGradient
   x1="1453.8076"
   y1="384.45895"
   x2="1583.5951"
   y2="383.24872"
   id="linearGradient882"
   xlink:href="#linearGradient879"
   gradientTransform="scale(0.55994156,1.7859006)"
   gradientUnits="userSpaceOnUse" /><linearGradient
   x1="568.58307"
   y1="1189.8646"
   x2="567.13934"
   y2="1038.1013"
   id="linearGradient883"
   xlink:href="#linearGradient879"
   spreadMethod="pad"
   gradientTransform="scale(1.4640424,0.68304032)"
   gradientUnits="userSpaceOnUse" /><clipPath
   id="clip0_525_147"><rect
     width="24"
     height="24"
     fill="#ffffff"
     id="rect26341"
     x="0"
     y="0" /></clipPath><style
   id="style4881">.cls-1{fill:none;stroke:#020202;stroke-miterlimit:10;stroke-width:1.91px;}</style><clipPath
   clipPathUnits="userSpaceOnUse"
   id="clipPath2471"><path
     d="M 0,0 H 56.693 V 272.126 H 0 Z"
     id="path2469" /></clipPath><linearGradient
   x1="0"
   y1="0"
   x2="0"
   y2="272.12964"
   gradientUnits="userSpaceOnUse"
   id="linearGradient2477"
   gradientTransform="matrix(2.3384702,0,0,2.3384702,753.59705,-989.93593)"><stop
     style="stop-opacity:1;stop-color:#ebebf7"
     offset="0"
     id="stop2473" /><stop
     style="stop-opacity:1;stop-color:#ccccec"
     offset="1"
     id="stop2475" /></linearGradient><clipPath
   clipPathUnits="userSpaceOnUse"
   id="clipPath2719"><path
     d="m -17.00807,-24.09476 v 9.92137 h 34.01614 v -9.92137 z"
     id="path2717" /></clipPath><clipPath
   clipPathUnits="userSpaceOnUse"
   id="clipPath2743"><path
     d="m 209.76639,-26.92943 v 9.92137 h 34.01616 v -9.92137 z"
     id="path2741" /></clipPath><clipPath
   clipPathUnits="userSpaceOnUse"
   id="clipPath3023"><path
     d="m -17.00807,-24.09476 v 9.92137 h 34.01614 v -9.92137 z"
     id="path3021" /></clipPath><clipPath
   clipPathUnits="userSpaceOnUse"
   id="clipPath3043"><path
     d="m 209.76639,-24.09476 v 9.92137 h 34.01616 v -9.92137 z"
     id="path3041" /></clipPath><clipPath
   clipPathUnits="userSpaceOnUse"
   id="clipPath9141"><path
     d="m -17.00807,-24.09476 v 9.92137 h 34.01614 v -9.92137 z"
     id="path9139" /></clipPath><clipPath
   clipPathUnits="userSpaceOnUse"
   id="clipPath9165"><path
     d="m 209.76639,-26.92943 v 9.92137 h 34.01616 v -9.92137 z"
     id="path9163" /></clipPath><clipPath
   clipPathUnits="userSpaceOnUse"
   id="clipPath11751"><g
     id="g11755"><path
       d="m 753.59705,-989.93593 h 132.57489 v 636.35854 H 753.59705 Z"
       id="path11753"
       style="stroke-width:2.33847" /></g></clipPath><inkscape:path-effect
   effect="bspline"
   id="path-effect638"
   is_visible="true"
   lpeversion="1"
   weight="33.333333"
   steps="2"
   helper_size="0"
   apply_no_weight="true"
   apply_with_weight="true"
   only_selected="false"
   uniform="false" /><inkscape:path-effect
   effect="bspline"
   id="path-effect638-2"
   is_visible="true"
   lpeversion="1"
   weight="33.333333"
   steps="2"
   helper_size="0"
   apply_no_weight="true"
   apply_with_weight="true"
   only_selected="false"
   uniform="false" /><inkscape:path-effect
   effect="bspline"
   id="path-effect1867"
   is_visible="true"
   lpeversion="1"
   weight="33.333333"
   steps="2"
   helper_size="0"
   apply_no_weight="true"
   apply_with_weight="true"
   only_selected="false"
   uniform="false" /><inkscape:path-effect
   effect="bspline"
   id="path-effect1883"
   is_visible="true"
   lpeversion="1"
   weight="33.333333"
   steps="2"
   helper_size="0"
   apply_no_weight="true"
   apply_with_weight="true"
   only_selected="false"
   uniform="false" /><inkscape:path-effect
   effect="bspline"
   id="path-effect1899"
   is_visible="true"
   lpeversion="1"
   weight="33.333333"
   steps="2"
   helper_size="0"
   apply_no_weight="true"
   apply_with_weight="true"
   only_selected="false"
   uniform="false" /><inkscape:path-effect
   effect="bspline"
   id="path-effect1915"
   is_visible="true"
   lpeversion="1"
   weight="33.333333"
   steps="2"
   helper_size="0"
   apply_no_weight="true"
   apply_with_weight="true"
   only_selected="false"
   uniform="false" /><clipPath
   id="clipPath4348">
      <path
   clip-rule="nonzero"
   d="M 81,2 H 97 V 18.511719 H 81 Z m 0,0"
   id="path5274" />
    </clipPath><inkscape:path-effect
   effect="bspline"
   id="path-effect1811-0"
   is_visible="true"
   lpeversion="1"
   weight="33.333333"
   steps="2"
   helper_size="0"
   apply_no_weight="true"
   apply_with_weight="true"
   only_selected="false"
   uniform="false" /><inkscape:path-effect
   effect="bspline"
   id="path-effect1841-0"
   is_visible="true"
   lpeversion="1"
   weight="33.333333"
   steps="2"
   helper_size="0"
   apply_no_weight="true"
   apply_with_weight="true"
   only_selected="false"
   uniform="false" /><inkscape:path-effect
   effect="bspline"
   id="path-effect1841-0-0"
   is_visible="true"
   lpeversion="1"
   weight="33.333333"
   steps="2"
   helper_size="0"
   apply_no_weight="true"
   apply_with_weight="true"
   only_selected="false"
   uniform="false" />
  

    
    
  
      
    
      
    
  
  
  
  

  
  
  
  

    
  
  
  
  
  

  
  
  
  

  
  
  
  

    
  
    
  
    
  
    
  
    
    
  
    
  
    
    
  
    
    
  
    
  
    
  
    
  
    
  
    
  
    
  
    
    
  
    
  
    
  
    
  
    
  
      
    
    
  
    
  
    
    
  
    
  
    
  
    
  
      
    
      
    
      
    
      
    
      
    
      
    
      
    
      
    
      
    
      
    
      
    
      
    
      
    
      
    
      
    
      
    
      
    
      
    
      
    
      
    
      
    
      
    
      
    
      
    
      
    
      
    
      
    
      
    
      
    
      
    </defs><text
     xml:space="preserve"
     style="font-size:7.05556px;font-family:Arial;-inkscape-font-specification:'Arial, Normal';text-align:center;text-anchor:middle;fill:#f0f0f0;fill-opacity:1;stroke:#000000;stroke-width:1.506;stroke-opacity:1"
     x="39.040539"
     y="71.878372"
     id="text1"><tspan
       sodipodi:role="line"
       id="tspan1"
       style="stroke-width:1.506"
       x="39.040539"
       y="71.878372" /></text><rect
     style="fill:#f0f0f0;fill-opacity:1;stroke:#000000;stroke-width:1.506;stroke-opacity:1"
     id="rect1"
     width="37.216217"
     height="25.905405"
     x="11.167136"
     y="2.3602633" /><text
     xml:space="preserve"
     style="font-style:normal;font-variant:normal;font-weight:normal;font-stretch:normal;font-size:7.05556px;font-family:Bahnschrift;-inkscape-font-specification:'Bahnschrift, Normal';font-variant-ligatures:normal;font-variant-caps:normal;font-variant-numeric:normal;font-variant-east-asian:normal;text-align:center;text-anchor:middle;fill:#000000;fill-opacity:1;stroke:none;stroke-width:1.506;stroke-opacity:1"
     x="29.930275"
     y="17.116474"
     id="text2"><tspan
       sodipodi:role="line"
       id="tspan2"
       style="font-style:normal;font-variant:normal;font-weight:normal;font-stretch:normal;font-size:7.05556px;font-family:Bahnschrift;-inkscape-font-specification:'Bahnschrift, Normal';font-variant-ligatures:normal;font-variant-caps:normal;font-variant-numeric:normal;font-variant-east-asian:normal;stroke-width:1.506"
       x="29.930275"
       y="17.116474">Step 1</tspan></text><rect
     style="fill:#f0f0f0;fill-opacity:1;stroke:#000000;stroke-width:1.506;stroke-opacity:1"
     id="rect1-0"
     width="37.216217"
     height="25.905405"
     x="65.732635"
     y="2.3602633" /><text
     xml:space="preserve"
     style="font-style:normal;font-variant:normal;font-weight:normal;font-stretch:normal;font-size:7.05556px;font-family:Bahnschrift;-inkscape-font-specification:'Bahnschrift, Normal';font-variant-ligatures:normal;font-variant-caps:normal;font-variant-numeric:normal;font-variant-east-asian:normal;text-align:center;text-anchor:middle;fill:#000000;fill-opacity:1;stroke:none;stroke-width:1.506;stroke-opacity:1"
     x="84.375198"
     y="17.116474"
     id="text2-9"><tspan
       sodipodi:role="line"
       id="tspan2-4"
       style="font-style:normal;font-variant:normal;font-weight:normal;font-stretch:normal;font-size:7.05556px;font-family:Bahnschrift;-inkscape-font-specification:'Bahnschrift, Normal';font-variant-ligatures:normal;font-variant-caps:normal;font-variant-numeric:normal;font-variant-east-asian:normal;stroke-width:1.506"
       x="84.375198"
       y="17.116474">Step 2</tspan></text><rect
     style="fill:#f0f0f0;fill-opacity:1;stroke:#000000;stroke-width:1.506;stroke-opacity:1"
     id="rect1-6"
     width="37.216217"
     height="25.905405"
     x="120.29814"
     y="2.3602633" /><text
     xml:space="preserve"
     style="font-style:normal;font-variant:normal;font-weight:normal;font-stretch:normal;font-size:7.05556px;font-family:Bahnschrift;-inkscape-font-specification:'Bahnschrift, Normal';font-variant-ligatures:normal;font-variant-caps:normal;font-variant-numeric:normal;font-variant-east-asian:normal;text-align:center;text-anchor:middle;fill:#000000;fill-opacity:1;stroke:none;stroke-width:1.506;stroke-opacity:1"
     x="138.99237"
     y="17.116474"
     id="text2-6"><tspan
       sodipodi:role="line"
       id="tspan2-5"
       style="font-style:normal;font-variant:normal;font-weight:normal;font-stretch:normal;font-size:7.05556px;font-family:Bahnschrift;-inkscape-font-specification:'Bahnschrift, Normal';font-variant-ligatures:normal;font-variant-caps:normal;font-variant-numeric:normal;font-variant-east-asian:normal;stroke-width:1.506"
       x="138.99237"
       y="17.116474">Step 3</tspan></text><rect
     style="fill:#f0f0f0;fill-opacity:1;stroke:#000000;stroke-width:1.506;stroke-opacity:1"
     id="rect1-7"
     width="37.216217"
     height="25.905405"
     x="174.86365"
     y="2.3602633" /><text
     xml:space="preserve"
     style="font-style:normal;font-variant:normal;font-weight:normal;font-stretch:normal;font-size:7.05556px;font-family:Bahnschrift;-inkscape-font-specification:'Bahnschrift, Normal';font-variant-ligatures:normal;font-variant-caps:normal;font-variant-numeric:normal;font-variant-east-asian:normal;text-align:center;text-anchor:middle;fill:#000000;fill-opacity:1;stroke:none;stroke-width:1.506;stroke-opacity:1"
     x="193.48898"
     y="17.116474"
     id="text2-93"><tspan
       sodipodi:role="line"
       id="tspan2-7"
       style="font-style:normal;font-variant:normal;font-weight:normal;font-stretch:normal;font-size:7.05556px;font-family:Bahnschrift;-inkscape-font-specification:'Bahnschrift, Normal';font-variant-ligatures:normal;font-variant-caps:normal;font-variant-numeric:normal;font-variant-east-asian:normal;stroke-width:1.506"
       x="193.48898"
       y="17.116474">Step 4</tspan></text><rect
     style="fill:#f0f0f0;fill-opacity:1;stroke:#000000;stroke-width:1.506;stroke-opacity:1"
     id="rect1-2"
     width="37.216217"
     height="25.905405"
     x="229.42915"
     y="2.3602633" /><text
     xml:space="preserve"
     style="font-style:normal;font-variant:normal;font-weight:normal;font-stretch:normal;font-size:7.05556px;font-family:Bahnschrift;-inkscape-font-specification:'Bahnschrift, Normal';font-variant-ligatures:normal;font-variant-caps:normal;font-variant-numeric:normal;font-variant-east-asian:normal;text-align:center;text-anchor:middle;fill:#000000;fill-opacity:1;stroke:none;stroke-width:1.506;stroke-opacity:1"
     x="248.14061"
     y="17.116474"
     id="text2-1"><tspan
       sodipodi:role="line"
       id="tspan2-8"
       style="font-style:normal;font-variant:normal;font-weight:normal;font-stretch:normal;font-size:7.05556px;font-family:Bahnschrift;-inkscape-font-specification:'Bahnschrift, Normal';font-variant-ligatures:normal;font-variant-caps:normal;font-variant-numeric:normal;font-variant-east-asian:normal;stroke-width:1.506"
       x="248.14061"
       y="17.116474">Step 5</tspan></text><path
     style="fill:none;fill-rule:evenodd;stroke:#000000;stroke-width:0.765;stroke-linecap:butt;stroke-linejoin:miter;stroke-dasharray:none;stroke-opacity:1;marker-end:url(#ConcaveTriangle)"
     d="M 48.383353,15.312966 H 65.732635"
     id="path6"
     inkscape:connector-type="polyline"
     inkscape:connector-curvature="0" /><path
     style="fill:none;fill-rule:evenodd;stroke:#000000;stroke-width:0.765;stroke-linecap:butt;stroke-linejoin:miter;stroke-dasharray:none;stroke-opacity:1;marker-end:url(#ConcaveTriangle)"
     d="m 102.94885,15.312966 h 17.34929"
     id="path8"
     inkscape:connector-type="polyline"
     inkscape:connector-curvature="0" /><path
     style="fill:none;fill-rule:evenodd;stroke:#000000;stroke-width:0.765;stroke-linecap:butt;stroke-linejoin:miter;stroke-dasharray:none;stroke-opacity:1;marker-end:url(#ConcaveTriangle)"
     d="m 157.51436,15.312966 h 17.34929"
     id="path9"
     inkscape:connector-type="polyline"
     inkscape:connector-curvature="0" /><path
     style="fill:none;fill-rule:evenodd;stroke:#000000;stroke-width:0.765;stroke-linecap:butt;stroke-linejoin:miter;stroke-dasharray:none;stroke-opacity:1;marker-end:url(#ConcaveTriangle)"
     d="m 212.07986,15.312966 17.34929,0"
     id="path10"
     inkscape:connector-type="polyline"
     inkscape:connector-curvature="0" /><path
     d="m 13.430133,34.200619 h 1.502061 c 1.240234,0 2.466687,-0.909505 2.466687,-1.887911 0,-0.689019 -0.578775,-1.336697 -1.736327,-1.336697 h -2.838757 c -0.165365,0 -0.261827,0 -0.261827,0.165365 0,0.110243 0.0689,0.110243 0.248047,0.110243 0.110243,0 0.275607,0.01378 0.37207,0.01378 0.151584,0.02756 0.192925,0.04134 0.192925,0.151584 0,0.02756 0,0.05512 -0.02756,0.165365 l -1.185112,4.712888 c -0.08268,0.34451 -0.09646,0.413411 -0.799262,0.413411 -0.137804,0 -0.234266,0 -0.234266,0.165365 0,0.110243 0.09646,0.110243 0.124023,0.110243 0.248047,0 0.868164,-0.02756 1.116211,-0.02756 0.192925,0 0.38585,0.01378 0.564995,0.01378 0.192925,0 0.38585,0.01378 0.564995,0.01378 0.0689,0 0.179145,0 0.179145,-0.179145 0,-0.09646 -0.08268,-0.09646 -0.248047,-0.09646 -0.316948,0 -0.564995,0 -0.564995,-0.151584 0,-0.05512 0.01378,-0.09646 0.02756,-0.151584 z m 0.633898,-2.618271 c 0.08268,-0.303168 0.09646,-0.330729 0.482313,-0.330729 h 0.840603 c 0.730359,0 1.198892,0.234266 1.198892,0.840603 0,0.344509 -0.179145,1.10243 -0.523654,1.419378 -0.440972,0.399631 -0.964626,0.468533 -1.350477,0.468533 h -1.240234 z m 0,0"
     id="path17"
     style="fill:#000000;fill-opacity:1;stroke-width:0.881944" /><path
     d="m 26.108186,34.104157 c 0.137804,0 0.303169,0 0.303169,-0.165365 0,-0.179145 -0.165365,-0.179145 -0.289388,-0.179145 h -5.264104 c -0.124023,0 -0.289387,0 -0.289387,0.179145 0,0.165365 0.165364,0.165365 0.289387,0.165365 z m 0.01378,1.708766 c 0.124023,0 0.289388,0 0.289388,-0.179145 0,-0.165364 -0.165365,-0.165364 -0.303169,-0.165364 h -5.250323 c -0.124023,0 -0.289387,0 -0.289387,0.165364 0,0.179145 0.165364,0.179145 0.289387,0.179145 z m 0,0"
     id="path18"
     style="fill:#000000;fill-opacity:1;stroke-width:0.881944" /><path
     d="m 33.386777,34.173058 c 0,-0.702799 -0.04134,-1.405598 -0.34451,-2.053275 -0.39963,-0.854384 -1.12999,-0.992187 -1.48828,-0.992187 -0.537435,0 -1.171332,0.234266 -1.543402,1.047308 -0.275608,0.606337 -0.316949,1.295355 -0.316949,1.998154 0,0.661458 0.02756,1.44694 0.399631,2.122178 0.37207,0.702799 1.019748,0.881944 1.44694,0.881944 0.468532,0 1.143771,-0.179145 1.529621,-1.019748 0.275608,-0.606336 0.316949,-1.295355 0.316949,-1.984374 z m -1.84657,2.811197 c -0.34451,0 -0.868164,-0.220486 -1.019748,-1.061089 -0.09646,-0.523654 -0.09646,-1.336696 -0.09646,-1.860351 0,-0.564995 0,-1.143771 0.0689,-1.612303 0.165365,-1.047309 0.826823,-1.129991 1.047309,-1.129991 0.289387,0 0.868163,0.165364 1.033528,1.033528 0.09646,0.496093 0.09646,1.157551 0.09646,1.708766 0,0.661458 0,1.254015 -0.09646,1.81901 -0.137804,0.840603 -0.633898,1.10243 -1.033529,1.10243 z m 0,0"
     id="path20"
     style="fill:#000000;fill-opacity:1;stroke-width:0.881944" /><path
     d="m 35.421956,36.515722 c 0,-0.248047 -0.206706,-0.468533 -0.454753,-0.468533 -0.261827,0 -0.468532,0.220486 -0.468532,0.468533 0,0.261827 0.206705,0.468533 0.468532,0.468533 0.248047,0 0.454753,-0.206706 0.454753,-0.468533 z m 0,0"
     id="path22"
     style="fill:#000000;fill-opacity:1;stroke-width:0.881944" /><path
     d="m 39.405697,34.186839 v 0.289388 c 0,2.053276 -0.909505,2.452906 -1.419379,2.452906 -0.151584,0 -0.633897,-0.01378 -0.868163,-0.316948 0.38585,0 0.454752,-0.248047 0.454752,-0.399631 0,-0.275608 -0.206706,-0.399631 -0.399631,-0.399631 -0.137804,0 -0.399631,0.0689 -0.399631,0.413411 0,0.592556 0.468533,0.950846 1.212673,0.950846 1.143771,0 2.218641,-1.198892 2.218641,-3.086804 0,-2.370224 -1.019748,-2.96278 -1.80523,-2.96278 -0.482313,0 -0.909504,0.165364 -1.281574,0.551215 -0.372071,0.39963 -0.564996,0.771701 -0.564996,1.433159 0,1.088649 0.771701,1.956813 1.750108,1.956813 0.537434,0 0.895724,-0.37207 1.10243,-0.881944 z m -1.08865,0.675238 c -0.137804,0 -0.551215,0 -0.813042,-0.551215 -0.165365,-0.330729 -0.165365,-0.75792 -0.165365,-1.198892 0,-0.468533 0,-0.881944 0.192926,-1.212673 0.234266,-0.440972 0.564995,-0.551215 0.868163,-0.551215 0.413412,0 0.702799,0.303168 0.854384,0.689018 0.09646,0.289388 0.137803,0.840603 0.137803,1.240234 0,0.73036 -0.303168,1.584743 -1.074869,1.584743 z m 0,0"
     id="path24"
     style="fill:#000000;fill-opacity:1;stroke-width:0.881944" /><path
     d="m 44.515503,35.220367 c 0,-1.047309 -0.716579,-1.929253 -1.667425,-1.929253 -0.413411,0 -0.799262,0.137804 -1.116211,0.454753 V 32.02332 c 0.179145,0.05512 0.468533,0.110243 0.744141,0.110243 1.088649,0 1.708766,-0.799262 1.708766,-0.909505 0,-0.05512 -0.02756,-0.09646 -0.09646,-0.09646 0,0 -0.02756,0 -0.0689,0.02756 -0.179145,0.08268 -0.606337,0.261827 -1.198893,0.261827 -0.344509,0 -0.75792,-0.0689 -1.171332,-0.248046 -0.0689,-0.02756 -0.08268,-0.02756 -0.09646,-0.02756 -0.09646,0 -0.09646,0.0689 -0.09646,0.206706 v 2.60449 c 0,0.151585 0,0.220486 0.124023,0.220486 0.0689,0 0.08268,-0.01378 0.124024,-0.0689 0.09646,-0.137804 0.413411,-0.620117 1.129991,-0.620117 0.454752,0 0.675238,0.399631 0.74414,0.564995 0.137804,0.330729 0.165364,0.661458 0.165364,1.10243 0,0.316949 0,0.840603 -0.220486,1.212673 -0.206705,0.344509 -0.537434,0.564995 -0.937065,0.564995 -0.633898,0 -1.143771,-0.468532 -1.295355,-0.978406 0.02756,0 0.05512,0.01378 0.151584,0.01378 0.289387,0 0.440972,-0.220486 0.440972,-0.427191 0,-0.220486 -0.151585,-0.440972 -0.440972,-0.440972 -0.124024,0 -0.427192,0.0689 -0.427192,0.468532 0,0.757921 0.606337,1.612304 1.584743,1.612304 1.019748,0 1.915472,-0.840603 1.915472,-1.956813 z m 0,0"
     id="path25"
     style="fill:#000000;fill-opacity:1;stroke-width:0.881944" /><path
     d="m 69.94872,34.200619 h 1.502061 c 1.240234,0 2.466687,-0.909505 2.466687,-1.887911 0,-0.689019 -0.578775,-1.336697 -1.736327,-1.336697 h -2.838757 c -0.165365,0 -0.261827,0 -0.261827,0.165365 0,0.110243 0.0689,0.110243 0.248046,0.110243 0.110243,0 0.275608,0.01378 0.372071,0.01378 0.151584,0.02756 0.192925,0.04134 0.192925,0.151584 0,0.02756 0,0.05512 -0.02756,0.165365 l -1.185112,4.712888 c -0.08268,0.34451 -0.09646,0.413411 -0.799262,0.413411 -0.137804,0 -0.234266,0 -0.234266,0.165365 0,0.110243 0.09646,0.110243 0.124023,0.110243 0.248047,0 0.868164,-0.02756 1.11621,-0.02756 0.192926,0 0.385851,0.01378 0.564996,0.01378 0.192925,0 0.38585,0.01378 0.564995,0.01378 0.0689,0 0.179145,0 0.179145,-0.179145 0,-0.09646 -0.08268,-0.09646 -0.248047,-0.09646 -0.316948,0 -0.564995,0 -0.564995,-0.151584 0,-0.05512 0.01378,-0.09646 0.02756,-0.151584 z m 0.633898,-2.618271 c 0.08268,-0.303168 0.09646,-0.330729 0.482313,-0.330729 h 0.840603 c 0.730359,0 1.198892,0.234266 1.198892,0.840603 0,0.344509 -0.179145,1.10243 -0.523654,1.419378 -0.440972,0.399631 -0.964626,0.468533 -1.350477,0.468533 h -1.240234 z m 0,0"
     id="path17-6"
     style="fill:#000000;fill-opacity:1;stroke-width:0.881944" /><path
     d="m 82.626773,34.104157 c 0.137804,0 0.303168,0 0.303168,-0.165365 0,-0.179145 -0.165364,-0.179145 -0.289387,-0.179145 H 77.37645 c -0.124023,0 -0.289387,0 -0.289387,0.179145 0,0.165365 0.165364,0.165365 0.289387,0.165365 z m 0.01378,1.708766 c 0.124023,0 0.289387,0 0.289387,-0.179145 0,-0.165364 -0.165364,-0.165364 -0.303168,-0.165364 H 77.37645 c -0.124023,0 -0.289387,0 -0.289387,0.165364 0,0.179145 0.165364,0.179145 0.289387,0.179145 z m 0,0"
     id="path18-2"
     style="fill:#000000;fill-opacity:1;stroke-width:0.881944" /><path
     d="m 89.905364,34.173058 c 0,-0.702799 -0.04134,-1.405598 -0.344509,-2.053275 -0.399631,-0.854384 -1.129991,-0.992187 -1.488281,-0.992187 -0.537435,0 -1.171332,0.234266 -1.543402,1.047308 -0.275607,0.606337 -0.316949,1.295355 -0.316949,1.998154 0,0.661458 0.02756,1.44694 0.399631,2.122178 0.37207,0.702799 1.019748,0.881944 1.44694,0.881944 0.468532,0 1.143771,-0.179145 1.529621,-1.019748 0.275608,-0.606336 0.316949,-1.295355 0.316949,-1.984374 z m -1.84657,2.811197 c -0.34451,0 -0.868164,-0.220486 -1.019748,-1.061089 -0.09646,-0.523654 -0.09646,-1.336696 -0.09646,-1.860351 0,-0.564995 0,-1.143771 0.0689,-1.612303 0.165365,-1.047309 0.826823,-1.129991 1.047309,-1.129991 0.289388,0 0.868163,0.165364 1.033528,1.033528 0.09646,0.496093 0.09646,1.157551 0.09646,1.708766 0,0.661458 0,1.254015 -0.09646,1.81901 -0.137804,0.840603 -0.633897,1.10243 -1.033529,1.10243 z m 0,0"
     id="path20-9"
     style="fill:#000000;fill-opacity:1;stroke-width:0.881944" /><path
     d="m 91.940543,36.515722 c 0,-0.248047 -0.206706,-0.468533 -0.454753,-0.468533 -0.261827,0 -0.468532,0.220486 -0.468532,0.468533 0,0.261827 0.206705,0.468533 0.468532,0.468533 0.248047,0 0.454753,-0.206706 0.454753,-0.468533 z m 0,0"
     id="path22-1"
     style="fill:#000000;fill-opacity:1;stroke-width:0.881944" /><path
     d="m 95.924284,34.186839 v 0.289388 c 0,2.053276 -0.909505,2.452906 -1.419379,2.452906 -0.151584,0 -0.633897,-0.01378 -0.868164,-0.316948 0.385851,0 0.454753,-0.248047 0.454753,-0.399631 0,-0.275608 -0.206706,-0.399631 -0.399631,-0.399631 -0.137804,0 -0.399631,0.0689 -0.399631,0.413411 0,0.592556 0.468533,0.950846 1.212673,0.950846 1.143771,0 2.21864,-1.198892 2.21864,-3.086804 0,-2.370224 -1.019747,-2.96278 -1.805229,-2.96278 -0.482313,0 -0.909504,0.165364 -1.281575,0.551215 -0.37207,0.39963 -0.564995,0.771701 -0.564995,1.433159 0,1.088649 0.771701,1.956813 1.750108,1.956813 0.537434,0 0.895724,-0.37207 1.10243,-0.881944 z m -1.08865,0.675238 c -0.137804,0 -0.551215,0 -0.813042,-0.551215 -0.165365,-0.330729 -0.165365,-0.75792 -0.165365,-1.198892 0,-0.468533 0,-0.881944 0.192926,-1.212673 0.234266,-0.440972 0.564995,-0.551215 0.868163,-0.551215 0.413412,0 0.7028,0.303168 0.854384,0.689018 0.09646,0.289388 0.137803,0.840603 0.137803,1.240234 0,0.73036 -0.303168,1.584743 -1.074869,1.584743 z m 0,0"
     id="path24-3"
     style="fill:#000000;fill-opacity:1;stroke-width:0.881944" /><path
     d="m 101.03409,35.220367 c 0,-1.047309 -0.71658,-1.929253 -1.667425,-1.929253 -0.413411,0 -0.799262,0.137804 -1.11621,0.454753 V 32.02332 c 0.179144,0.05512 0.468532,0.110243 0.74414,0.110243 1.088645,0 1.708765,-0.799262 1.708765,-0.909505 0,-0.05512 -0.0276,-0.09646 -0.0965,-0.09646 0,0 -0.0276,0 -0.0689,0.02756 -0.17915,0.08268 -0.60634,0.261827 -1.198896,0.261827 -0.344509,0 -0.75792,-0.0689 -1.171332,-0.248046 -0.0689,-0.02756 -0.08268,-0.02756 -0.09646,-0.02756 -0.09646,0 -0.09646,0.0689 -0.09646,0.206706 v 2.60449 c 0,0.151585 0,0.220486 0.124023,0.220486 0.0689,0 0.08268,-0.01378 0.124024,-0.0689 0.09646,-0.137804 0.413411,-0.620117 1.129991,-0.620117 0.454752,0 0.67524,0.399631 0.74414,0.564995 0.13781,0.330729 0.16537,0.661458 0.16537,1.10243 0,0.316949 0,0.840603 -0.22049,1.212673 -0.206707,0.344509 -0.537436,0.564995 -0.937067,0.564995 -0.633897,0 -1.143771,-0.468532 -1.295355,-0.978406 0.02756,0 0.05512,0.01378 0.151584,0.01378 0.289388,0 0.440972,-0.220486 0.440972,-0.427191 0,-0.220486 -0.151584,-0.440972 -0.440972,-0.440972 -0.124024,0 -0.427192,0.0689 -0.427192,0.468532 0,0.757921 0.606337,1.612304 1.584743,1.612304 1.019757,0 1.915477,-0.840603 1.915477,-1.956813 z m 0,0"
     id="path25-2"
     style="fill:#000000;fill-opacity:1;stroke-width:0.881944" /><path
     d="m 124.51422,34.200619 h 1.50206 c 1.24024,0 2.46669,-0.909505 2.46669,-1.887911 0,-0.689019 -0.57878,-1.336697 -1.73633,-1.336697 h -2.83875 c -0.16537,0 -0.26183,0 -0.26183,0.165365 0,0.110243 0.0689,0.110243 0.24805,0.110243 0.11024,0 0.2756,0.01378 0.37207,0.01378 0.15158,0.02756 0.19292,0.04134 0.19292,0.151584 0,0.02756 0,0.05512 -0.0276,0.165365 l -1.18511,4.712888 c -0.0827,0.34451 -0.0965,0.413411 -0.79926,0.413411 -0.13781,0 -0.23427,0 -0.23427,0.165365 0,0.110243 0.0965,0.110243 0.12402,0.110243 0.24805,0 0.86817,-0.02756 1.11621,-0.02756 0.19293,0 0.38585,0.01378 0.565,0.01378 0.19292,0 0.38585,0.01378 0.56499,0.01378 0.0689,0 0.17915,0 0.17915,-0.179145 0,-0.09646 -0.0827,-0.09646 -0.24805,-0.09646 -0.31695,0 -0.56499,0 -0.56499,-0.151584 0,-0.05512 0.0138,-0.09646 0.0276,-0.151584 z m 0.6339,-2.618271 c 0.0827,-0.303168 0.0965,-0.330729 0.48231,-0.330729 h 0.84061 c 0.73036,0 1.19889,0.234266 1.19889,0.840603 0,0.344509 -0.17915,1.10243 -0.52366,1.419378 -0.44097,0.399631 -0.96462,0.468533 -1.35047,0.468533 h -1.24024 z m 0,0"
     id="path17-4"
     style="fill:#000000;fill-opacity:1;stroke-width:0.881944" /><path
     d="m 137.19228,34.104157 c 0.13781,0 0.30317,0 0.30317,-0.165365 0,-0.179145 -0.16536,-0.179145 -0.28939,-0.179145 h -5.2641 c -0.12402,0 -0.28939,0 -0.28939,0.179145 0,0.165365 0.16537,0.165365 0.28939,0.165365 z m 0.0138,1.708766 c 0.12403,0 0.28939,0 0.28939,-0.179145 0,-0.165364 -0.16536,-0.165364 -0.30317,-0.165364 h -5.25032 c -0.12402,0 -0.28939,0 -0.28939,0.165364 0,0.179145 0.16537,0.179145 0.28939,0.179145 z m 0,0"
     id="path18-5"
     style="fill:#000000;fill-opacity:1;stroke-width:0.881944" /><path
     d="m 144.47087,34.173058 c 0,-0.702799 -0.0413,-1.405598 -0.34451,-2.053275 -0.39963,-0.854384 -1.12999,-0.992187 -1.48828,-0.992187 -0.53743,0 -1.17133,0.234266 -1.5434,1.047308 -0.27561,0.606337 -0.31695,1.295355 -0.31695,1.998154 0,0.661458 0.0276,1.44694 0.39963,2.122178 0.37207,0.702799 1.01975,0.881944 1.44694,0.881944 0.46853,0 1.14377,-0.179145 1.52962,-1.019748 0.27561,-0.606336 0.31695,-1.295355 0.31695,-1.984374 z m -1.84657,2.811197 c -0.34451,0 -0.86816,-0.220486 -1.01975,-1.061089 -0.0965,-0.523654 -0.0965,-1.336696 -0.0965,-1.860351 0,-0.564995 0,-1.143771 0.0689,-1.612303 0.16537,-1.047309 0.82682,-1.129991 1.04731,-1.129991 0.28939,0 0.86816,0.165364 1.03353,1.033528 0.0965,0.496093 0.0965,1.157551 0.0965,1.708766 0,0.661458 0,1.254015 -0.0965,1.81901 -0.13781,0.840603 -0.6339,1.10243 -1.03353,1.10243 z m 0,0"
     id="path20-7"
     style="fill:#000000;fill-opacity:1;stroke-width:0.881944" /><path
     d="m 146.50605,36.515722 c 0,-0.248047 -0.20671,-0.468533 -0.45476,-0.468533 -0.26182,0 -0.46853,0.220486 -0.46853,0.468533 0,0.261827 0.20671,0.468533 0.46853,0.468533 0.24805,0 0.45476,-0.206706 0.45476,-0.468533 z m 0,0"
     id="path22-2"
     style="fill:#000000;fill-opacity:1;stroke-width:0.881944" /><path
     d="m 150.48979,34.186839 v 0.289388 c 0,2.053276 -0.90951,2.452906 -1.41938,2.452906 -0.15159,0 -0.6339,-0.01378 -0.86816,-0.316948 0.38585,0 0.45475,-0.248047 0.45475,-0.399631 0,-0.275608 -0.20671,-0.399631 -0.39963,-0.399631 -0.13781,0 -0.39963,0.0689 -0.39963,0.413411 0,0.592556 0.46853,0.950846 1.21267,0.950846 1.14377,0 2.21864,-1.198892 2.21864,-3.086804 0,-2.370224 -1.01975,-2.96278 -1.80523,-2.96278 -0.48231,0 -0.9095,0.165364 -1.28157,0.551215 -0.37207,0.39963 -0.565,0.771701 -0.565,1.433159 0,1.088649 0.7717,1.956813 1.75011,1.956813 0.53743,0 0.89572,-0.37207 1.10243,-0.881944 z m -1.08865,0.675238 c -0.13781,0 -0.55122,0 -0.81304,-0.551215 -0.16537,-0.330729 -0.16537,-0.75792 -0.16537,-1.198892 0,-0.468533 0,-0.881944 0.19293,-1.212673 0.23426,-0.440972 0.56499,-0.551215 0.86816,-0.551215 0.41341,0 0.7028,0.303168 0.85438,0.689018 0.0965,0.289388 0.13781,0.840603 0.13781,1.240234 0,0.73036 -0.30317,1.584743 -1.07487,1.584743 z m 0,0"
     id="path24-5"
     style="fill:#000000;fill-opacity:1;stroke-width:0.881944" /><path
     d="m 155.5996,35.220367 c 0,-1.047309 -0.71658,-1.929253 -1.66743,-1.929253 -0.41341,0 -0.79926,0.137804 -1.11621,0.454753 V 32.02332 c 0.17915,0.05512 0.46853,0.110243 0.74414,0.110243 1.08865,0 1.70877,-0.799262 1.70877,-0.909505 0,-0.05512 -0.0276,-0.09646 -0.0965,-0.09646 0,0 -0.0276,0 -0.0689,0.02756 -0.17914,0.08268 -0.60633,0.261827 -1.19889,0.261827 -0.34451,0 -0.75792,-0.0689 -1.17133,-0.248046 -0.0689,-0.02756 -0.0827,-0.02756 -0.0965,-0.02756 -0.0965,0 -0.0965,0.0689 -0.0965,0.206706 v 2.60449 c 0,0.151585 0,0.220486 0.12403,0.220486 0.0689,0 0.0827,-0.01378 0.12402,-0.0689 0.0965,-0.137804 0.41341,-0.620117 1.12999,-0.620117 0.45475,0 0.67524,0.399631 0.74414,0.564995 0.13781,0.330729 0.16537,0.661458 0.16537,1.10243 0,0.316949 0,0.840603 -0.22049,1.212673 -0.20671,0.344509 -0.53743,0.564995 -0.93707,0.564995 -0.63389,0 -1.14377,-0.468532 -1.29535,-0.978406 0.0276,0 0.0551,0.01378 0.15158,0.01378 0.28939,0 0.44098,-0.220486 0.44098,-0.427191 0,-0.220486 -0.15159,-0.440972 -0.44098,-0.440972 -0.12402,0 -0.42719,0.0689 -0.42719,0.468532 0,0.757921 0.60634,1.612304 1.58475,1.612304 1.01974,0 1.91547,-0.840603 1.91547,-1.956813 z m 0,0"
     id="path25-8"
     style="fill:#000000;fill-opacity:1;stroke-width:0.881944" /><path
     d="m 179.07972,34.200619 h 1.50206 c 1.24024,0 2.46669,-0.909505 2.46669,-1.887911 0,-0.689019 -0.57878,-1.336697 -1.73633,-1.336697 h -2.83875 c -0.16537,0 -0.26183,0 -0.26183,0.165365 0,0.110243 0.0689,0.110243 0.24805,0.110243 0.11024,0 0.2756,0.01378 0.37207,0.01378 0.15158,0.02756 0.19292,0.04134 0.19292,0.151584 0,0.02756 0,0.05512 -0.0276,0.165365 l -1.18511,4.712888 c -0.0827,0.34451 -0.0965,0.413411 -0.79926,0.413411 -0.13781,0 -0.23427,0 -0.23427,0.165365 0,0.110243 0.0965,0.110243 0.12402,0.110243 0.24805,0 0.86817,-0.02756 1.11621,-0.02756 0.19293,0 0.38585,0.01378 0.565,0.01378 0.19292,0 0.38585,0.01378 0.56499,0.01378 0.0689,0 0.17915,0 0.17915,-0.179145 0,-0.09646 -0.0827,-0.09646 -0.24805,-0.09646 -0.31695,0 -0.56499,0 -0.56499,-0.151584 0,-0.05512 0.0138,-0.09646 0.0276,-0.151584 z m 0.6339,-2.618271 c 0.0827,-0.303168 0.0965,-0.330729 0.48231,-0.330729 h 0.84061 c 0.73036,0 1.19889,0.234266 1.19889,0.840603 0,0.344509 -0.17915,1.10243 -0.52366,1.419378 -0.44097,0.399631 -0.96462,0.468533 -1.35047,0.468533 h -1.24024 z m 0,0"
     id="path17-1"
     style="fill:#000000;fill-opacity:1;stroke-width:0.881944" /><path
     d="m 191.75778,34.104157 c 0.13781,0 0.30317,0 0.30317,-0.165365 0,-0.179145 -0.16536,-0.179145 -0.28939,-0.179145 h -5.2641 c -0.12402,0 -0.28939,0 -0.28939,0.179145 0,0.165365 0.16537,0.165365 0.28939,0.165365 z m 0.0138,1.708766 c 0.12403,0 0.28939,0 0.28939,-0.179145 0,-0.165364 -0.16536,-0.165364 -0.30317,-0.165364 h -5.25032 c -0.12402,0 -0.28939,0 -0.28939,0.165364 0,0.179145 0.16537,0.179145 0.28939,0.179145 z m 0,0"
     id="path18-4"
     style="fill:#000000;fill-opacity:1;stroke-width:0.881944" /><path
     d="m 199.03637,34.173058 c 0,-0.702799 -0.0413,-1.405598 -0.34451,-2.053275 -0.39963,-0.854384 -1.12999,-0.992187 -1.48828,-0.992187 -0.53743,0 -1.17133,0.234266 -1.5434,1.047308 -0.27561,0.606337 -0.31695,1.295355 -0.31695,1.998154 0,0.661458 0.0276,1.44694 0.39963,2.122178 0.37207,0.702799 1.01975,0.881944 1.44694,0.881944 0.46853,0 1.14377,-0.179145 1.52962,-1.019748 0.27561,-0.606336 0.31695,-1.295355 0.31695,-1.984374 z m -1.84657,2.811197 c -0.34451,0 -0.86816,-0.220486 -1.01975,-1.061089 -0.0965,-0.523654 -0.0965,-1.336696 -0.0965,-1.860351 0,-0.564995 0,-1.143771 0.0689,-1.612303 0.16537,-1.047309 0.82682,-1.129991 1.04731,-1.129991 0.28939,0 0.86816,0.165364 1.03353,1.033528 0.0965,0.496093 0.0965,1.157551 0.0965,1.708766 0,0.661458 0,1.254015 -0.0965,1.81901 -0.13781,0.840603 -0.6339,1.10243 -1.03353,1.10243 z m 0,0"
     id="path20-5"
     style="fill:#000000;fill-opacity:1;stroke-width:0.881944" /><path
     d="m 201.07155,36.515722 c 0,-0.248047 -0.20671,-0.468533 -0.45476,-0.468533 -0.26182,0 -0.46853,0.220486 -0.46853,0.468533 0,0.261827 0.20671,0.468533 0.46853,0.468533 0.24805,0 0.45476,-0.206706 0.45476,-0.468533 z m 0,0"
     id="path22-24"
     style="fill:#000000;fill-opacity:1;stroke-width:0.881944" /><path
     d="m 205.05529,34.186839 v 0.289388 c 0,2.053276 -0.90951,2.452906 -1.41938,2.452906 -0.15159,0 -0.6339,-0.01378 -0.86816,-0.316948 0.38585,0 0.45475,-0.248047 0.45475,-0.399631 0,-0.275608 -0.20671,-0.399631 -0.39963,-0.399631 -0.13781,0 -0.39963,0.0689 -0.39963,0.413411 0,0.592556 0.46853,0.950846 1.21267,0.950846 1.14377,0 2.21864,-1.198892 2.21864,-3.086804 0,-2.370224 -1.01975,-2.96278 -1.80523,-2.96278 -0.48231,0 -0.9095,0.165364 -1.28157,0.551215 -0.37207,0.39963 -0.565,0.771701 -0.565,1.433159 0,1.088649 0.7717,1.956813 1.75011,1.956813 0.53743,0 0.89572,-0.37207 1.10243,-0.881944 z m -1.08865,0.675238 c -0.13781,0 -0.55122,0 -0.81304,-0.551215 -0.16537,-0.330729 -0.16537,-0.75792 -0.16537,-1.198892 0,-0.468533 0,-0.881944 0.19293,-1.212673 0.23426,-0.440972 0.56499,-0.551215 0.86816,-0.551215 0.41341,0 0.7028,0.303168 0.85438,0.689018 0.0965,0.289388 0.13781,0.840603 0.13781,1.240234 0,0.73036 -0.30317,1.584743 -1.07487,1.584743 z m 0,0"
     id="path24-0"
     style="fill:#000000;fill-opacity:1;stroke-width:0.881944" /><path
     d="m 210.1651,35.220367 c 0,-1.047309 -0.71658,-1.929253 -1.66743,-1.929253 -0.41341,0 -0.79926,0.137804 -1.11621,0.454753 V 32.02332 c 0.17915,0.05512 0.46853,0.110243 0.74414,0.110243 1.08865,0 1.70877,-0.799262 1.70877,-0.909505 0,-0.05512 -0.0276,-0.09646 -0.0965,-0.09646 0,0 -0.0276,0 -0.0689,0.02756 -0.17914,0.08268 -0.60633,0.261827 -1.19889,0.261827 -0.34451,0 -0.75792,-0.0689 -1.17133,-0.248046 -0.0689,-0.02756 -0.0827,-0.02756 -0.0965,-0.02756 -0.0965,0 -0.0965,0.0689 -0.0965,0.206706 v 2.60449 c 0,0.151585 0,0.220486 0.12403,0.220486 0.0689,0 0.0827,-0.01378 0.12402,-0.0689 0.0965,-0.137804 0.41341,-0.620117 1.12999,-0.620117 0.45475,0 0.67524,0.399631 0.74414,0.564995 0.13781,0.330729 0.16537,0.661458 0.16537,1.10243 0,0.316949 0,0.840603 -0.22049,1.212673 -0.20671,0.344509 -0.53743,0.564995 -0.93707,0.564995 -0.63389,0 -1.14377,-0.468532 -1.29535,-0.978406 0.0276,0 0.0551,0.01378 0.15158,0.01378 0.28939,0 0.44098,-0.220486 0.44098,-0.427191 0,-0.220486 -0.15159,-0.440972 -0.44098,-0.440972 -0.12402,0 -0.42719,0.0689 -0.42719,0.468532 0,0.757921 0.60634,1.612304 1.58475,1.612304 1.01974,0 1.91547,-0.840603 1.91547,-1.956813 z m 0,0"
     id="path25-7"
     style="fill:#000000;fill-opacity:1;stroke-width:0.881944" /><path
     d="m 233.64523,34.200619 h 1.50206 c 1.24024,0 2.46669,-0.909505 2.46669,-1.887911 0,-0.689019 -0.57878,-1.336697 -1.73633,-1.336697 h -2.83875 c -0.16537,0 -0.26183,0 -0.26183,0.165365 0,0.110243 0.0689,0.110243 0.24805,0.110243 0.11024,0 0.2756,0.01378 0.37207,0.01378 0.15158,0.02756 0.19292,0.04134 0.19292,0.151584 0,0.02756 0,0.05512 -0.0276,0.165365 l -1.18511,4.712888 c -0.0827,0.34451 -0.0965,0.413411 -0.79926,0.413411 -0.13781,0 -0.23427,0 -0.23427,0.165365 0,0.110243 0.0965,0.110243 0.12402,0.110243 0.24805,0 0.86817,-0.02756 1.11621,-0.02756 0.19293,0 0.38585,0.01378 0.565,0.01378 0.19292,0 0.38585,0.01378 0.56499,0.01378 0.0689,0 0.17915,0 0.17915,-0.179145 0,-0.09646 -0.0827,-0.09646 -0.24805,-0.09646 -0.31695,0 -0.56499,0 -0.56499,-0.151584 0,-0.05512 0.0138,-0.09646 0.0276,-0.151584 z m 0.6339,-2.618271 c 0.0827,-0.303168 0.0965,-0.330729 0.48231,-0.330729 h 0.84061 c 0.73036,0 1.19889,0.234266 1.19889,0.840603 0,0.344509 -0.17915,1.10243 -0.52366,1.419378 -0.44097,0.399631 -0.96462,0.468533 -1.35047,0.468533 h -1.24024 z m 0,0"
     id="path17-40"
     style="fill:#000000;fill-opacity:1;stroke-width:0.881944" /><path
     d="m 246.32329,34.104157 c 0.13781,0 0.30317,0 0.30317,-0.165365 0,-0.179145 -0.16536,-0.179145 -0.28939,-0.179145 h -5.2641 c -0.12402,0 -0.28939,0 -0.28939,0.179145 0,0.165365 0.16537,0.165365 0.28939,0.165365 z m 0.0138,1.708766 c 0.12403,0 0.28939,0 0.28939,-0.179145 0,-0.165364 -0.16536,-0.165364 -0.30317,-0.165364 h -5.25032 c -0.12402,0 -0.28939,0 -0.28939,0.165364 0,0.179145 0.16537,0.179145 0.28939,0.179145 z m 0,0"
     id="path18-6"
     style="fill:#000000;fill-opacity:1;stroke-width:0.881944" /><path
     d="m 253.60188,34.173058 c 0,-0.702799 -0.0413,-1.405598 -0.34451,-2.053275 -0.39963,-0.854384 -1.12999,-0.992187 -1.48828,-0.992187 -0.53743,0 -1.17133,0.234266 -1.5434,1.047308 -0.27561,0.606337 -0.31695,1.295355 -0.31695,1.998154 0,0.661458 0.0276,1.44694 0.39963,2.122178 0.37207,0.702799 1.01975,0.881944 1.44694,0.881944 0.46853,0 1.14377,-0.179145 1.52962,-1.019748 0.27561,-0.606336 0.31695,-1.295355 0.31695,-1.984374 z m -1.84657,2.811197 c -0.34451,0 -0.86816,-0.220486 -1.01975,-1.061089 -0.0965,-0.523654 -0.0965,-1.336696 -0.0965,-1.860351 0,-0.564995 0,-1.143771 0.0689,-1.612303 0.16537,-1.047309 0.82682,-1.129991 1.04731,-1.129991 0.28939,0 0.86816,0.165364 1.03353,1.033528 0.0965,0.496093 0.0965,1.157551 0.0965,1.708766 0,0.661458 0,1.254015 -0.0965,1.81901 -0.13781,0.840603 -0.6339,1.10243 -1.03353,1.10243 z m 0,0"
     id="path20-97"
     style="fill:#000000;fill-opacity:1;stroke-width:0.881944" /><path
     d="m 255.63706,36.515722 c 0,-0.248047 -0.20671,-0.468533 -0.45476,-0.468533 -0.26182,0 -0.46853,0.220486 -0.46853,0.468533 0,0.261827 0.20671,0.468533 0.46853,0.468533 0.24805,0 0.45476,-0.206706 0.45476,-0.468533 z m 0,0"
     id="path22-3"
     style="fill:#000000;fill-opacity:1;stroke-width:0.881944" /><path
     d="m 259.6208,34.186839 v 0.289388 c 0,2.053276 -0.90951,2.452906 -1.41938,2.452906 -0.15159,0 -0.6339,-0.01378 -0.86816,-0.316948 0.38585,0 0.45475,-0.248047 0.45475,-0.399631 0,-0.275608 -0.20671,-0.399631 -0.39963,-0.399631 -0.13781,0 -0.39963,0.0689 -0.39963,0.413411 0,0.592556 0.46853,0.950846 1.21267,0.950846 1.14377,0 2.21864,-1.198892 2.21864,-3.086804 0,-2.370224 -1.01975,-2.96278 -1.80523,-2.96278 -0.48231,0 -0.9095,0.165364 -1.28157,0.551215 -0.37207,0.39963 -0.565,0.771701 -0.565,1.433159 0,1.088649 0.7717,1.956813 1.75011,1.956813 0.53743,0 0.89572,-0.37207 1.10243,-0.881944 z m -1.08865,0.675238 c -0.13781,0 -0.55122,0 -0.81304,-0.551215 -0.16537,-0.330729 -0.16537,-0.75792 -0.16537,-1.198892 0,-0.468533 0,-0.881944 0.19293,-1.212673 0.23426,-0.440972 0.56499,-0.551215 0.86816,-0.551215 0.41341,0 0.7028,0.303168 0.85438,0.689018 0.0965,0.289388 0.13781,0.840603 0.13781,1.240234 0,0.73036 -0.30317,1.584743 -1.07487,1.584743 z m 0,0"
     id="path24-53"
     style="fill:#000000;fill-opacity:1;stroke-width:0.881944" /><path
     d="m 264.73061,35.220367 c 0,-1.047309 -0.71658,-1.929253 -1.66743,-1.929253 -0.41341,0 -0.79926,0.137804 -1.11621,0.454753 V 32.02332 c 0.17915,0.05512 0.46853,0.110243 0.74414,0.110243 1.08865,0 1.70877,-0.799262 1.70877,-0.909505 0,-0.05512 -0.0276,-0.09646 -0.0965,-0.09646 0,0 -0.0276,0 -0.0689,0.02756 -0.17914,0.08268 -0.60633,0.261827 -1.19889,0.261827 -0.34451,0 -0.75792,-0.0689 -1.17133,-0.248046 -0.0689,-0.02756 -0.0827,-0.02756 -0.0965,-0.02756 -0.0965,0 -0.0965,0.0689 -0.0965,0.206706 v 2.60449 c 0,0.151585 0,0.220486 0.12403,0.220486 0.0689,0 0.0827,-0.01378 0.12402,-0.0689 0.0965,-0.137804 0.41341,-0.620117 1.12999,-0.620117 0.45475,0 0.67524,0.399631 0.74414,0.564995 0.13781,0.330729 0.16537,0.661458 0.16537,1.10243 0,0.316949 0,0.840603 -0.22049,1.212673 -0.20671,0.344509 -0.53743,0.564995 -0.93707,0.564995 -0.63389,0 -1.14377,-0.468532 -1.29535,-0.978406 0.0276,0 0.0551,0.01378 0.15158,0.01378 0.28939,0 0.44098,-0.220486 0.44098,-0.427191 0,-0.220486 -0.15159,-0.440972 -0.44098,-0.440972 -0.12402,0 -0.42719,0.0689 -0.42719,0.468532 0,0.757921 0.60634,1.612304 1.58475,1.612304 1.01974,0 1.91547,-0.840603 1.91547,-1.956813 z m 0,0"
     id="path25-3"
     style="fill:#000000;fill-opacity:1;stroke-width:0.881944" /><g
     id="g2"><path
       d="m 123.55752,61.1879 h 3.10987 c 2.56777,0 5.10702,-1.883038 5.10702,-3.908731 0,-1.426544 -1.19829,-2.767495 -3.59489,-2.767495 h -5.87736 c -0.34237,0 -0.54209,0 -0.54209,0.342371 0,0.228247 0.14266,0.228247 0.51356,0.228247 0.22825,0 0.57062,0.02853 0.77033,0.02853 0.31384,0.05706 0.39944,0.08559 0.39944,0.313839 0,0.05706 0,0.114124 -0.0571,0.342371 l -2.45365,9.75756 c -0.17119,0.713272 -0.19972,0.855926 -1.65479,0.855926 -0.28531,0 -0.48503,0 -0.48503,0.342371 0,0.228247 0.19972,0.228247 0.25678,0.228247 0.51356,0 1.79745,-0.05706 2.311,-0.05706 0.39943,0 0.79887,0.02853 1.16977,0.02853 0.39943,0 0.79886,0.02853 1.16976,0.02853 0.14266,0 0.37091,0 0.37091,-0.370901 0,-0.199717 -0.17119,-0.199717 -0.51356,-0.199717 -0.65621,0 -1.16977,0 -1.16977,-0.313839 0,-0.114124 0.0285,-0.199716 0.0571,-0.31384 z m 1.31242,-5.420867 c 0.17119,-0.62768 0.19972,-0.684741 0.99858,-0.684741 h 1.74038 c 1.51214,0 2.48219,0.485025 2.48219,1.740383 0,0.713272 -0.3709,2.282471 -1.08417,2.938681 -0.91299,0.827395 -1.99716,0.97005 -2.79603,0.97005 h -2.56778 z m 0,0"
       id="path5"
       style="fill:#000000;fill-opacity:1;stroke-width:1.82598" /><path
       d="m 149.80615,60.988183 c 0.28531,0 0.62768,0 0.62768,-0.34237 0,-0.370901 -0.34237,-0.370901 -0.59914,-0.370901 h -10.8988 c -0.25678,0 -0.59915,0 -0.59915,0.370901 0,0.34237 0.34237,0.34237 0.59915,0.34237 z m 0.0285,3.537829 c 0.25677,0 0.59914,0 0.59914,-0.370901 0,-0.342371 -0.34237,-0.342371 -0.62768,-0.342371 h -10.87026 c -0.25678,0 -0.59915,0 -0.59915,0.342371 0,0.370901 0.34237,0.370901 0.59915,0.370901 z m 0,0"
       id="path29"
       style="fill:#000000;fill-opacity:1;stroke-width:1.82598" /><path
       d="m 155.73858,62.414727 c 0,-2.28247 1.76892,-3.59489 2.3966,-4.051384 0.48502,-0.370902 0.88445,-1.027112 0.88445,-1.797446 0,-1.055642 -0.7418,-2.453655 -3.45223,-2.453655 -1.96863,0 -3.08134,1.255358 -3.08134,2.425124 0,0.62768 0.39943,0.884458 0.8274,0.884458 0.51355,0 0.82739,-0.370902 0.82739,-0.855927 0,-0.798864 -0.7418,-0.798864 -0.99858,-0.798864 0.54209,-0.97005 1.59773,-1.255359 2.36806,-1.255359 1.99717,0 1.99717,1.255359 1.99717,1.968631 0,1.055642 -0.28531,1.398013 -0.62768,1.711852 -1.1983,1.312421 -1.59773,2.995743 -1.59773,4.108447 v 0.798864 c 0,0.342371 0,0.456495 0.22824,0.456495 0.22825,0 0.22825,-0.171186 0.22825,-0.513556 z m 0.71327,3.56636 c 0,-0.513556 -0.42796,-0.97005 -0.94152,-0.97005 -0.54208,0 -0.97005,0.456494 -0.97005,0.97005 0,0.542087 0.42797,0.97005 0.97005,0.97005 0.51356,0 0.94152,-0.427963 0.94152,-0.97005 z m 0,0"
       id="path30"
       style="fill:#000000;fill-opacity:1;stroke-width:1.82598" /></g></svg>
