<?xml version="1.0" encoding="UTF-8" standalone="no"?>
<!-- Created with Inkscape (http://www.inkscape.org/) -->

<svg
   width="979.44464"
   height="637.71014"
   viewBox="0 0 259.14473 168.72746"
   version="1.1"
   id="svg5"
   inkscape:version="1.3.2 (091e20e, 2023-11-25, custom)"
   sodipodi:docname="dbscan.svg"
   xml:space="preserve"
   inkscape:export-filename="002_ProductionStatistics.png"
   inkscape:export-xdpi="96"
   inkscape:export-ydpi="96"
   xmlns:inkscape="http://www.inkscape.org/namespaces/inkscape"
   xmlns:sodipodi="http://sodipodi.sourceforge.net/DTD/sodipodi-0.dtd"
   xmlns:xlink="http://www.w3.org/1999/xlink"
   xmlns="http://www.w3.org/2000/svg"
   xmlns:svg="http://www.w3.org/2000/svg"><sodipodi:namedview
     id="namedview7"
     pagecolor="#ffffff"
     bordercolor="#666666"
     borderopacity="1.0"
     inkscape:showpageshadow="2"
     inkscape:pageopacity="0.0"
     inkscape:pagecheckerboard="0"
     inkscape:deskcolor="#d1d1d1"
     inkscape:document-units="mm"
     showgrid="false"
     inkscape:zoom="0.51276155"
     inkscape:cx="148.21704"
     inkscape:cy="151.14238"
     inkscape:window-width="1920"
     inkscape:window-height="1017"
     inkscape:window-x="3832"
     inkscape:window-y="979"
     inkscape:window-maximized="1"
     inkscape:current-layer="svg5" /><defs
     id="defs2"><inkscape:path-effect
   effect="bspline"
   id="path-effect4"
   is_visible="true"
   lpeversion="1.3"
   weight="33.333333"
   steps="2"
   helper_size="0"
   apply_no_weight="true"
   apply_with_weight="true"
   only_selected="false"
   uniform="false" /><inkscape:path-effect
   effect="bspline"
   id="path-effect1"
   is_visible="true"
   lpeversion="1.3"
   weight="33.333333"
   steps="2"
   helper_size="0"
   apply_no_weight="true"
   apply_with_weight="true"
   only_selected="false"
   uniform="false" /><inkscape:path-effect
   effect="bspline"
   id="path-effect1841"
   is_visible="true"
   lpeversion="1"
   weight="33.333333"
   steps="2"
   helper_size="0"
   apply_no_weight="true"
   apply_with_weight="true"
   only_selected="false"
   uniform="false" /><inkscape:path-effect
   effect="bspline"
   id="path-effect1811"
   is_visible="true"
   lpeversion="1"
   weight="33.333333"
   steps="2"
   helper_size="0"
   apply_no_weight="true"
   apply_with_weight="true"
   only_selected="false"
   uniform="false" /><linearGradient
   id="linearGradient6703"><stop
     style="stop-color:#000000;stop-opacity:1.0000000;"
     offset="0.0000000"
     id="stop6704" /><stop
     style="stop-color:#7f7f7f;stop-opacity:1.0000000;"
     offset="0.50000000"
     id="stop6705" /><stop
     style="stop-color:#ffffff;stop-opacity:1.0000000;"
     offset="1.0000000"
     id="stop6706" /></linearGradient><linearGradient
   id="linearGradient879"><stop
     style="stop-color:#c3c3c3;stop-opacity:0.54918033;"
     offset="0.0000000"
     id="stop880" /><stop
     style="stop-color:#d4e1e4;stop-opacity:1.0000000;"
     offset="0.50000000"
     id="stop884" /><stop
     style="stop-color:#ddf0f0;stop-opacity:0.59016395;"
     offset="1.0000000"
     id="stop881" /></linearGradient><linearGradient
   x1="1453.8076"
   y1="384.45895"
   x2="1583.5951"
   y2="383.24872"
   id="linearGradient882"
   xlink:href="#linearGradient879"
   gradientTransform="scale(0.55994156,1.7859006)"
   gradientUnits="userSpaceOnUse" /><linearGradient
   x1="568.58307"
   y1="1189.8646"
   x2="567.13934"
   y2="1038.1013"
   id="linearGradient883"
   xlink:href="#linearGradient879"
   spreadMethod="pad"
   gradientTransform="scale(1.4640424,0.68304032)"
   gradientUnits="userSpaceOnUse" /><clipPath
   id="clip0_525_147"><rect
     width="24"
     height="24"
     fill="#ffffff"
     id="rect26341"
     x="0"
     y="0" /></clipPath><style
   id="style4881">.cls-1{fill:none;stroke:#020202;stroke-miterlimit:10;stroke-width:1.91px;}</style><clipPath
   clipPathUnits="userSpaceOnUse"
   id="clipPath2471"><path
     d="M 0,0 H 56.693 V 272.126 H 0 Z"
     id="path2469" /></clipPath><linearGradient
   x1="0"
   y1="0"
   x2="0"
   y2="272.12964"
   gradientUnits="userSpaceOnUse"
   id="linearGradient2477"
   gradientTransform="matrix(2.3384702,0,0,2.3384702,753.59705,-989.93593)"><stop
     style="stop-opacity:1;stop-color:#ebebf7"
     offset="0"
     id="stop2473" /><stop
     style="stop-opacity:1;stop-color:#ccccec"
     offset="1"
     id="stop2475" /></linearGradient><clipPath
   clipPathUnits="userSpaceOnUse"
   id="clipPath2719"><path
     d="m -17.00807,-24.09476 v 9.92137 h 34.01614 v -9.92137 z"
     id="path2717" /></clipPath><clipPath
   clipPathUnits="userSpaceOnUse"
   id="clipPath2743"><path
     d="m 209.76639,-26.92943 v 9.92137 h 34.01616 v -9.92137 z"
     id="path2741" /></clipPath><clipPath
   clipPathUnits="userSpaceOnUse"
   id="clipPath3023"><path
     d="m -17.00807,-24.09476 v 9.92137 h 34.01614 v -9.92137 z"
     id="path3021" /></clipPath><clipPath
   clipPathUnits="userSpaceOnUse"
   id="clipPath3043"><path
     d="m 209.76639,-24.09476 v 9.92137 h 34.01616 v -9.92137 z"
     id="path3041" /></clipPath><clipPath
   clipPathUnits="userSpaceOnUse"
   id="clipPath9141"><path
     d="m -17.00807,-24.09476 v 9.92137 h 34.01614 v -9.92137 z"
     id="path9139" /></clipPath><clipPath
   clipPathUnits="userSpaceOnUse"
   id="clipPath9165"><path
     d="m 209.76639,-26.92943 v 9.92137 h 34.01616 v -9.92137 z"
     id="path9163" /></clipPath><clipPath
   clipPathUnits="userSpaceOnUse"
   id="clipPath11751"><g
     id="g11755"><path
       d="m 753.59705,-989.93593 h 132.57489 v 636.35854 H 753.59705 Z"
       id="path11753"
       style="stroke-width:2.33847" /></g></clipPath><inkscape:path-effect
   effect="bspline"
   id="path-effect638"
   is_visible="true"
   lpeversion="1"
   weight="33.333333"
   steps="2"
   helper_size="0"
   apply_no_weight="true"
   apply_with_weight="true"
   only_selected="false"
   uniform="false" /><inkscape:path-effect
   effect="bspline"
   id="path-effect638-2"
   is_visible="true"
   lpeversion="1"
   weight="33.333333"
   steps="2"
   helper_size="0"
   apply_no_weight="true"
   apply_with_weight="true"
   only_selected="false"
   uniform="false" /><inkscape:path-effect
   effect="bspline"
   id="path-effect1867"
   is_visible="true"
   lpeversion="1"
   weight="33.333333"
   steps="2"
   helper_size="0"
   apply_no_weight="true"
   apply_with_weight="true"
   only_selected="false"
   uniform="false" /><inkscape:path-effect
   effect="bspline"
   id="path-effect1883"
   is_visible="true"
   lpeversion="1"
   weight="33.333333"
   steps="2"
   helper_size="0"
   apply_no_weight="true"
   apply_with_weight="true"
   only_selected="false"
   uniform="false" /><inkscape:path-effect
   effect="bspline"
   id="path-effect1899"
   is_visible="true"
   lpeversion="1"
   weight="33.333333"
   steps="2"
   helper_size="0"
   apply_no_weight="true"
   apply_with_weight="true"
   only_selected="false"
   uniform="false" /><inkscape:path-effect
   effect="bspline"
   id="path-effect1915"
   is_visible="true"
   lpeversion="1"
   weight="33.333333"
   steps="2"
   helper_size="0"
   apply_no_weight="true"
   apply_with_weight="true"
   only_selected="false"
   uniform="false" /><clipPath
   id="clipPath4348">
      <path
   clip-rule="nonzero"
   d="M 81,2 H 97 V 18.511719 H 81 Z m 0,0"
   id="path5274" />
    </clipPath><inkscape:path-effect
   effect="bspline"
   id="path-effect1811-0"
   is_visible="true"
   lpeversion="1"
   weight="33.333333"
   steps="2"
   helper_size="0"
   apply_no_weight="true"
   apply_with_weight="true"
   only_selected="false"
   uniform="false" /><inkscape:path-effect
   effect="bspline"
   id="path-effect1841-0"
   is_visible="true"
   lpeversion="1"
   weight="33.333333"
   steps="2"
   helper_size="0"
   apply_no_weight="true"
   apply_with_weight="true"
   only_selected="false"
   uniform="false" /><inkscape:path-effect
   effect="bspline"
   id="path-effect1841-0-0"
   is_visible="true"
   lpeversion="1"
   weight="33.333333"
   steps="2"
   helper_size="0"
   apply_no_weight="true"
   apply_with_weight="true"
   only_selected="false"
   uniform="false" /><inkscape:path-effect
   effect="bspline"
   id="path-effect1-3"
   is_visible="true"
   lpeversion="1.3"
   weight="33.333333"
   steps="2"
   helper_size="0"
   apply_no_weight="true"
   apply_with_weight="true"
   only_selected="false"
   uniform="false" /><inkscape:path-effect
   effect="bspline"
   id="path-effect4-0"
   is_visible="true"
   lpeversion="1.3"
   weight="33.333333"
   steps="2"
   helper_size="0"
   apply_no_weight="true"
   apply_with_weight="true"
   only_selected="false"
   uniform="false" /><inkscape:path-effect
   effect="bspline"
   id="path-effect1-2"
   is_visible="true"
   lpeversion="1.3"
   weight="33.333333"
   steps="2"
   helper_size="0"
   apply_no_weight="true"
   apply_with_weight="true"
   only_selected="false"
   uniform="false" /><inkscape:path-effect
   effect="bspline"
   id="path-effect1-3-3"
   is_visible="true"
   lpeversion="1.3"
   weight="33.333333"
   steps="2"
   helper_size="0"
   apply_no_weight="true"
   apply_with_weight="true"
   only_selected="false"
   uniform="false" /><inkscape:path-effect
   effect="bspline"
   id="path-effect1-2-7"
   is_visible="true"
   lpeversion="1.3"
   weight="33.333333"
   steps="2"
   helper_size="0"
   apply_no_weight="true"
   apply_with_weight="true"
   only_selected="false"
   uniform="false" /><inkscape:path-effect
   effect="bspline"
   id="path-effect1-3-3-5"
   is_visible="true"
   lpeversion="1.3"
   weight="33.333333"
   steps="2"
   helper_size="0"
   apply_no_weight="true"
   apply_with_weight="true"
   only_selected="false"
   uniform="false" /><inkscape:path-effect
   effect="bspline"
   id="path-effect1-2-7-9"
   is_visible="true"
   lpeversion="1.3"
   weight="33.333333"
   steps="2"
   helper_size="0"
   apply_no_weight="true"
   apply_with_weight="true"
   only_selected="false"
   uniform="false" /><inkscape:path-effect
   effect="bspline"
   id="path-effect1-3-3-5-9"
   is_visible="true"
   lpeversion="1.3"
   weight="33.333333"
   steps="2"
   helper_size="0"
   apply_no_weight="true"
   apply_with_weight="true"
   only_selected="false"
   uniform="false" /><inkscape:path-effect
   effect="bspline"
   id="path-effect1-2-7-9-1"
   is_visible="true"
   lpeversion="1.3"
   weight="33.333333"
   steps="2"
   helper_size="0"
   apply_no_weight="true"
   apply_with_weight="true"
   only_selected="false"
   uniform="false" /><inkscape:path-effect
   effect="bspline"
   id="path-effect1-3-3-5-9-2"
   is_visible="true"
   lpeversion="1.3"
   weight="33.333333"
   steps="2"
   helper_size="0"
   apply_no_weight="true"
   apply_with_weight="true"
   only_selected="false"
   uniform="false" /><inkscape:path-effect
   effect="bspline"
   id="path-effect1-2-7-9-1-4"
   is_visible="true"
   lpeversion="1.3"
   weight="33.333333"
   steps="2"
   helper_size="0"
   apply_no_weight="true"
   apply_with_weight="true"
   only_selected="false"
   uniform="false" /><inkscape:path-effect
   effect="bspline"
   id="path-effect1-3-3-5-9-2-5"
   is_visible="true"
   lpeversion="1.3"
   weight="33.333333"
   steps="2"
   helper_size="0"
   apply_no_weight="true"
   apply_with_weight="true"
   only_selected="false"
   uniform="false" /><marker
   refX="0"
   refY="0"
   orient="auto"
   id="Arrow2Mstart"
   style="overflow:visible"><path
     d="M 8.7185878,4.0337352 -2.2072895,0.01601326 8.7185884,-4.0017078 c -1.7454984,2.3720609 -1.7354408,5.6174519 -6e-7,8.035443 z"
     transform="scale(0.6)"
     id="path3863"
     style="font-size:12px;fill-rule:evenodd;stroke-width:0.625;stroke-linejoin:round" /></marker><marker
   refX="0"
   refY="0"
   orient="auto"
   id="Arrow2Mend"
   style="overflow:visible"><path
     d="M 8.7185878,4.0337352 -2.2072895,0.01601326 8.7185884,-4.0017078 c -1.7454984,2.3720609 -1.7354408,5.6174519 -6e-7,8.035443 z"
     transform="scale(-0.6)"
     id="path3866"
     style="font-size:12px;fill-rule:evenodd;stroke-width:0.625;stroke-linejoin:round" /></marker>
  
  
  
  

    
    
    
  
    
  
    
  
    
    
  
    
  
      
    
      
    
      
    
      
    
      
    
      
    
      
    
      
    </defs><g
     id="firstborder"
     style="display:inline"
     inkscape:label="firstborder"
     transform="matrix(2.25,0,0,2.25,-125.20144,-69.386163)"><path
       d="m 107.11347,71.550828 -6.05731,3.153127"
       id="path3834"
       style="fill:none;stroke:#000000;stroke-width:0.531427px;stroke-linecap:butt;stroke-linejoin:miter;stroke-opacity:1;marker-end:url(#Arrow2Mend)" /><path
       d="m 114.77069,75.551448 a 15.563221,15.563221 0 1 1 -31.126441,0 15.563221,15.563221 0 1 1 31.126441,0 z"
       id="border01"
       style="opacity:0.5;fill:none;stroke:#f51a00;stroke-width:0.5;stroke-linecap:round;stroke-miterlimit:4;stroke-dasharray:none;stroke-dashoffset:0;stroke-opacity:1"
       inkscape:label="border01" /></g><path
     d="m 149.92392,35.621002 a 35.017245,35.017245 0 1 1 -70.034485,0 35.017245,35.017245 0 1 1 70.034485,0 z"
     id="noise"
     style="display:inline;opacity:0.5;fill:none;stroke:#0000ff;stroke-width:1.19571;stroke-linecap:round;stroke-miterlimit:4;stroke-dasharray:none;stroke-dashoffset:0;stroke-opacity:1"
     inkscape:label="noise" /><path
     d="m 202.38382,73.103246 a 35.017245,35.017245 0 1 1 -70.03447,0 35.017245,35.017245 0 1 1 70.03447,0 z"
     id="rA"
     style="display:inline;opacity:0.5;fill:none;stroke:#877878;stroke-width:1.19571;stroke-linecap:round;stroke-miterlimit:4;stroke-dasharray:none;stroke-dashoffset:0;stroke-opacity:1"
     inkscape:label="rA" /><g
     id="core"
     inkscape:label="core"
     style="display:inline"
     transform="matrix(2.25,0,0,2.25,-125.20144,-69.386163)"><path
       d="m 124.33637,70.768605 a 15.56322,15.56322 0 1 1 -31.126435,0 15.56322,15.56322 0 1 1 31.126435,0 z"
       id="path3794"
       style="opacity:0.5;fill:none;stroke:#877878;stroke-width:0.3;stroke-linecap:round;stroke-miterlimit:4;stroke-dasharray:none;stroke-dashoffset:0;stroke-opacity:1" /><path
       d="m 134.96491,78.208583 a 15.56322,15.56322 0 1 1 -31.12643,0 15.56322,15.56322 0 1 1 31.12643,0 z"
       id="path3800"
       style="opacity:0.5;fill:none;stroke:#877878;stroke-width:0.3;stroke-linecap:round;stroke-miterlimit:4;stroke-dasharray:none;stroke-dashoffset:0;stroke-opacity:1" /><path
       d="m 146.65631,73.42574 a 15.56322,15.56322 0 1 1 -31.12644,0 15.56322,15.56322 0 1 1 31.12644,0 z"
       id="path3806"
       style="opacity:0.5;fill:none;stroke:#877878;stroke-width:0.3;stroke-linecap:round;stroke-miterlimit:4;stroke-dasharray:none;stroke-dashoffset:0;stroke-opacity:1" /><path
       d="m 133.90206,67.048616 a 15.56322,15.56322 0 1 1 -31.12644,0 15.56322,15.56322 0 1 1 31.12644,0 z"
       id="path3812"
       style="opacity:0.5;fill:none;stroke:#877878;stroke-width:0.3;stroke-linecap:round;stroke-miterlimit:4;stroke-dasharray:none;stroke-dashoffset:0;stroke-opacity:1" /><path
       d="m 157.81628,67.580043 a 15.56322,15.56322 0 1 1 -31.12644,0 15.56322,15.56322 0 1 1 31.12644,0 z"
       id="path3824"
       style="opacity:0.5;fill:none;stroke:#877878;stroke-width:0.3;stroke-linecap:round;stroke-miterlimit:4;stroke-dasharray:none;stroke-dashoffset:0;stroke-opacity:1" /></g><g
     id="data"
     inkscape:label="data"
     style="display:inline"
     transform="matrix(2.25,0,0,2.25,-125.20144,-69.386163)"><path
       d="m 101.10542,75.551448 a 1.8979543,1.8979543 0 1 1 -3.795908,0 1.8979543,1.8979543 0 1 1 3.795908,0 z"
       id="path2987"
       style="fill:#ffff00;stroke:#000000;stroke-width:0.265714;stroke-miterlimit:4;stroke-dasharray:none" /><path
       d="m 108.61267,46.669855 a 1.897955,1.897955 0 1 1 -3.79591,0 1.897955,1.897955 0 1 1 3.79591,0 z"
       id="path4490"
       style="fill:#0000ff;stroke:#000000;stroke-width:0.265714;stroke-miterlimit:4;stroke-dasharray:none" /><path
       d="m 110.67111,70.768605 a 1.897955,1.897955 0 1 1 -3.79591,0 1.897955,1.897955 0 1 1 3.79591,0 z"
       id="path3796"
       style="fill:#ff0000;stroke:#000000;stroke-width:0.265714;stroke-miterlimit:4;stroke-dasharray:none" /><path
       d="m 121.29965,78.208583 a 1.897955,1.897955 0 1 1 -3.79591,0 1.897955,1.897955 0 1 1 3.79591,0 z"
       id="path3802"
       style="fill:#ff0000;stroke:#000000;stroke-width:0.265714;stroke-miterlimit:4;stroke-dasharray:none" /><path
       d="m 156.90526,67.580043 a 1.897955,1.897955 0 1 1 -3.79591,0 1.897955,1.897955 0 1 1 3.79591,0 z"
       id="path3832"
       style="fill:#ffff00;stroke:#000000;stroke-width:0.265714;stroke-miterlimit:4;stroke-dasharray:none" /><path
       d="m 132.99104,73.42574 a 1.897955,1.897955 0 1 1 -3.79591,0 1.897955,1.897955 0 1 1 3.79591,0 z"
       id="path3808"
       style="fill:#ff0000;stroke:#000000;stroke-width:0.265714;stroke-miterlimit:4;stroke-dasharray:none" /><path
       d="m 120.23679,67.048616 a 1.897955,1.897955 0 1 1 -3.79591,0 1.897955,1.897955 0 1 1 3.79591,0 z"
       id="path3814"
       style="fill:#ff0000;stroke:#000000;stroke-width:0.265714;stroke-miterlimit:4;stroke-dasharray:none" /><path
       d="m 131.92819,63.328627 a 1.897955,1.897955 0 1 1 -3.79591,0 1.897955,1.897955 0 1 1 3.79591,0 z"
       id="path3820"
       style="fill:#ff0000;stroke:#000000;stroke-width:0.265714;stroke-miterlimit:4;stroke-dasharray:none" /><path
       d="m 144.15101,67.580043 a 1.897955,1.897955 0 1 1 -3.79591,0 1.897955,1.897955 0 1 1 3.79591,0 z"
       id="path3826"
       style="fill:#ff0000;stroke:#000000;stroke-width:0.265714;stroke-miterlimit:4;stroke-dasharray:none" /></g><g
     id="secondborder"
     inkscape:label="secondborder"
     transform="matrix(2.25,0,0,2.25,-125.20144,-69.386163)"
     style="display:inline"><path
       d="m 170.57052,67.580043 a 15.56322,15.56322 0 1 1 -31.12644,0 15.56322,15.56322 0 1 1 31.12644,0 z"
       id="border02"
       style="opacity:0.5;fill:none;stroke:#f51a00;stroke-width:0.5;stroke-linecap:round;stroke-miterlimit:4;stroke-dasharray:none;stroke-dashoffset:0;stroke-opacity:1"
       inkscape:label="border02" /><path
       d="m 144.03822,67.650909 8.79555,-0.248926"
       id="path4280"
       style="fill:#b3b3b3;stroke:#000000;stroke-width:0.531427px;stroke-linecap:butt;stroke-linejoin:miter;stroke-opacity:1;marker-end:url(#Arrow2Mend)" /></g><g
     id="arrows"
     inkscape:label="arrows"
     transform="matrix(2.25,0,0,2.25,-125.20144,-69.386163)"
     style="display:inline"><path
       d="m 132.00656,63.833971 8.21472,2.904201"
       id="path4282"
       style="fill:none;stroke:#000000;stroke-width:0.531427px;stroke-linecap:butt;stroke-linejoin:miter;stroke-opacity:1;marker-start:url(#Arrow2Mstart);marker-end:url(#Arrow2Mend)" /><path
       d="M 120.38979,66.074345 127.69176,63.751"
       id="path4470"
       style="fill:none;stroke:#000000;stroke-width:0.531427px;stroke-linecap:butt;stroke-linejoin:miter;stroke-opacity:1;marker-start:url(#Arrow2Mstart);marker-end:url(#Arrow2Mend)" /><path
       d="m 120.55574,67.89984 8.2977,4.480764"
       id="path4472"
       style="fill:none;stroke:#000000;stroke-width:0.531427px;stroke-linecap:butt;stroke-linejoin:miter;stroke-opacity:1;marker-start:url(#Arrow2Mstart);marker-end:url(#Arrow2Mend)" /><path
       d="M 133.58312,72.795478 140.22128,69.1445"
       id="path4474"
       style="fill:none;stroke:#000000;stroke-width:0.531427px;stroke-linecap:butt;stroke-linejoin:miter;stroke-opacity:1;marker-start:url(#Arrow2Mstart);marker-end:url(#Arrow2Mend)" /><path
       d="m 110.51553,70.223191 6.05731,-2.655254"
       id="path4476"
       style="fill:none;stroke:#000000;stroke-width:0.531427px;stroke-linecap:butt;stroke-linejoin:miter;stroke-opacity:1;marker-start:url(#Arrow2Mstart);marker-end:url(#Arrow2Mend)" /><path
       d="m 121.96635,78.023025 7.13601,-3.485024"
       id="path4478"
       style="fill:none;stroke:#000000;stroke-width:0.531427px;stroke-linecap:butt;stroke-linejoin:miter;stroke-opacity:1;marker-start:url(#Arrow2Mstart);marker-end:url(#Arrow2Mend)" /><path
       d="m 110.76446,71.716777 7.13601,5.227557"
       id="path4480"
       style="fill:none;stroke:#000000;stroke-width:0.531427px;stroke-linecap:butt;stroke-linejoin:miter;stroke-opacity:1;marker-start:url(#Arrow2Mstart);marker-end:url(#Arrow2Mend)" /><path
       d="m 118.81323,69.476398 0.91274,6.80412"
       id="path4482"
       style="fill:none;stroke:#000000;stroke-width:0.531427px;stroke-linecap:butt;stroke-linejoin:miter;stroke-opacity:1;marker-start:url(#Arrow2Mstart);marker-end:url(#Arrow2Mend)" /><path
       d="m 130.26404,65.327552 0.41488,5.725419"
       id="path4484"
       style="fill:none;stroke:#000000;stroke-width:0.531427px;stroke-linecap:butt;stroke-linejoin:miter;stroke-opacity:1;marker-start:url(#Arrow2Mstart);marker-end:url(#Arrow2Mend)" /></g><text
     x="173.49358"
     y="67.519135"
     id="text4514"
     xml:space="preserve"
     style="font-style:normal;font-variant:normal;font-weight:normal;font-stretch:normal;font-size:17.9356px;line-height:125%;font-family:Times;-inkscape-font-specification:Times;text-align:center;letter-spacing:0px;word-spacing:0px;text-anchor:middle;fill:#000000;fill-opacity:1;stroke:none;stroke-width:1.19571"><tspan
       x="173.49358"
       y="67.519135"
       id="tspan4516"
       style="font-style:normal;font-variant:normal;font-weight:normal;font-stretch:normal;font-size:17.4625px;font-family:Bahnschrift;-inkscape-font-specification:'Bahnschrift, Normal';font-variant-ligatures:normal;font-variant-caps:normal;font-variant-numeric:normal;font-variant-east-asian:normal;stroke-width:1.19571">A</tspan></text><text
     x="224.64888"
     y="76.293953"
     id="text4518"
     xml:space="preserve"
     style="font-style:normal;font-variant:normal;font-weight:normal;font-stretch:normal;font-size:17.9356px;line-height:125%;font-family:Times;-inkscape-font-specification:Times;text-align:center;letter-spacing:0px;word-spacing:0px;text-anchor:middle;fill:#000000;fill-opacity:1;stroke:none;stroke-width:1.19571"><tspan
       x="224.64888"
       y="76.293953"
       id="tspan4520"
       style="font-style:normal;font-variant:normal;font-weight:normal;font-stretch:normal;font-size:17.4625px;font-family:Bahnschrift;-inkscape-font-specification:'Bahnschrift, Normal';font-variant-ligatures:normal;font-variant-caps:normal;font-variant-numeric:normal;font-variant-east-asian:normal;stroke-width:1.19571">C</tspan></text><text
     x="97.694145"
     y="119.23452"
     id="text4522"
     xml:space="preserve"
     style="font-style:normal;font-variant:normal;font-weight:normal;font-stretch:normal;font-size:17.9356px;line-height:125%;font-family:Times;-inkscape-font-specification:Times;text-align:center;letter-spacing:0px;word-spacing:0px;text-anchor:middle;fill:#000000;fill-opacity:1;stroke:none;stroke-width:1.19571"><tspan
       x="97.694145"
       y="119.23452"
       id="tspan4524"
       style="font-style:normal;font-variant:normal;font-weight:normal;font-stretch:normal;font-size:17.4625px;font-family:Bahnschrift;-inkscape-font-specification:'Bahnschrift, Normal';font-variant-ligatures:normal;font-variant-caps:normal;font-variant-numeric:normal;font-variant-east-asian:normal;stroke-width:1.19571">B</tspan></text><text
     x="115.61716"
     y="28.125832"
     id="text4526"
     xml:space="preserve"
     style="font-style:normal;font-variant:normal;font-weight:normal;font-stretch:normal;font-size:17.9356px;line-height:125%;font-family:Times;-inkscape-font-specification:Times;text-align:center;letter-spacing:0px;word-spacing:0px;text-anchor:middle;fill:#000000;fill-opacity:1;stroke:none;stroke-width:1.19571"><tspan
       x="115.61716"
       y="28.125832"
       id="tspan4528"
       style="font-style:normal;font-variant:normal;font-weight:normal;font-stretch:normal;font-size:17.4625px;font-family:Bahnschrift;-inkscape-font-specification:'Bahnschrift, Normal';font-variant-ligatures:normal;font-variant-caps:normal;font-variant-numeric:normal;font-variant-east-asian:normal;stroke-width:1.19571">N</tspan></text><g
     id="g17"
     transform="matrix(1.1957108,0,0,1.1957108,-282.04984,-79.014273)"
     style="display:inline"><path
       d="m 309.16505,196.11215 c 0.15558,-0.59641 0.18152,-0.75199 1.4262,-0.75199 0.36303,0 0.51862,0 0.51862,-0.33711 0,-0.18151 -0.15559,-0.18151 -0.44083,-0.18151 h -2.1782 c -0.44082,0 -0.46675,0 -0.64827,0.31117 l -6.04191,9.43886 -1.29655,-9.36107 c -0.0519,-0.38896 -0.0778,-0.38896 -0.51862,-0.38896 h -2.25599 c -0.31117,0 -0.49269,0 -0.49269,0.31117 0,0.20745 0.15559,0.20745 0.46676,0.20745 0.23338,0 0.51862,0.0259 0.72607,0.0259 0.25931,0.0519 0.36303,0.0778 0.36303,0.28524 0,0.0519 -0.0259,0.10372 -0.0778,0.31117 l -2.10041,8.40163 c -0.15558,0.6742 -0.44082,1.19282 -1.78923,1.24468 -0.0778,0 -0.28524,0.0259 -0.28524,0.31117 0,0.15559 0.10372,0.20745 0.23337,0.20745 0.51862,0 1.0891,-0.0519 1.65958,-0.0519 0.54455,0 1.14097,0.0519 1.68552,0.0519 0.0778,0 0.31117,0 0.31117,-0.3371 0,-0.18152 -0.18152,-0.18152 -0.31117,-0.18152 -0.93352,0 -1.11503,-0.3371 -1.11503,-0.72607 0,-0.10372 0,-0.20744 0.0519,-0.38896 l 2.25599,-8.99804 h 0.0259 l 1.4262,10.24273 c 0.0259,0.20744 0.0519,0.38896 0.23338,0.38896 0.18152,0 0.28524,-0.18152 0.36303,-0.28524 l 6.69019,-10.4761 h 0.0259 l -2.38565,9.46479 c -0.15558,0.64828 -0.18151,0.77793 -1.50399,0.77793 -0.25931,0 -0.44083,0 -0.44083,0.31117 0,0.20745 0.18152,0.20745 0.23338,0.20745 0.46676,0 1.58179,-0.0519 2.04854,-0.0519 0.67421,0 1.40028,0.0519 2.07448,0.0519 0.10372,0 0.31117,0 0.31117,-0.3371 0,-0.18152 -0.15558,-0.18152 -0.46676,-0.18152 -0.59641,0 -1.06316,0 -1.06316,-0.28524 0,-0.0778 0,-0.10372 0.0778,-0.41489 z m 0,0"
       id="path15"
       style="fill:#000000;fill-opacity:1;stroke-width:1.65958" /><path
       d="m 316.37491,195.80098 c 0,-0.3371 -0.23338,-0.59641 -0.59641,-0.59641 -0.46676,0 -0.90758,0.44083 -0.90758,0.88165 0,0.31117 0.23337,0.59641 0.62234,0.59641 0.38896,0 0.88165,-0.38896 0.88165,-0.88165 z m -1.24468,6.22343 c 0.18151,-0.46676 0.18151,-0.51862 0.36303,-0.95945 0.12965,-0.3371 0.20745,-0.57048 0.20745,-0.88165 0,-0.72606 -0.51862,-1.34841 -1.34841,-1.34841 -1.55586,0 -2.1782,2.41158 -2.1782,2.54124 0,0.18151 0.15558,0.18151 0.18151,0.18151 0.18152,0 0.18152,-0.0519 0.25931,-0.31117 0.46676,-1.55586 1.11503,-2.04854 1.68552,-2.04854 0.12965,0 0.41489,0 0.41489,0.51862 0,0.36303 -0.12965,0.70013 -0.18152,0.88165 -0.12965,0.41489 -0.88165,2.33378 -1.14096,3.05985 -0.18151,0.41489 -0.38896,0.95944 -0.38896,1.32248 0,0.77793 0.57048,1.34841 1.34841,1.34841 1.55585,0 2.1782,-2.38565 2.1782,-2.54124 0,-0.18151 -0.15559,-0.18151 -0.20745,-0.18151 -0.15559,0 -0.15559,0.0519 -0.23338,0.31117 -0.31117,1.03724 -0.85572,2.04854 -1.68551,2.04854 -0.28524,0 -0.4149,-0.15558 -0.4149,-0.54455 0,-0.41489 0.10373,-0.64827 0.49269,-1.65958 z m 0,0"
       id="path16"
       style="fill:#000000;fill-opacity:1;stroke-width:1.65958" /><path
       d="m 318.82942,205.16205 c -0.0519,0.25931 -0.15558,0.64828 -0.15558,0.72607 0,0.28524 0.23338,0.44083 0.49269,0.44083 0.20744,0 0.49268,-0.12966 0.62234,-0.46676 0,-0.0259 0.20745,-0.80386 0.31117,-1.21875 l 0.36303,-1.47807 c 0.0778,-0.38896 0.18152,-0.752 0.28524,-1.11503 0.0519,-0.28524 0.18152,-0.77793 0.20745,-0.82979 0.23338,-0.51862 1.11503,-2.02261 2.69682,-2.02261 0.752,0 0.88165,0.62234 0.88165,1.16689 0,1.01131 -0.80386,3.13764 -1.06317,3.83778 -0.15558,0.38896 -0.18151,0.59641 -0.18151,0.77793 0,0.77793 0.59641,1.34841 1.37434,1.34841 1.55585,0 2.15226,-2.41158 2.15226,-2.54124 0,-0.18151 -0.12965,-0.18151 -0.18151,-0.18151 -0.18152,0 -0.18152,0.0519 -0.25931,0.31117 -0.3371,1.11503 -0.88165,2.04854 -1.68551,2.04854 -0.28524,0 -0.38897,-0.15558 -0.38897,-0.54455 0,-0.41489 0.12966,-0.80386 0.28524,-1.16689 0.31117,-0.88165 1.01131,-2.69682 1.01131,-3.65626 0,-1.0891 -0.70014,-1.76331 -1.89296,-1.76331 -1.50399,0 -2.30785,1.06317 -2.59309,1.45214 -0.0778,-0.93352 -0.752,-1.45214 -1.52993,-1.45214 -0.752,0 -1.06317,0.64828 -1.21875,0.93352 -0.28524,0.57048 -0.49269,1.55585 -0.49269,1.60772 0,0.18151 0.15558,0.18151 0.18151,0.18151 0.18152,0 0.18152,-0.0259 0.28524,-0.38896 0.28525,-1.16689 0.62235,-1.97075 1.21876,-1.97075 0.31117,0 0.49269,0.20744 0.49269,0.75199 0,0.36304 -0.0519,0.54455 -0.25931,1.40028 z m 0,0"
       id="path17"
       style="fill:#000000;fill-opacity:1;stroke-width:1.65958" /><path
       d="m 332.3055,200.90938 h 2.82648 c 2.33378,0 4.64163,-1.71144 4.64163,-3.55254 0,-1.29655 -1.0891,-2.5153 -3.26729,-2.5153 h -5.34178 c -0.31117,0 -0.49269,0 -0.49269,0.31117 0,0.20745 0.12966,0.20745 0.46676,0.20745 0.20745,0 0.51862,0.0259 0.70014,0.0259 0.28524,0.0519 0.36303,0.0778 0.36303,0.28524 0,0.0519 0,0.10372 -0.0519,0.31117 l -2.23006,8.86838 c -0.15559,0.64828 -0.18152,0.77793 -1.504,0.77793 -0.25931,0 -0.44083,0 -0.44083,0.31117 0,0.20745 0.18152,0.20745 0.23338,0.20745 0.46676,0 1.63365,-0.0519 2.10041,-0.0519 0.36303,0 0.72607,0.0259 1.06317,0.0259 0.36303,0 0.72606,0.0259 1.06317,0.0259 0.12965,0 0.3371,0 0.3371,-0.3371 0,-0.18152 -0.15559,-0.18152 -0.46676,-0.18152 -0.59641,0 -1.06317,0 -1.06317,-0.28524 0,-0.10372 0.0259,-0.18152 0.0519,-0.28524 z m 1.19283,-4.92688 c 0.15558,-0.57048 0.18151,-0.62234 0.90758,-0.62234 h 1.58179 c 1.37434,0 2.25599,0.44082 2.25599,1.58178 0,0.64828 -0.3371,2.07448 -0.98538,2.67089 -0.82979,0.752 -1.81516,0.88165 -2.54123,0.88165 h -2.33378 z m 0,0"
       id="path18"
       style="fill:#000000;fill-opacity:1;stroke-width:1.65958" /><path
       d="m 343.61063,199.53504 h 1.55586 c 0.3371,0 0.51862,0 0.51862,-0.3371 0,-0.18152 -0.18152,-0.18152 -0.46676,-0.18152 h -1.45213 c 0.59641,-2.35972 0.6742,-2.67089 0.6742,-2.77461 0,-0.28524 -0.20744,-0.44083 -0.49268,-0.44083 -0.0519,0 -0.51862,0 -0.64828,0.59641 l -0.64827,2.61903 h -1.55586 c -0.3371,0 -0.49269,0 -0.49269,0.31117 0,0.20745 0.12966,0.20745 0.46676,0.20745 h 1.45213 c -1.19282,4.6935 -1.27061,4.97874 -1.27061,5.26398 0,0.90758 0.62234,1.52993 1.52992,1.52993 1.68552,0 2.61903,-2.41158 2.61903,-2.54124 0,-0.18151 -0.12966,-0.18151 -0.18152,-0.18151 -0.15558,0 -0.18151,0.0519 -0.25931,0.23338 -0.70013,1.73737 -1.58178,2.12633 -2.15227,2.12633 -0.3371,0 -0.51861,-0.20744 -0.51861,-0.75199 0,-0.4149 0.0519,-0.51862 0.10372,-0.80386 z m 0,0"
       id="path19"
       style="fill:#000000;fill-opacity:1;stroke-width:1.65958" /><path
       d="m 352.64082,199.94993 c -0.44083,0.0259 -0.77793,0.38897 -0.77793,0.752 0,0.23338 0.15558,0.49269 0.51862,0.49269 0.36303,0 0.75199,-0.28524 0.75199,-0.93351 0,-0.752 -0.70013,-1.42621 -1.97075,-1.42621 -2.1782,0 -2.80054,1.68551 -2.80054,2.41158 0,1.29655 1.21875,1.52993 1.71144,1.63365 0.85572,0.18152 1.71144,0.36303 1.71144,1.27062 0,0.41489 -0.36303,1.81516 -2.35971,1.81516 -0.23338,0 -1.504,0 -1.89296,-0.88165 0.64827,0.0778 1.06317,-0.41489 1.06317,-0.88165 0,-0.36303 -0.28524,-0.57048 -0.62234,-0.57048 -0.44083,0 -0.93352,0.3371 -0.93352,1.0891 0,0.93351 0.95945,1.60772 2.35972,1.60772 2.69682,0 3.34509,-1.99669 3.34509,-2.74868 0,-0.59642 -0.31117,-1.01131 -0.51862,-1.19283 -0.44083,-0.46675 -0.93351,-0.57048 -1.65958,-0.70013 -0.59641,-0.12966 -1.24469,-0.25931 -1.24469,-1.01131 0,-0.46676 0.38897,-1.47806 1.8411,-1.47806 0.4149,0 1.24469,0.12965 1.47807,0.75199 z m 0,0"
       id="path20"
       style="fill:#000000;fill-opacity:1;stroke-width:1.65958" /><path
       d="m 369.88641,200.72786 c 0.25931,0 0.57048,0 0.57048,-0.31117 0,-0.3371 -0.31117,-0.3371 -0.54455,-0.3371 h -9.90562 c -0.23337,0 -0.54455,0 -0.54455,0.3371 0,0.31117 0.31118,0.31117 0.54455,0.31117 z m 0.0259,3.21544 c 0.23338,0 0.54455,0 0.54455,-0.3371 0,-0.31117 -0.31117,-0.31117 -0.57048,-0.31117 h -9.87969 c -0.23337,0 -0.54455,0 -0.54455,0.31117 0,0.3371 0.31118,0.3371 0.54455,0.3371 z m 0,0"
       id="path21"
       style="fill:#000000;fill-opacity:1;stroke-width:1.65958" /><path
       d="m 380.86,203.42468 v 1.4262 c 0,0.59641 -0.0519,0.77793 -1.27062,0.77793 h -0.3371 v 0.51862 c 0.6742,-0.0519 1.52992,-0.0519 2.23006,-0.0519 0.70014,0 1.55586,0 2.25599,0.0519 v -0.51862 h -0.36303 c -1.21876,0 -1.24469,-0.18152 -1.24469,-0.77793 v -1.4262 h 1.63365 v -0.51862 h -1.63365 v -7.51997 c 0,-0.3371 0,-0.44083 -0.28524,-0.44083 -0.12965,0 -0.18151,0 -0.31117,0.20745 l -5.08246,7.75335 v 0.51862 z m 0.0778,-0.51862 h -4.0193 l 4.0193,-6.17156 z m 0,0"
       id="path22"
       style="fill:#000000;fill-opacity:1;stroke-width:1.65958" /></g></svg>
