<?xml version="1.0" encoding="UTF-8" standalone="no"?>
<svg
   version="1.1"
   viewBox="0 0 982.7 453.5"
   id="svg19"
   sodipodi:docname="005_LALP.svg"
   inkscape:version="1.3.2 (091e20e, 2023-11-25, custom)"
   xmlns:inkscape="http://www.inkscape.org/namespaces/inkscape"
   xmlns:sodipodi="http://sodipodi.sourceforge.net/DTD/sodipodi-0.dtd"
   xmlns="http://www.w3.org/2000/svg"
   xmlns:svg="http://www.w3.org/2000/svg">
  <defs
     id="defs1">
    <style
       id="style1">
      .cls-1 {
        stroke-width: 1.6px;
      }

      .cls-1, .cls-2, .cls-3, .cls-4, .cls-5 {
        fill: none;
        stroke-linejoin: round;
      }

      .cls-1, .cls-3 {
        stroke: #ebebeb;
      }

      .cls-2 {
        stroke-width: 5.7px;
      }

      .cls-2, .cls-5 {
        stroke: #000;
      }

      .cls-3 {
        stroke-width: 3.2px;
      }

      .cls-6 {
        fill: #4d4d4d;
        font-family: ArialMT, Arial;
        font-size: 26.7px;
      }

      .cls-6, .cls-7, .cls-8 {
        isolation: isolate;
      }

      .cls-8 {
        fill: #828282;
        opacity: .8;
      }

      .cls-4 {
        stroke: red;
        stroke-width: 5.7px;
      }

      .cls-5 {
        stroke-width: 1.4px;
      }
    </style>
  </defs>
  <!-- Generator: Adobe Illustrator 28.7.1, SVG Export Plug-In . SVG Version: 1.2.0 Build 142)  -->
  <g
     id="g19">
    <g
       id="svg5">
      <sodipodi:namedview
         id="namedview7"
         bordercolor="#666666"
         borderopacity="1.0"
         inkscape:current-layer="svg5"
         inkscape:cx="721.22577"
         inkscape:cy="367.50797"
         inkscape:deskcolor="#d1d1d1"
         inkscape:document-units="mm"
         inkscape:pagecheckerboard="0"
         inkscape:pageopacity="0.0"
         inkscape:showpageshadow="2"
         inkscape:window-height="1017"
         inkscape:window-maximized="1"
         inkscape:window-width="1920"
         inkscape:window-x="3832"
         inkscape:window-y="979"
         inkscape:zoom="0.72515434"
         pagecolor="#ffffff"
         showgrid="false" />
      <g
         id="_x3C_defs">
        <inkscape:path-effect
           id="path-effect779"
           apply_no_weight="true"
           apply_with_weight="true"
           effect="bspline"
           helper_size="0"
           is_visible="true"
           lpeversion="1"
           only_selected="false"
           steps="2"
           uniform="false"
           weight="33.333333" />
        <inkscape:path-effect
           id="path-effect765"
           apply_no_weight="true"
           apply_with_weight="true"
           effect="bspline"
           helper_size="0"
           is_visible="true"
           lpeversion="1"
           only_selected="false"
           steps="2"
           uniform="false"
           weight="33.333333" />
        <inkscape:path-effect
           id="path-effect638"
           apply_no_weight="true"
           apply_with_weight="true"
           effect="bspline"
           helper_size="0"
           is_visible="true"
           lpeversion="1"
           only_selected="false"
           steps="2"
           uniform="false"
           weight="33.333333" />
        <inkscape:path-effect
           id="path-effect638-2"
           apply_no_weight="true"
           apply_with_weight="true"
           effect="bspline"
           helper_size="0"
           is_visible="true"
           lpeversion="1"
           only_selected="false"
           steps="2"
           uniform="false"
           weight="33.333333" />
        <inkscape:path-effect
           id="path-effect1867"
           apply_no_weight="true"
           apply_with_weight="true"
           effect="bspline"
           helper_size="0"
           is_visible="true"
           lpeversion="1"
           only_selected="false"
           steps="2"
           uniform="false"
           weight="33.333333" />
        <inkscape:path-effect
           id="path-effect1883"
           apply_no_weight="true"
           apply_with_weight="true"
           effect="bspline"
           helper_size="0"
           is_visible="true"
           lpeversion="1"
           only_selected="false"
           steps="2"
           uniform="false"
           weight="33.333333" />
        <inkscape:path-effect
           id="path-effect1899"
           apply_no_weight="true"
           apply_with_weight="true"
           effect="bspline"
           helper_size="0"
           is_visible="true"
           lpeversion="1"
           only_selected="false"
           steps="2"
           uniform="false"
           weight="33.333333" />
        <inkscape:path-effect
           id="path-effect1915"
           apply_no_weight="true"
           apply_with_weight="true"
           effect="bspline"
           helper_size="0"
           is_visible="true"
           lpeversion="1"
           only_selected="false"
           steps="2"
           uniform="false"
           weight="33.333333" />
      </g>
      <g
         id="g1">
        <path
           id="path222-1"
           d="M267.3,58.1c-79,0-143.1,64.1-143.1,143.1s64.1,143.1,143.1,143.1,143.1-64.1,143.1-143.1h0c0-79-64.1-143-143.1-143.1h0ZM267.3,329.7c-71,0-128.5-57.5-128.5-128.5s57.5-128.5,128.5-128.5,128.5,57.5,128.5,128.5h0c0,70.9-57.6,128.4-128.5,128.5h0ZM267.3,106.6c-52.2,0-94.6,42.3-94.6,94.6s42.3,94.6,94.6,94.6,94.6-42.3,94.6-94.6h0c0-52.2-42.4-94.5-94.6-94.6h0ZM267.3,281.2c-44.2,0-80-35.8-80-80s35.8-80,80-80,80,35.8,80,80h0c0,44.2-35.8,80-80,80h0ZM267.3,155.1c-25.4,0-46.1,20.6-46.1,46.1s20.6,46.1,46.1,46.1,46.1-20.6,46.1-46.1h0c0-25.4-20.6-46-46.1-46.1ZM267.3,232.7c-17.4,0-31.5-14.1-31.5-31.5s14.1-31.5,31.5-31.5,31.5,14.1,31.5,31.5h0c0,17.4-14.1,31.5-31.5,31.5Z" />
        <circle
           id="path904-7"
           class="cls-8"
           cx="235.4"
           cy="99.8"
           r="10.2" />
        <circle
           id="path904-21"
           class="cls-8"
           cx="200.9"
           cy="189.5"
           r="10.2" />
        <circle
           id="path904-27"
           class="cls-8"
           cx="234"
           cy="295.6"
           r="10.2" />
        <circle
           id="path904-48"
           class="cls-8"
           cx="376"
           cy="222.6"
           r="10.2" />
        <circle
           id="path904-1"
           class="cls-8"
           cx="298.8"
           cy="132.9"
           r="10.2" />
        <circle
           id="path904-49"
           class="cls-8"
           cx="242.3"
           cy="212.9"
           r="10.2" />
        <g
           id="text12"
           class="cls-7">
          <g
             class="cls-7"
             id="g9">
            <path
               d="M199.5,441.1c-.9-.8-1.4-1.9-1.4-3.5s.4-2.6,1.2-3.3c.8-.7,2.1-1.1,3.8-1.1h4.2l.2,2.3h-4.4c-.8,0-1.3.2-1.7.5-.4.3-.6.9-.6,1.6s.3,1.3.8,1.7c.5.4,1.3.5,2.3.5s2-.1,2.5-.4c.5-.2.8-.6.8-1.1l.3,2.1c-.3.4-.6.7-1,1-.4.3-.8.5-1.3.6s-1.1.2-1.7.2c-1.8,0-3.2-.4-4.1-1.1ZM207.2,432.6c0-1-.3-1.7-.8-2.3-.5-.5-1.3-.8-2.2-.8s-1.2,0-1.7.3c-.6.2-1.1.4-1.5.8l-2.1-1.5c.6-.7,1.3-1.2,2.2-1.6.9-.4,1.9-.6,3.1-.6s2.3.2,3.2.7c.9.4,1.5,1.1,2,1.9.5.8.7,1.8.7,3v9.6h-2.8v-9.4Z"
               id="path1" />
            <path
               d="M212.4,444.7c1.4-1.6,2.5-3.4,3.2-5.4.7-2,1.1-4.2,1.1-6.6s-.4-4.6-1.1-6.6c-.7-2-1.8-3.8-3.2-5.4l2-1.8c1.7,1.8,3,3.9,3.8,6.2.8,2.3,1.3,4.8,1.3,7.6s-.4,5.3-1.3,7.6c-.8,2.3-2.1,4.4-3.8,6.2l-2-1.8Z"
               id="path2" />
            <path
               d="M229.7,421.2h14.7v2.8h-14.7v-2.8ZM235.6,422.9h2.9v19.1h-2.9v-19.1Z"
               id="path3" />
            <path
               d="M246.4,421.2h2.9v20.8h-2.9v-20.8ZM255.4,433c0-1-.3-1.9-.8-2.4-.5-.6-1.3-.9-2.3-.9s-1.7.2-2.2.7-.8,1.2-.8,2.1l-.3-2.9c.5-.9,1.1-1.6,1.8-2,.7-.5,1.6-.7,2.5-.7,1.6,0,2.9.5,3.7,1.6.9,1.1,1.3,2.5,1.3,4.5v9h-2.9v-9Z"
               id="path4" />
            <path
               d="M265.4,441.5c-1-.5-1.7-1.3-2.2-2.3-.5-1-.8-2.2-.8-3.6v-1.7c0-1.5.2-2.7.7-3.8.5-1,1.2-1.8,2.1-2.4.9-.5,2.1-.8,3.4-.8s2.3.3,3.2.9c.9.6,1.5,1.5,2,2.7.5,1.2.7,2.6.7,4.2v1h-10v-2.3h7.2c0-1.2-.4-2.2-.9-2.8-.5-.7-1.3-1-2.2-1s-2,.4-2.6,1.1c-.6.7-.9,1.8-.9,3.1v1.9c0,1.2.3,2.2,1,2.8.6.7,1.6,1,2.8,1s1.2-.1,1.8-.4,1.1-.6,1.6-1l1.9,1.9c-.7.7-1.6,1.3-2.5,1.6-.9.4-1.8.6-2.8.6-1.4,0-2.5-.3-3.5-.8Z"
               id="path5" />
            <path
               d="M286.4,421.2h2.9v2.9h-2.9v-2.9ZM286.4,427.2h2.9v14.9h-2.9v-14.9Z"
               id="path6" />
            <path
               d="M295.7,441.6c-.8-.5-1.4-1.2-1.8-2.1-.4-.9-.6-2-.6-3.3v-3.3c0-1.3.2-2.4.6-3.3.4-.9,1-1.6,1.7-2.1s1.6-.7,2.7-.7,1.7.2,2.4.7,1.3,1.1,1.8,1.9l-.3,3c0-.6-.1-1.2-.3-1.6s-.6-.8-1-1c-.4-.2-1-.4-1.6-.4-1,0-1.7.3-2.2.9-.5.6-.8,1.4-.8,2.5v3.2c0,1.1.3,1.9.8,2.5.5.6,1.3.9,2.2.9s1.1-.1,1.6-.4.8-.6,1-1.1.3-1,.3-1.6l.2,3.1c-.3.7-.8,1.4-1.5,1.8-.7.5-1.5.7-2.5.7s-2-.2-2.8-.7ZM302.2,421.2h2.9v20.8h-2.9v-20.8Z"
               id="path7" />
            <path
               d="M312.1,441.5c-1-.5-1.7-1.3-2.2-2.3-.5-1-.8-2.2-.8-3.6v-1.7c0-1.5.2-2.7.7-3.8.5-1,1.2-1.8,2.1-2.4.9-.5,2.1-.8,3.4-.8s2.3.3,3.2.9c.9.6,1.5,1.5,2,2.7.5,1.2.7,2.6.7,4.2v1h-10v-2.3h7.2c0-1.2-.4-2.2-.9-2.8-.5-.7-1.3-1-2.2-1s-2,.4-2.6,1.1c-.6.7-.9,1.8-.9,3.1v1.9c0,1.2.3,2.2,1,2.8.6.7,1.6,1,2.8,1s1.2-.1,1.8-.4,1.1-.6,1.6-1l1.9,1.9c-.7.7-1.6,1.3-2.5,1.6-.9.4-1.8.6-2.8.6-1.4,0-2.5-.3-3.5-.8Z"
               id="path8" />
            <path
               d="M325.9,441.1c-.9-.8-1.4-1.9-1.4-3.5s.4-2.6,1.2-3.3c.8-.7,2.1-1.1,3.8-1.1h4.2l.2,2.3h-4.4c-.8,0-1.3.2-1.7.5-.4.3-.6.9-.6,1.6s.3,1.3.8,1.7c.5.4,1.3.5,2.3.5s2-.1,2.5-.4c.5-.2.8-.6.8-1.1l.3,2.1c-.3.4-.6.7-1,1-.4.3-.8.5-1.3.6s-1.1.2-1.7.2c-1.8,0-3.2-.4-4.1-1.1ZM333.7,432.6c0-1-.3-1.7-.8-2.3-.5-.5-1.3-.8-2.2-.8s-1.2,0-1.7.3c-.6.2-1.1.4-1.5.8l-2.1-1.5c.6-.7,1.3-1.2,2.2-1.6.9-.4,1.9-.6,3.1-.6s2.3.2,3.2.7c.9.4,1.5,1.1,2,1.9.5.8.7,1.8.7,3v9.6h-2.8v-9.4Z"
               id="path9" />
          </g>
        </g>
      </g>
      <line
         id="polyline3"
         class="cls-1"
         x1="755.6"
         y1="368"
         x2="755.6"
         y2="0" />
      <line
         id="polyline4"
         class="cls-3"
         x1="616.7"
         y1="368"
         x2="616.7"
         y2="0" />
      <line
         id="polyline5"
         class="cls-3"
         x1="894.6"
         y1="368"
         x2="894.6"
         y2="0" />
      <polyline
         id="polyline6"
         class="cls-2"
         points="570.4 351.2 574.1 346.9 577.8 342.3 581.5 337.5 585.2 332.4 588.9 327 592.6 321.4 596.3 315.5 600 309.3 603.7 302.8 607.4 296 611.1 289 614.8 281.7 618.5 274.2 622.2 266.4 625.9 258.4 629.6 250.2 633.3 241.7 637 233.1 640.8 224.3 644.5 215.3 648.2 206.2 651.9 197 655.6 187.7 659.3 178.3 663 168.9 666.7 159.6 670.4 150.2 674.1 140.9 677.8 131.7 681.5 122.7 685.2 113.8 688.9 105.1 692.6 96.6 696.3 88.4 700 80.5 703.8 72.9 707.5 65.7 711.2 58.8 714.9 52.4 718.6 46.5 722.3 41 726 36 729.7 31.6 733.4 27.7 737.1 24.4 740.8 21.7 744.5 19.5 748.2 18 751.9 17 755.6 16.7 759.3 17 763 18 766.7 19.5 770.4 21.7 774.2 24.4 777.9 27.7 781.6 31.6 785.3 36 789 41 792.7 46.5 796.4 52.4 800.1 58.8 803.8 65.7 807.5 72.9 811.2 80.5 814.9 88.4 818.6 96.6 822.3 105.1 826 113.8 829.7 122.7 833.4 131.7 837.2 140.9 840.8 150.2 844.6 159.6 848.3 168.9 852 178.3 855.7 187.7 859.4 197 863.1 206.2 866.8 215.3 870.5 224.3 874.2 233.1 877.9 241.7 881.6 250.2 885.3 258.4 889 266.4 892.7 274.2 896.4 281.7 900.1 289 903.8 296 907.6 302.8 911.3 309.3 915 315.5 918.7 321.4 922.4 327 926.1 332.4 929.8 337.5 933.5 342.3 937.2 346.9 940.9 351.2" />
      <line
         id="line6"
         class="cls-4"
         x1="616.7"
         y1="368"
         x2="616.7"
         y2="0" />
      <line
         id="line7"
         class="cls-4"
         x1="894.6"
         y1="368"
         x2="894.6"
         y2="0" />
      <line
         id="line8"
         class="cls-5"
         x1="663"
         y1="209.6"
         x2="848.3"
         y2="209.6" />
      <text
         id="text8"
         class="cls-6"
         transform="translate(592.9,402)"><tspan
           x="0"
           y="0"
           id="tspan9">LSL</tspan></text>
      <text
         id="text9"
         class="cls-6"
         transform="translate(875.2,402)"><tspan
           x="0"
           y="0"
           id="tspan10">USL</tspan></text>
      <g
         id="text12-8"
         class="cls-7">
        <g
           class="cls-7"
           id="g18">
          <path
             d="M685.6,421.2h2.9v20.8h-2.9v-20.8ZM689.8,441.6c-.7-.4-1.2-1.1-1.5-1.9l.2-3.1c0,.6.1,1.2.3,1.6.2.4.6.8,1,1,.4.2,1,.4,1.6.4,1,0,1.7-.3,2.2-.9.5-.6.8-1.4.8-2.5v-3.2c0-1.1-.3-1.9-.8-2.5s-1.3-.9-2.2-.9-1.1.1-1.6.3c-.4.2-.8.6-1,1-.2.4-.3,1-.3,1.6l-.3-2.9c.4-.9,1-1.5,1.8-2,.7-.5,1.5-.7,2.4-.7s1.9.2,2.7.7,1.3,1.2,1.7,2.1c.4.9.6,2,.6,3.3v3.2c0,1.3-.2,2.3-.6,3.2-.4.9-1,1.6-1.8,2.1s-1.7.7-2.8.7-1.7-.2-2.4-.7Z"
             id="path10" />
          <path
             d="M699.5,444.7c1.4-1.6,2.5-3.4,3.2-5.4.7-2,1.1-4.2,1.1-6.6s-.4-4.6-1.1-6.6c-.7-2-1.8-3.8-3.2-5.4l2-1.8c1.7,1.8,3,3.9,3.8,6.2.8,2.3,1.3,4.8,1.3,7.6s-.4,5.3-1.3,7.6c-.8,2.3-2.1,4.4-3.8,6.2l-2-1.8Z"
             id="path11" />
          <path
             d="M716.8,421.2h14.7v2.8h-14.7v-2.8ZM722.7,422.9h2.9v19.1h-2.9v-19.1Z"
             id="path12" />
          <path
             d="M733.5,421.2h2.9v20.8h-2.9v-20.8ZM742.5,433c0-1-.3-1.9-.8-2.4-.5-.6-1.3-.9-2.3-.9s-1.7.2-2.2.7-.8,1.2-.8,2.1l-.3-2.9c.5-.9,1.1-1.6,1.8-2,.7-.5,1.6-.7,2.5-.7,1.6,0,2.9.5,3.7,1.6.9,1.1,1.3,2.5,1.3,4.5v9h-2.9v-9Z"
             id="path13" />
          <path
             d="M752.5,441.5c-1-.5-1.7-1.3-2.2-2.3-.5-1-.8-2.2-.8-3.6v-1.7c0-1.5.2-2.7.7-3.8.5-1,1.2-1.8,2.1-2.4.9-.5,2.1-.8,3.4-.8s2.3.3,3.2.9c.9.6,1.5,1.5,2,2.7.5,1.2.7,2.6.7,4.2v1h-10v-2.3h7.2c0-1.2-.4-2.2-.9-2.8-.5-.7-1.3-1-2.2-1s-2,.4-2.6,1.1c-.6.7-.9,1.8-.9,3.1v1.9c0,1.2.3,2.2,1,2.8.6.7,1.6,1,2.8,1s1.2-.1,1.8-.4c.6-.2,1.1-.6,1.6-1l1.9,1.9c-.7.7-1.6,1.3-2.5,1.6s-1.8.6-2.8.6c-1.4,0-2.5-.3-3.5-.8Z"
             id="path14" />
          <path
             d="M775.4,441.6c-.8-.5-1.4-1.2-1.8-2.1-.4-.9-.6-2-.6-3.3v-3.3c0-1.3.2-2.4.6-3.3.4-.9,1-1.6,1.7-2.1s1.6-.7,2.7-.7,1.7.2,2.4.7,1.3,1.1,1.8,1.9l-.3,3c0-.6-.1-1.2-.3-1.6-.2-.4-.6-.8-1-1-.4-.2-1-.4-1.6-.4-1,0-1.7.3-2.2.9-.5.6-.8,1.4-.8,2.5v3.2c0,1.1.3,1.9.8,2.5.5.6,1.3.9,2.2.9s1.1-.1,1.6-.4.8-.6,1-1.1c.2-.5.3-1,.3-1.6l.2,3.1c-.3.7-.8,1.4-1.5,1.8-.7.5-1.5.7-2.5.7s-2-.2-2.8-.7ZM781.9,421.2h2.9v20.8h-2.9v-20.8Z"
             id="path15" />
          <path
             d="M790,441.1c-.9-.8-1.4-1.9-1.4-3.5s.4-2.6,1.2-3.3c.8-.7,2.1-1.1,3.8-1.1h4.2l.2,2.3h-4.4c-.8,0-1.3.2-1.7.5-.4.3-.6.9-.6,1.6s.3,1.3.8,1.7c.5.4,1.3.5,2.3.5s1.9-.1,2.5-.4c.5-.2.8-.6.8-1.1l.3,2.1c-.3.4-.6.7-1,1-.4.3-.8.5-1.3.6s-1.1.2-1.7.2c-1.8,0-3.2-.4-4.1-1.1ZM797.7,432.6c0-1-.3-1.7-.8-2.3-.5-.5-1.3-.8-2.2-.8s-1.2,0-1.7.3c-.6.2-1.1.4-1.5.8l-2.1-1.5c.6-.7,1.3-1.2,2.2-1.6.9-.4,1.9-.6,3.1-.6s2.3.2,3.2.7c.9.4,1.5,1.1,2,1.9.5.8.7,1.8.7,3v9.6h-2.8v-9.4Z"
             id="path16" />
          <path
             d="M803.8,427.2h6.7v2.6h-6.7v-2.6ZM806.1,441.1c-.6-.7-.8-1.6-.8-2.9v-15.3h2.9v15.4c0,.4,0,.6.2.8.1.2.4.3.6.3h1.4v2.8h-1.7c-1.2,0-2.1-.3-2.6-1Z"
             id="path17" />
          <path
             d="M815.1,441.1c-.9-.8-1.4-1.9-1.4-3.5s.4-2.6,1.2-3.3c.8-.7,2.1-1.1,3.8-1.1h4.2l.2,2.3h-4.4c-.8,0-1.3.2-1.7.5-.4.3-.6.9-.6,1.6s.3,1.3.8,1.7c.5.4,1.3.5,2.3.5s1.9-.1,2.5-.4c.5-.2.8-.6.8-1.1l.3,2.1c-.3.4-.6.7-1,1-.4.3-.8.5-1.3.6s-1.1.2-1.7.2c-1.8,0-3.2-.4-4.1-1.1ZM822.9,432.6c0-1-.3-1.7-.8-2.3-.5-.5-1.3-.8-2.2-.8s-1.2,0-1.7.3c-.6.2-1.1.4-1.5.8l-2.1-1.5c.6-.7,1.3-1.2,2.2-1.6.9-.4,1.9-.6,3.1-.6s2.3.2,3.2.7c.9.4,1.5,1.1,2,1.9.5.8.7,1.8.7,3v9.6h-2.8v-9.4Z"
             id="path18" />
        </g>
      </g>
    </g>
  </g>
</svg>
