<?xml version="1.0" encoding="UTF-8" standalone="no"?>
<!-- Created with Inkscape (http://www.inkscape.org/) -->

<svg
   width="716.43225"
   height="504.48047"
   viewBox="0 0 189.55603 133.47712"
   version="1.1"
   id="svg5"
   inkscape:version="1.3.2 (091e20e, 2023-11-25, custom)"
   sodipodi:docname="027_SSE.svg"
   xml:space="preserve"
   inkscape:export-filename="027_SSE.png"
   inkscape:export-xdpi="300"
   inkscape:export-ydpi="300"
   xmlns:inkscape="http://www.inkscape.org/namespaces/inkscape"
   xmlns:sodipodi="http://sodipodi.sourceforge.net/DTD/sodipodi-0.dtd"
   xmlns:xlink="http://www.w3.org/1999/xlink"
   xmlns="http://www.w3.org/2000/svg"
   xmlns:svg="http://www.w3.org/2000/svg"><sodipodi:namedview
     id="namedview7"
     pagecolor="#ffffff"
     bordercolor="#666666"
     borderopacity="1.0"
     inkscape:showpageshadow="2"
     inkscape:pageopacity="0.0"
     inkscape:pagecheckerboard="0"
     inkscape:deskcolor="#d1d1d1"
     inkscape:document-units="mm"
     showgrid="false"
     inkscape:zoom="0.5652381"
     inkscape:cx="300.75821"
     inkscape:cy="260.95198"
     inkscape:window-width="1920"
     inkscape:window-height="1017"
     inkscape:window-x="3832"
     inkscape:window-y="979"
     inkscape:window-maximized="1"
     inkscape:current-layer="layer1"
     inkscape:lockguides="false" /><defs
     id="defs2"><linearGradient
   id="linearGradient6703"><stop
     style="stop-color:#000000;stop-opacity:1.0000000;"
     offset="0.0000000"
     id="stop6704" /><stop
     style="stop-color:#7f7f7f;stop-opacity:1.0000000;"
     offset="0.50000000"
     id="stop6705" /><stop
     style="stop-color:#ffffff;stop-opacity:1.0000000;"
     offset="1.0000000"
     id="stop6706" /></linearGradient><linearGradient
   id="linearGradient879"><stop
     style="stop-color:#c3c3c3;stop-opacity:0.54918033;"
     offset="0.0000000"
     id="stop880" /><stop
     style="stop-color:#d4e1e4;stop-opacity:1.0000000;"
     offset="0.50000000"
     id="stop884" /><stop
     style="stop-color:#ddf0f0;stop-opacity:0.59016395;"
     offset="1.0000000"
     id="stop881" /></linearGradient><linearGradient
   x1="1453.8076"
   y1="384.45895"
   x2="1583.5951"
   y2="383.24872"
   id="linearGradient882"
   xlink:href="#linearGradient879"
   gradientTransform="scale(0.55994156,1.7859006)"
   gradientUnits="userSpaceOnUse" /><linearGradient
   x1="568.58307"
   y1="1189.8646"
   x2="567.13934"
   y2="1038.1013"
   id="linearGradient883"
   xlink:href="#linearGradient879"
   spreadMethod="pad"
   gradientTransform="scale(1.4640424,0.68304032)"
   gradientUnits="userSpaceOnUse" /><clipPath
   id="clip0_525_147"><rect
     width="24"
     height="24"
     fill="#ffffff"
     id="rect26341"
     x="0"
     y="0" /></clipPath><style
   id="style4881">.cls-1{fill:none;stroke:#020202;stroke-miterlimit:10;stroke-width:1.91px;}</style><marker
   style="overflow:visible"
   id="Arrow2"
   refX="0"
   refY="0"
   orient="auto-start-reverse"
   inkscape:stockid="Arrow2"
   markerWidth="7.6999998"
   markerHeight="5.5999999"
   viewBox="0 0 7.7 5.6"
   inkscape:isstock="true"
   inkscape:collect="always"
   preserveAspectRatio="xMidYMid"><path
     transform="scale(0.7)"
     d="M -2,-4 9,0 -2,4 c 2,-2.33 2,-5.66 0,-8 z"
     style="fill:context-stroke;fill-rule:evenodd;stroke:none"
     id="arrow2L" /></marker><inkscape:path-effect
   effect="bspline"
   id="path-effect638"
   is_visible="true"
   lpeversion="1"
   weight="33.333333"
   steps="2"
   helper_size="0"
   apply_no_weight="true"
   apply_with_weight="true"
   only_selected="false"
   uniform="false" /><marker
   style="overflow:visible"
   id="Arrow2-1"
   refX="0"
   refY="0"
   orient="auto-start-reverse"
   inkscape:stockid="Arrow2"
   markerWidth="7.6999998"
   markerHeight="5.5999999"
   viewBox="0 0 7.7 5.6"
   inkscape:isstock="true"
   inkscape:collect="always"
   preserveAspectRatio="xMidYMid"><path
     transform="scale(0.7)"
     d="M -2,-4 9,0 -2,4 c 2,-2.33 2,-5.66 0,-8 z"
     style="fill:context-stroke;fill-rule:evenodd;stroke:none"
     id="arrow2L-5" /></marker><inkscape:path-effect
   effect="bspline"
   id="path-effect638-2"
   is_visible="true"
   lpeversion="1"
   weight="33.333333"
   steps="2"
   helper_size="0"
   apply_no_weight="true"
   apply_with_weight="true"
   only_selected="false"
   uniform="false" /><clipPath
   id="clipPath7378">
      <path
   clip-rule="nonzero"
   d="m 14,8 h 8 v 16.648438 h -8 z m 0,0"
   id="path4150" />
    </clipPath>
  <clipPath
   id="clipPath9428">
      <path
   clip-rule="nonzero"
   d="m 14,14 h 8 v 17.191406 h -8 z m 0,0"
   id="path6246" />
    </clipPath>
  <clipPath
   id="clipPath1649">
      <path
   clip-rule="nonzero"
   d="m 121,21 h 7 v 16.449219 h -7 z m 0,0"
   id="path8279" />
    </clipPath>
    <clipPath
   id="clipPath500">
      <path
   clip-rule="nonzero"
   d="m 130,21 h 27 v 16.449219 h -27 z m 0,0"
   id="path9540" />
    </clipPath>
  <clipPath
   id="clipPath4380">
      <path
   clip-rule="nonzero"
   d="m 12,2 h 7 v 16.386719 h -7 z m 0,0"
   id="path8791" />
    </clipPath>
  <clipPath
   id="clipPath3479">
      <path
   clip-rule="nonzero"
   d="m 12,8 h 7 v 16.925781 h -7 z m 0,0"
   id="path1423" />
    </clipPath>
  <clipPath
   id="clipPath88">
      <path
   clip-rule="nonzero"
   d="m 12,8 h 7 v 16.925781 h -7 z m 0,0"
   id="path3235" />
    </clipPath>
    <clipPath
   id="clipPath1816">
      <path
   clip-rule="nonzero"
   d="m 63,8 h 7 v 16.925781 h -7 z m 0,0"
   id="path692" />
    </clipPath>
  <clipPath
   id="clipPath5816">
      <path
   clip-rule="nonzero"
   d="m 2,0 h 8 V 15.976563 H 2 Z m 0,0"
   id="path5408" />
    </clipPath>
  <clipPath
   id="clipPath9914">
      <path
   clip-rule="nonzero"
   d="M 1,0 H 11 V 15.976563 H 1 Z m 0,0"
   id="path9121" />
    </clipPath>
  <clipPath
   id="clipPath1139">
      <path
   clip-rule="nonzero"
   d="M 0,0 H 11 V 15.976563 H 0 Z m 0,0"
   id="path559" />
    </clipPath>
  <clipPath
   id="clipPath8260">
      <path
   clip-rule="nonzero"
   d="M 0,0 H 11 V 15.976563 H 0 Z m 0,0"
   id="path9275" />
    </clipPath>
  <clipPath
   id="clipPath5701">
      <path
   clip-rule="nonzero"
   d="M 1,0 H 11 V 15.976563 H 1 Z m 0,0"
   id="path7636" />
    </clipPath>
  <clipPath
   id="clipPath7881">
      <path
   clip-rule="nonzero"
   d="M 0,0 H 11 V 15.976563 H 0 Z m 0,0"
   id="path6891" />
    </clipPath>
  <clipPath
   id="clipPath402">
      <path
   clip-rule="nonzero"
   d="M 1,0 H 11.367188 V 15.976563 H 1 Z m 0,0"
   id="path1399" />
    </clipPath>
  <clipPath
   id="clipPath8071">
      <path
   clip-rule="nonzero"
   d="M 0,0 H 11 V 15.976563 H 0 Z m 0,0"
   id="path8487" />
    </clipPath>
  </defs><g
     inkscape:label="Ebene 1"
     inkscape:groupmode="layer"
     id="layer1"
     transform="translate(-44.128346,-23.414761)"><g
       id="squares"
       transform="matrix(0.8,0,0,0.8,27.781273,18.030664)"><rect
         style="fill:#d1d1d1;fill-opacity:1;fill-rule:evenodd;stroke:none;stroke-width:0.238126;stroke-opacity:1"
         id="rect10649"
         width="8.493412"
         height="8.4934044"
         x="50.997292"
         y="125.99902" /><rect
         style="fill:#d1d1d1;fill-opacity:1;fill-rule:evenodd;stroke:none;stroke-width:0.238126;stroke-opacity:1"
         id="rect10651"
         width="7.3330202"
         height="7.3330135"
         x="80.771103"
         y="123.09911" /><rect
         style="fill:#d1d1d1;fill-opacity:1;fill-rule:evenodd;stroke:none;stroke-width:1.18208;stroke-opacity:1"
         id="rect10653"
         width="21.582354"
         height="21.58234"
         x="76.69577"
         y="92.124893" /><rect
         style="fill:#d1d1d1;fill-opacity:1;fill-rule:evenodd;stroke:none;stroke-width:0.238126;stroke-opacity:1"
         id="rect10655"
         width="8.2285786"
         height="8.2285709"
         x="111.08366"
         y="94.243919" /><rect
         style="fill:#d1d1d1;fill-opacity:1;fill-rule:evenodd;stroke:none;stroke-width:0.718197;stroke-opacity:1"
         id="rect10657"
         width="18.79077"
         height="18.790752"
         x="136.62215"
         y="64.345901" /><rect
         style="fill:#d1d1d1;fill-opacity:1;fill-rule:evenodd;stroke:none;stroke-width:0.238126;stroke-opacity:1"
         id="rect10659"
         width="6.7868905"
         height="6.7868838"
         x="180.70703"
         y="59.173927" /><rect
         style="fill:#d1d1d1;fill-opacity:1;fill-rule:evenodd;stroke:none;stroke-width:0.238126;stroke-opacity:1"
         id="rect10661"
         width="9.9973154"
         height="9.9973068"
         x="193.69624"
         y="62.640152" /><rect
         style="fill:#d1d1d1;fill-opacity:1;fill-rule:evenodd;stroke:none;stroke-width:0.238126;stroke-opacity:1"
         id="rect10665"
         width="7.0492816"
         height="7.0492754"
         x="229.63551"
         y="32.575249" /></g><path
       style="fill:none;stroke:#000000;stroke-width:0.576002;stroke-linecap:butt;stroke-linejoin:miter;stroke-dasharray:none;stroke-opacity:1"
       d="M 70.155328,128.41854 220.03771,48.173053"
       id="bestfit"
       sodipodi:nodetypes="cc" /><path
       style="fill:none;stroke:#000000;stroke-width:0.840478;stroke-linecap:butt;stroke-linejoin:miter;stroke-dasharray:none;stroke-opacity:1;marker-end:url(#Arrow2)"
       d="m -61.027197,105.26529 c 0,0 208.199877,0 208.199877,0"
       id="path636"
       inkscape:path-effect="#path-effect638"
       inkscape:original-d="M -61.027197,105.26529 H 147.17268"
       sodipodi:nodetypes="cc"
       transform="matrix(0.84539696,0,0,0.86806904,104.78866,54.889897)" /><path
       style="fill:none;stroke:#000000;stroke-width:0.840478;stroke-linecap:butt;stroke-linejoin:miter;stroke-dasharray:none;stroke-opacity:1;marker-end:url(#Arrow2-1)"
       d="m -58.673859,107.61863 c 0,0 0,-134.064882 0,-134.064882"
       id="path636-9"
       inkscape:path-effect="#path-effect638-2"
       inkscape:original-d="M -58.673859,107.61863 V -26.446252"
       sodipodi:nodetypes="cc"
       transform="matrix(0.84539696,0,0,0.86806904,104.78866,54.889897)" /><text
       xml:space="preserve"
       style="font-size:3.04802px;line-height:1.25;font-family:sans-serif;-inkscape-font-specification:'sans-serif, Normal';text-align:center;text-anchor:middle;stroke-width:0.190501"
       x="-87.812202"
       y="51.312244"
       id="text1661"
       transform="matrix(0,-0.99999918,1.0000008,0,0,0)"><tspan
         sodipodi:role="line"
         id="tspan1659"
         style="font-style:normal;font-variant:normal;font-weight:normal;font-stretch:normal;font-size:9.144px;font-family:Bahnschrift;-inkscape-font-specification:'Bahnschrift, @wght=300,wdth=87.0';font-variant-ligatures:normal;font-variant-caps:normal;font-variant-numeric:normal;font-variant-east-asian:normal;font-variation-settings:'wdth' 87, 'wght' 300;stroke-width:0.190501"
         x="-87.812202"
         y="51.312244">Response (Y)</tspan></text><text
       xml:space="preserve"
       style="font-size:3.04802px;line-height:1.25;font-family:sans-serif;-inkscape-font-specification:'sans-serif, Normal';text-align:center;text-anchor:middle;stroke-width:0.190501"
       x="143.45148"
       y="155.49438"
       id="text1661-7"><tspan
         sodipodi:role="line"
         id="tspan1659-0"
         style="font-style:normal;font-variant:normal;font-weight:normal;font-stretch:normal;font-size:9.144px;font-family:Bahnschrift;-inkscape-font-specification:'Bahnschrift, @wght=300,wdth=87.0';font-variant-ligatures:normal;font-variant-caps:normal;font-variant-numeric:normal;font-variant-east-asian:normal;font-variation-settings:'wdth' 87, 'wght' 300;stroke-width:0.190501"
         x="143.45148"
         y="155.49438">Predictor (X)</tspan></text><g
       id="sse"
       transform="matrix(0.8453952,0,0,0.868068,100.22247,42.622386)"><rect
         style="fill:#ffffff;fill-opacity:1;fill-rule:evenodd;stroke-width:0.222376"
         id="rect18094"
         width="82.313606"
         height="17.570122"
         x="-6.5274377"
         y="-22.126867" /><g
         inkscape:label=""
         transform="matrix(0.851673,0,0,0.829428,-3.9341122,-18.878783)"
         id="g16867"><g
   fill="#000000"
   fill-opacity="1"
   id="g57"
   transform="matrix(0.352778,0,0,0.352778,-0.446484,0.140053)">
    <g
   id="use55"
   transform="translate(0,24.973)">
      <path
   d="m 15.734375,-17.21875 c 0,-0.234375 -0.171875,-0.234375 -0.21875,-0.234375 -0.109375,0 -0.125,0.03125 -0.421875,0.40625 -0.15625,0.171875 -1.171875,1.453125 -1.1875,1.484375 -0.828125,-1.609375 -2.453125,-1.890625 -3.5,-1.890625 -3.140625,0 -6,2.875 -6,5.6875 0,1.859375 1.125,2.9375 2.328125,3.359375 0.28125,0.109375 1.734375,0.5 2.484375,0.671875 1.265625,0.34375 1.578125,0.453125 2.109375,1 0.09375,0.125 0.59375,0.6875 0.59375,1.859375 0,2.296875 -2.140625,4.671875 -4.609375,4.671875 -2.03125,0 -4.296875,-0.859375 -4.296875,-3.640625 0,-0.46875 0.109375,-1.0625 0.1875,-1.3125 0,-0.078125 0.015625,-0.203125 0.015625,-0.25 0,-0.09375 -0.046875,-0.21875 -0.25,-0.21875 -0.21875,0 -0.25,0.046875 -0.34375,0.46875 l -1.265625,5.078125 c 0,0.03125 -0.09375,0.34375 -0.09375,0.375 0,0.21875 0.203125,0.21875 0.25,0.21875 0.09375,0 0.125,-0.015625 0.421875,-0.390625 l 1.140625,-1.484375 c 0.59375,0.890625 1.875,1.875 4.1875,1.875 3.1875,0 6.109375,-3.09375 6.109375,-6.1875 0,-1.046875 -0.234375,-1.953125 -1.1875,-2.875 C 11.671875,-9.0625 11.21875,-9.1875 8.953125,-9.78125 7.28125,-10.234375 7.0625,-10.3125 6.609375,-10.703125 6.1875,-11.125 5.875,-11.71875 5.875,-12.5625 c 0,-2.078125 2.109375,-4.21875 4.453125,-4.21875 2.4375,0 3.578125,1.484375 3.578125,3.84375 0,0.640625 -0.125,1.3125 -0.125,1.421875 0,0.21875 0.203125,0.21875 0.265625,0.21875 0.234375,0 0.25,-0.07813 0.34375,-0.46875 z m 0,0"
   id="path133" />
    </g>
  </g>
  <g
   fill="#000000"
   fill-opacity="1"
   id="g61"
   transform="matrix(0.352778,0,0,0.352778,-0.446484,0.140053)">
    <g
   id="use59"
   transform="translate(16.364443,24.973)">
      <path
   d="m 15.734375,-17.21875 c 0,-0.234375 -0.171875,-0.234375 -0.21875,-0.234375 -0.109375,0 -0.125,0.03125 -0.421875,0.40625 -0.15625,0.171875 -1.171875,1.453125 -1.1875,1.484375 -0.828125,-1.609375 -2.453125,-1.890625 -3.5,-1.890625 -3.140625,0 -6,2.875 -6,5.6875 0,1.859375 1.125,2.9375 2.328125,3.359375 0.28125,0.109375 1.734375,0.5 2.484375,0.671875 1.265625,0.34375 1.578125,0.453125 2.109375,1 0.09375,0.125 0.59375,0.6875 0.59375,1.859375 0,2.296875 -2.140625,4.671875 -4.609375,4.671875 -2.03125,0 -4.296875,-0.859375 -4.296875,-3.640625 0,-0.46875 0.109375,-1.0625 0.1875,-1.3125 0,-0.078125 0.015625,-0.203125 0.015625,-0.25 0,-0.09375 -0.046875,-0.21875 -0.25,-0.21875 -0.21875,0 -0.25,0.046875 -0.34375,0.46875 l -1.265625,5.078125 c 0,0.03125 -0.09375,0.34375 -0.09375,0.375 0,0.21875 0.203125,0.21875 0.25,0.21875 0.09375,0 0.125,-0.015625 0.421875,-0.390625 l 1.140625,-1.484375 c 0.59375,0.890625 1.875,1.875 4.1875,1.875 3.1875,0 6.109375,-3.09375 6.109375,-6.1875 0,-1.046875 -0.234375,-1.953125 -1.1875,-2.875 C 11.671875,-9.0625 11.21875,-9.1875 8.953125,-9.78125 7.28125,-10.234375 7.0625,-10.3125 6.609375,-10.703125 6.1875,-11.125 5.875,-11.71875 5.875,-12.5625 c 0,-2.078125 2.109375,-4.21875 4.453125,-4.21875 2.4375,0 3.578125,1.484375 3.578125,3.84375 0,0.640625 -0.125,1.3125 -0.125,1.421875 0,0.21875 0.203125,0.21875 0.265625,0.21875 0.234375,0 0.25,-0.07813 0.34375,-0.46875 z m 0,0"
   id="path137" />
    </g>
  </g>
  <g
   fill="#000000"
   fill-opacity="1"
   id="g65"
   transform="matrix(0.352778,0,0,0.352778,-0.446484,0.140053)">
    <g
   id="use63"
   transform="translate(32.728886,24.973)">
      <path
   d="M 17.21875,-5.75 C 17.25,-5.828125 17.328125,-6 17.328125,-6.09375 c 0,-0.125 -0.109375,-0.25 -0.25,-0.25 -0.109375,0 -0.15625,0.03125 -0.234375,0.09375 -0.04687,0.03125 -0.04687,0.078125 -0.265625,0.578125 -1.46875,3.46875 -2.53125,4.953125 -6.484375,4.953125 h -3.625 c -0.34375,0 -0.390625,0 -0.546875,-0.03125 C 5.65625,-0.765625 5.625,-0.8125 5.625,-1.015625 5.625,-1.1875 5.671875,-1.34375 5.71875,-1.5625 L 7.4375,-8.40625 h 2.453125 c 1.9375,0 2.078125,0.421875 2.078125,1.171875 0,0.25 0,0.46875 -0.171875,1.21875 -0.04687,0.09375 -0.07813,0.1875 -0.07813,0.265625 0,0.171875 0.125,0.25 0.28125,0.25 0.21875,0 0.234375,-0.171875 0.34375,-0.515625 l 1.40625,-5.75 c 0,-0.125 -0.09375,-0.25 -0.25,-0.25 -0.21875,0 -0.234375,0.09375 -0.34375,0.4375 -0.5,1.90625 -0.984375,2.453125 -3.1875,2.453125 h -2.35937 l 1.53125,-6.09375 c 0.234375,-0.859375 0.28125,-0.9375 1.296875,-0.9375 h 3.546875 c 3.046875,0 3.65625,0.8125 3.65625,2.703125 0,0.01563 0,0.71875 -0.09375,1.53125 -0.03125,0.09375 -0.04687,0.25 -0.04687,0.296875 0,0.203125 0.125,0.28125 0.265625,0.28125 0.171875,0 0.28125,-0.109375 0.328125,-0.546875 l 0.515625,-4.34375 c 0,-0.07813 0.04687,-0.3125 0.04687,-0.375 0,-0.265625 -0.21875,-0.265625 -0.671875,-0.265625 H 5.890625 c -0.46875,0 -0.71875,0 -0.71875,0.4375 0,0.28125 0.1875,0.28125 0.609375,0.28125 1.53125,0 1.53125,0.171875 1.53125,0.4375 0,0.125 -0.03125,0.234375 -0.09375,0.5 L 3.859375,-1.828125 c -0.21875,0.859375 -0.265625,1.109375 -2,1.109375 -0.46875,0 -0.71875,0 -0.71875,0.453125 C 1.140625,0 1.28125,0 1.78125,0 h 12.4375 c 0.546875,0 0.578125,-0.03125 0.75,-0.421875 z m 0,0"
   id="path141" />
    </g>
  </g>
  <g
   fill="#000000"
   fill-opacity="1"
   id="g69"
   transform="matrix(0.352778,0,0,0.352778,-0.446484,0.140053)">
    <g
   id="use67"
   transform="translate(59.043999,24.973)">
      <path
   d="m 15.9375,-7.953125 c 0.375,0 0.734375,0 0.734375,-0.421875 0,-0.453125 -0.421875,-0.453125 -0.84375,-0.453125 H 1.984375 c -0.421875,0 -0.84375,0 -0.84375,0.453125 0,0.421875 0.375,0.421875 0.75,0.421875 z m -0.109375,4.40625 c 0.421875,0 0.84375,0 0.84375,-0.4375 0,-0.421875 -0.359375,-0.421875 -0.734375,-0.421875 H 1.890625 c -0.375,0 -0.75,0 -0.75,0.421875 0,0.4375 0.421875,0.4375 0.84375,0.4375 z m 0,0"
   id="path145" />
    </g>
  </g>
  <g
   fill="#000000"
   fill-opacity="1"
   id="g73"
   transform="matrix(0.352778,0,0,0.352778,-0.446484,0.140053)">
    <g
   id="use71"
   transform="translate(83.772003,1.341)">
      <path
   d="M 14.6875,18.625 2.296875,33.9375 c -0.28125,0.34375 -0.3125,0.421875 -0.3125,0.546875 0,0.390625 0.3125,0.390625 0.9375,0.390625 H 31.84375 l 3,-8.6875 h -0.875 c -0.875,2.625 -3.203125,4.75 -6.171875,5.765625 -0.5625,0.171875 -2.96875,1 -8.09375,1 H 4.875 L 16.984375,18 c 0.25,-0.3125 0.3125,-0.421875 0.3125,-0.5625 0,-0.140625 -0.03125,-0.171875 -0.25,-0.484375 L 5.71875,1.390625 h 13.8125 c 3.96875,0 12,0.25 14.4375,6.765625 h 0.875 L 31.84375,0 H 2.921875 c -0.9375,0 -0.96875,0.03125 -0.96875,1.109375 z m 0,0"
   id="path149" />
    </g>
  </g>
  <g
   fill="#000000"
   fill-opacity="1"
   id="g77"
   transform="matrix(0.352778,0,0,0.352778,-0.446484,0.140053)">
    <g
   id="use75"
   transform="translate(120.578,10.911)">
      <path
   d="M 5.109375,-7.265625 C 5.15625,-7.40625 5.78125,-8.65625 6.6875,-9.4375 c 0.640625,-0.59375 1.484375,-1 2.453125,-1 1,0 1.34375,0.75 1.34375,1.734375 0,1.421875 -1.015625,4.25 -1.515625,5.578125 C 8.75,-2.53125 8.625,-2.203125 8.625,-1.765625 c 0,1.125 0.765625,2.015625 1.953125,2.015625 2.3125,0 3.171875,-3.640625 3.171875,-3.796875 0,-0.125 -0.09375,-0.21875 -0.25,-0.21875 -0.21875,0 -0.234375,0.078125 -0.359375,0.5 C 12.5625,-1.234375 11.625,-0.25 10.65625,-0.25 c -0.25,0 -0.640625,-0.015625 -0.640625,-0.8125 0,-0.625 0.265625,-1.359375 0.421875,-1.71875 0.484375,-1.359375 1.53125,-4.125 1.53125,-5.546875 0,-1.484375 -0.859375,-2.59375 -2.75,-2.59375 -2.203125,0 -3.375,1.546875 -3.8125,2.171875 -0.078125,-1.40625 -1.09375,-2.171875 -2.1875,-2.171875 -0.796875,0 -1.328125,0.46875 -1.75,1.3125 -0.453125,0.890625 -0.796875,2.375 -0.796875,2.46875 0,0.109375 0.09375,0.234375 0.265625,0.234375 0.203125,0 0.234375,-0.03125 0.375,-0.609375 0.390625,-1.5 0.84375,-2.921875 1.828125,-2.921875 0.578125,0 0.78125,0.40625 0.78125,1.140625 0,0.546875 -0.25,1.515625 -0.421875,2.28125 L 2.796875,-4.34375 c -0.09375,0.484375 -0.375,1.59375 -0.5,2.046875 C 2.125,-1.65625 1.859375,-0.5 1.859375,-0.375 1.859375,-0.03125 2.125,0.25 2.5,0.25 c 0.296875,0 0.640625,-0.15625 0.84375,-0.515625 0.046875,-0.125 0.28125,-1 0.390625,-1.5 l 0.546875,-2.21875 z m 0,0"
   id="path153" />
    </g>
  </g>
  <g
   clip-path="url(#clipPath1649)"
   id="g83"
   transform="matrix(0.352778,0,0,0.352778,-0.446484,0.140053)">
    <g
   fill="#000000"
   fill-opacity="1"
   id="g81">
      <g
   id="use79"
   transform="translate(120.578,37.450001)">
        <path
   d="m 7.015625,-3.546875 c 0,-0.125 -0.109375,-0.21875 -0.25,-0.21875 -0.21875,0 -0.25,0.078125 -0.375,0.5 C 5.75,-1.015625 4.734375,-0.25 3.921875,-0.25 c -0.296875,0 -0.65625,-0.078125 -0.65625,-0.8125 0,-0.671875 0.296875,-1.421875 0.578125,-2.15625 l 1.734375,-4.609375 c 0.078125,-0.203125 0.25,-0.640625 0.25,-1.125 0,-1.03125 -0.75,-1.96875 -1.96875,-1.96875 -2.265625,0 -3.1875,3.59375 -3.1875,3.78125 0,0.109375 0.09375,0.234375 0.265625,0.234375 0.234375,0 0.25,-0.109375 0.34375,-0.453125 0.609375,-2.078125 1.546875,-3.078125 2.515625,-3.078125 0.21875,0 0.640625,0.03125 0.640625,0.828125 0,0.640625 -0.328125,1.453125 -0.515625,2 L 2.1875,-3 c -0.15625,0.390625 -0.296875,0.796875 -0.296875,1.234375 0,1.125 0.765625,2.015625 1.953125,2.015625 2.28125,0 3.171875,-3.625 3.171875,-3.796875 z M 6.8125,-15.46875 c 0,-0.359375 -0.296875,-0.8125 -0.84375,-0.8125 -0.5625,0 -1.203125,0.546875 -1.203125,1.1875 0,0.625 0.515625,0.8125 0.8125,0.8125 0.671875,0 1.234375,-0.640625 1.234375,-1.1875 z m 0,0"
   id="path157" />
      </g>
    </g>
  </g>
  <g
   clip-path="url(#clipPath500)"
   id="g91"
   transform="matrix(0.352778,0,0,0.352778,-0.446484,0.140053)">
    <g
   fill="#000000"
   fill-opacity="1"
   id="g89">
      <g
   id="use85"
   transform="translate(128.858,37.450001)">
        <path
   d="m 15.9375,-7.953125 c 0.375,0 0.734375,0 0.734375,-0.421875 0,-0.453125 -0.421875,-0.453125 -0.84375,-0.453125 H 1.984375 c -0.421875,0 -0.84375,0 -0.84375,0.453125 0,0.421875 0.375,0.421875 0.75,0.421875 z m -0.109375,4.40625 c 0.421875,0 0.84375,0 0.84375,-0.4375 0,-0.421875 -0.359375,-0.421875 -0.734375,-0.421875 H 1.890625 c -0.375,0 -0.75,0 -0.75,0.421875 0,0.4375 0.421875,0.4375 0.84375,0.4375 z m 0,0"
   id="path161" />
      </g>
      <g
   id="use87"
   transform="translate(146.69975,37.450001)">
        <path
   d="m 6.59375,-15.828125 c 0,-0.53125 -0.03125,-0.546875 -0.375,-0.546875 -0.96875,1.15625 -2.421875,1.53125 -3.8125,1.578125 -0.078125,0 -0.203125,0 -0.21875,0.04687 -0.03125,0.0625 -0.03125,0.109375 -0.03125,0.625 0.765625,0 2.0625,-0.15625 3.046875,-0.75 v 13.0625 c 0,0.875 -0.046875,1.171875 -2.1875,1.171875 H 2.28125 V 0 c 1.1875,-0.03125 2.421875,-0.046875 3.609375,-0.046875 1.203125,0 2.4375,0.015625 3.625,0.046875 v -0.640625 h -0.75 c -2.125,0 -2.171875,-0.28125 -2.171875,-1.171875 z m 0,0"
   id="path165" />
      </g>
    </g>
  </g>
  <g
   fill="#000000"
   fill-opacity="1"
   id="g95"
   transform="matrix(0.352778,0,0,0.352778,-0.446484,0.140053)">
    <g
   id="use93"
   transform="translate(158.567,24.973)">
      <path
   d="m 7.578125,6.046875 c 0,-0.03125 0,-0.078125 -0.0625,-0.15625 -1.140625,-1.15625 -4.1875,-4.328125 -4.1875,-12.0625 0,-7.734375 2.984375,-10.875 4.203125,-12.109375 0,-0.03125 0.046875,-0.07813 0.046875,-0.15625 0,-0.07813 -0.0625,-0.125 -0.171875,-0.125 -0.265625,0 -2.375,1.828125 -3.59375,4.5625 -1.234375,2.75 -1.578125,5.421875 -1.578125,7.8125 0,1.78125 0.171875,4.796875 1.65625,8 1.1875,2.578125 3.21875,4.375 3.515625,4.375 0.125,0 0.171875,-0.046875 0.171875,-0.140625 z m 0,0"
   id="path169" />
    </g>
  </g>
  <g
   fill="#000000"
   fill-opacity="1"
   id="g99"
   transform="matrix(0.352778,0,0,0.352778,-0.446484,0.140053)">
    <g
   id="use97"
   transform="translate(167.34399,24.973)">
      <path
   d="M 6.515625,2.78125 C 5.84375,3.71875 4.875,4.5625 3.671875,4.5625 3.375,4.5625 2.1875,4.515625 1.8125,3.375 1.890625,3.390625 2,3.390625 2.0625,3.390625 2.796875,3.390625 3.296875,2.75 3.296875,2.1875 3.296875,1.609375 2.828125,1.40625 2.453125,1.40625 2.0625,1.40625 1.1875,1.703125 1.1875,2.921875 1.1875,4.1875 2.25,5.0625 3.671875,5.0625 c 2.46875,0 4.984375,-2.28125 5.671875,-5.03125 l 2.421875,-9.671875 c 0.03125,-0.125 0.07813,-0.265625 0.07813,-0.421875 0,-0.375 -0.296875,-0.625 -0.671875,-0.625 -0.21875,0 -0.734375,0.109375 -0.9375,0.84375 l -1.82813,7.296875 c -0.125,0.4375 -0.125,0.484375 -0.328125,0.765625 -0.5,0.6875 -1.3125,1.53125 -2.5,1.53125 C 4.1875,-0.25 4.0625,-1.609375 4.0625,-2.28125 c 0,-1.40625 0.671875,-3.3125 1.34375,-5.109375 0.265625,-0.71875 0.421875,-1.0625 0.421875,-1.5625 0,-1.03125 -0.75,-1.96875 -1.96875,-1.96875 -2.265625,0 -3.1875,3.59375 -3.1875,3.78125 0,0.109375 0.09375,0.234375 0.265625,0.234375 0.234375,0 0.25,-0.109375 0.34375,-0.453125 0.609375,-2.078125 1.546875,-3.078125 2.515625,-3.078125 0.21875,0 0.640625,0 0.640625,0.828125 0,0.640625 -0.28125,1.359375 -0.640625,2.296875 -1.21875,3.25 -1.21875,4.0625 -1.21875,4.65625 0,2.359375 1.6875,2.90625 2.921875,2.90625 0.71875,0 1.609375,-0.21875 2.484375,-1.140625 L 8,-0.875 C 7.625,0.59375 7.390625,1.5625 6.515625,2.78125 Z m 0,0"
   id="path173" />
    </g>
  </g>
  <g
   fill="#000000"
   fill-opacity="1"
   id="g103"
   transform="matrix(0.352778,0,0,0.352778,-0.446484,0.140053)">
    <g
   id="use101"
   transform="translate(179.17799,32.685001)">
      <path
   d="m 7.015625,-3.546875 c 0,-0.125 -0.109375,-0.21875 -0.25,-0.21875 -0.21875,0 -0.25,0.078125 -0.375,0.5 C 5.75,-1.015625 4.734375,-0.25 3.921875,-0.25 c -0.296875,0 -0.65625,-0.078125 -0.65625,-0.8125 0,-0.671875 0.296875,-1.421875 0.578125,-2.15625 l 1.734375,-4.609375 c 0.078125,-0.203125 0.25,-0.640625 0.25,-1.125 0,-1.03125 -0.75,-1.96875 -1.96875,-1.96875 -2.265625,0 -3.1875,3.59375 -3.1875,3.78125 0,0.109375 0.09375,0.234375 0.265625,0.234375 0.234375,0 0.25,-0.109375 0.34375,-0.453125 0.609375,-2.078125 1.546875,-3.078125 2.515625,-3.078125 0.21875,0 0.640625,0.03125 0.640625,0.828125 0,0.640625 -0.328125,1.453125 -0.515625,2 L 2.1875,-3 c -0.15625,0.390625 -0.296875,0.796875 -0.296875,1.234375 0,1.125 0.765625,2.015625 1.953125,2.015625 2.28125,0 3.171875,-3.625 3.171875,-3.796875 z M 6.8125,-15.46875 c 0,-0.359375 -0.296875,-0.8125 -0.84375,-0.8125 -0.5625,0 -1.203125,0.546875 -1.203125,1.1875 0,0.625 0.515625,0.8125 0.8125,0.8125 0.671875,0 1.234375,-0.640625 1.234375,-1.1875 z m 0,0"
   id="path177" />
    </g>
  </g>
  <g
   fill="#000000"
   fill-opacity="1"
   id="g107"
   transform="matrix(0.352778,0,0,0.352778,-0.446484,0.140053)">
    <g
   id="use105"
   transform="translate(193.464,24.973)">
      <path
   d="m 16.328125,-5.703125 c 0.421875,0 0.875,0 0.875,-0.484375 0,-0.5 -0.453125,-0.5 -0.875,-0.5 H 2.921875 c -0.421875,0 -0.859375,0 -0.859375,0.5 0,0.484375 0.4375,0.484375 0.859375,0.484375 z m 0,0"
   id="path181" />
    </g>
  </g>
  <g
   fill="#000000"
   fill-opacity="1"
   id="g111"
   transform="matrix(0.352778,0,0,0.352778,-0.446484,0.140053)">
    <g
   id="use109"
   transform="translate(220.278,24.971001)">
      <path
   d="m 5.671875,-17.203125 -3.046875,3.375 0.296875,0.296875 2.75,-2.671875 2.75,2.671875 0.296875,-0.296875 z m 0,0"
   id="path185" />
    </g>
  </g>
  <g
   fill="#000000"
   fill-opacity="1"
   id="g115"
   transform="matrix(0.352778,0,0,0.352778,-0.446484,0.140053)">
    <g
   id="use113"
   transform="translate(218.25101,24.973)">
      <path
   d="M 6.515625,2.78125 C 5.84375,3.71875 4.875,4.5625 3.671875,4.5625 3.375,4.5625 2.1875,4.515625 1.8125,3.375 1.890625,3.390625 2,3.390625 2.0625,3.390625 2.796875,3.390625 3.296875,2.75 3.296875,2.1875 3.296875,1.609375 2.828125,1.40625 2.453125,1.40625 2.0625,1.40625 1.1875,1.703125 1.1875,2.921875 1.1875,4.1875 2.25,5.0625 3.671875,5.0625 c 2.46875,0 4.984375,-2.28125 5.671875,-5.03125 l 2.421875,-9.671875 c 0.03125,-0.125 0.07813,-0.265625 0.07813,-0.421875 0,-0.375 -0.296875,-0.625 -0.671875,-0.625 -0.21875,0 -0.734375,0.109375 -0.9375,0.84375 l -1.82813,7.296875 c -0.125,0.4375 -0.125,0.484375 -0.328125,0.765625 -0.5,0.6875 -1.3125,1.53125 -2.5,1.53125 C 4.1875,-0.25 4.0625,-1.609375 4.0625,-2.28125 c 0,-1.40625 0.671875,-3.3125 1.34375,-5.109375 0.265625,-0.71875 0.421875,-1.0625 0.421875,-1.5625 0,-1.03125 -0.75,-1.96875 -1.96875,-1.96875 -2.265625,0 -3.1875,3.59375 -3.1875,3.78125 0,0.109375 0.09375,0.234375 0.265625,0.234375 0.234375,0 0.25,-0.109375 0.34375,-0.453125 0.609375,-2.078125 1.546875,-3.078125 2.515625,-3.078125 0.21875,0 0.640625,0 0.640625,0.828125 0,0.640625 -0.28125,1.359375 -0.640625,2.296875 -1.21875,3.25 -1.21875,4.0625 -1.21875,4.65625 0,2.359375 1.6875,2.90625 2.921875,2.90625 0.71875,0 1.609375,-0.21875 2.484375,-1.140625 L 8,-0.875 C 7.625,0.59375 7.390625,1.5625 6.515625,2.78125 Z m 0,0"
   id="path189" />
    </g>
  </g>
  <g
   fill="#000000"
   fill-opacity="1"
   id="g119"
   transform="matrix(0.352778,0,0,0.352778,-0.446484,0.140053)">
    <g
   id="use117"
   transform="translate(230.08501,32.685001)">
      <path
   d="m 7.015625,-3.546875 c 0,-0.125 -0.109375,-0.21875 -0.25,-0.21875 -0.21875,0 -0.25,0.078125 -0.375,0.5 C 5.75,-1.015625 4.734375,-0.25 3.921875,-0.25 c -0.296875,0 -0.65625,-0.078125 -0.65625,-0.8125 0,-0.671875 0.296875,-1.421875 0.578125,-2.15625 l 1.734375,-4.609375 c 0.078125,-0.203125 0.25,-0.640625 0.25,-1.125 0,-1.03125 -0.75,-1.96875 -1.96875,-1.96875 -2.265625,0 -3.1875,3.59375 -3.1875,3.78125 0,0.109375 0.09375,0.234375 0.265625,0.234375 0.234375,0 0.25,-0.109375 0.34375,-0.453125 0.609375,-2.078125 1.546875,-3.078125 2.515625,-3.078125 0.21875,0 0.640625,0.03125 0.640625,0.828125 0,0.640625 -0.328125,1.453125 -0.515625,2 L 2.1875,-3 c -0.15625,0.390625 -0.296875,0.796875 -0.296875,1.234375 0,1.125 0.765625,2.015625 1.953125,2.015625 2.28125,0 3.171875,-3.625 3.171875,-3.796875 z M 6.8125,-15.46875 c 0,-0.359375 -0.296875,-0.8125 -0.84375,-0.8125 -0.5625,0 -1.203125,0.546875 -1.203125,1.1875 0,0.625 0.515625,0.8125 0.8125,0.8125 0.671875,0 1.234375,-0.640625 1.234375,-1.1875 z m 0,0"
   id="path193" />
    </g>
  </g>
  <g
   fill="#000000"
   fill-opacity="1"
   id="g123"
   transform="matrix(0.352778,0,0,0.352778,-0.446484,0.140053)">
    <g
   id="use121"
   transform="translate(238.86301,24.973)">
      <path
   d="m 6.515625,-6.171875 c 0,-1.78125 -0.171875,-4.8125 -1.65625,-8 C 3.671875,-16.75 1.640625,-18.5625 1.34375,-18.5625 c -0.078125,0 -0.171875,0.03125 -0.171875,0.15625 0,0.04687 0.015625,0.0625 0.046875,0.125 1.1875,1.234375 4.203125,4.375 4.203125,12.09375 0,7.71875 -3,10.875 -4.203125,12.109375 C 1.1875,5.96875 1.171875,6 1.171875,6.046875 c 0,0.125 0.09375,0.140625 0.171875,0.140625 0.265625,0 2.375,-1.828125 3.59375,-4.546875 1.234375,-2.75 1.578125,-5.4375 1.578125,-7.8125 z m 0,0"
   id="path197" />
    </g>
  </g>
  <g
   fill="#000000"
   fill-opacity="1"
   id="g127"
   transform="matrix(0.352778,0,0,0.352778,-0.446484,0.140053)">
    <g
   id="use125"
   transform="translate(247.64101,15.978)">
      <path
   d="m 10.328125,-3.84375 h -0.4375 C 9.640625,-2.078125 9.4375,-1.78125 9.34375,-1.640625 9.21875,-1.4375 7.4375,-1.4375 7.09375,-1.4375 H 2.328125 c 0.890625,-0.96875 2.625,-2.71875 4.734375,-4.75 1.515625,-1.4375 3.265625,-3.125 3.265625,-5.578125 C 10.328125,-14.6875 8,-16.375 5.40625,-16.375 c -2.734375,0 -4.390625,2.390625 -4.390625,4.625 0,0.96875 0.71875,1.09375 1.015625,1.09375 0.25,0 0.984375,-0.140625 0.984375,-1.015625 0,-0.765625 -0.640625,-0.984375 -0.984375,-0.984375 -0.140625,0 -0.296875,0.01563 -0.390625,0.0625 0.46875,-2.09375 1.90625,-3.140625 3.421875,-3.140625 2.15625,0 3.5625,1.703125 3.5625,3.96875 0,2.15625 -1.265625,4.015625 -2.671875,5.625 L 1.015625,-0.5625 V 0 h 8.71875 z m 0,0"
   id="path201" />
    </g>
  </g>
</g></g><g
       id="datavalue"
       transform="matrix(0.8,0,0,0.8,27.781273,18.030664)"><text
         xml:space="preserve"
         style="font-size:3.81002px;line-height:1.25;font-family:sans-serif;-inkscape-font-specification:'sans-serif, Normal';text-align:center;text-anchor:middle;stroke-width:0.238126"
         x="110.56956"
         y="129.2357"
         id="text1661-7-8"><tspan
           sodipodi:role="line"
           id="tspan1659-0-3"
           style="font-style:normal;font-variant:normal;font-weight:normal;font-stretch:normal;font-size:11.43px;font-family:Bahnschrift;-inkscape-font-specification:'Bahnschrift, @wght=300,wdth=87.0';font-variant-ligatures:normal;font-variant-caps:normal;font-variant-numeric:normal;font-variant-east-asian:normal;font-variation-settings:'wdth' 87, 'wght' 300;stroke-width:0.238126"
           x="110.56956"
           y="129.2357">Data </tspan><tspan
           sodipodi:role="line"
           style="font-style:normal;font-variant:normal;font-weight:normal;font-stretch:normal;font-size:11.43px;font-family:Bahnschrift;-inkscape-font-specification:'Bahnschrift, @wght=300,wdth=87.0';font-variant-ligatures:normal;font-variant-caps:normal;font-variant-numeric:normal;font-variant-east-asian:normal;font-variation-settings:'wdth' 87, 'wght' 300;stroke-width:0.238126"
           x="110.56956"
           y="143.52321"
           id="tspan16619">value</tspan></text><path
         style="fill:none;stroke:#000000;stroke-width:0.45;stroke-linecap:butt;stroke-linejoin:miter;stroke-dasharray:1.35001, 1.35001;stroke-dashoffset:0;stroke-opacity:1"
         d="M 136.62214,64.345904 V 160.44064"
         id="path10716" /><path
         d="m 135.86596,160.17559 c -5.86249,0 -10.61468,-4.75219 -10.61468,-10.61467 v -19.5018 c 0,-2.59635 0,-3.89452 -0.2935,-5.11627 -0.26006,-1.08269 -0.68889,-2.11815 -1.27057,-3.06817 -0.65652,-1.07102 -1.57469,-1.98919 -3.4105,-3.82499 l -5.64011,-5.64011 5.64011,-5.6401 c 1.83581,-1.83581 2.75398,-2.75397 3.4105,-3.82499 0.58168,-0.95002 1.01051,-1.98527 1.27057,-3.068386 0.2935,-1.221589 0.2935,-2.51971 0.2935,-5.115951 V 75.25825 c 0,-5.862322 4.75219,-10.614668 10.61468,-10.614668"
         stroke="#000000"
         stroke-width="2"
         stroke-linecap="round"
         stroke-linejoin="round"
         id="path11275"
         style="font-size:3.55803px;line-height:1.25;-inkscape-font-specification:'sans-serif, Normal';text-align:center;text-anchor:middle;fill:none;stroke-width:0.900002;stroke-dasharray:none" /><g
         inkscape:label=""
         transform="matrix(0.90000033,0,0,0.89999988,107.51649,109.45118)"
         id="g17263"><g
   fill="#000000"
   fill-opacity="1"
   id="g17253"
   transform="matrix(0.352778,0,0,0.352778,-0.237023,0.0877974)">
    <g
   id="g17251"
   transform="translate(0,10.673)">
      <path
   d="M 6.515625,2.78125 C 5.84375,3.71875 4.875,4.5625 3.671875,4.5625 3.375,4.5625 2.1875,4.515625 1.8125,3.375 1.890625,3.390625 2,3.390625 2.0625,3.390625 2.796875,3.390625 3.296875,2.75 3.296875,2.1875 3.296875,1.609375 2.828125,1.40625 2.453125,1.40625 2.0625,1.40625 1.1875,1.703125 1.1875,2.921875 1.1875,4.1875 2.25,5.0625 3.671875,5.0625 c 2.46875,0 4.984375,-2.28125 5.671875,-5.03125 l 2.421875,-9.671875 c 0.03125,-0.125 0.07813,-0.265625 0.07813,-0.421875 0,-0.375 -0.296875,-0.625 -0.671875,-0.625 -0.21875,0 -0.734375,0.109375 -0.9375,0.84375 l -1.82813,7.296875 c -0.125,0.4375 -0.125,0.484375 -0.328125,0.765625 -0.5,0.6875 -1.3125,1.53125 -2.5,1.53125 C 4.1875,-0.25 4.0625,-1.609375 4.0625,-2.28125 c 0,-1.40625 0.671875,-3.3125 1.34375,-5.109375 0.265625,-0.71875 0.421875,-1.0625 0.421875,-1.5625 0,-1.03125 -0.75,-1.96875 -1.96875,-1.96875 -2.265625,0 -3.1875,3.59375 -3.1875,3.78125 0,0.109375 0.09375,0.234375 0.265625,0.234375 0.234375,0 0.25,-0.109375 0.34375,-0.453125 0.609375,-2.078125 1.546875,-3.078125 2.515625,-3.078125 0.21875,0 0.640625,0 0.640625,0.828125 0,0.640625 -0.28125,1.359375 -0.640625,2.296875 -1.21875,3.25 -1.21875,4.0625 -1.21875,4.65625 0,2.359375 1.6875,2.90625 2.921875,2.90625 0.71875,0 1.609375,-0.21875 2.484375,-1.140625 L 8,-0.875 C 7.625,0.59375 7.390625,1.5625 6.515625,2.78125 Z m 0,0"
   id="path17249" />
    </g>
  </g>
  <g
   clip-path="url(#clipPath4380)"
   id="g17261"
   transform="matrix(0.352778,0,0,0.352778,-0.237023,0.0877974)">
    <g
   fill="#000000"
   fill-opacity="1"
   id="g17259">
      <g
   id="g17257"
   transform="translate(11.834,18.385)">
        <path
   d="m 7.015625,-3.546875 c 0,-0.125 -0.109375,-0.21875 -0.25,-0.21875 -0.21875,0 -0.25,0.078125 -0.375,0.5 C 5.75,-1.015625 4.734375,-0.25 3.921875,-0.25 c -0.296875,0 -0.65625,-0.078125 -0.65625,-0.8125 0,-0.671875 0.296875,-1.421875 0.578125,-2.15625 l 1.734375,-4.609375 c 0.078125,-0.203125 0.25,-0.640625 0.25,-1.125 0,-1.03125 -0.75,-1.96875 -1.96875,-1.96875 -2.265625,0 -3.1875,3.59375 -3.1875,3.78125 0,0.109375 0.09375,0.234375 0.265625,0.234375 0.234375,0 0.25,-0.109375 0.34375,-0.453125 0.609375,-2.078125 1.546875,-3.078125 2.515625,-3.078125 0.21875,0 0.640625,0.03125 0.640625,0.828125 0,0.640625 -0.328125,1.453125 -0.515625,2 L 2.1875,-3 c -0.15625,0.390625 -0.296875,0.796875 -0.296875,1.234375 0,1.125 0.765625,2.015625 1.953125,2.015625 2.28125,0 3.171875,-3.625 3.171875,-3.796875 z M 6.8125,-15.46875 c 0,-0.359375 -0.296875,-0.8125 -0.84375,-0.8125 -0.5625,0 -1.203125,0.546875 -1.203125,1.1875 0,0.625 0.515625,0.8125 0.8125,0.8125 0.671875,0 1.234375,-0.640625 1.234375,-1.1875 z m 0,0"
   id="path17255" />
      </g>
    </g>
  </g>
</g></g><g
       id="predictedvalue"
       transform="matrix(0.8,0,0,0.8,27.781273,18.030664)"><path
         d="m 156.01753,159.66647 c 5.88539,0 10.65615,-3.82016 10.65615,-8.53287 v -15.67701 c 0,-2.08714 0,-3.13071 0.29464,-4.11284 0.26108,-0.87035 0.69158,-1.70273 1.27554,-2.46643 0.65908,-0.86096 1.58084,-1.59906 3.42382,-3.07481 l 5.66214,-4.53394 -5.66214,-4.53394 c -1.84298,-1.47576 -2.76474,-2.21386 -3.42382,-3.07482 -0.58396,-0.76369 -1.01446,-1.5959 -1.27554,-2.4666 -0.29464,-0.982 -0.29464,-2.02553 -0.29464,-4.11258 V 91.403528 c 0,-4.712574 -4.77076,-8.532867 -10.65615,-8.532867"
         stroke="#000000"
         stroke-width="2"
         stroke-linecap="round"
         stroke-linejoin="round"
         id="path11275-6"
         style="font-size:3.55803px;line-height:1.25;-inkscape-font-specification:'sans-serif, Normal';text-align:center;text-anchor:middle;fill:none;stroke-width:0.961135;stroke-dasharray:none" /><path
         style="fill:none;stroke:#000000;stroke-width:0.45;stroke-linecap:butt;stroke-linejoin:miter;stroke-dasharray:1.35001, 1.35001;stroke-dashoffset:0;stroke-opacity:1"
         d="M 155.22661,82.820054 V 160.06239"
         id="path10716-8"
         sodipodi:nodetypes="cc" /><text
         xml:space="preserve"
         style="font-size:3.81001px;line-height:1.25;font-family:sans-serif;-inkscape-font-specification:'sans-serif, Normal';text-align:center;text-anchor:middle;stroke-width:0.238126"
         x="209.91809"
         y="118.14046"
         id="text1661-7-8-9"><tspan
           sodipodi:role="line"
           id="tspan1659-0-3-6"
           style="font-style:normal;font-variant:normal;font-weight:normal;font-stretch:normal;font-size:11.43px;font-family:Bahnschrift;-inkscape-font-specification:'Bahnschrift, @wght=300,wdth=87.0';font-variant-ligatures:normal;font-variant-caps:normal;font-variant-numeric:normal;font-variant-east-asian:normal;font-variation-settings:'wdth' 87, 'wght' 300;stroke-width:0.238126"
           x="209.91809"
           y="118.14046">Predicted </tspan><tspan
           sodipodi:role="line"
           style="font-style:normal;font-variant:normal;font-weight:normal;font-stretch:normal;font-size:11.43px;font-family:Bahnschrift;-inkscape-font-specification:'Bahnschrift, @wght=300,wdth=87.0';font-variant-ligatures:normal;font-variant-caps:normal;font-variant-numeric:normal;font-variant-east-asian:normal;font-variation-settings:'wdth' 87, 'wght' 300;stroke-width:0.238126"
           x="209.91809"
           y="132.42796"
           id="tspan16617">value</tspan></text><g
         inkscape:label=""
         transform="matrix(0.90000033,0,0,0.89999988,179.9847,117.31316)"
         id="g17617"><g
   fill="#000000"
   fill-opacity="1"
   id="g22"
   transform="matrix(0.352778,0,0,0.352778,-0.237023,-0.00348345)">
    <g
   id="use20"
   transform="translate(4.6220002,17.212999)">
      <path
   d="m 5.671875,-17.203125 -3.046875,3.375 0.296875,0.296875 2.75,-2.671875 2.75,2.671875 0.296875,-0.296875 z m 0,0"
   id="path17599" />
    </g>
  </g>
  <g
   fill="#000000"
   fill-opacity="1"
   id="g17607"
   transform="matrix(0.352778,0,0,0.352778,-0.237023,-0.00348345)">
    <g
   id="g17605"
   transform="translate(0,17.215)">
      <path
   d="M 6.515625,2.78125 C 5.84375,3.71875 4.875,4.5625 3.671875,4.5625 3.375,4.5625 2.1875,4.515625 1.8125,3.375 1.890625,3.390625 2,3.390625 2.0625,3.390625 2.796875,3.390625 3.296875,2.75 3.296875,2.1875 3.296875,1.609375 2.828125,1.40625 2.453125,1.40625 2.0625,1.40625 1.1875,1.703125 1.1875,2.921875 1.1875,4.1875 2.25,5.0625 3.671875,5.0625 c 2.46875,0 4.984375,-2.28125 5.671875,-5.03125 l 2.421875,-9.671875 c 0.03125,-0.125 0.07813,-0.265625 0.07813,-0.421875 0,-0.375 -0.296875,-0.625 -0.671875,-0.625 -0.21875,0 -0.734375,0.109375 -0.9375,0.84375 l -1.82813,7.296875 c -0.125,0.4375 -0.125,0.484375 -0.328125,0.765625 -0.5,0.6875 -1.3125,1.53125 -2.5,1.53125 C 4.1875,-0.25 4.0625,-1.609375 4.0625,-2.28125 c 0,-1.40625 0.671875,-3.3125 1.34375,-5.109375 0.265625,-0.71875 0.421875,-1.0625 0.421875,-1.5625 0,-1.03125 -0.75,-1.96875 -1.96875,-1.96875 -2.265625,0 -3.1875,3.59375 -3.1875,3.78125 0,0.109375 0.09375,0.234375 0.265625,0.234375 0.234375,0 0.25,-0.109375 0.34375,-0.453125 0.609375,-2.078125 1.546875,-3.078125 2.515625,-3.078125 0.21875,0 0.640625,0 0.640625,0.828125 0,0.640625 -0.28125,1.359375 -0.640625,2.296875 -1.21875,3.25 -1.21875,4.0625 -1.21875,4.65625 0,2.359375 1.6875,2.90625 2.921875,2.90625 0.71875,0 1.609375,-0.21875 2.484375,-1.140625 L 8,-0.875 C 7.625,0.59375 7.390625,1.5625 6.515625,2.78125 Z m 0,0"
   id="path17603" />
    </g>
  </g>
  <g
   clip-path="url(#clipPath3479)"
   id="g17615"
   transform="matrix(0.352778,0,0,0.352778,-0.237023,-0.00348345)">
    <g
   fill="#000000"
   fill-opacity="1"
   id="g17613">
      <g
   id="g17611"
   transform="translate(11.834,24.927)">
        <path
   d="m 7.015625,-3.546875 c 0,-0.125 -0.109375,-0.21875 -0.25,-0.21875 -0.21875,0 -0.25,0.078125 -0.375,0.5 C 5.75,-1.015625 4.734375,-0.25 3.921875,-0.25 c -0.296875,0 -0.65625,-0.078125 -0.65625,-0.8125 0,-0.671875 0.296875,-1.421875 0.578125,-2.15625 l 1.734375,-4.609375 c 0.078125,-0.203125 0.25,-0.640625 0.25,-1.125 0,-1.03125 -0.75,-1.96875 -1.96875,-1.96875 -2.265625,0 -3.1875,3.59375 -3.1875,3.78125 0,0.109375 0.09375,0.234375 0.265625,0.234375 0.234375,0 0.25,-0.109375 0.34375,-0.453125 0.609375,-2.078125 1.546875,-3.078125 2.515625,-3.078125 0.21875,0 0.640625,0.03125 0.640625,0.828125 0,0.640625 -0.328125,1.453125 -0.515625,2 L 2.1875,-3 c -0.15625,0.390625 -0.296875,0.796875 -0.296875,1.234375 0,1.125 0.765625,2.015625 1.953125,2.015625 2.28125,0 3.171875,-3.625 3.171875,-3.796875 z M 6.8125,-15.46875 c 0,-0.359375 -0.296875,-0.8125 -0.84375,-0.8125 -0.5625,0 -1.203125,0.546875 -1.203125,1.1875 0,0.625 0.515625,0.8125 0.8125,0.8125 0.671875,0 1.234375,-0.640625 1.234375,-1.1875 z m 0,0"
   id="path17609" />
      </g>
    </g>
  </g>
</g></g><g
       id="datapoints"
       transform="matrix(0.8,0,0,0.8,27.781273,18.030664)"><ellipse
         style="font-variation-settings:'wdth' 87, 'wght' 300;fill:#4a4a4a;fill-opacity:1;fill-rule:evenodd;stroke:none;stroke-width:0.258507;stroke-linecap:round;stroke-opacity:1"
         id="path10144"
         cx="50.815418"
         cy="125.97775"
         rx="2.1224508"
         ry="2.1190279" /><ellipse
         style="font-variation-settings:'wdth' 87, 'wght' 300;fill:#4a4a4a;fill-opacity:1;fill-rule:evenodd;stroke:none;stroke-width:0.258507;stroke-linecap:round;stroke-opacity:1"
         id="path10144-7"
         cx="87.922249"
         cy="130.41086"
         rx="2.1224508"
         ry="2.1190279" /><ellipse
         style="font-variation-settings:'wdth' 87, 'wght' 300;fill:#4a4a4a;fill-opacity:1;fill-rule:evenodd;stroke:none;stroke-width:0.258507;stroke-linecap:round;stroke-opacity:1"
         id="path10144-6"
         cx="76.706863"
         cy="92.124893"
         rx="2.1224508"
         ry="2.1190279" /><ellipse
         style="font-variation-settings:'wdth' 87, 'wght' 300;fill:#4a4a4a;fill-opacity:1;fill-rule:evenodd;stroke:none;stroke-width:0.258507;stroke-linecap:round;stroke-opacity:1"
         id="path10144-64"
         cx="111.08366"
         cy="94.243919"
         rx="2.1224508"
         ry="2.1190279" /><ellipse
         style="font-variation-settings:'wdth' 87, 'wght' 300;fill:#4a4a4a;fill-opacity:1;fill-rule:evenodd;stroke:none;stroke-width:0.258507;stroke-linecap:round;stroke-opacity:1"
         id="path10144-68"
         cx="203.51167"
         cy="72.616203"
         rx="2.1224508"
         ry="2.1190279" /><ellipse
         style="font-variation-settings:'wdth' 87, 'wght' 300;fill:#4a4a4a;fill-opacity:1;fill-rule:evenodd;stroke:none;stroke-width:0.258507;stroke-linecap:round;stroke-opacity:1"
         id="path10144-5"
         cx="229.45364"
         cy="32.553989"
         rx="2.1224511"
         ry="2.1190279" /><ellipse
         style="font-variation-settings:'wdth' 87, 'wght' 300;fill:#4a4a4a;fill-opacity:1;fill-rule:evenodd;stroke:none;stroke-width:0.258507;stroke-linecap:round;stroke-opacity:1"
         id="path10144-17"
         cx="180.52515"
         cy="59.152668"
         rx="2.1224508"
         ry="2.1190279" /><ellipse
         style="font-variation-settings:'wdth' 87, 'wght' 300;fill:#4a4a4a;fill-opacity:1;fill-rule:evenodd;stroke:none;stroke-width:0.258507;stroke-linecap:round;stroke-opacity:1"
         id="path10144-1"
         cx="136.44026"
         cy="64.457268"
         rx="2.1224508"
         ry="2.1190279" /><g
         inkscape:label=""
         transform="matrix(0.90000033,0,0,0.89999988,54.075695,127.58339)"
         id="g19678"><g
   clip-path="url(#clipPath5816)"
   id="g17"
   transform="matrix(0.352778,0,0,0.352778,-0.760677,0.140053)">
    <g
   fill="#000000"
   fill-opacity="1"
   id="g15">
      <g
   id="use13"
   transform="translate(0,15.978)">
        <path
   d="m 6.59375,-15.828125 c 0,-0.53125 -0.03125,-0.546875 -0.375,-0.546875 -0.96875,1.15625 -2.421875,1.53125 -3.8125,1.578125 -0.078125,0 -0.203125,0 -0.21875,0.04687 -0.03125,0.0625 -0.03125,0.109375 -0.03125,0.625 0.765625,0 2.0625,-0.15625 3.046875,-0.75 v 13.0625 c 0,0.875 -0.046875,1.171875 -2.1875,1.171875 H 2.28125 V 0 c 1.1875,-0.03125 2.421875,-0.046875 3.609375,-0.046875 1.203125,0 2.4375,0.015625 3.625,0.046875 v -0.640625 h -0.75 c -2.125,0 -2.171875,-0.28125 -2.171875,-1.171875 z m 0,0"
   id="path23" />
      </g>
    </g>
  </g>
</g><g
         inkscape:label=""
         transform="matrix(0.90000033,0,0,0.89999988,82.959253,124.10329)"
         id="g20422"><g
   clip-path="url(#clipPath9914)"
   id="g20420"
   transform="matrix(0.352778,0,0,0.352778,-0.35829,0.140053)">
    <g
   fill="#000000"
   fill-opacity="1"
   id="g20418">
      <g
   id="g20416"
   transform="translate(0,15.978)">
        <path
   d="m 10.328125,-3.84375 h -0.4375 C 9.640625,-2.078125 9.4375,-1.78125 9.34375,-1.640625 9.21875,-1.4375 7.4375,-1.4375 7.09375,-1.4375 H 2.328125 c 0.890625,-0.96875 2.625,-2.71875 4.734375,-4.75 1.515625,-1.4375 3.265625,-3.125 3.265625,-5.578125 C 10.328125,-14.6875 8,-16.375 5.40625,-16.375 c -2.734375,0 -4.390625,2.390625 -4.390625,4.625 0,0.96875 0.71875,1.09375 1.015625,1.09375 0.25,0 0.984375,-0.140625 0.984375,-1.015625 0,-0.765625 -0.640625,-0.984375 -0.984375,-0.984375 -0.140625,0 -0.296875,0.01563 -0.390625,0.0625 0.46875,-2.09375 1.90625,-3.140625 3.421875,-3.140625 2.15625,0 3.5625,1.703125 3.5625,3.96875 0,2.15625 -1.265625,4.015625 -2.671875,5.625 L 1.015625,-0.5625 V 0 h 8.71875 z m 0,0"
   id="path20414" />
      </g>
    </g>
  </g>
</g><g
         inkscape:label=""
         transform="matrix(0.90000033,0,0,0.89999988,85.944093,100.25373)"
         id="g20805"><g
   clip-path="url(#clipPath1139)"
   id="g20803"
   transform="matrix(0.352778,0,0,0.352778,-0.286632,0.140053)">
    <g
   fill="#000000"
   fill-opacity="1"
   id="g20801">
      <g
   id="g20799"
   transform="translate(0,15.978)">
        <path
   d="m 5.484375,-8.421875 c 2.203125,0 3.171875,1.90625 3.171875,4.109375 0,2.96875 -1.59375,4.109375 -3.03125,4.109375 -1.3125,0 -3.4375,-0.640625 -4.109375,-2.546875 0.125,0.046875 0.25,0.046875 0.375,0.046875 0.59375,0 1.03125,-0.390625 1.03125,-1.03125 0,-0.71875 -0.546875,-1.046875 -1.03125,-1.046875 -0.421875,0 -1.078125,0.203125 -1.078125,1.109375 0,2.28125 2.234375,4.0625 4.859375,4.0625 2.75,0 4.859375,-2.15625 4.859375,-4.671875 0,-2.40625 -1.984375,-4.140625 -4.34375,-4.421875 1.890625,-0.390625 3.703125,-2.078125 3.703125,-4.328125 0,-1.9375 -1.953125,-3.34375 -4.1875,-3.34375 -2.265625,0 -4.234375,1.375 -4.234375,3.359375 0,0.875 0.640625,1.015625 0.953125,1.015625 0.53125,0 0.96875,-0.3125 0.96875,-0.953125 0,-0.65625 -0.4375,-0.96875 -0.96875,-0.96875 -0.09375,0 -0.21875,0 -0.3125,0.04687 0.71875,-1.640625 2.671875,-1.9375 3.546875,-1.9375 0.859375,0 2.5,0.421875 2.5,2.796875 0,0.703125 -0.109375,1.9375 -0.9375,3.03125 -0.75,0.96875 -1.59375,1.015625 -2.40625,1.09375 -0.125,0 -0.703125,0.046875 -0.796875,0.046875 -0.171875,0.015625 -0.28125,0.046875 -0.28125,0.21875 0,0.171875 0.03125,0.203125 0.53125,0.203125 z m 0,0"
   id="path20797" />
      </g>
    </g>
  </g>
</g><g
         inkscape:label=""
         transform="matrix(0.90000033,0,0,0.89999988,113.5534,95.631382)"
         id="g21202"><g
   clip-path="url(#clipPath8260)"
   id="g21200"
   transform="matrix(0.352778,0,0,0.352778,-0.176389,0.211711)">
    <g
   fill="#000000"
   fill-opacity="1"
   id="g21198">
      <g
   id="g21196"
   transform="translate(0,15.978)">
        <path
   d="m 8.328125,-16.03125 c 0,-0.515625 -0.03125,-0.546875 -0.46875,-0.546875 L 0.5,-4.859375 v 0.640625 h 6.390625 v 2.4375 c 0,0.890625 -0.046875,1.140625 -1.78125,1.140625 H 4.640625 V 0 c 0.78125,-0.046875 2.125,-0.046875 2.96875,-0.046875 0.84375,0 2.171875,0 2.96875,0.046875 v -0.640625 h -0.46875 c -1.734375,0 -1.78125,-0.25 -1.78125,-1.140625 v -2.4375 h 2.53125 v -0.640625 h -2.53125 z m -1.359375,1.640625 v 9.53125 H 0.984375 Z m 0,0"
   id="path21194" />
      </g>
    </g>
  </g>
</g><g
         inkscape:label=""
         transform="matrix(0.90000033,0,0,0.89999988,144.53916,71.083909)"
         id="g21613"><g
   clip-path="url(#clipPath5701)"
   id="g21611"
   transform="matrix(0.352778,0,0,0.352778,-0.35829,0.134541)">
    <g
   fill="#000000"
   fill-opacity="1"
   id="g21609">
      <g
   id="g21607"
   transform="translate(0,15.978)">
        <path
   d="m 2.828125,-14.5 c 0.25,0.109375 1.265625,0.421875 2.296875,0.421875 2.3125,0 3.578125,-1.234375 4.296875,-1.953125 0,-0.203125 0,-0.328125 -0.15625,-0.328125 -0.015625,0 -0.078125,0 -0.265625,0.109375 -0.875,0.359375 -1.890625,0.65625 -3.125,0.65625 -0.75,0 -1.859375,-0.09375 -3.078125,-0.640625 -0.265625,-0.125 -0.3125,-0.125 -0.34375,-0.125 -0.125,0 -0.15625,0.03125 -0.15625,0.53125 v 7.171875 c 0,0.453125 0,0.578125 0.25,0.578125 0.125,0 0.171875,-0.046875 0.296875,-0.21875 0.796875,-1.125 1.890625,-1.59375 3.125,-1.59375 0.875,0 2.734375,0.546875 2.734375,4.78125 0,0.796875 0,2.234375 -0.75,3.375 -0.625,1.015625 -1.578125,1.53125 -2.65625,1.53125 C 3.671875,-0.203125 2,-1.34375 1.5625,-3.25 c 0.09375,0.03125 0.296875,0.078125 0.390625,0.078125 0.328125,0 0.953125,-0.171875 0.953125,-0.9375 0,-0.671875 -0.484375,-0.953125 -0.953125,-0.953125 -0.5625,0 -0.9375,0.359375 -0.9375,1.046875 0,2.15625 1.703125,4.40625 4.34375,4.40625 2.546875,0 4.96875,-2.203125 4.96875,-5.390625 0,-2.984375 -1.921875,-5.28125 -4.328125,-5.28125 -1.265625,0 -2.328125,0.46875 -3.171875,1.359375 z m 0,0"
   id="path21605" />
      </g>
    </g>
  </g>
</g><g
         inkscape:label=""
         transform="matrix(0.90000033,0,0,0.89999988,182.59731,59.905042)"
         id="g22038"><g
   clip-path="url(#clipPath7881)"
   id="g22036"
   transform="matrix(0.352778,0,0,0.352778,-0.330729,0.140053)">
    <g
   fill="#000000"
   fill-opacity="1"
   id="g22034">
      <g
   id="g22032"
   transform="translate(0,15.978)">
        <path
   d="m 2.625,-8.546875 c 0,-5.921875 2.78125,-7.265625 4.390625,-7.265625 0.515625,0 1.78125,0.09375 2.28125,1.0625 -0.40625,0 -1.140625,0 -1.140625,0.875 0,0.671875 0.546875,0.890625 0.890625,0.890625 0.21875,0 0.890625,-0.09375 0.890625,-0.9375 0,-1.5625 -1.234375,-2.453125 -2.953125,-2.453125 -2.9375,0 -6.046875,3.0625 -6.046875,8.546875 0,6.734375 2.796875,8.21875 4.78125,8.21875 2.40625,0 4.6875,-2.15625 4.6875,-5.46875 0,-3.09375 -2,-5.359375 -4.53125,-5.359375 -1.515625,0 -2.625,1 -3.25,2.734375 z m 3.09375,8.34375 c -3.046875,0 -3.046875,-4.5625 -3.046875,-5.46875 0,-1.78125 0.84375,-4.359375 3.15625,-4.359375 0.421875,0 1.625,0 2.453125,1.703125 0.4375,0.96875 0.4375,1.984375 0.4375,3.21875 0,1.34375 0,2.328125 -0.515625,3.328125 -0.546875,1.015625 -1.34375,1.578125 -2.484375,1.578125 z m 0,0"
   id="path22030" />
      </g>
    </g>
  </g>
</g><g
         inkscape:label=""
         transform="matrix(0.90000033,0,0,0.89999988,197.10245,64.847494)"
         id="g22477"><g
   clip-path="url(#clipPath402)"
   id="g22475"
   transform="matrix(0.352778,0,0,0.352778,-0.402387,0.283369)">
    <g
   fill="#000000"
   fill-opacity="1"
   id="g22473">
      <g
   id="g22471"
   transform="translate(0,15.978)">
        <path
   d="m 11.171875,-15.4375 v -0.546875 h -5.8125 c -2.90625,0 -2.953125,-0.328125 -3.0625,-0.796875 h -0.4375 l -0.71875,4.640625 H 1.59375 c 0.0625,-0.46875 0.234375,-1.734375 0.53125,-2.203125 0.15625,-0.203125 1.984375,-0.203125 2.40625,-0.203125 h 5.453125 l -2.75,4.09375 c -1.828125,2.75 -3.09375,6.46875 -3.09375,9.703125 0,0.296875 0,1.140625 0.890625,1.140625 0.890625,0 0.890625,-0.84375 0.890625,-1.15625 V -1.90625 c 0,-4.0625 0.6875,-6.75 1.828125,-8.453125 z m 0,0"
   id="path22469" />
      </g>
    </g>
  </g>
</g><g
         inkscape:label=""
         transform="matrix(0.90000033,0,0,0.89999988,231.6173,33.437557)"
         id="g22930"><g
   clip-path="url(#clipPath8071)"
   id="g22928"
   transform="matrix(0.352778,0,0,0.352778,-0.286632,0.140053)">
    <g
   fill="#000000"
   fill-opacity="1"
   id="g22926">
      <g
   id="g22924"
   transform="translate(0,15.978)">
        <path
   d="m 6.734375,-8.921875 c 1.5625,-0.796875 3.15625,-1.984375 3.15625,-3.890625 0,-2.25 -2.1875,-3.5625 -4.1875,-3.5625 -2.265625,0 -4.234375,1.625 -4.234375,3.890625 0,0.609375 0.140625,1.6875 1.109375,2.625 0.25,0.25 1.28125,0.984375 1.953125,1.453125 -1.109375,0.578125 -3.71875,1.9375 -3.71875,4.671875 0,2.546875 2.4375,4.125 4.84375,4.125 2.640625,0 4.875,-1.90625 4.875,-4.4375 0,-2.25 -1.515625,-3.28125 -2.5,-3.953125 z M 3.5,-11.109375 C 3.296875,-11.21875 2.296875,-12 2.296875,-13.15625 c 0,-1.515625 1.5625,-2.65625 3.359375,-2.65625 1.953125,0 3.390625,1.390625 3.390625,3 0,2.3125 -2.578125,3.625 -2.703125,3.625 -0.03125,0 -0.046875,0 -0.25,-0.15625 z m 4.546875,5.09375 c 0.375,0.265625 1.5625,1.078125 1.5625,2.59375 0,1.828125 -1.828125,3.21875 -3.90625,3.21875 -2.265625,0 -3.96875,-1.609375 -3.96875,-3.5625 0,-1.953125 1.515625,-3.59375 3.21875,-4.359375 z m 0,0"
   id="path22922" />
      </g>
    </g>
  </g>
</g></g><g
       inkscape:label="mse"
       transform="matrix(0.8,0,0,0.8,80.607239,41.200063)"
       id="mse"><g
   fill="#000000"
   fill-opacity="1"
   id="g6"
   transform="matrix(0.881944,0,0,0.881944,-81.4448,-64.7479)">
    <g
   id="g5"
   transform="translate(91.925003,81.962997)">
      <path
   d="M 9.234375,-6.046875 C 9.328125,-6.40625 9.34375,-6.5 10.09375,-6.5 c 0.21875,0 0.3125,0 0.3125,-0.203125 0,-0.109375 -0.09375,-0.109375 -0.265625,-0.109375 h -1.3125 c -0.265625,0 -0.28125,0 -0.390625,0.1875 L 4.796875,-0.9375 4.015625,-6.578125 C 3.984375,-6.8125 3.96875,-6.8125 3.703125,-6.8125 H 2.34375 c -0.1875,0 -0.296875,0 -0.296875,0.1875 0,0.125 0.09375,0.125 0.28125,0.125 0.140625,0 0.3125,0.015625 0.4375,0.015625 0.15625,0.03125 0.21875,0.046875 0.21875,0.171875 0,0.03125 -0.015625,0.0625 -0.046875,0.1875 l -1.265625,5.0625 c -0.09375,0.40625 -0.265625,0.71875 -1.078125,0.75 -0.046875,0 -0.171875,0.015625 -0.171875,0.1875 0,0.09375 0.0625,0.125 0.140625,0.125 0.3125,0 0.65625,-0.03125 1,-0.03125 C 1.890625,-0.03125 2.25,0 2.578125,0 c 0.046875,0 0.1875,0 0.1875,-0.203125 0,-0.109375 -0.109375,-0.109375 -0.1875,-0.109375 -0.5625,0 -0.671875,-0.203125 -0.671875,-0.4375 0,-0.0625 0,-0.125 0.03125,-0.234375 L 3.296875,-6.40625 H 3.3125 l 0.859375,6.171875 C 4.1875,-0.109375 4.203125,0 4.3125,0 4.421875,0 4.484375,-0.109375 4.53125,-0.171875 l 4.03125,-6.3125 h 0.015625 l -1.4375,5.703125 c -0.09375,0.390625 -0.109375,0.46875 -0.90625,0.46875 -0.15625,0 -0.265625,0 -0.265625,0.1875 C 5.96875,0 6.078125,0 6.109375,0 6.390625,0 7.0625,-0.03125 7.34375,-0.03125 7.75,-0.03125 8.1875,0 8.59375,0 8.65625,0 8.78125,0 8.78125,-0.203125 8.78125,-0.3125 8.6875,-0.3125 8.5,-0.3125 c -0.359375,0 -0.640625,0 -0.640625,-0.171875 0,-0.046875 0,-0.0625 0.046875,-0.25 z m 0,0"
   id="path4" />
    </g>
  </g>
  <g
   fill="#000000"
   fill-opacity="1"
   id="g8"
   transform="matrix(0.881944,0,0,0.881944,-81.4448,-64.7479)">
    <g
   id="g7"
   transform="translate(102.67564,81.962997)">
      <path
   d="m 6.4375,-6.921875 c 0,-0.03125 -0.03125,-0.109375 -0.125,-0.109375 -0.046875,0 -0.046875,0.015625 -0.171875,0.15625 L 5.65625,-6.3125 c -0.25,-0.46875 -0.765625,-0.71875 -1.421875,-0.71875 -1.265625,0 -2.453125,1.15625 -2.453125,2.359375 0,0.796875 0.515625,1.265625 1.03125,1.40625 l 1.0625,0.28125 c 0.375,0.09375 0.921875,0.25 0.921875,1.0625 0,0.890625 -0.8125,1.828125 -1.796875,1.828125 -0.640625,0 -1.75,-0.21875 -1.75,-1.453125 0,-0.234375 0.0625,-0.484375 0.0625,-0.53125 0.015625,-0.046875 0.015625,-0.0625 0.015625,-0.078125 0,-0.09375 -0.0625,-0.109375 -0.109375,-0.109375 -0.046875,0 -0.078125,0.015625 -0.109375,0.046875 -0.03125,0.03125 -0.59375,2.3125 -0.59375,2.34375 0,0.046875 0.046875,0.09375 0.109375,0.09375 0.046875,0 0.0625,-0.015625 0.1875,-0.15625 L 1.296875,-0.5 c 0.421875,0.578125 1.109375,0.71875 1.6875,0.71875 1.359375,0 2.53125,-1.328125 2.53125,-2.5625 0,-0.6875 -0.34375,-1.03125 -0.484375,-1.171875 C 4.796875,-3.734375 4.640625,-3.78125 3.765625,-4 3.53125,-4.0625 3.1875,-4.171875 3.09375,-4.1875 2.828125,-4.28125 2.484375,-4.5625 2.484375,-5.09375 c 0,-0.8125 0.796875,-1.65625 1.75,-1.65625 0.8125,0 1.421875,0.4375 1.421875,1.546875 0,0.3125 -0.03125,0.5 -0.03125,0.5625 0,0 0,0.09375 0.109375,0.09375 0.109375,0 0.125,-0.03125 0.15625,-0.203125 z m 0,0"
   id="path6" />
    </g>
  </g>
  <g
   fill="#000000"
   fill-opacity="1"
   id="g10"
   transform="matrix(0.881944,0,0,0.881944,-81.4448,-64.7479)">
    <g
   id="g9"
   transform="translate(109.36254,81.962997)">
      <path
   d="M 7.0625,-2.328125 C 7.078125,-2.375 7.109375,-2.4375 7.109375,-2.46875 c 0,0 0,-0.109375 -0.125,-0.109375 -0.09375,0 -0.109375,0.0625 -0.125,0.125 C 6.203125,-0.984375 5.84375,-0.3125 4.140625,-0.3125 H 2.6875 c -0.140625,0 -0.171875,0 -0.21875,0 -0.109375,-0.015625 -0.140625,-0.03125 -0.140625,-0.109375 0,-0.03125 0,-0.046875 0.046875,-0.21875 L 3.0625,-3.375 h 0.984375 c 0.84375,0 0.84375,0.21875 0.84375,0.46875 0,0.0625 0,0.1875 -0.0625,0.484375 C 4.8125,-2.375 4.796875,-2.34375 4.796875,-2.3125 c 0,0.046875 0.03125,0.109375 0.125,0.109375 C 5,-2.203125 5.03125,-2.25 5.078125,-2.40625 l 0.5625,-2.328125 c 0,-0.0625 -0.046875,-0.109375 -0.125,-0.109375 -0.078125,0 -0.109375,0.0625 -0.125,0.171875 -0.21875,0.765625 -0.390625,1 -1.3125,1 h -0.9375 l 0.59375,-2.40625 C 3.828125,-6.4375 3.84375,-6.46875 4.28125,-6.46875 H 5.6875 c 1.203125,0 1.515625,0.28125 1.515625,1.109375 0,0.234375 0,0.25 -0.046875,0.53125 0,0.046875 -0.015625,0.125 -0.015625,0.171875 0,0.046875 0.03125,0.125 0.125,0.125 0.109375,0 0.125,-0.0625 0.140625,-0.25 L 7.609375,-6.515625 C 7.640625,-6.78125 7.59375,-6.78125 7.34375,-6.78125 H 2.296875 c -0.1875,0 -0.296875,0 -0.296875,0.203125 0,0.109375 0.09375,0.109375 0.28125,0.109375 0.375,0 0.65625,0 0.65625,0.171875 0,0.046875 0,0.0625 -0.0625,0.25 L 1.5625,-0.78125 c -0.09375,0.390625 -0.109375,0.46875 -0.90625,0.46875 -0.171875,0 -0.28125,0 -0.28125,0.1875 C 0.375,0 0.46875,0 0.65625,0 h 5.171875 c 0.234375,0 0.25,-0.015625 0.3125,-0.171875 z m 0,0"
   id="path8" />
    </g>
  </g>
  <g
   fill="#000000"
   fill-opacity="1"
   id="g12"
   transform="matrix(0.881944,0,0,0.881944,-81.4448,-64.7479)">
    <g
   id="g11"
   transform="translate(120.056,81.962997)">
      <path
   d="m 6.84375,-3.265625 c 0.15625,0 0.34375,0 0.34375,-0.1875 C 7.1875,-3.65625 7,-3.65625 6.859375,-3.65625 h -5.96875 c -0.140625,0 -0.328125,0 -0.328125,0.203125 0,0.1875 0.1875,0.1875 0.328125,0.1875 z m 0.015625,1.9375 c 0.140625,0 0.328125,0 0.328125,-0.203125 0,-0.1875 -0.1875,-0.1875 -0.34375,-0.1875 H 0.890625 c -0.140625,0 -0.328125,0 -0.328125,0.1875 0,0.203125 0.1875,0.203125 0.328125,0.203125 z m 0,0"
   id="path10" />
    </g>
  </g>
  <g
   fill="#000000"
   fill-opacity="1"
   id="g14"
   transform="matrix(0.881944,0,0,0.881944,-81.4448,-64.7479)">
    <g
   id="g13"
   transform="translate(132.244,78.040001)">
      <path
   d="m 2.328125,-4.4375 c 0,-0.1875 0,-0.1875 -0.203125,-0.1875 -0.453125,0.4375 -1.078125,0.4375 -1.359375,0.4375 v 0.25 c 0.15625,0 0.625,0 1,-0.1875 v 3.546875 c 0,0.234375 0,0.328125 -0.6875,0.328125 H 0.8125 V 0 c 0.125,0 0.984375,-0.03125 1.234375,-0.03125 0.21875,0 1.09375,0.03125 1.25,0.03125 V -0.25 H 3.03125 c -0.703125,0 -0.703125,-0.09375 -0.703125,-0.328125 z m 0,0"
   id="path12" />
    </g>
  </g>
  <path
   fill="none"
   stroke-width="0.398"
   stroke-linecap="butt"
   stroke-linejoin="miter"
   stroke="#000000"
   stroke-opacity="1"
   stroke-miterlimit="10"
   d="m 39.418747,6.0576553 h 4.925781"
   id="path14"
   transform="scale(0.881944)" />
  <g
   fill="#000000"
   fill-opacity="1"
   id="g36"
   transform="matrix(0.881944,0,0,0.881944,-81.4448,-64.7479)">
    <g
   id="g35"
   transform="translate(131.767,85.398003)">
      <path
   d="m 0.84375,-0.4375 c -0.015625,0.09375 -0.0625,0.265625 -0.0625,0.28125 0,0.15625 0.125,0.21875 0.234375,0.21875 0.125,0 0.234375,-0.078125 0.28125,-0.140625 0.03125,-0.0625 0.078125,-0.296875 0.125,-0.4375 0.03125,-0.125 0.109375,-0.453125 0.140625,-0.625 0.046875,-0.15625 0.09375,-0.3125 0.125,-0.46875 0.078125,-0.28125 0.09375,-0.34375 0.296875,-0.625 C 2.171875,-2.515625 2.5,-2.875 3.03125,-2.875 c 0.390625,0 0.40625,0.359375 0.40625,0.484375 0,0.421875 -0.296875,1.1875 -0.40625,1.484375 -0.078125,0.203125 -0.109375,0.265625 -0.109375,0.375 0,0.375 0.296875,0.59375 0.65625,0.59375 0.703125,0 1,-0.953125 1,-1.0625 0,-0.09375 -0.078125,-0.09375 -0.109375,-0.09375 -0.09375,0 -0.09375,0.046875 -0.125,0.125 C 4.1875,-0.40625 3.875,-0.125 3.609375,-0.125 c -0.15625,0 -0.1875,-0.09375 -0.1875,-0.25 0,-0.15625 0.046875,-0.25 0.171875,-0.5625 0.078125,-0.21875 0.359375,-0.953125 0.359375,-1.34375 0,-0.671875 -0.53125,-0.796875 -0.90625,-0.796875 -0.578125,0 -0.96875,0.359375 -1.171875,0.640625 -0.046875,-0.484375 -0.453125,-0.640625 -0.75,-0.640625 -0.296875,0 -0.453125,0.21875 -0.546875,0.375 -0.15625,0.265625 -0.25,0.65625 -0.25,0.703125 0,0.078125 0.09375,0.078125 0.125,0.078125 0.09375,0 0.09375,-0.015625 0.140625,-0.203125 0.109375,-0.40625 0.25,-0.75 0.515625,-0.75 0.1875,0 0.234375,0.15625 0.234375,0.34375 0,0.125 -0.0625,0.390625 -0.125,0.578125 -0.046875,0.1875 -0.109375,0.46875 -0.140625,0.625 z m 0,0"
   id="path15" />
    </g>
  </g>
  <g
   fill="#000000"
   fill-opacity="1"
   id="g55"
   transform="matrix(0.881944,0,0,0.881944,-81.4448,-64.7479)">
    <g
   id="g54"
   transform="translate(137.888,81.962997)">
      <path
   d="m 6.4375,-6.921875 c 0,-0.03125 -0.03125,-0.109375 -0.125,-0.109375 -0.046875,0 -0.046875,0.015625 -0.171875,0.15625 L 5.65625,-6.3125 c -0.25,-0.46875 -0.765625,-0.71875 -1.421875,-0.71875 -1.265625,0 -2.453125,1.15625 -2.453125,2.359375 0,0.796875 0.515625,1.265625 1.03125,1.40625 l 1.0625,0.28125 c 0.375,0.09375 0.921875,0.25 0.921875,1.0625 0,0.890625 -0.8125,1.828125 -1.796875,1.828125 -0.640625,0 -1.75,-0.21875 -1.75,-1.453125 0,-0.234375 0.0625,-0.484375 0.0625,-0.53125 0.015625,-0.046875 0.015625,-0.0625 0.015625,-0.078125 0,-0.09375 -0.0625,-0.109375 -0.109375,-0.109375 -0.046875,0 -0.078125,0.015625 -0.109375,0.046875 -0.03125,0.03125 -0.59375,2.3125 -0.59375,2.34375 0,0.046875 0.046875,0.09375 0.109375,0.09375 0.046875,0 0.0625,-0.015625 0.1875,-0.15625 L 1.296875,-0.5 c 0.421875,0.578125 1.109375,0.71875 1.6875,0.71875 1.359375,0 2.53125,-1.328125 2.53125,-2.5625 0,-0.6875 -0.34375,-1.03125 -0.484375,-1.171875 C 4.796875,-3.734375 4.640625,-3.78125 3.765625,-4 3.53125,-4.0625 3.1875,-4.171875 3.09375,-4.1875 2.828125,-4.28125 2.484375,-4.5625 2.484375,-5.09375 c 0,-0.8125 0.796875,-1.65625 1.75,-1.65625 0.8125,0 1.421875,0.4375 1.421875,1.546875 0,0.3125 -0.03125,0.5 -0.03125,0.5625 0,0 0,0.09375 0.109375,0.09375 0.109375,0 0.125,-0.03125 0.15625,-0.203125 z m 0,0"
   id="path54" />
    </g>
  </g>
  <g
   fill="#000000"
   fill-opacity="1"
   id="g58"
   transform="matrix(0.881944,0,0,0.881944,-81.4448,-64.7479)">
    <g
   id="g56"
   transform="translate(144.57489,81.962997)">
      <path
   d="m 6.4375,-6.921875 c 0,-0.03125 -0.03125,-0.109375 -0.125,-0.109375 -0.046875,0 -0.046875,0.015625 -0.171875,0.15625 L 5.65625,-6.3125 c -0.25,-0.46875 -0.765625,-0.71875 -1.421875,-0.71875 -1.265625,0 -2.453125,1.15625 -2.453125,2.359375 0,0.796875 0.515625,1.265625 1.03125,1.40625 l 1.0625,0.28125 c 0.375,0.09375 0.921875,0.25 0.921875,1.0625 0,0.890625 -0.8125,1.828125 -1.796875,1.828125 -0.640625,0 -1.75,-0.21875 -1.75,-1.453125 0,-0.234375 0.0625,-0.484375 0.0625,-0.53125 0.015625,-0.046875 0.015625,-0.0625 0.015625,-0.078125 0,-0.09375 -0.0625,-0.109375 -0.109375,-0.109375 -0.046875,0 -0.078125,0.015625 -0.109375,0.046875 -0.03125,0.03125 -0.59375,2.3125 -0.59375,2.34375 0,0.046875 0.046875,0.09375 0.109375,0.09375 0.046875,0 0.0625,-0.015625 0.1875,-0.15625 L 1.296875,-0.5 c 0.421875,0.578125 1.109375,0.71875 1.6875,0.71875 1.359375,0 2.53125,-1.328125 2.53125,-2.5625 0,-0.6875 -0.34375,-1.03125 -0.484375,-1.171875 C 4.796875,-3.734375 4.640625,-3.78125 3.765625,-4 3.53125,-4.0625 3.1875,-4.171875 3.09375,-4.1875 2.828125,-4.28125 2.484375,-4.5625 2.484375,-5.09375 c 0,-0.8125 0.796875,-1.65625 1.75,-1.65625 0.8125,0 1.421875,0.4375 1.421875,1.546875 0,0.3125 -0.03125,0.5 -0.03125,0.5625 0,0 0,0.09375 0.109375,0.09375 0.109375,0 0.125,-0.03125 0.15625,-0.203125 z m 0,0"
   id="path55" />
    </g>
  </g>
  <g
   fill="#000000"
   fill-opacity="1"
   id="g60"
   transform="matrix(0.881944,0,0,0.881944,-81.4448,-64.7479)">
    <g
   id="g59"
   transform="translate(151.25183,81.962997)">
      <path
   d="M 7.0625,-2.328125 C 7.078125,-2.375 7.109375,-2.4375 7.109375,-2.46875 c 0,0 0,-0.109375 -0.125,-0.109375 -0.09375,0 -0.109375,0.0625 -0.125,0.125 C 6.203125,-0.984375 5.84375,-0.3125 4.140625,-0.3125 H 2.6875 c -0.140625,0 -0.171875,0 -0.21875,0 -0.109375,-0.015625 -0.140625,-0.03125 -0.140625,-0.109375 0,-0.03125 0,-0.046875 0.046875,-0.21875 L 3.0625,-3.375 h 0.984375 c 0.84375,0 0.84375,0.21875 0.84375,0.46875 0,0.0625 0,0.1875 -0.0625,0.484375 C 4.8125,-2.375 4.796875,-2.34375 4.796875,-2.3125 c 0,0.046875 0.03125,0.109375 0.125,0.109375 C 5,-2.203125 5.03125,-2.25 5.078125,-2.40625 l 0.5625,-2.328125 c 0,-0.0625 -0.046875,-0.109375 -0.125,-0.109375 -0.078125,0 -0.109375,0.0625 -0.125,0.171875 -0.21875,0.765625 -0.390625,1 -1.3125,1 h -0.9375 l 0.59375,-2.40625 C 3.828125,-6.4375 3.84375,-6.46875 4.28125,-6.46875 H 5.6875 c 1.203125,0 1.515625,0.28125 1.515625,1.109375 0,0.234375 0,0.25 -0.046875,0.53125 0,0.046875 -0.015625,0.125 -0.015625,0.171875 0,0.046875 0.03125,0.125 0.125,0.125 0.109375,0 0.125,-0.0625 0.140625,-0.25 L 7.609375,-6.515625 C 7.640625,-6.78125 7.59375,-6.78125 7.34375,-6.78125 H 2.296875 c -0.1875,0 -0.296875,0 -0.296875,0.203125 0,0.109375 0.09375,0.109375 0.28125,0.109375 0.375,0 0.65625,0 0.65625,0.171875 0,0.046875 0,0.0625 -0.0625,0.25 L 1.5625,-0.78125 c -0.09375,0.390625 -0.109375,0.46875 -0.90625,0.46875 -0.171875,0 -0.28125,0 -0.28125,0.1875 C 0.375,0 0.46875,0 0.65625,0 h 5.171875 c 0.234375,0 0.25,-0.015625 0.3125,-0.171875 z m 0,0"
   id="path58" />
    </g>
  </g>
  <g
   fill="#000000"
   fill-opacity="1"
   id="g63"
   transform="matrix(0.881944,0,0,0.881944,-81.4448,-64.7479)">
    <g
   id="g62"
   transform="translate(161.95,81.962997)">
      <path
   d="m 6.84375,-3.265625 c 0.15625,0 0.34375,0 0.34375,-0.1875 C 7.1875,-3.65625 7,-3.65625 6.859375,-3.65625 h -5.96875 c -0.140625,0 -0.328125,0 -0.328125,0.203125 0,0.1875 0.1875,0.1875 0.328125,0.1875 z m 0.015625,1.9375 c 0.140625,0 0.328125,0 0.328125,-0.203125 0,-0.1875 -0.1875,-0.1875 -0.34375,-0.1875 H 0.890625 c -0.140625,0 -0.328125,0 -0.328125,0.1875 0,0.203125 0.1875,0.203125 0.328125,0.203125 z m 0,0"
   id="path60" />
    </g>
  </g>
  <g
   fill="#000000"
   fill-opacity="1"
   id="g66"
   transform="matrix(0.881944,0,0,0.881944,-81.4448,-64.7479)">
    <g
   id="g64"
   transform="translate(174.13901,78.040001)">
      <path
   d="m 2.328125,-4.4375 c 0,-0.1875 0,-0.1875 -0.203125,-0.1875 -0.453125,0.4375 -1.078125,0.4375 -1.359375,0.4375 v 0.25 c 0.15625,0 0.625,0 1,-0.1875 v 3.546875 c 0,0.234375 0,0.328125 -0.6875,0.328125 H 0.8125 V 0 c 0.125,0 0.984375,-0.03125 1.234375,-0.03125 0.21875,0 1.09375,0.03125 1.25,0.03125 V -0.25 H 3.03125 c -0.703125,0 -0.703125,-0.09375 -0.703125,-0.328125 z m 0,0"
   id="path63" />
    </g>
  </g>
  <path
   fill="none"
   stroke-width="0.398"
   stroke-linecap="butt"
   stroke-linejoin="miter"
   stroke="#000000"
   stroke-opacity="1"
   stroke-miterlimit="10"
   d="m 81.313278,6.0576553 h 4.925781"
   id="path26"
   transform="scale(0.881944)" />
  <g
   fill="#000000"
   fill-opacity="1"
   id="g68"
   transform="matrix(0.881944,0,0,0.881944,-81.4448,-64.7479)">
    <g
   id="g67"
   transform="translate(173.662,85.398003)">
      <path
   d="m 0.84375,-0.4375 c -0.015625,0.09375 -0.0625,0.265625 -0.0625,0.28125 0,0.15625 0.125,0.21875 0.234375,0.21875 0.125,0 0.234375,-0.078125 0.28125,-0.140625 0.03125,-0.0625 0.078125,-0.296875 0.125,-0.4375 0.03125,-0.125 0.109375,-0.453125 0.140625,-0.625 0.046875,-0.15625 0.09375,-0.3125 0.125,-0.46875 0.078125,-0.28125 0.09375,-0.34375 0.296875,-0.625 C 2.171875,-2.515625 2.5,-2.875 3.03125,-2.875 c 0.390625,0 0.40625,0.359375 0.40625,0.484375 0,0.421875 -0.296875,1.1875 -0.40625,1.484375 -0.078125,0.203125 -0.109375,0.265625 -0.109375,0.375 0,0.375 0.296875,0.59375 0.65625,0.59375 0.703125,0 1,-0.953125 1,-1.0625 0,-0.09375 -0.078125,-0.09375 -0.109375,-0.09375 -0.09375,0 -0.09375,0.046875 -0.125,0.125 C 4.1875,-0.40625 3.875,-0.125 3.609375,-0.125 c -0.15625,0 -0.1875,-0.09375 -0.1875,-0.25 0,-0.15625 0.046875,-0.25 0.171875,-0.5625 0.078125,-0.21875 0.359375,-0.953125 0.359375,-1.34375 0,-0.671875 -0.53125,-0.796875 -0.90625,-0.796875 -0.578125,0 -0.96875,0.359375 -1.171875,0.640625 -0.046875,-0.484375 -0.453125,-0.640625 -0.75,-0.640625 -0.296875,0 -0.453125,0.21875 -0.546875,0.375 -0.15625,0.265625 -0.25,0.65625 -0.25,0.703125 0,0.078125 0.09375,0.078125 0.125,0.078125 0.09375,0 0.09375,-0.015625 0.140625,-0.203125 0.109375,-0.40625 0.25,-0.75 0.515625,-0.75 0.1875,0 0.234375,0.15625 0.234375,0.34375 0,0.125 -0.0625,0.390625 -0.125,0.578125 -0.046875,0.1875 -0.109375,0.46875 -0.140625,0.625 z m 0,0"
   id="path66" />
    </g>
  </g>
  <g
   fill="#000000"
   fill-opacity="1"
   id="g71"
   transform="matrix(0.881944,0,0,0.881944,-81.4448,-64.7479)">
    <g
   id="g70"
   transform="translate(181.44299,74.490997)">
      <path
   d="m 4.203125,5.328125 -3.546875,4.375 C 0.578125,9.796875 0.5625,9.8125 0.5625,9.859375 c 0,0.109375 0.09375,0.109375 0.28125,0.109375 h 8.25 L 9.953125,7.484375 h -0.25 C 9.453125,8.234375 8.796875,8.84375 7.9375,9.125 7.78125,9.1875 7.09375,9.421875 5.625,9.421875 H 1.390625 l 3.46875,-4.28125 C 4.921875,5.046875 4.9375,5.03125 4.9375,4.984375 4.9375,4.9375 4.9375,4.9375 4.875,4.84375 L 1.640625,0.40625 h 3.9375 c 1.140625,0 3.4375,0.0625 4.125,1.921875 h 0.25 L 9.09375,0 h -8.25 C 0.5625,0 0.5625,0.015625 0.5625,0.3125 Z m 0,0"
   id="path68" />
    </g>
  </g>
  <g
   fill="#000000"
   fill-opacity="1"
   id="g74"
   transform="matrix(0.881944,0,0,0.881944,-81.4448,-64.7479)">
    <g
   id="g72"
   transform="translate(191.959,76.954002)">
      <path
   d="m 0.84375,-0.4375 c -0.015625,0.09375 -0.0625,0.265625 -0.0625,0.28125 0,0.15625 0.125,0.21875 0.234375,0.21875 0.125,0 0.234375,-0.078125 0.28125,-0.140625 0.03125,-0.0625 0.078125,-0.296875 0.125,-0.4375 0.03125,-0.125 0.109375,-0.453125 0.140625,-0.625 0.046875,-0.15625 0.09375,-0.3125 0.125,-0.46875 0.078125,-0.28125 0.09375,-0.34375 0.296875,-0.625 C 2.171875,-2.515625 2.5,-2.875 3.03125,-2.875 c 0.390625,0 0.40625,0.359375 0.40625,0.484375 0,0.421875 -0.296875,1.1875 -0.40625,1.484375 -0.078125,0.203125 -0.109375,0.265625 -0.109375,0.375 0,0.375 0.296875,0.59375 0.65625,0.59375 0.703125,0 1,-0.953125 1,-1.0625 0,-0.09375 -0.078125,-0.09375 -0.109375,-0.09375 -0.09375,0 -0.09375,0.046875 -0.125,0.125 C 4.1875,-0.40625 3.875,-0.125 3.609375,-0.125 c -0.15625,0 -0.1875,-0.09375 -0.1875,-0.25 0,-0.15625 0.046875,-0.25 0.171875,-0.5625 0.078125,-0.21875 0.359375,-0.953125 0.359375,-1.34375 0,-0.671875 -0.53125,-0.796875 -0.90625,-0.796875 -0.578125,0 -0.96875,0.359375 -1.171875,0.640625 -0.046875,-0.484375 -0.453125,-0.640625 -0.75,-0.640625 -0.296875,0 -0.453125,0.21875 -0.546875,0.375 -0.15625,0.265625 -0.25,0.65625 -0.25,0.703125 0,0.078125 0.09375,0.078125 0.125,0.078125 0.09375,0 0.09375,-0.015625 0.140625,-0.203125 0.109375,-0.40625 0.25,-0.75 0.515625,-0.75 0.1875,0 0.234375,0.15625 0.234375,0.34375 0,0.125 -0.0625,0.390625 -0.125,0.578125 -0.046875,0.1875 -0.109375,0.46875 -0.140625,0.625 z m 0,0"
   id="path71" />
    </g>
  </g>
  <g
   fill="#000000"
   fill-opacity="1"
   id="g76"
   transform="matrix(0.881944,0,0,0.881944,-81.4448,-64.7479)">
    <g
   id="g75"
   transform="translate(191.959,84.952003)">
      <path
   d="m 2.265625,-4.359375 c 0,-0.109375 -0.09375,-0.265625 -0.28125,-0.265625 -0.1875,0 -0.390625,0.1875 -0.390625,0.390625 0,0.109375 0.078125,0.265625 0.28125,0.265625 0.1875,0 0.390625,-0.203125 0.390625,-0.390625 z M 0.84375,-0.8125 c -0.03125,0.09375 -0.0625,0.171875 -0.0625,0.296875 0,0.328125 0.265625,0.578125 0.65625,0.578125 0.6875,0 1,-0.953125 1,-1.0625 0,-0.09375 -0.09375,-0.09375 -0.109375,-0.09375 -0.09375,0 -0.109375,0.046875 -0.140625,0.125 -0.15625,0.5625 -0.453125,0.84375 -0.734375,0.84375 -0.140625,0 -0.171875,-0.09375 -0.171875,-0.25 0,-0.15625 0.046875,-0.28125 0.109375,-0.4375 C 1.46875,-1 1.546875,-1.1875 1.609375,-1.375 1.671875,-1.546875 1.9375,-2.171875 1.953125,-2.265625 1.984375,-2.328125 2,-2.40625 2,-2.484375 2,-2.8125 1.71875,-3.078125 1.34375,-3.078125 0.640625,-3.078125 0.328125,-2.125 0.328125,-2 c 0,0.078125 0.09375,0.078125 0.125,0.078125 0.09375,0 0.09375,-0.03125 0.125,-0.109375 C 0.75,-2.625 1.0625,-2.875 1.3125,-2.875 c 0.109375,0 0.171875,0.046875 0.171875,0.234375 0,0.171875 -0.03125,0.265625 -0.203125,0.703125 z m 0,0"
   id="path74" />
    </g>
  </g>
  <g
   fill="#000000"
   fill-opacity="1"
   id="g80"
   transform="matrix(0.881944,0,0,0.881944,-81.4448,-64.7479)">
    <g
   id="g78"
   transform="translate(194.77699,84.952003)">
      <path
   d="m 5.359375,-2.34375 c 0.09375,0 0.25,0 0.25,-0.171875 0,-0.171875 -0.15625,-0.171875 -0.25,-0.171875 H 0.75 c -0.09375,0 -0.265625,0 -0.265625,0.171875 0,0.171875 0.15625,0.171875 0.265625,0.171875 z m 0,1.53125 c 0.09375,0 0.25,0 0.25,-0.15625 0,-0.1875 -0.15625,-0.1875 -0.25,-0.1875 H 0.75 c -0.109375,0 -0.265625,0 -0.265625,0.1875 0,0.15625 0.171875,0.15625 0.265625,0.15625 z m 0,0"
   id="path76" />
    </g>
    <g
   id="g79"
   transform="translate(200.89302,84.952003)">
      <path
   d="m 2.328125,-4.4375 c 0,-0.1875 0,-0.1875 -0.203125,-0.1875 -0.453125,0.4375 -1.078125,0.4375 -1.359375,0.4375 v 0.25 c 0.15625,0 0.625,0 1,-0.1875 v 3.546875 c 0,0.234375 0,0.328125 -0.6875,0.328125 H 0.8125 V 0 c 0.125,0 0.984375,-0.03125 1.234375,-0.03125 0.21875,0 1.09375,0.03125 1.25,0.03125 V -0.25 H 3.03125 c -0.703125,0 -0.703125,-0.09375 -0.703125,-0.328125 z m 0,0"
   id="path56" />
    </g>
  </g>
  <g
   fill="#000000"
   fill-opacity="1"
   id="g84"
   transform="matrix(0.881944,0,0,0.881944,-81.4448,-64.7479)">
    <g
   id="g82"
   transform="translate(205.36301,81.962997)">
      <path
   d="m 3.296875,2.390625 c 0,-0.03125 0,-0.046875 -0.171875,-0.21875 C 1.890625,0.921875 1.5625,-0.96875 1.5625,-2.5 c 0,-1.734375 0.375,-3.46875 1.609375,-4.703125 0.125,-0.125 0.125,-0.140625 0.125,-0.171875 0,-0.078125 -0.03125,-0.109375 -0.09375,-0.109375 -0.109375,0 -1,0.6875 -1.59375,1.953125 -0.5,1.09375 -0.625,2.203125 -0.625,3.03125 0,0.78125 0.109375,1.984375 0.65625,3.125 C 2.25,1.84375 3.09375,2.5 3.203125,2.5 c 0.0625,0 0.09375,-0.03125 0.09375,-0.109375 z m 0,0"
   id="path57" />
    </g>
  </g>
  <g
   fill="#000000"
   fill-opacity="1"
   id="g86"
   transform="matrix(0.881944,0,0,0.881944,-81.4448,-64.7479)">
    <g
   id="g85"
   transform="translate(209.237,81.962997)">
      <path
   d="m 4.84375,-3.796875 c 0.046875,-0.140625 0.046875,-0.15625 0.046875,-0.234375 0,-0.171875 -0.140625,-0.265625 -0.296875,-0.265625 -0.09375,0 -0.25,0.0625 -0.34375,0.203125 -0.015625,0.0625 -0.109375,0.359375 -0.140625,0.546875 -0.078125,0.25 -0.140625,0.53125 -0.203125,0.796875 l -0.453125,1.796875 c -0.03125,0.140625 -0.46875,0.84375 -1.125,0.84375 -0.5,0 -0.609375,-0.4375 -0.609375,-0.8125 C 1.71875,-1.375 1.890625,-2 2.21875,-2.875 2.375,-3.28125 2.421875,-3.390625 2.421875,-3.59375 c 0,-0.4375 -0.3125,-0.8125 -0.8125,-0.8125 -0.953125,0 -1.3125,1.453125 -1.3125,1.53125 0,0.109375 0.09375,0.109375 0.109375,0.109375 0.109375,0 0.109375,-0.03125 0.15625,-0.1875 0.28125,-0.9375 0.671875,-1.234375 1.015625,-1.234375 0.078125,0 0.25,0 0.25,0.3125 0,0.25 -0.109375,0.515625 -0.171875,0.703125 -0.40625,1.0625 -0.578125,1.625 -0.578125,2.09375 0,0.890625 0.625,1.1875 1.21875,1.1875 0.390625,0 0.71875,-0.171875 1,-0.453125 -0.125,0.515625 -0.25,1.015625 -0.640625,1.546875 -0.265625,0.328125 -0.640625,0.625 -1.09375,0.625 -0.140625,0 -0.59375,-0.03125 -0.765625,-0.421875 0.15625,0 0.296875,0 0.421875,-0.125 C 1.328125,1.203125 1.421875,1.0625 1.421875,0.875 1.421875,0.5625 1.15625,0.53125 1.0625,0.53125 0.828125,0.53125 0.5,0.6875 0.5,1.171875 c 0,0.5 0.4375,0.875 1.0625,0.875 1.015625,0 2.046875,-0.90625 2.328125,-2.03125 z m 0,0"
   id="path84" />
    </g>
  </g>
  <g
   fill="#000000"
   fill-opacity="1"
   id="g88"
   transform="matrix(0.881944,0,0,0.881944,-81.4448,-64.7479)">
    <g
   id="g87"
   transform="translate(214.12199,83.457001)">
      <path
   d="m 2.265625,-4.359375 c 0,-0.109375 -0.09375,-0.265625 -0.28125,-0.265625 -0.1875,0 -0.390625,0.1875 -0.390625,0.390625 0,0.109375 0.078125,0.265625 0.28125,0.265625 0.1875,0 0.390625,-0.203125 0.390625,-0.390625 z M 0.84375,-0.8125 c -0.03125,0.09375 -0.0625,0.171875 -0.0625,0.296875 0,0.328125 0.265625,0.578125 0.65625,0.578125 0.6875,0 1,-0.953125 1,-1.0625 0,-0.09375 -0.09375,-0.09375 -0.109375,-0.09375 -0.09375,0 -0.109375,0.046875 -0.140625,0.125 -0.15625,0.5625 -0.453125,0.84375 -0.734375,0.84375 -0.140625,0 -0.171875,-0.09375 -0.171875,-0.25 0,-0.15625 0.046875,-0.28125 0.109375,-0.4375 C 1.46875,-1 1.546875,-1.1875 1.609375,-1.375 1.671875,-1.546875 1.9375,-2.171875 1.953125,-2.265625 1.984375,-2.328125 2,-2.40625 2,-2.484375 2,-2.8125 1.71875,-3.078125 1.34375,-3.078125 0.640625,-3.078125 0.328125,-2.125 0.328125,-2 c 0,0.078125 0.09375,0.078125 0.125,0.078125 0.09375,0 0.09375,-0.03125 0.125,-0.109375 C 0.75,-2.625 1.0625,-2.875 1.3125,-2.875 c 0.109375,0 0.171875,0.046875 0.171875,0.234375 0,0.171875 -0.03125,0.265625 -0.203125,0.703125 z m 0,0"
   id="path59" />
    </g>
  </g>
  <g
   fill="#000000"
   fill-opacity="1"
   id="g90"
   transform="matrix(0.881944,0,0,0.881944,-81.4448,-64.7479)">
    <g
   id="use35"
   transform="translate(219.65199,81.962997)">
      <path
   d="m 6.5625,-2.296875 c 0.171875,0 0.359375,0 0.359375,-0.203125 0,-0.1875 -0.1875,-0.1875 -0.359375,-0.1875 H 1.171875 c -0.171875,0 -0.34375,0 -0.34375,0.1875 0,0.203125 0.171875,0.203125 0.34375,0.203125 z m 0,0"
   id="path88" />
    </g>
  </g>
  <g
   fill="#000000"
   fill-opacity="1"
   id="g92"
   transform="matrix(0.881944,0,0,0.881944,-81.4448,-64.7479)">
    <g
   id="use36"
   transform="translate(231.22501,81.962997)">
      <path
   d="M 2.5,-6.921875 1.15625,-5.5625 1.328125,-5.390625 2.5,-6.40625 3.640625,-5.390625 3.8125,-5.5625 Z m 0,0"
   id="path61" />
    </g>
  </g>
  <g
   fill="#000000"
   fill-opacity="1"
   id="g37"
   transform="matrix(0.881944,0,0,0.881944,-81.4448,-64.7479)">
    <g
   id="use37"
   transform="translate(229.61501,81.962997)">
      <path
   d="m 4.84375,-3.796875 c 0.046875,-0.140625 0.046875,-0.15625 0.046875,-0.234375 0,-0.171875 -0.140625,-0.265625 -0.296875,-0.265625 -0.09375,0 -0.25,0.0625 -0.34375,0.203125 -0.015625,0.0625 -0.109375,0.359375 -0.140625,0.546875 -0.078125,0.25 -0.140625,0.53125 -0.203125,0.796875 l -0.453125,1.796875 c -0.03125,0.140625 -0.46875,0.84375 -1.125,0.84375 -0.5,0 -0.609375,-0.4375 -0.609375,-0.8125 C 1.71875,-1.375 1.890625,-2 2.21875,-2.875 2.375,-3.28125 2.421875,-3.390625 2.421875,-3.59375 c 0,-0.4375 -0.3125,-0.8125 -0.8125,-0.8125 -0.953125,0 -1.3125,1.453125 -1.3125,1.53125 0,0.109375 0.09375,0.109375 0.109375,0.109375 0.109375,0 0.109375,-0.03125 0.15625,-0.1875 0.28125,-0.9375 0.671875,-1.234375 1.015625,-1.234375 0.078125,0 0.25,0 0.25,0.3125 0,0.25 -0.109375,0.515625 -0.171875,0.703125 -0.40625,1.0625 -0.578125,1.625 -0.578125,2.09375 0,0.890625 0.625,1.1875 1.21875,1.1875 0.390625,0 0.71875,-0.171875 1,-0.453125 -0.125,0.515625 -0.25,1.015625 -0.640625,1.546875 -0.265625,0.328125 -0.640625,0.625 -1.09375,0.625 -0.140625,0 -0.59375,-0.03125 -0.765625,-0.421875 0.15625,0 0.296875,0 0.421875,-0.125 C 1.328125,1.203125 1.421875,1.0625 1.421875,0.875 1.421875,0.5625 1.15625,0.53125 1.0625,0.53125 0.828125,0.53125 0.5,0.6875 0.5,1.171875 c 0,0.5 0.4375,0.875 1.0625,0.875 1.015625,0 2.046875,-0.90625 2.328125,-2.03125 z m 0,0"
   id="path62" />
    </g>
  </g>
  <g
   fill="#000000"
   fill-opacity="1"
   id="g38"
   transform="matrix(0.881944,0,0,0.881944,-81.4448,-64.7479)">
    <g
   id="use38"
   transform="translate(234.49899,83.457001)">
      <path
   d="m 2.265625,-4.359375 c 0,-0.109375 -0.09375,-0.265625 -0.28125,-0.265625 -0.1875,0 -0.390625,0.1875 -0.390625,0.390625 0,0.109375 0.078125,0.265625 0.28125,0.265625 0.1875,0 0.390625,-0.203125 0.390625,-0.390625 z M 0.84375,-0.8125 c -0.03125,0.09375 -0.0625,0.171875 -0.0625,0.296875 0,0.328125 0.265625,0.578125 0.65625,0.578125 0.6875,0 1,-0.953125 1,-1.0625 0,-0.09375 -0.09375,-0.09375 -0.109375,-0.09375 -0.09375,0 -0.109375,0.046875 -0.140625,0.125 -0.15625,0.5625 -0.453125,0.84375 -0.734375,0.84375 -0.140625,0 -0.171875,-0.09375 -0.171875,-0.25 0,-0.15625 0.046875,-0.28125 0.109375,-0.4375 C 1.46875,-1 1.546875,-1.1875 1.609375,-1.375 1.671875,-1.546875 1.9375,-2.171875 1.953125,-2.265625 1.984375,-2.328125 2,-2.40625 2,-2.484375 2,-2.8125 1.71875,-3.078125 1.34375,-3.078125 0.640625,-3.078125 0.328125,-2.125 0.328125,-2 c 0,0.078125 0.09375,0.078125 0.125,0.078125 0.09375,0 0.09375,-0.03125 0.125,-0.109375 C 0.75,-2.625 1.0625,-2.875 1.3125,-2.875 c 0.109375,0 0.171875,0.046875 0.171875,0.234375 0,0.171875 -0.03125,0.265625 -0.203125,0.703125 z m 0,0"
   id="path92" />
    </g>
  </g>
  <g
   fill="#000000"
   fill-opacity="1"
   id="g39"
   transform="matrix(0.881944,0,0,0.881944,-81.4448,-64.7479)">
    <g
   id="use39"
   transform="translate(237.81599,81.962997)">
      <path
   d="m 2.875,-2.5 c 0,-0.765625 -0.109375,-1.96875 -0.65625,-3.109375 -0.59375,-1.21875 -1.453125,-1.875 -1.546875,-1.875 -0.0625,0 -0.109375,0.046875 -0.109375,0.109375 0,0.03125 0,0.046875 0.1875,0.234375 0.984375,0.984375 1.546875,2.5625 1.546875,4.640625 0,1.71875 -0.359375,3.46875 -1.59375,4.71875 C 0.5625,2.34375 0.5625,2.359375 0.5625,2.390625 0.5625,2.453125 0.609375,2.5 0.671875,2.5 0.765625,2.5 1.671875,1.8125 2.25,0.546875 2.765625,-0.546875 2.875,-1.65625 2.875,-2.5 Z m 0,0"
   id="path64" />
    </g>
  </g>
  <g
   fill="#000000"
   fill-opacity="1"
   id="g40"
   transform="matrix(0.881944,0,0,0.881944,-81.4448,-64.7479)">
    <g
   id="use40"
   transform="translate(241.69099,78.348)">
      <path
   d="M 3.515625,-1.265625 H 3.28125 c -0.015625,0.15625 -0.09375,0.5625 -0.1875,0.625 C 3.046875,-0.59375 2.515625,-0.59375 2.40625,-0.59375 H 1.125 c 0.734375,-0.640625 0.984375,-0.84375 1.390625,-1.171875 0.515625,-0.40625 1,-0.84375 1,-1.5 0,-0.84375 -0.734375,-1.359375 -1.625,-1.359375 -0.859375,0 -1.453125,0.609375 -1.453125,1.25 0,0.34375 0.296875,0.390625 0.375,0.390625 0.15625,0 0.359375,-0.125 0.359375,-0.375 0,-0.125 -0.046875,-0.375 -0.40625,-0.375 C 0.984375,-4.21875 1.453125,-4.375 1.78125,-4.375 c 0.703125,0 1.0625,0.546875 1.0625,1.109375 0,0.609375 -0.4375,1.078125 -0.65625,1.328125 L 0.515625,-0.265625 C 0.4375,-0.203125 0.4375,-0.1875 0.4375,0 h 2.875 z m 0,0"
   id="path65" />
    </g>
  </g>
</g></g></svg>
