<?xml version="1.0" encoding="UTF-8" standalone="no"?>
<!-- Created with Inkscape (http://www.inkscape.org/) -->

<svg
   width="933.10425"
   height="645.77454"
   viewBox="0 0 246.88382 170.86118"
   version="1.1"
   id="svg5"
   inkscape:version="1.3.2 (091e20e, 2023-11-25, custom)"
   sodipodi:docname="001_ProductionStatistics_006.svg"
   xml:space="preserve"
   inkscape:export-filename="002_ProductionStatistics.png"
   inkscape:export-xdpi="96"
   inkscape:export-ydpi="96"
   xmlns:inkscape="http://www.inkscape.org/namespaces/inkscape"
   xmlns:sodipodi="http://sodipodi.sourceforge.net/DTD/sodipodi-0.dtd"
   xmlns:xlink="http://www.w3.org/1999/xlink"
   xmlns="http://www.w3.org/2000/svg"
   xmlns:svg="http://www.w3.org/2000/svg"
   xmlns:sketch="http://www.bohemiancoding.com/sketch/ns"><sodipodi:namedview
     id="namedview7"
     pagecolor="#ffffff"
     bordercolor="#666666"
     borderopacity="1.0"
     inkscape:showpageshadow="2"
     inkscape:pageopacity="0.0"
     inkscape:pagecheckerboard="0"
     inkscape:deskcolor="#d1d1d1"
     inkscape:document-units="mm"
     showgrid="false"
     inkscape:zoom="1.0255231"
     inkscape:cx="225.73845"
     inkscape:cy="186.73397"
     inkscape:window-width="1920"
     inkscape:window-height="1017"
     inkscape:window-x="3832"
     inkscape:window-y="1300"
     inkscape:window-maximized="1"
     inkscape:current-layer="Environment" /><defs
     id="defs2"><inkscape:path-effect
       effect="bspline"
       id="path-effect1841"
       is_visible="true"
       lpeversion="1"
       weight="33.333333"
       steps="2"
       helper_size="0"
       apply_no_weight="true"
       apply_with_weight="true"
       only_selected="false"
       uniform="false" /><inkscape:path-effect
       effect="bspline"
       id="path-effect1811"
       is_visible="true"
       lpeversion="1"
       weight="33.333333"
       steps="2"
       helper_size="0"
       apply_no_weight="true"
       apply_with_weight="true"
       only_selected="false"
       uniform="false" /><linearGradient
       id="linearGradient6703"><stop
         style="stop-color:#000000;stop-opacity:1.0000000;"
         offset="0.0000000"
         id="stop6704" /><stop
         style="stop-color:#7f7f7f;stop-opacity:1.0000000;"
         offset="0.50000000"
         id="stop6705" /><stop
         style="stop-color:#ffffff;stop-opacity:1.0000000;"
         offset="1.0000000"
         id="stop6706" /></linearGradient><linearGradient
       id="linearGradient879"><stop
         style="stop-color:#c3c3c3;stop-opacity:0.54918033;"
         offset="0.0000000"
         id="stop880" /><stop
         style="stop-color:#d4e1e4;stop-opacity:1.0000000;"
         offset="0.50000000"
         id="stop884" /><stop
         style="stop-color:#ddf0f0;stop-opacity:0.59016395;"
         offset="1.0000000"
         id="stop881" /></linearGradient><linearGradient
       x1="1453.8076"
       y1="384.45895"
       x2="1583.5951"
       y2="383.24872"
       id="linearGradient882"
       xlink:href="#linearGradient879"
       gradientTransform="scale(0.55994156,1.7859006)"
       gradientUnits="userSpaceOnUse" /><linearGradient
       x1="568.58307"
       y1="1189.8646"
       x2="567.13934"
       y2="1038.1013"
       id="linearGradient883"
       xlink:href="#linearGradient879"
       spreadMethod="pad"
       gradientTransform="scale(1.4640424,0.68304032)"
       gradientUnits="userSpaceOnUse" /><clipPath
       id="clip0_525_147"><rect
         width="24"
         height="24"
         fill="#ffffff"
         id="rect26341"
         x="0"
         y="0" /></clipPath><style
       id="style4881">.cls-1{fill:none;stroke:#020202;stroke-miterlimit:10;stroke-width:1.91px;}</style><clipPath
       clipPathUnits="userSpaceOnUse"
       id="clipPath2471"><path
         d="M 0,0 H 56.693 V 272.126 H 0 Z"
         id="path2469" /></clipPath><linearGradient
       x1="0"
       y1="0"
       x2="0"
       y2="272.12964"
       gradientUnits="userSpaceOnUse"
       id="linearGradient2477"
       gradientTransform="matrix(2.3384702,0,0,2.3384702,753.59705,-989.93593)"><stop
         style="stop-opacity:1;stop-color:#ebebf7"
         offset="0"
         id="stop2473" /><stop
         style="stop-opacity:1;stop-color:#ccccec"
         offset="1"
         id="stop2475" /></linearGradient><clipPath
       clipPathUnits="userSpaceOnUse"
       id="clipPath2719"><path
         d="m -17.00807,-24.09476 v 9.92137 h 34.01614 v -9.92137 z"
         id="path2717" /></clipPath><clipPath
       clipPathUnits="userSpaceOnUse"
       id="clipPath2743"><path
         d="m 209.76639,-26.92943 v 9.92137 h 34.01616 v -9.92137 z"
         id="path2741" /></clipPath><clipPath
       clipPathUnits="userSpaceOnUse"
       id="clipPath3023"><path
         d="m -17.00807,-24.09476 v 9.92137 h 34.01614 v -9.92137 z"
         id="path3021" /></clipPath><clipPath
       clipPathUnits="userSpaceOnUse"
       id="clipPath3043"><path
         d="m 209.76639,-24.09476 v 9.92137 h 34.01616 v -9.92137 z"
         id="path3041" /></clipPath><clipPath
       clipPathUnits="userSpaceOnUse"
       id="clipPath9141"><path
         d="m -17.00807,-24.09476 v 9.92137 h 34.01614 v -9.92137 z"
         id="path9139" /></clipPath><clipPath
       clipPathUnits="userSpaceOnUse"
       id="clipPath9165"><path
         d="m 209.76639,-26.92943 v 9.92137 h 34.01616 v -9.92137 z"
         id="path9163" /></clipPath><clipPath
       clipPathUnits="userSpaceOnUse"
       id="clipPath11751"><g
         id="g11755"><path
           d="m 753.59705,-989.93593 h 132.57489 v 636.35854 H 753.59705 Z"
           id="path11753"
           style="stroke-width:2.33847" /></g></clipPath><inkscape:path-effect
       effect="bspline"
       id="path-effect638"
       is_visible="true"
       lpeversion="1"
       weight="33.333333"
       steps="2"
       helper_size="0"
       apply_no_weight="true"
       apply_with_weight="true"
       only_selected="false"
       uniform="false" /><inkscape:path-effect
       effect="bspline"
       id="path-effect638-2"
       is_visible="true"
       lpeversion="1"
       weight="33.333333"
       steps="2"
       helper_size="0"
       apply_no_weight="true"
       apply_with_weight="true"
       only_selected="false"
       uniform="false" /><inkscape:path-effect
       effect="bspline"
       id="path-effect1867"
       is_visible="true"
       lpeversion="1"
       weight="33.333333"
       steps="2"
       helper_size="0"
       apply_no_weight="true"
       apply_with_weight="true"
       only_selected="false"
       uniform="false" /><inkscape:path-effect
       effect="bspline"
       id="path-effect1883"
       is_visible="true"
       lpeversion="1"
       weight="33.333333"
       steps="2"
       helper_size="0"
       apply_no_weight="true"
       apply_with_weight="true"
       only_selected="false"
       uniform="false" /><inkscape:path-effect
       effect="bspline"
       id="path-effect1899"
       is_visible="true"
       lpeversion="1"
       weight="33.333333"
       steps="2"
       helper_size="0"
       apply_no_weight="true"
       apply_with_weight="true"
       only_selected="false"
       uniform="false" /><inkscape:path-effect
       effect="bspline"
       id="path-effect1915"
       is_visible="true"
       lpeversion="1"
       weight="33.333333"
       steps="2"
       helper_size="0"
       apply_no_weight="true"
       apply_with_weight="true"
       only_selected="false"
       uniform="false" /><clipPath
       id="clipPath4348">
      <path
   clip-rule="nonzero"
   d="M 81,2 H 97 V 18.511719 H 81 Z m 0,0"
   id="path5274" />
    </clipPath><inkscape:path-effect
       effect="bspline"
       id="path-effect1811-0"
       is_visible="true"
       lpeversion="1"
       weight="33.333333"
       steps="2"
       helper_size="0"
       apply_no_weight="true"
       apply_with_weight="true"
       only_selected="false"
       uniform="false" /><inkscape:path-effect
       effect="bspline"
       id="path-effect1841-0"
       is_visible="true"
       lpeversion="1"
       weight="33.333333"
       steps="2"
       helper_size="0"
       apply_no_weight="true"
       apply_with_weight="true"
       only_selected="false"
       uniform="false" /><inkscape:path-effect
       effect="bspline"
       id="path-effect1841-0-0"
       is_visible="true"
       lpeversion="1"
       weight="33.333333"
       steps="2"
       helper_size="0"
       apply_no_weight="true"
       apply_with_weight="true"
       only_selected="false"
       uniform="false" /></defs><g
     id="Factory"
     inkscape:label="Factory"
     transform="translate(-12.151576,7.9803558)"><path
       d="m 221.60557,143.4677 -55.23019,-50.716942 0.32536,-32.953342 -26.3542,15.977378 V 60.130278 l -26.3542,15.644516 V 60.463141 L 88.939585,75.774794 V 92.417888 L 45.884956,147.51475"
       style="fill:none;fill-opacity:0.69837;fill-rule:evenodd;stroke:#000000;stroke-width:1.23034;stroke-dasharray:none;stroke-opacity:1"
       id="path852"
       sodipodi:nodetypes="cccccccccc" /><path
       id="path23378"
       style="fill:none;fill-opacity:1;stroke:#000000;stroke-width:0.625;stroke-dasharray:none;stroke-opacity:1"
       d="m 14.465605,126.8589 c 0.08642,0.18283 0.17293,0.36567 0.259395,0.5485 0.985388,-0.46505 1.970812,-0.93003 2.956165,-1.39516 v 21.47249 h 0.598632 c 0,-7.25688 0,-14.51376 0,-21.77064 4.545786,-2.15166 9.091596,-4.30327 13.637476,-6.45472 4.556224,2.15095 9.112108,4.30265 13.668367,6.45355 v 21.80183 h 0.598632 c 0,-7.15944 0,-14.31888 0,-21.47832 0.985647,0.459 1.971164,0.91825 2.956752,1.37738 0.09029,-0.18973 0.180503,-0.37946 0.270749,-0.56919 -5.831019,-2.74312 -11.662026,-5.48624 -17.493045,-8.22935 -5.817703,2.74787 -11.635419,5.49575 -17.453123,8.24363 z"
       sodipodi:nodetypes="ccccccccccccccc" /><path
       d="m 171.32637,93.143441 17.56947,-0.33286 -6.83257,-68.569585 h -6.50721 z"
       style="fill:none;fill-opacity:1;fill-rule:evenodd;stroke:#000000;stroke-width:1.23034;stroke-dasharray:none;stroke-opacity:1"
       id="path853" /></g><g
     id="Output"
     inkscape:label="Output"
     transform="translate(-20.543468,6.1560318)"><text
       xml:space="preserve"
       style="font-style:normal;font-variant:normal;font-weight:normal;font-stretch:normal;font-size:6.35px;line-height:1.25;font-family:Bahnschrift;-inkscape-font-specification:'Bahnschrift, @wght=300';font-variant-ligatures:normal;font-variant-caps:normal;font-variant-numeric:normal;font-variant-east-asian:normal;font-variation-settings:'wght' 300;text-align:center;text-anchor:middle;stroke-width:0.264584"
       x="235.5903"
       y="97.006111"
       id="text5820"><tspan
         sodipodi:role="line"
         id="tspan5818"
         style="font-style:normal;font-variant:normal;font-weight:normal;font-stretch:normal;font-size:6.35px;font-family:Bahnschrift;-inkscape-font-specification:'Bahnschrift, @wght=300';font-variant-ligatures:normal;font-variant-caps:normal;font-variant-numeric:normal;font-variant-east-asian:normal;font-variation-settings:'wght' 300;stroke-width:0.264584"
         x="235.5903"
         y="97.006111">Output</tspan><tspan
         sodipodi:role="line"
         style="font-style:normal;font-variant:normal;font-weight:normal;font-stretch:normal;font-size:6.35px;font-family:Bahnschrift;-inkscape-font-specification:'Bahnschrift, @wght=300';font-variant-ligatures:normal;font-variant-caps:normal;font-variant-numeric:normal;font-variant-east-asian:normal;font-variation-settings:'wght' 300;stroke-width:0.264584"
         x="235.5903"
         y="104.94361"
         id="tspan5872">&amp;</tspan><tspan
         sodipodi:role="line"
         style="font-style:normal;font-variant:normal;font-weight:normal;font-stretch:normal;font-size:6.35px;font-family:Bahnschrift;-inkscape-font-specification:'Bahnschrift, @wght=300';font-variant-ligatures:normal;font-variant-caps:normal;font-variant-numeric:normal;font-variant-east-asian:normal;font-variation-settings:'wght' 300;stroke-width:0.264584"
         x="235.5903"
         y="112.88111"
         id="tspan5874">Yield</tspan></text><path
       d="m 255.07569,76.878578 c 0,0 3.82673,-2.614298 4.43294,1.28821"
       id="Shape"
       sketch:type="MSShapeGroup"
       style="fill:none;fill-rule:evenodd;stroke:#000000;stroke-width:0.757769;stroke-opacity:1" /><path
       d="m 259.24341,77.105908 c 0,0 0.682,-1.36398 4.01617,-1.17454 0,1.06088 -0.98509,3.75095 -2.46275,4.2435 3.5994,2.12175 6.25159,8.41123 6.25159,12.20007 0,4.5845 -3.52362,7.04725 -8.33545,7.04725 -4.81182,0 -9.09321,-2.46275 -9.09321,-7.04725 0,-3.75095 2.61429,-10.07832 6.25159,-12.20007 -1.47766,-0.49255 -2.46275,-3.18262 -2.46275,-4.2435 0,0 1.66709,1.47765 3.78884,1.47765"
       id="path24847"
       sketch:type="MSShapeGroup"
       style="fill:none;fill-rule:evenodd;stroke:#000000;stroke-width:0.757769;stroke-opacity:1" /><path
       d="m 255.83346,80.061208 h 5.56959"
       id="path24849"
       sketch:type="MSShapeGroup"
       style="fill:none;fill-rule:evenodd;stroke:#000000;stroke-width:0.757769;stroke-opacity:1" /><path
       d="m 261.40305,80.553758 c 0,0 4.2435,-0.11367 4.2435,2.2733"
       id="path24851"
       sketch:type="MSShapeGroup"
       style="fill:none;fill-rule:evenodd;stroke:#000000;stroke-width:0.757769;stroke-opacity:1" /><path
       d="m 261.47883,79.833878 c 0,0 3.29629,0.18944 5.26648,-1.06088"
       id="path24853"
       sketch:type="MSShapeGroup"
       style="fill:none;fill-rule:evenodd;stroke:#000000;stroke-width:0.757769;stroke-opacity:1" /><path
       d="m 260.94839,94.269358 c -0.53044,0.60622 -1.21243,0.94721 -1.9702,0.94721 -1.6292,0 -2.91741,-1.6292 -2.91741,-3.67517 0,-2.00809 1.3261,-3.52362 2.91741,-3.52362 0.75777,0 1.40187,0.22733 1.93231,0.79565"
       id="path24855"
       sketch:type="MSShapeGroup"
       style="fill:none;fill-rule:evenodd;stroke:#000000;stroke-width:0.757769;stroke-opacity:1" /><path
       d="m 254.96202,90.632078 h 4.50872"
       id="path24857"
       sketch:type="MSShapeGroup"
       style="fill:none;fill-rule:evenodd;stroke:#000000;stroke-width:0.757769;stroke-opacity:1" /><path
       d="m 254.58314,92.185498 h 4.50872"
       id="path24859"
       sketch:type="MSShapeGroup"
       style="fill:none;fill-rule:evenodd;stroke:#000000;stroke-width:0.757769;stroke-opacity:1" /><path
       id="rect4885"
       class="cls-1"
       d="m 251.11348,111.09788 c -0.8947,0.057 -1.42324,1.00063 -1.27308,1.82965 0.0135,4.71742 -0.027,9.43813 0.0201,14.15352 0.10474,0.85483 1.02072,1.32099 1.81606,1.18385 4.71742,-0.0136 9.43814,0.027 14.15353,-0.0201 0.85482,-0.10475 1.32098,-1.02072 1.18384,-1.81606 -0.0135,-4.71743 0.027,-9.43813 -0.0201,-14.15353 -0.10474,-0.85482 -1.02072,-1.32098 -1.81606,-1.18384 -4.68805,0.004 -9.37652,-0.009 -14.0643,0.007 z"
       style="fill:none;stroke:#020202;stroke-width:0.71015;stroke-miterlimit:10;stroke-dasharray:none" /><rect
       class="cls-1"
       x="253.63881"
       y="114.88977"
       width="9.5683517"
       height="9.5683517"
       id="rect4887"
       style="fill:none;stroke:#020202;stroke-width:0.71015;stroke-miterlimit:10;stroke-dasharray:none" /><line
       class="cls-1"
       x1="255.23494"
       y1="113.29366"
       x2="255.23494"
       y2="114.88977"
       id="line4889"
       style="fill:none;stroke:#020202;stroke-width:1.06523;stroke-miterlimit:10;stroke-dasharray:none" /><line
       class="cls-1"
       x1="255.23494"
       y1="126.06259"
       x2="255.23494"
       y2="124.46648"
       id="line4891"
       style="fill:none;stroke:#020202;stroke-width:1.06523;stroke-miterlimit:10;stroke-dasharray:none" /><line
       class="cls-1"
       x1="258.42719"
       y1="113.29366"
       x2="258.42719"
       y2="114.88977"
       id="line4893"
       style="fill:none;stroke:#020202;stroke-width:1.06523;stroke-miterlimit:10;stroke-dasharray:none" /><line
       class="cls-1"
       x1="258.42719"
       y1="126.06259"
       x2="258.42719"
       y2="124.46648"
       id="line4895"
       style="fill:none;stroke:#020202;stroke-width:1.06523;stroke-miterlimit:10;stroke-dasharray:none" /><line
       class="cls-1"
       x1="261.61942"
       y1="113.29366"
       x2="261.61942"
       y2="114.88977"
       id="line4897"
       style="fill:none;stroke:#020202;stroke-width:1.06523;stroke-miterlimit:10;stroke-dasharray:none" /><line
       class="cls-1"
       x1="261.61942"
       y1="126.06259"
       x2="261.61942"
       y2="124.46648"
       id="line4899"
       style="fill:none;stroke:#020202;stroke-width:1.06523;stroke-miterlimit:10;stroke-dasharray:none" /><line
       class="cls-1"
       x1="252.04269"
       y1="122.87036"
       x2="253.63881"
       y2="122.87036"
       id="line4901"
       style="fill:none;stroke:#020202;stroke-width:1.06523;stroke-miterlimit:10;stroke-dasharray:none" /><line
       class="cls-1"
       x1="264.81165"
       y1="122.87036"
       x2="263.21555"
       y2="122.87036"
       id="line4903"
       style="fill:none;stroke:#020202;stroke-width:1.06523;stroke-miterlimit:10;stroke-dasharray:none" /><line
       class="cls-1"
       x1="252.04269"
       y1="119.67812"
       x2="253.63881"
       y2="119.67812"
       id="line4905"
       style="fill:none;stroke:#020202;stroke-width:1.06523;stroke-miterlimit:10;stroke-dasharray:none" /><line
       class="cls-1"
       x1="264.81165"
       y1="119.67812"
       x2="263.21555"
       y2="119.67812"
       id="line4907"
       style="fill:none;stroke:#020202;stroke-width:1.06523;stroke-miterlimit:10;stroke-dasharray:none" /><line
       class="cls-1"
       x1="252.04269"
       y1="116.48589"
       x2="253.63881"
       y2="116.48589"
       id="line4909"
       style="fill:none;stroke:#020202;stroke-width:1.06523;stroke-miterlimit:10;stroke-dasharray:none" /><line
       class="cls-1"
       x1="264.81165"
       y1="116.48589"
       x2="263.21555"
       y2="116.48589"
       id="line4911"
       style="fill:none;stroke:#020202;stroke-width:1.06523;stroke-miterlimit:10;stroke-dasharray:none" /></g><path
     id="Line01"
     d="m 88.271162,128.08826 c 0,-1.37795 -1.12078,-2.49767 -2.49767,-2.49767 -1.37689,0 -2.49767,1.11972 -2.49767,2.49767 0,1.37795 1.12078,2.49767 2.49767,2.49767 1.37689,0 2.49767,-1.11972 2.49767,-2.49767 z m -4.23334,0 c 0,-0.95673 0.77894,-1.73567 1.73567,-1.73567 0.95673,0 1.73567,0.77894 1.73567,1.73567 0,0.95673 -0.77894,1.73567 -1.73567,1.73567 -0.95673,0 -1.73567,-0.77894 -1.73567,-1.73567 z m 12.7,0 c 0,-1.37795 -1.12077,-2.49767 -2.49767,-2.49767 -1.37689,0 -2.49766,1.11972 -2.49766,2.49767 0,1.37795 1.12077,2.49767 2.49766,2.49767 1.3769,0 2.49767,-1.11972 2.49767,-2.49767 z m -4.23333,0 c 0,-0.95673 0.77893,-1.73567 1.73566,-1.73567 0.95674,0 1.73567,0.77788 1.73567,1.73567 0,0.95779 -0.77893,1.73567 -1.73567,1.73567 -0.95673,0 -1.73566,-0.77894 -1.73566,-1.73567 z m 12.699998,0 c 0,-1.37795 -1.12078,-2.49767 -2.49767,-2.49767 -1.37689,0 -2.49767,1.12078 -2.49767,2.49767 0,1.37689 1.12078,2.49767 2.49767,2.49767 1.37689,0 2.49767,-1.11972 2.49767,-2.49767 z m -4.23334,0 c 0,-0.95673 0.77788,-1.73567 1.73567,-1.73567 0.95779,0 1.73567,0.77788 1.73567,1.73567 0,0.95779 -0.77788,1.73567 -1.73567,1.73567 -0.95779,0 -1.73567,-0.77894 -1.73567,-1.73567 z m 12.7,0 c 0,-1.37795 -1.12077,-2.49767 -2.49766,-2.49767 -1.37689,0 -2.49767,1.12078 -2.49767,2.49767 0,1.37689 1.12078,2.49767 2.49767,2.49767 1.37689,0 2.49766,-1.11972 2.49766,-2.49767 z m -4.23333,0 c 0,-0.95673 0.77788,-1.73567 1.73567,-1.73567 0.95779,0 1.73566,0.77788 1.73566,1.73567 0,0.95779 -0.77787,1.73567 -1.73566,1.73567 -0.95779,0 -1.73567,-0.77894 -1.73567,-1.73567 z m 4.91067,-4.61433 v 0.76306 H 82.598492 v -0.76306 z m -31.749998,8.46666 h 31.749998 v 0.76306 H 82.598492 Z m 11.64166,-9.82133 h 8.466668 c 0.21061,0 0.381,-0.17039 0.381,-0.381 v -8.46667 c 0,-0.2106 -0.17039,-0.381 -0.381,-0.381 h -8.466668 c -0.2106,0 -0.381,0.1704 -0.381,0.381 v 8.46667 c 0,0.21061 0.1704,0.381 0.381,0.381 z m 0.381,-8.46667 h 7.704668 v 7.70467 h -7.704668 z m 10.202338,1.05834 h 8.46666 c 0.21061,0 0.381,-0.17039 0.381,-0.381 v -8.46668 c 0,-0.21061 -0.17039,-0.381 -0.381,-0.381 h -8.46666 c -0.21061,0 -0.381,0.17039 -0.381,0.381 v 8.46668 c 0,0.21061 0.17039,0.381 0.381,0.381 z m 0.381,-6.57331 1.89336,-1.89336 h 2.09655 l -3.98991,3.98992 z m 0,3.175 5.06836,-5.06836 h 2.09656 l -7.16492,7.16492 z m 7.70466,0.74295 -1.89335,1.89336 h -2.09656 l 3.98991,-3.98992 z m 0,-3.175 -5.06835,5.06836 h -2.09656 l 7.16491,-7.16492 z m -0.81597,5.06836 0.81597,-0.81492 v 0.81598 z m -6.07272,-7.70467 -0.81597,0.81492 v -0.81492 z m -22.363638,15.875 h 8.46667 c 0.21061,0 0.381,-0.17039 0.381,-0.381 v -8.46667 c 0,-0.2106 -0.17039,-0.381 -0.381,-0.381 h -8.46667 c -0.21061,0 -0.381,0.1704 -0.381,0.381 v 8.46667 c 0,0.21061 0.17039,0.381 0.381,0.381 z m 0.381,-8.46667 h 7.70467 v 7.70467 h -7.70467 z"
     style="fill:#000000;stroke:#000000;stroke-width:0.165;stroke-dasharray:none;stroke-opacity:1" /><g
     id="Line02"
     transform="translate(-20.543468,6.1560318)"><text
       xml:space="preserve"
       style="font-style:normal;font-variant:normal;font-weight:normal;font-stretch:normal;font-size:6.35px;line-height:1.25;font-family:Bahnschrift;-inkscape-font-specification:'Bahnschrift, @wght=300';font-variant-ligatures:normal;font-variant-caps:normal;font-variant-numeric:normal;font-variant-east-asian:normal;font-variation-settings:'wght' 300;text-align:center;text-anchor:middle;stroke-width:0.264584"
       x="123.53354"
       y="132.75862"
       id="text5820-6-4-03-3"><tspan
         sodipodi:role="line"
         style="font-style:normal;font-variant:normal;font-weight:normal;font-stretch:normal;font-size:6.35px;font-family:Bahnschrift;-inkscape-font-specification:'Bahnschrift, @wght=300';font-variant-ligatures:normal;font-variant-caps:normal;font-variant-numeric:normal;font-variant-east-asian:normal;font-variation-settings:'wght' 300;stroke-width:0.264584"
         x="123.53354"
         y="132.75862"
         id="tspan5954-5-5">Production</tspan><tspan
         sodipodi:role="line"
         style="font-style:normal;font-variant:normal;font-weight:normal;font-stretch:normal;font-size:6.35px;font-family:Bahnschrift;-inkscape-font-specification:'Bahnschrift, @wght=300';font-variant-ligatures:normal;font-variant-caps:normal;font-variant-numeric:normal;font-variant-east-asian:normal;font-variation-settings:'wght' 300;stroke-width:0.264584"
         x="123.53354"
         y="140.69612"
         id="tspan6062-3">Planning</tspan></text><path
       id="pth"
       d="m 136.72392,160.00725 c 0,-1.37794 -1.12077,-2.49767 -2.49767,-2.49767 -1.37689,0 -2.49766,1.11973 -2.49766,2.49767 0,1.37795 1.12077,2.49767 2.49766,2.49767 1.3769,0 2.49767,-1.11972 2.49767,-2.49767 z m -4.23333,0 c 0,-0.95673 0.77893,-1.73566 1.73566,-1.73566 0.95674,0 1.73567,0.77893 1.73567,1.73566 0,0.95673 -0.77893,1.73567 -1.73567,1.73567 -0.95673,0 -1.73566,-0.77894 -1.73566,-1.73567 z m 12.7,0 c 0,-1.37794 -1.12078,-2.49767 -2.49767,-2.49767 -1.37689,0 -2.49767,1.11973 -2.49767,2.49767 0,1.37795 1.12078,2.49767 2.49767,2.49767 1.37689,0 2.49767,-1.11972 2.49767,-2.49767 z m -4.23334,0 c 0,-0.95673 0.77894,-1.73566 1.73567,-1.73566 0.95673,0 1.73567,0.77787 1.73567,1.73566 0,0.95779 -0.77894,1.73567 -1.73567,1.73567 -0.95673,0 -1.73567,-0.77894 -1.73567,-1.73567 z m 12.7,0 c 0,-1.37794 -1.12077,-2.49767 -2.49766,-2.49767 -1.37689,0 -2.49767,1.12079 -2.49767,2.49767 0,1.3769 1.12078,2.49767 2.49767,2.49767 1.37689,0 2.49766,-1.11972 2.49766,-2.49767 z m -4.23333,0 c 0,-0.95673 0.77787,-1.73566 1.73567,-1.73566 0.95779,0 1.73566,0.77787 1.73566,1.73566 0,0.95779 -0.77787,1.73567 -1.73566,1.73567 -0.9578,0 -1.73567,-0.77894 -1.73567,-1.73567 z m 12.7,0 c 0,-1.37794 -1.12077,-2.49767 -2.49767,-2.49767 -1.37689,0 -2.49766,1.12079 -2.49766,2.49767 0,1.3769 1.12077,2.49767 2.49766,2.49767 1.3769,0 2.49767,-1.11972 2.49767,-2.49767 z m -4.23333,0 c 0,-0.95673 0.77787,-1.73566 1.73566,-1.73566 0.9578,0 1.73567,0.77787 1.73567,1.73566 0,0.95779 -0.77787,1.73567 -1.73567,1.73567 -0.95779,0 -1.73566,-0.77894 -1.73566,-1.73567 z m 4.91066,-4.61433 v 0.76306 h -31.75 v -0.76306 z m -31.75,8.46667 h 31.75 v 0.76305 h -31.75 z m 11.64167,-9.82133 h 8.46667 c 0.21061,0 0.381,-0.1704 0.381,-0.381 v -8.46667 c 0,-0.21061 -0.17039,-0.381 -0.381,-0.381 h -8.46667 c -0.21061,0 -0.381,0.17039 -0.381,0.381 v 8.46667 c 0,0.2106 0.17039,0.381 0.381,0.381 z m 0.381,-8.46667 h 7.70467 v 7.70466 h -7.70467 z m 10.20233,1.05833 h 8.46667 c 0.21061,0 0.381,-0.17039 0.381,-0.381 v -8.46667 c 0,-0.2106 -0.17039,-0.381 -0.381,-0.381 h -8.46667 c -0.21061,0 -0.381,0.1704 -0.381,0.381 v 8.46667 c 0,0.21061 0.17039,0.381 0.381,0.381 z m 0.381,-6.57331 1.89336,-1.89336 h 2.09656 l -3.98992,3.98992 z m 0,3.175 5.06836,-5.06836 h 2.09656 l -7.16492,7.16492 z m 7.70467,0.74295 -1.89336,1.89336 H 157.372 l 3.98992,-3.98992 z m 0,-3.175 -5.06836,5.06836 H 154.197 l 7.16492,-7.16492 z m -0.81598,5.06836 0.81598,-0.81492 v 0.81598 z m -6.07271,-7.70467 -0.81598,0.81492 v -0.81492 z m -22.36364,15.87501 h 8.46666 c 0.21061,0 0.381,-0.1704 0.381,-0.381 v -8.46667 c 0,-0.21061 -0.17039,-0.381 -0.381,-0.381 h -8.46666 c -0.21061,0 -0.381,0.17039 -0.381,0.381 v 8.46667 c 0,0.2106 0.17039,0.381 0.381,0.381 z m 0.381,-8.46667 h 7.70466 v 7.70466 h -7.70466 z"
       style="fill:#000000;stroke:#000000;stroke-width:0.165;stroke-dasharray:none;stroke-opacity:1" /><text
       xml:space="preserve"
       style="font-style:normal;font-variant:normal;font-weight:normal;font-stretch:normal;font-size:6.35px;line-height:1.25;font-family:Bahnschrift;-inkscape-font-specification:'Bahnschrift, @wght=300';font-variant-ligatures:normal;font-variant-caps:normal;font-variant-numeric:normal;font-variant-east-asian:normal;font-variation-settings:'wght' 300;text-align:center;text-anchor:middle;stroke-width:0.264584"
       x="156.56665"
       y="106.37959"
       id="text5820-6-4-03-7"><tspan
         sodipodi:role="line"
         style="font-style:normal;font-variant:normal;font-weight:normal;font-stretch:normal;font-size:6.35px;font-family:Bahnschrift;-inkscape-font-specification:'Bahnschrift, @wght=300';font-variant-ligatures:normal;font-variant-caps:normal;font-variant-numeric:normal;font-variant-east-asian:normal;font-variation-settings:'wght' 300;stroke-width:0.264584"
         x="156.56665"
         y="106.37959"
         id="tspan6062-1">Downtime</tspan><tspan
         sodipodi:role="line"
         style="font-style:normal;font-variant:normal;font-weight:normal;font-stretch:normal;font-size:6.35px;font-family:Bahnschrift;-inkscape-font-specification:'Bahnschrift, @wght=300';font-variant-ligatures:normal;font-variant-caps:normal;font-variant-numeric:normal;font-variant-east-asian:normal;font-variation-settings:'wght' 300;stroke-width:0.264584"
         x="156.56665"
         y="114.31709"
         id="tspan6098">&amp; Maintenance</tspan></text></g><g
     id="QC"
     transform="translate(-28.570495,-8.722963)"><path
       d="m 189.35663,158.6071 c 0.71752,-0.50417 1.18829,-1.33625 1.18829,-2.27733 0,-1.53477 -1.24812,-2.7829 -2.78289,-2.7829 -1.53477,0 -2.78289,1.24813 -2.78289,2.7829 0,0.94108 0.47077,1.77316 1.18829,2.27733 -0.98468,0.55797 -1.65211,1.61408 -1.65211,2.82464 v 2.31908 h 6.49342 v -2.31908 c 0,-1.21056 -0.66743,-2.26667 -1.65211,-2.82464 z m -3.44986,-2.27733 c 0,-1.02318 0.83208,-1.85527 1.85526,-1.85527 1.02318,0 1.85526,0.83209 1.85526,1.85527 0,1.02317 -0.83208,1.85526 -1.85526,1.85526 -1.02318,0 -1.85526,-0.83209 -1.85526,-1.85526 z m 4.17434,6.49342 h -4.63816 v -1.39145 c 0,-1.27874 1.04034,-2.31908 2.31908,-2.31908 1.27874,0 2.31908,1.04034 2.31908,2.31908 z"
       id="path19696"
       style="fill:#000000;stroke:#000000;stroke-width:0.057977;stroke-opacity:1" /><path
       d="m 196.77768,158.6071 c 0.71752,-0.50417 1.18829,-1.33625 1.18829,-2.27733 0,-1.53477 -1.24812,-2.7829 -2.78289,-2.7829 -1.53477,0 -2.78289,1.24813 -2.78289,2.7829 0,0.94108 0.47077,1.77316 1.18829,2.27733 -0.98468,0.55797 -1.65211,1.61408 -1.65211,2.82464 v 2.31908 h 6.49342 v -2.31908 c 0,-1.21056 -0.66743,-2.26667 -1.65211,-2.82464 z m -3.44986,-2.27733 c 0,-1.02318 0.83208,-1.85527 1.85526,-1.85527 1.02318,0 1.85526,0.83209 1.85526,1.85527 0,1.02317 -0.83208,1.85526 -1.85526,1.85526 -1.02318,0 -1.85526,-0.83209 -1.85526,-1.85526 z m 4.17434,6.49342 H 192.864 v -1.39145 c 0,-1.27874 1.04034,-2.31908 2.31908,-2.31908 1.27874,0 2.31908,1.04034 2.31908,2.31908 z"
       id="path19698"
       style="fill:#000000;stroke:#000000;stroke-width:0.057977;stroke-opacity:1" /><path
       d="m 204.19873,158.6071 c 0.71752,-0.50417 1.1883,-1.33625 1.1883,-2.27733 0,-1.53477 -1.24813,-2.7829 -2.7829,-2.7829 -1.53476,0 -2.78289,1.24813 -2.78289,2.7829 0,0.94108 0.47077,1.77316 1.18829,2.27733 -0.98468,0.55797 -1.65211,1.61408 -1.65211,2.82464 v 2.31908 h 6.49342 v -2.31908 c 0,-1.21056 -0.66743,-2.26667 -1.65211,-2.82464 z m -3.44986,-2.27733 c 0,-1.02318 0.83208,-1.85527 1.85526,-1.85527 1.02318,0 1.85526,0.83209 1.85526,1.85527 0,1.02317 -0.83208,1.85526 -1.85526,1.85526 -1.02318,0 -1.85526,-0.83209 -1.85526,-1.85526 z m 4.17434,6.49342 h -4.63816 v -1.39145 c 0,-1.27874 1.04034,-2.31908 2.31908,-2.31908 1.27874,0 2.31908,1.04034 2.31908,2.31908 z"
       id="path19700"
       style="fill:#000000;stroke:#000000;stroke-width:0.057977;stroke-opacity:1" /><path
       d="m 211.61978,158.6071 c 0.71752,-0.50417 1.1883,-1.33625 1.1883,-2.27733 0,-1.53477 -1.24813,-2.7829 -2.7829,-2.7829 -1.53476,0 -2.78289,1.24813 -2.78289,2.7829 0,0.94108 0.47077,1.77316 1.18829,2.27733 -0.98468,0.55797 -1.65211,1.61408 -1.65211,2.82464 v 2.31908 h 6.49342 v -2.31908 c 0,-1.21056 -0.66743,-2.26667 -1.65211,-2.82464 z m -3.44986,-2.27733 c 0,-1.02318 0.83209,-1.85527 1.85526,-1.85527 1.02318,0 1.85527,0.83209 1.85527,1.85527 0,1.02317 -0.83209,1.85526 -1.85527,1.85526 -1.02317,0 -1.85526,-0.83209 -1.85526,-1.85526 z m 4.17434,6.49342 h -4.63816 v -1.39145 c 0,-1.27874 1.04034,-2.31908 2.31908,-2.31908 1.27874,0 2.31908,1.04034 2.31908,2.31908 z"
       id="path19702"
       style="fill:#000000;stroke:#000000;stroke-width:0.057977;stroke-opacity:1" /><path
       d="m 207.7061,150.76398 c 1.02318,0 1.85527,0.83208 1.85527,1.85526 h 0.92763 c 0,-1.18366 -0.74396,-2.19385 -1.78755,-2.59551 2.69431,-1.25509 4.57044,-3.98186 4.57044,-7.14462 0,-4.34781 -3.53706,-7.88486 -7.88486,-7.88486 h -12.98684 c -4.34781,0 -7.88487,3.53705 -7.88487,7.88486 0,3.16276 1.87613,5.88953 4.57044,7.14462 -1.04359,0.40166 -1.78755,1.41185 -1.78755,2.59551 h 0.92764 c 0,-1.02318 0.83208,-1.85526 1.85526,-1.85526 h 1.85526 v -0.0237 c 0.15445,0.009 0.30705,0.0237 0.46382,0.0237 h 2.31908 v 1.85526 h 0.92763 v -1.85526 h 6.49342 v 1.85526 h 0.92763 v -1.85526 h 2.31908 c 0.15677,0 0.30936,-0.0144 0.46381,-0.0237 v 0.0237 z m -2.31907,-0.92763 h -12.98684 c -3.83622,0 -6.95724,-3.12102 -6.95724,-6.95724 0,-3.83622 3.12102,-6.95723 6.95724,-6.95723 h 12.98684 c 3.83622,0 6.95723,3.12101 6.95723,6.95723 0,3.83622 -3.12101,6.95724 -6.95723,6.95724 z"
       id="path19704"
       style="fill:#000000;stroke:#000000;stroke-width:0.057977;stroke-opacity:1" /><rect
       x="194.71927"
       y="138.70477"
       width="8.3486824"
       height="0.92763132"
       id="rect19706"
       style="fill:#000000;stroke:#000000;stroke-width:0.057977;stroke-opacity:1" /><rect
       x="194.71927"
       y="140.56003"
       width="8.3486824"
       height="0.92763132"
       id="rect19708"
       style="fill:#000000;stroke:#000000;stroke-width:0.057977;stroke-opacity:1" /><rect
       x="194.71927"
       y="142.4153"
       width="8.3486824"
       height="0.92763132"
       id="rect19710"
       style="fill:#000000;stroke:#000000;stroke-width:0.057977;stroke-opacity:1" /><rect
       x="194.71927"
       y="144.27055"
       width="8.3486824"
       height="0.92763132"
       id="rect19712"
       style="fill:#000000;stroke:#000000;stroke-width:0.057977;stroke-opacity:1" /><rect
       x="194.71927"
       y="146.12582"
       width="6.4934196"
       height="0.92763132"
       id="rect19714"
       style="fill:#000000;stroke:#000000;stroke-width:0.057977;stroke-opacity:1" /><rect
       x="202.14032"
       y="146.12582"
       width="0.92763144"
       height="0.92763132"
       id="rect19716"
       style="fill:#000000;stroke:#000000;stroke-width:0.057977;stroke-opacity:1" /><path
       d="m 210.95281,140.56003 c 0,-0.76715 -0.62429,-1.39144 -1.39144,-1.39144 -0.76715,0 -1.39145,0.62429 -1.39145,1.39144 0,0.38497 0.15723,0.7333 0.41048,0.98561 l -1.20082,3.20265 c -0.0459,-0.005 -0.0905,-0.0139 -0.13729,-0.0139 -0.39656,0 -0.75277,0.16883 -1.00648,0.43598 l -1.3126,-0.28756 v -8.03329 H 192.864 v 5.39557 l -0.93644,-0.20501 c 0.002,-0.0297 0.009,-0.0584 0.009,-0.0886 0,-0.76715 -0.62429,-1.39145 -1.39144,-1.39145 -0.76715,0 -1.39145,0.6243 -1.39145,1.39145 0,0.2486 0.071,0.47866 0.18553,0.68088 l -0.89749,1.19618 c -0.0705,-0.0111 -0.14192,-0.0218 -0.21567,-0.0218 -0.76715,0 -1.39145,0.6243 -1.39145,1.39145 0,0.76715 0.6243,1.39145 1.39145,1.39145 0.76715,0 1.39145,-0.6243 1.39145,-1.39145 0,-0.35343 -0.13683,-0.673 -0.35482,-0.91882 l 0.77642,-1.03523 c 0.15724,0.0622 0.32699,0.0988 0.50603,0.0988 0.39656,0 0.75277,-0.16883 1.00648,-0.43599 l 1.3126,0.28757 v 5.7142 h 12.0592 v -3.07648 l 0.93645,0.205 c -0.002,0.0297 -0.009,0.0584 -0.009,0.0886 0,0.76715 0.6243,1.39145 1.39145,1.39145 0.76715,0 1.39145,-0.6243 1.39145,-1.39145 0,-0.38496 -0.15724,-0.73329 -0.41048,-0.98561 l 1.20082,-3.20264 c 0.0459,0.005 0.0904,0.0139 0.13729,0.0139 0.76715,0 1.39144,-0.6243 1.39144,-1.39145 z m -22.72696,5.10198 c -0.25603,0 -0.46382,-0.20779 -0.46382,-0.46382 0,-0.25603 0.20779,-0.46382 0.46382,-0.46382 0.25602,0 0.46381,0.20779 0.46381,0.46382 0,0.25603 -0.20779,0.46382 -0.46381,0.46382 z m 2.31907,-3.24671 c -0.25602,0 -0.46381,-0.20779 -0.46381,-0.46382 0,-0.25603 0.20779,-0.46382 0.46381,-0.46382 0.25603,0 0.46382,0.20779 0.46382,0.46382 0,0.25603 -0.20779,0.46382 -0.46382,0.46382 z m 13.45066,5.56579 h -10.20395 v -10.20395 h 10.20395 z m 3.24671,-1.39145 c -0.25603,0 -0.46382,-0.20779 -0.46382,-0.46382 0,-0.25602 0.20779,-0.46381 0.46382,-0.46381 0.25603,0 0.46381,0.20779 0.46381,0.46381 0,0.25603 -0.20778,0.46382 -0.46381,0.46382 z m 2.31908,-5.56579 c -0.25603,0 -0.46382,-0.20779 -0.46382,-0.46382 0,-0.25602 0.20779,-0.46381 0.46382,-0.46381 0.25602,0 0.46381,0.20779 0.46381,0.46381 0,0.25603 -0.20779,0.46382 -0.46381,0.46382 z"
       id="path19718"
       style="fill:#000000;stroke:#000000;stroke-width:0.057977;stroke-opacity:1" /><text
       xml:space="preserve"
       style="font-style:normal;font-variant:normal;font-weight:normal;font-stretch:normal;font-size:6.35px;line-height:1.25;font-family:Bahnschrift;-inkscape-font-specification:'Bahnschrift, @wght=300';font-variant-ligatures:normal;font-variant-caps:normal;font-variant-numeric:normal;font-variant-east-asian:normal;font-variation-settings:'wght' 300;text-align:center;text-anchor:middle;stroke-width:0.264584"
       x="199.08041"
       y="170.81786"
       id="text5820-6-4"><tspan
         sodipodi:role="line"
         style="font-style:normal;font-variant:normal;font-weight:normal;font-stretch:normal;font-size:6.35px;font-family:Bahnschrift;-inkscape-font-specification:'Bahnschrift, @wght=300';font-variant-ligatures:normal;font-variant-caps:normal;font-variant-numeric:normal;font-variant-east-asian:normal;font-variation-settings:'wght' 300;stroke-width:0.264584"
         x="199.08041"
         y="170.81786"
         id="tspan5918-8">Quality </tspan><tspan
         sodipodi:role="line"
         style="font-style:normal;font-variant:normal;font-weight:normal;font-stretch:normal;font-size:6.35px;font-family:Bahnschrift;-inkscape-font-specification:'Bahnschrift, @wght=300';font-variant-ligatures:normal;font-variant-caps:normal;font-variant-numeric:normal;font-variant-east-asian:normal;font-variation-settings:'wght' 300;stroke-width:0.264584"
         x="199.08041"
         y="178.75536"
         id="tspan5954">Control</tspan></text></g><g
     id="EmplProd"
     transform="translate(-20.543468,6.1560318)"><path
       d="m 87.62084,136.1088 c -0.184565,0 -0.33837,-0.15381 -0.33837,-0.33837 0,-0.18457 0.153805,-0.33837 0.33837,-0.33837 h 1.568806 c 0.184566,0 0.33837,0.1538 0.33837,0.33837 0,0.18456 -0.153804,0.33837 -0.33837,0.33837 z m -5.475439,-3.9374 c -0.276849,0 -0.522936,-0.24609 -0.522936,-0.52293 0,-0.27685 0.246087,-0.52294 0.522936,-0.52294 h 0.476794 c 0.169184,0 0.307608,-0.12304 0.307608,-0.29223 0.138424,-1.90718 1.291958,-3.64517 3.014568,-4.50647 0.0769,-0.0461 0.169185,-0.0615 0.230707,-0.0615 0.276848,0 0.522935,0.24609 0.522935,0.52294 v 1.07663 c 0,0.16919 0.138425,0.30761 0.307609,0.30761 0.169185,0 0.307609,-0.13842 0.307609,-0.30761 v -1.58419 c 0,-0.26146 0.199946,-0.49217 0.446033,-0.52293 0.199946,-0.0308 0.415273,-0.0308 0.615218,-0.0308 0.230707,0 0.476794,0.0154 0.67674,0.0308 0.261468,0.0307 0.446033,0.24608 0.446033,0.52293 v 1.56881 c 0,0.16918 0.138424,0.30761 0.307609,0.30761 0.169185,0 0.307609,-0.13843 0.307609,-0.30761 v -1.06125 c 0,-0.27685 0.246087,-0.52294 0.522935,-0.52294 0.06152,0 0.153805,0.0154 0.246087,0.0615 1.753372,0.90744 2.876144,2.58391 3.014568,4.50647 0.01538,0.16919 0.138424,0.29223 0.307609,0.29223 h 0.476794 c 0.276848,0 0.522936,0.24609 0.522936,0.52294 0,0.27684 -0.246088,0.52293 -0.522936,0.52293 z m 10.904738,-0.92283 c -0.04614,-0.12304 -0.06152,-0.2307 -0.0769,-0.35375 -0.09228,-1.3381 -0.799783,-2.58391 -1.891795,-3.3837 v 0.33837 c 0,0.67674 -0.553696,1.23044 -1.230436,1.23044 -0.67674,0 -1.230436,-0.5537 -1.230436,-1.23044 v -1.19967 h -0.36913 v 1.18429 c 0,0.67674 -0.553696,1.23044 -1.230436,1.23044 -0.67674,0 -1.230436,-0.5537 -1.230436,-1.23044 v -0.35375 c -1.138153,0.79978 -1.845654,2.06098 -1.953317,3.41446 -0.01538,0.12305 -0.03076,0.23071 -0.0769,0.35375 z"
       fill=""
       id="path15231"
       style="fill:#000000;stroke:#000000;stroke-width:0.0192256;stroke-opacity:1" /><path
       d="m 80.161323,144.87566 c -0.399892,0 -0.769023,-0.16919 -1.01511,-0.46141 -0.215326,-0.26147 -0.307609,-0.59984 -0.230707,-0.92283 0.615218,-3.153 3.491362,-5.73691 7.228811,-6.47518 -1.430381,-0.92282 -2.307067,-2.61467 -2.307067,-4.50647 v -0.10766 h 9.166747 v 0.10766 c 0,1.87642 -0.876685,3.58365 -2.322447,4.50647 3.737449,0.75365 6.613593,3.33756 7.228811,6.47518 0.06152,0.32299 -0.01538,0.66136 -0.230707,0.92283 -0.246087,0.29222 -0.615218,0.46141 -1.01511,0.46141 z m 8.24392,-7.16729 c -2.107121,0 -4.13734,0.61521 -5.721527,1.75337 -1.522664,1.09201 -2.537774,2.58391 -2.860763,4.19886 -0.01538,0.0769 0.01538,0.13843 0.04614,0.15381 0.0769,0.0923 0.169185,0.13842 0.292228,0.13842 h 16.518603 c 0.123043,0 0.230706,-0.0461 0.292228,-0.12304 0.01538,-0.0154 0.06152,-0.0769 0.03076,-0.15381 -0.307609,-1.63033 -1.322718,-3.12223 -2.860763,-4.21424 -1.599567,-1.13816 -3.629786,-1.75337 -5.736908,-1.75337 z m -3.599025,-4.38343 c 0.33837,1.99945 1.830274,3.44522 3.583645,3.44522 1.753371,0 3.245275,-1.44577 3.583644,-3.44522 z"
       fill=""
       id="path15233"
       style="fill:#000000;stroke:#000000;stroke-width:0.0192256;stroke-opacity:1" /><text
       xml:space="preserve"
       style="font-style:normal;font-variant:normal;font-weight:normal;font-stretch:normal;font-size:6.35px;line-height:1.25;font-family:Bahnschrift;-inkscape-font-specification:'Bahnschrift, @wght=300';font-variant-ligatures:normal;font-variant-caps:normal;font-variant-numeric:normal;font-variant-east-asian:normal;font-variation-settings:'wght' 300;text-align:center;text-anchor:middle;stroke-width:0.264584"
       x="88.626839"
       y="150.51706"
       id="text5820-6-4-03"><tspan
         sodipodi:role="line"
         style="font-style:normal;font-variant:normal;font-weight:normal;font-stretch:normal;font-size:6.35px;font-family:Bahnschrift;-inkscape-font-specification:'Bahnschrift, @wght=300';font-variant-ligatures:normal;font-variant-caps:normal;font-variant-numeric:normal;font-variant-east-asian:normal;font-variation-settings:'wght' 300;stroke-width:0.264584"
         x="88.626839"
         y="150.51706"
         id="tspan6062">Employee</tspan><tspan
         sodipodi:role="line"
         style="font-style:normal;font-variant:normal;font-weight:normal;font-stretch:normal;font-size:6.35px;font-family:Bahnschrift;-inkscape-font-specification:'Bahnschrift, @wght=300';font-variant-ligatures:normal;font-variant-caps:normal;font-variant-numeric:normal;font-variant-east-asian:normal;font-variation-settings:'wght' 300;stroke-width:0.264584"
         x="88.626839"
         y="158.45456"
         id="tspan6134">Productivity</tspan></text></g><g
     id="InvStock"
     transform="translate(-20.543468,6.1560318)"><path
       id="path4394"
       style="fill:#000000;stroke-width:0.0210373;stroke-dasharray:none"
       d="m 40.131588,128.12353 c -0.09285,0.01 -0.164049,0.0776 -0.246041,0.11566 -1.444347,0.81471 -2.889411,1.62823 -4.332848,2.44451 -0.07173,0.0467 -0.09607,0.13877 -0.08698,0.21993 0,1.37267 0,2.74535 0,4.11802 -0.829737,0.46839 -1.660689,0.93475 -2.489087,1.40541 -0.0694,0.0479 -0.09105,0.13855 -0.0829,0.21841 6.04e-4,0.37867 -0.002,0.75747 0.0023,1.13605 0.0166,0.11787 0.153517,0.20293 0.265577,0.15685 0.08319,-0.0296 0.141716,-0.1167 0.133274,-0.20543 7.63e-4,-0.2668 3.02e-4,-0.53362 4.44e-4,-0.80042 0.827202,0.46649 1.654434,0.93292 2.481627,1.39943 0,2.49649 0,4.99297 0,7.48946 -0.827203,-0.46649 -1.654433,-0.93292 -2.481627,-1.39944 -2.5e-5,-1.83445 4.79e-4,-3.66895 -0.0012,-5.50338 -0.01069,-0.11976 -0.145625,-0.21052 -0.260158,-0.16891 -0.08683,0.028 -0.149119,0.11734 -0.139766,0.20905 -0.0014,1.86368 -2.31e-4,3.72739 1.26e-4,5.59108 0.0021,0.0867 0.06925,0.15723 0.145797,0.18935 2.340297,1.31952 4.680388,2.63946 7.02127,3.95789 0.07516,0.0365 0.164223,0.012 0.229071,-0.0346 2.338269,-1.31849 4.67671,-2.63674 7.014408,-3.95621 0.07195,-0.0452 0.0991,-0.13661 0.0898,-0.21761 -8.2e-5,-2.63757 1.77e-4,-5.27517 -7.1e-4,-7.91274 -0.0032,-0.0857 -0.06985,-0.1546 -0.145512,-0.18648 -0.808577,-0.456 -1.617175,-0.91196 -2.425739,-1.36797 -3.55e-4,-1.39709 0.0011,-2.79423 -0.0013,-4.19129 -0.0055,-0.0835 -0.07125,-0.14992 -0.145196,-0.18121 -0.652542,-0.36752 -1.304233,-0.73668 -1.957759,-1.10233 -0.108715,-0.0468 -0.251183,0.0251 -0.271469,0.14364 -0.01978,0.0902 0.02906,0.18907 0.114035,0.22633 0.550324,0.31132 1.101463,0.62127 1.652099,0.93207 -1.3563,0.76483 -2.712598,1.52965 -4.06895,2.29438 -1.356353,-0.76473 -2.71265,-1.52955 -4.06895,-2.29438 1.356297,-0.7648 2.7126,-1.52959 4.06895,-2.29429 0.421537,0.23618 0.840697,0.47692 1.263995,0.70976 0.112437,0.0431 0.254457,-0.0377 0.266545,-0.15981 0.01254,-0.0869 -0.03578,-0.17828 -0.117028,-0.21343 -0.367572,-0.20799 -0.740141,-0.41842 -1.110665,-0.62641 -0.07945,-0.0428 -0.156714,-0.0903 -0.23758,-0.1301 -0.02493,-0.009 -0.05162,-0.0121 -0.07795,-0.0109 z m -4.186338,3.11268 c 1.332729,0.75154 2.665491,1.50303 3.998211,2.25458 0,1.52962 0,3.05923 0,4.58884 -1.358698,-0.76617 -2.717433,-1.53227 -4.076125,-2.29845 0,-1.52964 0,-3.05927 0,-4.58891 0.02597,0.0147 0.05194,0.0293 0.07792,0.0439 z m 8.475794,0.0455 c 0,1.49978 0,2.99957 0,4.49935 -1.358639,0.76618 -2.717317,1.53228 -4.075966,2.29845 0,-1.52961 0,-3.05922 0,-4.58883 1.358639,-0.76618 2.717319,-1.53229 4.075966,-2.29845 0,0.0298 0,0.0597 0,0.0895 z m 0.479612,4.2444 c 0.628204,0.3543 1.256434,0.70856 1.884626,1.06289 -0.821582,0.4633 -1.643167,0.92658 -2.464801,1.38978 -0.496604,-0.27993 -0.993158,-0.55996 -1.48971,-0.83999 0.636263,-0.35942 1.273889,-0.71654 1.908842,-1.07819 0.06922,-0.0474 0.09176,-0.13746 0.08313,-0.21706 0,-0.12046 0,-0.24092 0,-0.36138 0.02597,0.0147 0.05195,0.0293 0.07792,0.0439 z m -9.434936,0.0459 c 0.0025,0.11852 -0.0043,0.23722 0.0031,0.3556 0.0073,0.0811 0.07472,0.13888 0.14398,0.17159 0.617156,0.34654 1.233363,0.69477 1.849903,1.04243 -0.496549,0.28001 -0.993108,0.56 -1.48971,0.83991 -0.823205,-0.4641 -1.646355,-0.9283 -2.469506,-1.39249 0.654075,-0.36889 1.308212,-0.73766 1.962302,-1.10652 0,0.0298 0,0.0597 0,0.0895 z m 11.527386,1.45015 c 0,2.46661 0,4.93322 0,7.39983 -0.823922,0.46464 -1.647886,0.92922 -2.471816,1.39385 -3.56e-4,-1.75136 0.0011,-3.50277 -0.0013,-5.2541 -0.01151,-0.11851 -0.144703,-0.2086 -0.258527,-0.16787 -0.08749,0.0269 -0.150048,0.11683 -0.141459,0.20855 -8.89e-4,1.81327 -1.23e-4,3.62656 -3.55e-4,5.43983 -0.300375,0.16943 -0.600778,0.33882 -0.901163,0.50824 0,-2.49647 0,-4.99293 0,-7.48939 0.300325,-0.16937 0.600646,-0.33875 0.901003,-0.50807 0.002,0.29206 -0.0033,0.58428 0.0031,0.87624 0.01852,0.11717 0.155954,0.20025 0.267183,0.15292 0.08239,-0.0304 0.139535,-0.11724 0.130961,-0.20537 0.0011,-0.35009 1.78e-4,-0.70019 5.33e-4,-1.05028 0.823922,-0.46465 1.647886,-0.92922 2.471818,-1.39385 0,0.0298 0,0.0597 0,0.0895 z m -4.545528,0.36159 c 0.488119,0.27504 0.976141,0.55035 1.464189,0.82556 -0.297844,0.16798 -0.595689,0.33596 -0.893585,0.50385 -0.496605,-0.27994 -0.993159,-0.55997 -1.48971,-0.83999 0.29779,-0.16799 0.595619,-0.3359 0.893428,-0.50386 0.0086,0.005 0.01712,0.01 0.02568,0.0144 z m -4.550632,0.003 c 0.289411,0.163 0.578724,0.32626 0.868065,0.48942 -0.496548,0.28001 -0.993105,0.56 -1.489708,0.83991 -0.29787,-0.16786 -0.595692,-0.33581 -0.893508,-0.50377 0.496472,-0.28003 0.992983,-0.55999 1.489471,-0.84 0.0086,0.005 0.01712,0.01 0.02568,0.0144 z m 3.248492,0.73162 c 0.488003,0.27517 0.976049,0.55027 1.46403,0.82548 -0.82174,0.46337 -1.643486,0.92674 -2.465277,1.39003 -0.820067,-0.46233 -1.640082,-0.92475 -2.460095,-1.38716 0.496553,-0.28003 0.993105,-0.56006 1.48971,-0.84 0.30069,0.16813 0.598754,0.34062 0.900813,0.50506 0.07455,0.0289 0.157096,0.002 0.219483,-0.0425 0.275224,-0.15512 0.550403,-0.31032 0.825656,-0.46538 0.0086,0.005 0.01712,0.01 0.02568,0.0144 z m -4.888928,0.48415 c 0.274413,0.15477 0.548845,0.30951 0.823248,0.4643 0,2.49647 0,4.99292 0,7.48938 -0.300385,-0.16941 -0.600788,-0.33879 -0.901162,-0.50824 0,-2.49646 0,-4.99291 0,-7.48938 0.02597,0.0146 0.05194,0.0293 0.07792,0.0439 z m 6.560386,0.77468 c 0,2.46661 0,4.93322 0,7.39983 -0.823925,0.46467 -1.647885,0.92928 -2.471818,1.39392 0,-2.49645 0,-4.99291 0,-7.48938 0.823923,-0.46464 1.647886,-0.92921 2.471818,-1.39385 0,0.0298 0,0.0597 0,0.0895 z m -5.257607,-0.04 c 0.794689,0.44815 1.589411,0.89624 2.384092,1.34441 0,2.49644 0,4.99287 0,7.48929 -0.820663,-0.46281 -1.641352,-0.92558 -2.462008,-1.38842 0,-2.49641 0,-4.99281 0,-7.48923 0.02597,0.0146 0.05194,0.0293 0.07792,0.0439 z" /><text
       xml:space="preserve"
       style="font-style:normal;font-variant:normal;font-weight:normal;font-stretch:normal;font-size:6.35px;line-height:1.25;font-family:Bahnschrift;-inkscape-font-specification:'Bahnschrift, @wght=300';font-variant-ligatures:normal;font-variant-caps:normal;font-variant-numeric:normal;font-variant-east-asian:normal;font-variation-settings:'wght' 300;text-align:center;text-anchor:middle;stroke-width:0.264584"
       x="40.328777"
       y="110.40786"
       id="text5820-6-4-0-1"><tspan
         sodipodi:role="line"
         style="font-style:normal;font-variant:normal;font-weight:normal;font-stretch:normal;font-size:6.35px;font-family:Bahnschrift;-inkscape-font-specification:'Bahnschrift, @wght=300';font-variant-ligatures:normal;font-variant-caps:normal;font-variant-numeric:normal;font-variant-east-asian:normal;font-variation-settings:'wght' 300;stroke-width:0.264584"
         x="40.328777"
         y="110.40786"
         id="tspan5990-2">Inventory</tspan><tspan
         sodipodi:role="line"
         style="font-style:normal;font-variant:normal;font-weight:normal;font-stretch:normal;font-size:6.35px;font-family:Bahnschrift;-inkscape-font-specification:'Bahnschrift, @wght=300';font-variant-ligatures:normal;font-variant-caps:normal;font-variant-numeric:normal;font-variant-east-asian:normal;font-variation-settings:'wght' 300;stroke-width:0.264584"
         x="40.328777"
         y="118.34536"
         id="tspan6026">&amp; Stock</tspan></text></g><g
     id="SC"
     transform="translate(-20.543468,6.1560318)"><path
       d="m 50.57047,75.636188 c -1.119143,0 -2.023067,0.903924 -2.023067,2.023069 0,1.119143 0.903924,2.023067 2.023067,2.023067 1.119144,0 2.023068,-0.903924 2.023068,-2.023067 0,-1.119145 -0.903924,-2.023069 -2.023068,-2.023069 z m 0,2.789251 c -0.421831,0 -0.774792,-0.352961 -0.774792,-0.774792 0,-0.421831 0.352961,-0.774792 0.774792,-0.774792 0.421832,0 0.774791,0.352961 0.774791,0.774792 0,0.430441 -0.344351,0.774792 -0.774791,0.774792 z M 63.294276,75.5501 c -1.119145,0 -2.023069,0.903924 -2.023069,2.023069 0,1.119143 0.903924,2.023067 2.023069,2.023067 1.119144,0 2.023068,-0.903924 2.023068,-2.023067 0,-1.119145 -0.903924,-2.023069 -2.023068,-2.023069 z m 0,2.789252 c -0.421831,0 -0.774792,-0.352961 -0.774792,-0.774792 0,-0.421832 0.352961,-0.774793 0.774792,-0.774793 0.421831,0 0.774791,0.352961 0.774791,0.774793 0,0.43044 -0.344352,0.774792 -0.774791,0.774792 z M 45.103883,76.505678 c 0,0.396005 0.318525,0.705922 0.705921,0.705922 h 1.945588 c 0.07748,0 0.14635,-0.06026 0.163568,-0.129133 0.223828,-1.265493 1.325755,-2.143591 2.65151,-2.143591 1.325755,0 2.43629,0.878098 2.651511,2.143591 0.01721,0.07747 0.07748,0.129133 0.163567,0.129133 h 0.28409 2.660119 V 74.086604 H 45.103883 Z M 66.978842,75.76532 h -0.43044 v -1.893935 c 0,-0.645661 -0.525137,-1.170796 -1.179406,-1.170796 h -2.091938 c -0.04304,0 -0.08609,-0.02582 -0.120524,-0.05165 l -3.271343,-3.185256 c -0.14635,-0.146349 -0.35296,-0.232437 -0.568181,-0.241046 h -2.36742 v 7.988966 h 3.520999 c 0.07748,0 0.14635,-0.06026 0.163567,-0.129132 0.223829,-1.265493 1.325756,-2.229679 2.651511,-2.229679 1.325755,0 2.43629,0.964186 2.65151,2.229679 0.01721,0.07747 0.07748,0.129132 0.163567,0.129132 h 0.275482 c 0.421831,0 0.748966,-0.335744 0.748966,-0.748966 v -0.542355 c 0.01721,-0.07747 -0.06026,-0.154958 -0.14635,-0.154958 z m -5.3805,-3.056123 h -3.564043 c -0.08609,0 -0.163567,-0.07747 -0.163567,-0.163567 v -2.272723 c 0,-0.08608 0.07748,-0.163567 0.163567,-0.163567 h 1.196623 c 0.04305,0 0.08609,0.02582 0.129133,0.05165 l 2.367419,2.264114 c 0.07748,0.111908 0.0086,0.28409 -0.129132,0.28409 z"
       id="path7830"
       style="fill:#000000;stroke-width:0.086088" /><path
       d="m 50.122812,72.924417 h -3.503781 v -3.503781 h 1.351582 v 1.119143 h 0.800618 v -1.119143 h 1.351581 z m 4.571273,0 h -3.495173 v -3.503781 h 1.351582 v 1.119143 h 0.800618 v -1.119143 h 1.351581 v 3.503781 z m -2.255506,-4.579881 h -3.503781 v -3.503781 h 1.351581 v 1.119143 h 0.800619 v -1.119143 h 1.351581 z"
       id="path7838"
       style="fill:#000000;stroke-width:0.086088" /><path
       d="m 26.010055,89.50105 c -1.119143,0 -2.023067,0.90393 -2.023067,2.02307 0,1.11914 0.903924,2.02307 2.023067,2.02307 1.119144,0 2.023068,-0.90393 2.023068,-2.02307 0,-1.11914 -0.903924,-2.02307 -2.023068,-2.02307 z m 0,2.78925 c -0.421831,0 -0.774792,-0.35296 -0.774792,-0.77479 0,-0.42183 0.352961,-0.77479 0.774792,-0.77479 0.421832,0 0.774792,0.35296 0.774792,0.77479 0,0.43044 -0.344351,0.77479 -0.774792,0.77479 z m 12.723806,-2.87534 c -1.119145,0 -2.023068,0.90393 -2.023068,2.02307 0,1.11915 0.903923,2.02307 2.023068,2.02307 1.119144,0 2.023068,-0.90392 2.023068,-2.02307 0,-1.11914 -0.903924,-2.02307 -2.023068,-2.02307 z m 0,2.78926 c -0.421831,0 -0.774792,-0.35296 -0.774792,-0.7748 0,-0.42183 0.352961,-0.77479 0.774792,-0.77479 0.421832,0 0.774792,0.35296 0.774792,0.77479 0,0.43044 -0.344353,0.7748 -0.774792,0.7748 z M 20.543468,90.37054 c 0,0.39601 0.318525,0.70592 0.705921,0.70592 h 1.945588 c 0.07748,0 0.14635,-0.0603 0.163568,-0.12913 0.223828,-1.26549 1.325755,-2.14359 2.65151,-2.14359 1.325756,0 2.43629,0.8781 2.651511,2.14359 0.01721,0.0775 0.07748,0.12913 0.163567,0.12913 h 0.28409 2.660119 V 87.95147 H 20.543468 Z m 21.874959,-0.74036 h -0.43044 v -1.89393 c 0,-0.64566 -0.525137,-1.1708 -1.179406,-1.1708 h -2.091938 c -0.04304,0 -0.08609,-0.0258 -0.120523,-0.0517 L 35.324776,83.3285 c -0.146349,-0.14635 -0.35296,-0.23244 -0.568181,-0.24105 h -2.367419 v 7.98897 h 3.520998 c 0.07748,0 0.14635,-0.0603 0.163568,-0.12914 0.223828,-1.26549 1.325755,-2.22967 2.65151,-2.22967 1.325756,0 2.43629,0.96418 2.65151,2.22967 0.01721,0.0775 0.07748,0.12914 0.163567,0.12914 h 0.275482 c 0.421831,0 0.748966,-0.33575 0.748966,-0.74897 V 89.7851 c 0.01721,-0.0775 -0.06026,-0.15496 -0.14635,-0.15496 z m -5.3805,-3.05612 h -3.564042 c -0.08609,0 -0.163568,-0.0775 -0.163568,-0.16357 v -2.27272 c 0,-0.0861 0.07748,-0.16357 0.163568,-0.16357 h 1.196622 c 0.04304,0 0.08609,0.0258 0.129133,0.0516 l 2.36742,2.26412 c 0.07748,0.11191 0.0086,0.28409 -0.129133,0.28409 z"
       id="path7830-3"
       style="fill:#000000;stroke-width:0.086088" /><path
       d="M 25.562397,86.78928 H 22.058616 V 83.2855 h 1.351582 v 1.11914 h 0.800618 V 83.2855 h 1.351581 z m 4.571274,0 H 26.638497 V 83.2855 h 1.351582 v 1.11914 h 0.800618 V 83.2855 h 1.351581 v 3.50378 z M 27.878165,82.2094 h -3.503782 v -3.503781 h 1.351581 v 1.119143 h 0.80062 v -1.119143 h 1.351581 z"
       id="path7838-1"
       style="fill:#000000;stroke-width:0.086088" /><path
       d="m 59.942486,94.2443 c -1.119143,0 -2.023067,0.90392 -2.023067,2.02306 0,1.119148 0.903924,2.023068 2.023067,2.023068 1.119144,0 2.023068,-0.90392 2.023068,-2.023068 0,-1.11914 -0.903924,-2.02306 -2.023068,-2.02306 z m 0,2.789248 c -0.421831,0 -0.774792,-0.35296 -0.774792,-0.774788 0,-0.42184 0.352961,-0.7748 0.774792,-0.7748 0.421831,0 0.774791,0.35296 0.774791,0.7748 0,0.430438 -0.344351,0.774788 -0.774791,0.774788 z M 72.666292,94.15821 c -1.119145,0 -2.023069,0.90392 -2.023069,2.02307 0,1.119138 0.903924,2.023058 2.023069,2.023058 1.119144,0 2.023068,-0.90392 2.023068,-2.023058 0,-1.11915 -0.903924,-2.02307 -2.023068,-2.02307 z m 0,2.789248 c -0.421831,0 -0.774792,-0.352958 -0.774792,-0.774788 0,-0.42183 0.352961,-0.77479 0.774792,-0.77479 0.421831,0 0.774791,0.35296 0.774791,0.77479 0,0.43044 -0.344352,0.774788 -0.774791,0.774788 z M 54.475899,95.11379 c 0,0.396 0.318525,0.70592 0.705921,0.70592 h 1.945588 c 0.07748,0 0.14635,-0.0603 0.163567,-0.12913 0.223829,-1.2655 1.325756,-2.1436 2.651511,-2.1436 1.325755,0 2.43629,0.8781 2.651511,2.1436 0.01721,0.0775 0.07748,0.12913 0.163567,0.12913 h 0.28409 2.660119 v -3.125 H 54.475899 Z m 21.874959,-0.74036 h -0.43044 v -1.89394 c 0,-0.64566 -0.525137,-1.17079 -1.179406,-1.17079 h -2.091938 c -0.04304,0 -0.08609,-0.0258 -0.120524,-0.0516 l -3.271343,-3.18526 c -0.14635,-0.14635 -0.35296,-0.23244 -0.568181,-0.24104 h -2.36742 v 7.98896 h 3.520999 c 0.07748,0 0.14635,-0.0603 0.163567,-0.12913 0.223829,-1.26549 1.325756,-2.22968 2.651511,-2.22968 1.325755,0 2.43629,0.96419 2.65151,2.22968 0.01721,0.0775 0.07748,0.12913 0.163567,0.12913 h 0.275482 c 0.421831,0 0.748965,-0.33574 0.748965,-0.74896 v -0.54236 c 0.01721,-0.0775 -0.06026,-0.15496 -0.146349,-0.15496 z m -5.3805,-3.05613 h -3.564043 c -0.08609,0 -0.163567,-0.0775 -0.163567,-0.16356 v -2.27273 c 0,-0.0861 0.07748,-0.16356 0.163567,-0.16356 h 1.196623 c 0.04304,0 0.08609,0.0258 0.129133,0.0516 l 2.367419,2.26411 c 0.07748,0.11191 0.0086,0.28409 -0.129132,0.28409 z"
       id="path7830-1"
       style="fill:#000000;stroke-width:0.086088" /><path
       d="m 59.494828,91.53253 h -3.503781 v -3.50379 h 1.351582 v 1.11915 h 0.800618 v -1.11915 h 1.351581 z m 4.571273,0 h -3.495173 v -3.50379 h 1.351582 v 1.11915 h 0.800618 v -1.11915 h 1.351581 v 3.50379 z m -2.255506,-4.57989 h -3.503781 v -3.50378 h 1.351581 v 1.11915 h 0.800619 v -1.11915 h 1.351581 z"
       id="path7838-7"
       style="fill:#000000;stroke-width:0.086088" /><text
       xml:space="preserve"
       style="font-style:normal;font-variant:normal;font-weight:normal;font-stretch:normal;font-size:6.35px;line-height:1.25;font-family:Bahnschrift;-inkscape-font-specification:'Bahnschrift, @wght=300';font-variant-ligatures:normal;font-variant-caps:normal;font-variant-numeric:normal;font-variant-east-asian:normal;font-variation-settings:'wght' 300;text-align:center;text-anchor:middle;stroke-width:0.264584"
       x="42.641808"
       y="49.361496"
       id="text5820-6-4-03-7-7"><tspan
         sodipodi:role="line"
         style="font-style:normal;font-variant:normal;font-weight:normal;font-stretch:normal;font-size:6.35px;font-family:Bahnschrift;-inkscape-font-specification:'Bahnschrift, @wght=300';font-variant-ligatures:normal;font-variant-caps:normal;font-variant-numeric:normal;font-variant-east-asian:normal;font-variation-settings:'wght' 300;stroke-width:0.264584"
         x="42.641808"
         y="49.361496"
         id="tspan6098-3">Supply Chain</tspan><tspan
         sodipodi:role="line"
         style="font-style:normal;font-variant:normal;font-weight:normal;font-stretch:normal;font-size:6.35px;font-family:Bahnschrift;-inkscape-font-specification:'Bahnschrift, @wght=300';font-variant-ligatures:normal;font-variant-caps:normal;font-variant-numeric:normal;font-variant-east-asian:normal;font-variation-settings:'wght' 300;stroke-width:0.264584"
         x="42.641808"
         y="57.298996"
         id="tspan6170">Performance</tspan></text></g><g
     id="Management"
     transform="translate(-20.543468,6.1560318)"><path
       id="path11574"
       style="fill:#000000;stroke:#000000;stroke-width:0.0117029;stroke-dasharray:none;stroke-opacity:1"
       d="m 103.18673,35.093125 c -0.57322,0.0036 -1.14617,0.05224 -1.71165,0.146233 0.004,-5.97e-4 -0.0122,0.0021 -0.0161,0.0027 -0.86659,0.145219 -1.715084,0.397789 -2.520155,0.749797 -0.93297,0.407557 -1.807392,0.94838 -2.589907,1.599597 -0.832127,0.691871 -1.560469,1.508374 -2.152667,2.414171 -0.506017,0.773379 -0.912567,1.611876 -1.204944,2.488669 -0.2629,0.787331 -0.433457,1.60535 -0.508149,2.432021 -0.01706,0.188511 -0.02913,0.377467 -0.03639,0.566608 1.67e-4,-0.004 -4.35e-4,0.01238 -5.85e-4,0.01626 -0.01963,0.542677 4.01e-4,1.086817 0.06031,1.626539 0.05016,0.451197 0.128878,0.899244 0.236488,1.340297 0.01598,0.06632 0.03195,0.132655 0.04793,0.198984 2.0234,0 4.046799,0 6.070199,0 0,-0.192771 0,-0.385541 0,-0.578311 -1.87282,0 -3.745641,0 -5.61846,0 -0.02696,-0.150065 -0.0553,-0.299885 -0.08111,-0.450153 -0.109077,-0.644825 -0.155447,-1.300041 -0.142105,-1.953814 0.01704,-0.826049 0.133917,-1.650114 0.349246,-2.447843 0.227538,-0.844362 0.565068,-1.6589 1.000494,-2.417236 0.450575,-0.785327 1.005842,-1.510353 1.645727,-2.150852 0.607751,-0.608476 1.291834,-1.140681 2.03153,-1.579427 0.713716,-0.42345 1.479162,-0.759741 2.274208,-0.997784 0.73989,-0.221835 1.50519,-0.358427 2.27603,-0.407506 0.91824,-0.05846 1.84448,0.0053 2.74539,0.192878 0.80936,0.168097 1.5979,0.435854 2.34257,0.794702 0.81423,0.392194 1.57591,0.893053 2.25941,1.484291 0.74432,0.643365 1.39595,1.393814 1.92811,2.221324 0.47051,0.731279 0.84754,1.522725 1.11758,2.34934 0.22587,0.690585 0.37699,1.405516 0.45066,2.12834 0.0665,0.652739 0.0701,1.31175 0.0131,1.965341 -0.0293,0.335252 -0.0754,0.669019 -0.13806,0.999672 -0.0165,0.08958 -0.033,0.179152 -0.0495,0.268727 -1.66597,0 -3.33194,0 -4.99791,0 0,0.19277 0,0.38554 0,0.578311 1.81681,0 3.63362,0 5.45043,0 0.0418,-0.174501 0.0854,-0.348593 0.12225,-0.524225 0.14702,-0.694917 0.2224,-1.404615 0.23031,-2.114751 0.002,-0.158699 2.2e-4,-0.317437 -0.005,-0.476067 1.7e-4,0.0027 -4.4e-4,-0.01286 -5.9e-4,-0.01754 -6e-4,-0.01729 -0.001,-0.03458 -0.002,-0.05187 1.7e-4,0.004 -5.1e-4,-0.01238 -7e-4,-0.01626 -0.0336,-0.850273 -0.1677,-1.696627 -0.40029,-2.515202 -0.031,-0.109341 -0.0639,-0.218166 -0.0983,-0.326479 6.7e-4,0.0023 -0.004,-0.0123 -0.005,-0.01678 -0.005,-0.0155 -0.01,-0.031 -0.015,-0.0465 0.001,0.0037 -0.004,-0.01181 -0.005,-0.01548 -0.20977,-0.641267 -0.48033,-1.262578 -0.80633,-1.853283 0.001,0.002 -0.006,-0.01133 -0.009,-0.01544 -0.5091,-0.919123 -1.15289,-1.763233 -1.90338,-2.49841 -0.71475,-0.700583 -1.52639,-1.302296 -2.40518,-1.781332 -0.79238,-0.432234 -1.6393,-0.76445 -2.51453,-0.985168 -0.83493,-0.210895 -1.69528,-0.320146 -2.55634,-0.326925 -0.0527,-5.12e-4 -0.10539,-4.52e-4 -0.15807,-2.04e-4 z m -0.22106,3.326086 c 0.19277,0 0.38554,0 0.57831,0 0,-0.373487 0,-0.746974 0,-1.12046 -0.19277,0 -0.38554,0 -0.57831,0 0,0.373486 0,0.746973 0,1.12046 z m -6.441515,1.787225 c 0.263891,0.2639 0.527783,0.527798 0.791674,0.791698 0.136258,-0.136258 0.272517,-0.272516 0.408775,-0.408774 -0.2639,-0.263892 -0.527798,-0.527784 -0.791699,-0.791676 -0.13625,0.136252 -0.272501,0.272502 -0.40875,0.408752 z m 12.260865,0.382947 c 0.13626,0.136257 0.27252,0.272516 0.40878,0.408774 0.2639,-0.2639 0.52781,-0.527798 0.79172,-0.791698 -0.13626,-0.136259 -0.27252,-0.272516 -0.40878,-0.408775 -0.2639,0.2639 -0.52781,0.527799 -0.79172,0.791699 z m -7.96174,1.143944 c -0.0943,0.0023 -0.18719,0.05221 -0.23753,0.132587 -0.0404,0.06256 -0.0548,0.140613 -0.041,0.213656 0.0448,0.295753 0.091,0.591287 0.13817,0.88668 6.9e-4,0.004 0.002,0.01382 0.003,0.02005 0.0343,0.214 0.0691,0.427905 0.10445,0.641734 6.4e-4,0.0035 0.002,0.01379 0.003,0.01992 0.0124,0.07416 0.0247,0.148326 0.0371,0.222489 5.2e-4,0.0034 0.002,0.01379 0.003,0.01986 0.12898,0.76577 0.26473,1.53047 0.41566,2.292244 0.005,0.02632 0.0115,0.05762 0.0161,0.08081 0.0924,0.459965 0.18966,0.919063 0.3017,1.37468 0.0112,0.04521 0.0224,0.09043 0.034,0.135572 6.4e-4,0.0023 0.004,0.01353 0.005,0.01927 0.003,0.01085 0.006,0.02165 0.008,0.03248 1.7e-4,8.39e-4 0.003,0.01292 0.005,0.01794 0.0155,0.0598 0.0315,0.11948 0.0479,0.179065 1.7e-4,2.21e-4 0.004,0.01282 0.005,0.0177 0.0504,0.180728 0.10384,0.360893 0.17027,0.53647 0.0297,0.07793 0.0627,0.154859 0.10465,0.227068 0.15099,0.268766 0.35982,0.504827 0.60854,0.686993 0.30088,0.221144 0.65898,0.3632 1.02944,0.409545 0.33949,0.04303 0.68906,0.0052 1.01105,-0.110872 0.35361,-0.12688 0.67331,-0.346932 0.91752,-0.632472 0.2451,-0.285393 0.414,-0.635126 0.48678,-1.00412 0.0663,-0.332854 0.0541,-0.681258 -0.0373,-1.008218 -0.0447,-0.16005 -0.10745,-0.315171 -0.18757,-0.460771 -0.056,-0.09746 -0.12271,-0.188241 -0.19055,-0.277682 -0.14074,-0.183521 -0.2916,-0.359009 -0.44495,-0.532039 -0.28578,-0.321198 -0.58224,-0.632703 -0.88212,-0.940713 -0.11843,-0.121538 -0.2376,-0.24236 -0.35722,-0.362734 -0.002,-0.0024 -0.01,-0.0099 -0.0142,-0.01429 -0.57935,-0.581868 -1.16964,-1.152748 -1.76506,-1.718134 -0.30867,-0.293034 -0.61898,-0.584343 -0.9307,-0.874129 -0.003,-0.0027 -0.0103,-0.0095 -0.0149,-0.01376 -0.0541,-0.04982 -0.10756,-0.100443 -0.16215,-0.14974 -0.0527,-0.04454 -0.1217,-0.06911 -0.19074,-0.06714 z m 1.21825,1.828415 c 0.50775,0.487371 1.01156,0.978905 1.50783,1.47798 0.30822,0.310223 0.61381,0.623141 0.91228,0.942794 0.1797,0.193169 0.3575,0.388313 0.52607,0.591335 0.0896,0.109014 0.17788,0.219689 0.25274,0.339505 0.0556,0.09118 0.0999,0.189116 0.13522,0.289831 0.0901,0.258006 0.11178,0.5392 0.0636,0.808123 -0.0518,0.293361 -0.1864,0.571684 -0.38509,0.793749 -0.20194,0.226974 -0.46992,0.394141 -0.76239,0.476213 -0.26868,0.07612 -0.55727,0.07932 -0.82785,0.01061 -0.28489,-0.07155 -0.54941,-0.222437 -0.75538,-0.431932 -0.11857,-0.120462 -0.2185,-0.259524 -0.29355,-0.411028 -0.0537,-0.112892 -0.093,-0.231946 -0.12995,-0.351153 -0.0702,-0.230549 -0.1283,-0.464591 -0.18386,-0.699044 -0.0924,-0.39346 -0.17486,-0.789182 -0.25403,-1.185495 -0.13509,-0.67965 -0.25896,-1.361488 -0.37691,-2.044307 -0.079,-0.460958 -0.15744,-0.92202 -0.23622,-1.383017 0.26917,0.258611 0.53834,0.517224 0.80751,0.775836 z" /><path
       d="m 140.61505,42.152001 -1.53104,-0.306336 c -0.0775,-0.0885 -0.17269,-0.159765 -0.27862,-0.209841 0.12039,-0.134595 0.22266,-0.270674 0.30029,-0.383331 0.18722,-0.271575 0.34311,-0.564185 0.45132,-0.846359 0.0532,-0.119022 0.0982,-0.238667 0.13528,-0.355934 0.14498,-0.121772 0.23035,-0.303687 0.23035,-0.494451 v -0.467373 c 0,-0.134383 -0.0419,-0.265322 -0.11938,-0.37427 v -0.658085 c 0,-1.154337 -0.93915,-2.093375 -2.09354,-2.093375 h -0.67875 c -1.15412,0 -2.09343,0.939038 -2.09343,2.093375 v 0.658138 c -0.0773,0.108895 -0.11954,0.239939 -0.11954,0.374164 v 0.467373 c 0,0.190764 0.0853,0.372361 0.23061,0.494345 0.0369,0.117104 0.0822,0.236918 0.13544,0.356252 0.10789,0.282015 0.26389,0.574625 0.45127,0.846041 0.0778,0.112969 0.18006,0.249159 0.30103,0.384338 -0.10566,0.05013 -0.20019,0.121188 -0.27756,0.20931 l -1.49893,0.303634 c -0.008,0.01121 -0.0168,0.02252 -0.0255,0.03349 -0.0273,0.07243 -0.0565,0.144081 -0.0874,0.214451 -0.0407,0.10412 -0.0862,0.209046 -0.13629,0.313703 l 0.48163,0.09628 c 0.85404,0.170787 1.47387,0.927062 1.47387,1.798326 v 5.529627 c 0,0.183028 -0.0265,0.361605 -0.079,0.533453 v 0.431021 c 0,0.726283 -0.45053,1.349129 -1.08683,1.603906 v 3.13124 c 0,0.741068 0.6008,1.341817 1.34197,1.341817 0.74081,0 1.34155,-0.600696 1.34155,-1.341817 0,0.741068 0.60059,1.341817 1.34193,1.341817 0.7408,0 1.34139,-0.600696 1.34139,-1.341817 v -5.725266 c 0.11758,0.07673 0.25758,0.121559 0.40829,0.121559 0.41311,0 0.74732,-0.334739 0.74732,-0.747426 v -0.606154 c 0.0508,-0.108894 0.079,-0.230296 0.079,-0.358267 v -5.529737 c -5e-5,-0.407283 -0.28757,-0.758024 -0.68675,-0.837827 z m -3.6463,1.401006 c -0.006,0.05474 -0.0442,0.100623 -0.0976,0.115356 -0.012,0.0035 -0.0238,0.0048 -0.0359,0.0048 -0.0414,0 -0.0814,-0.01913 -0.10709,-0.05325 l -0.37713,-0.500174 c -0.0174,-0.02326 -0.027,-0.05166 -0.027,-0.08086 l 4.2e-4,-0.801634 c 1.1e-4,-0.04706 0.0248,-0.09067 0.0651,-0.115091 0.0401,-0.02427 0.0902,-0.02538 0.13195,-0.0036 0.10952,0.05812 0.21932,0.09713 0.32567,0.115887 0.064,0.01157 0.11054,0.06725 0.11054,0.132158 v 0.334526 c 0.0194,0.0077 0.0367,0.0194 0.0507,0.03509 0.0255,0.0283 0.0378,0.06593 0.0339,0.103541 z m 1.42045,-0.433248 -0.37633,0.499698 c -0.026,0.03423 -0.0658,0.05368 -0.10714,0.05368 -0.012,0 -0.0243,-0.0018 -0.0363,-0.0048 -0.0533,-0.01478 -0.0919,-0.06067 -0.0975,-0.115573 l -0.0733,-0.713037 c -0.004,-0.03762 0.008,-0.0752 0.0338,-0.103541 0.014,-0.01568 0.0312,-0.02739 0.0507,-0.03508 V 42.36658 c 0,-0.06496 0.0467,-0.120606 0.11081,-0.132158 0.10587,-0.01871 0.21561,-0.05765 0.32536,-0.11579 0.0419,-0.02183 0.0917,-0.02062 0.13189,0.0036 0.0405,0.02432 0.0649,0.06804 0.0649,0.115091 l 1.6e-4,0.801741 c 0,0.0292 -0.009,0.05759 -0.0269,0.08075 z m 0.13656,-2.284033 c -0.32822,0.47601 -0.63551,0.688977 -0.79501,0.688977 h -0.72067 c -0.15939,0 -0.467,-0.21302 -0.79511,-0.688977 -0.25881,-0.375595 -0.43892,-0.791037 -0.48115,-1.111734 l -0.007,-0.05559 -0.1303,-0.08452 c -0.038,-0.02485 -0.0611,-0.06703 -0.0611,-0.112656 v -0.22065 c 0,-0.07414 0.0602,-0.134331 0.13433,-0.134331 h 0.0546 v -0.239356 c 0,-0.05087 0.0288,-0.09719 0.0742,-0.120023 0.18472,-0.09199 0.55147,-0.246935 0.93109,-0.246935 0.30257,0 0.55369,0.100793 0.74615,0.299395 0.23957,0.247994 0.51618,0.373474 0.82103,0.373474 0.17317,0 0.35154,-0.04069 0.53096,-0.121294 0.0415,-0.0186 0.0897,-0.01494 0.12808,0.0099 0.018,0.01145 0.0322,0.02692 0.0427,0.04478 h 0.0732 c 0.0741,0 0.13438,0.0602 0.13438,0.134331 v 0.220704 c 0,0.04557 -0.0232,0.08775 -0.0611,0.112607 l -0.13014,0.08458 -0.008,0.05542 c -0.0423,0.32075 -0.22245,0.736298 -0.48125,1.111892 z"
       id="path16697"
       style="fill:#000000;stroke:#000000;stroke-width:0.0529901;stroke-opacity:1" /><path
       d="m 126.15002,51.100023 v -0.431871 c -0.0523,-0.171793 -0.0787,-0.350106 -0.0787,-0.53255 v -5.530581 c 0,-0.869039 0.61819,-1.625049 1.46979,-1.797426 l 0.46038,-0.09321 c -0.0506,-0.10582 -0.0967,-0.211803 -0.13767,-0.316935 -0.0311,-0.07069 -0.0602,-0.142279 -0.0874,-0.214398 -0.0101,-0.01266 -0.0198,-0.0256 -0.0295,-0.03863 l -1.49321,-0.298706 c -0.0774,-0.08849 -0.17259,-0.159765 -0.27857,-0.209842 0.12045,-0.134595 0.22262,-0.270673 0.3003,-0.38333 0.18727,-0.271574 0.34311,-0.564186 0.45126,-0.846359 0.0532,-0.119021 0.0982,-0.238668 0.13534,-0.355934 0.14493,-0.121771 0.2304,-0.303687 0.2304,-0.494451 v -0.467373 c 0,-0.134383 -0.0419,-0.265322 -0.11933,-0.374269 v -0.658139 c 0,-1.154337 -0.93925,-2.093375 -2.09375,-2.093375 h -0.67864 c -1.15413,0 -2.09333,0.939038 -2.09333,2.093375 v 0.658139 c -0.0774,0.108894 -0.1197,0.239938 -0.1197,0.374163 v 0.467373 c 0,0.190764 0.0854,0.372361 0.23072,0.494345 0.0369,0.117105 0.0821,0.236918 0.13539,0.356252 0.10783,0.282015 0.26384,0.574626 0.45116,0.846041 0.0779,0.112969 0.18011,0.24916 0.30103,0.384338 -0.1056,0.05013 -0.20025,0.121188 -0.27751,0.20931 l -1.50815,0.305542 c -0.39822,0.08066 -0.68463,0.430704 -0.68463,0.837403 v 5.530687 c 0,0.127972 0.0283,0.249425 0.0787,0.358267 v 0.606155 c 0,0.412687 0.33453,0.747426 0.74748,0.747426 0.15049,0 0.29086,-0.04489 0.40813,-0.12156 v 5.72532 c 0,0.741067 0.60075,1.341817 1.34192,1.341817 0.7408,0 1.34155,-0.600697 1.34155,-1.341817 0,0.741067 0.60054,1.341817 1.34203,1.341817 0.74075,0 1.34128,-0.600697 1.34128,-1.341817 v -3.131347 c -0.63614,-0.25483 -1.08677,-0.87773 -1.08677,-1.603853 z m -2.01161,-7.547016 c -0.006,0.05474 -0.0441,0.100623 -0.0975,0.115356 -0.012,0.0035 -0.0239,0.0048 -0.0359,0.0048 -0.0415,0 -0.0815,-0.01913 -0.10703,-0.05325 l -0.37713,-0.500174 c -0.0175,-0.02326 -0.027,-0.05166 -0.027,-0.08086 l 3.1e-4,-0.801634 c 1.1e-4,-0.04706 0.0249,-0.09067 0.0652,-0.115091 0.0401,-0.02427 0.0901,-0.02538 0.13184,-0.0036 0.10963,0.05812 0.21943,0.09713 0.32573,0.115887 0.0639,0.01157 0.1106,0.06725 0.1106,0.132158 v 0.334526 c 0.0192,0.0077 0.0366,0.0194 0.0506,0.03509 0.0254,0.0283 0.0378,0.06593 0.0339,0.103541 z m 1.42051,-0.433248 -0.37639,0.499698 c -0.0259,0.03423 -0.0658,0.05368 -0.10714,0.05368 -0.012,0 -0.0243,-0.0018 -0.0362,-0.0048 -0.0532,-0.01478 -0.0918,-0.06067 -0.0974,-0.115573 l -0.0733,-0.713037 c -0.004,-0.03762 0.008,-0.0752 0.0337,-0.103541 0.014,-0.01568 0.0313,-0.02739 0.0508,-0.03508 V 42.36658 c 0,-0.06496 0.0467,-0.120606 0.1107,-0.132158 0.10598,-0.01871 0.21562,-0.05765 0.32546,-0.11579 0.0418,-0.02183 0.0917,-0.02062 0.1319,0.0036 0.0405,0.02432 0.0649,0.06804 0.0649,0.115091 l 1e-4,0.801741 c -5e-5,0.0292 -0.009,0.05759 -0.0269,0.08075 z m 0.13645,-2.284033 c -0.32817,0.47601 -0.63535,0.688977 -0.79485,0.688977 h -0.72083 c -0.15929,0 -0.46689,-0.21302 -0.79496,-0.688977 -0.25891,-0.375595 -0.43902,-0.791037 -0.48125,-1.111734 l -0.007,-0.05559 -0.1302,-0.08452 c -0.038,-0.02485 -0.0611,-0.06703 -0.0611,-0.112656 v -0.22065 c 0,-0.07414 0.0601,-0.134331 0.13428,-0.134331 h 0.0546 v -0.239356 c 0,-0.05087 0.0289,-0.09719 0.0744,-0.120023 0.18483,-0.09199 0.55141,-0.246935 0.93104,-0.246935 0.30257,0 0.55374,0.100793 0.7462,0.299395 0.23962,0.247994 0.51623,0.373474 0.82108,0.373474 0.17318,0 0.35149,-0.04069 0.53091,-0.121294 0.0415,-0.0186 0.0897,-0.01494 0.12803,0.0099 0.0179,0.01145 0.0322,0.02692 0.0428,0.04478 h 0.0732 c 0.0741,0 0.13438,0.0602 0.13438,0.134331 v 0.220704 c 0,0.04557 -0.0232,0.08775 -0.0612,0.112607 l -0.1301,0.08458 -0.008,0.05542 c -0.0424,0.32075 -0.22245,0.736298 -0.48142,1.111892 z"
       id="path16699"
       style="fill:#000000;stroke:#000000;stroke-width:0.0529901;stroke-opacity:1" /><path
       d="m 134.80765,50.493868 c 0.0508,-0.108845 0.079,-0.230348 0.079,-0.358319 v -5.529681 c 0,-0.407282 -0.28757,-0.758077 -0.68664,-0.837933 l -1.5311,-0.306283 c -0.0774,-0.08849 -0.17269,-0.159818 -0.27862,-0.209787 0.12045,-0.134701 0.22256,-0.270728 0.30029,-0.383331 0.18722,-0.271628 0.34312,-0.564186 0.45122,-0.846465 0.0533,-0.119021 0.0982,-0.238614 0.13528,-0.355988 0.14493,-0.121665 0.23051,-0.303687 0.23051,-0.494451 v -0.467373 c 0,-0.13433 -0.0419,-0.265322 -0.11944,-0.374269 v -0.657926 c 0,-1.154338 -0.93915,-2.093323 -2.09354,-2.093323 h -0.67875 c -1.15418,0 -2.09337,0.938985 -2.09337,2.093323 V 40.3302 c -0.0774,0.108894 -0.11965,0.239939 -0.11965,0.374163 v 0.467373 c 0,0.190764 0.0854,0.372361 0.23072,0.494345 0.0369,0.117105 0.0821,0.237025 0.13539,0.356252 0.10783,0.28212 0.26378,0.574679 0.45115,0.846147 0.0779,0.112982 0.18006,0.24916 0.30104,0.384232 -0.10566,0.05013 -0.2002,0.121294 -0.27746,0.209364 l -1.5082,0.305541 c -0.39822,0.0806 -0.68463,0.430705 -0.68463,0.837457 v 5.530581 c 0,0.127971 0.0284,0.249477 0.0787,0.35832 v 0.606154 c 0,0.412687 0.33453,0.747531 0.74748,0.747531 0.15054,0 0.29086,-0.04493 0.40808,-0.121612 v 5.725161 c 0,0.741121 0.60085,1.34187 1.34202,1.34187 0.74075,0 1.34155,-0.600696 1.34155,-1.34187 0,0.741121 0.60043,1.34187 1.34192,1.34187 0.74081,0 1.34124,-0.600696 1.34124,-1.34187 v -5.72532 c 0.11758,0.07673 0.25774,0.121666 0.40845,0.121666 0.41295,0 0.74732,-0.334845 0.74732,-0.747532 V 50.493868 Z M 130.55356,45.1691 c -0.006,0.05474 -0.0442,0.100527 -0.0975,0.115308 -0.0119,0.0034 -0.0239,0.0048 -0.0359,0.0048 -0.0415,0 -0.0816,-0.01913 -0.10703,-0.05325 l -0.37724,-0.50028 c -0.0175,-0.02321 -0.027,-0.05166 -0.027,-0.08086 l 4.2e-4,-0.801634 c 1.1e-4,-0.04711 0.0247,-0.09067 0.0651,-0.115091 0.0401,-0.02427 0.0902,-0.02549 0.13189,-0.0036 0.10964,0.05818 0.21933,0.09713 0.32573,0.115947 0.0639,0.01145 0.11054,0.06724 0.11054,0.132157 v 0.334421 c 0.0193,0.0078 0.0366,0.01949 0.0507,0.03508 0.0254,0.02834 0.0377,0.06593 0.0338,0.103601 z m 1.4205,-0.433353 -0.37644,0.499804 c -0.0258,0.03418 -0.0657,0.05363 -0.1071,0.05363 -0.012,0 -0.0243,-0.0018 -0.0363,-0.0048 -0.0531,-0.01489 -0.0917,-0.06068 -0.0973,-0.115621 l -0.0733,-0.712983 c -0.004,-0.03768 0.008,-0.07524 0.0336,-0.103602 0.014,-0.01558 0.0314,-0.02728 0.0508,-0.03508 v -0.334421 c 0,-0.06496 0.0467,-0.120659 0.1107,-0.132157 0.10603,-0.01876 0.21561,-0.0577 0.32551,-0.115838 0.0418,-0.02177 0.0918,-0.02056 0.1319,0.0037 0.0405,0.02427 0.0649,0.06794 0.0649,0.115091 l 6e-5,0.801688 c -6e-5,0.02909 -0.009,0.0575 -0.027,0.08065 z m 0.1364,-2.283928 c -0.32806,0.475905 -0.63535,0.688925 -0.79485,0.688925 h -0.72083 c -0.15929,0 -0.46689,-0.213073 -0.79496,-0.688925 -0.25885,-0.375594 -0.43902,-0.791037 -0.48125,-1.111839 l -0.007,-0.05553 -0.1302,-0.08458 c -0.0381,-0.0248 -0.0611,-0.06699 -0.0611,-0.112547 v -0.220652 c 0,-0.07418 0.0601,-0.134329 0.13428,-0.134329 h 0.0546 v -0.239357 c 0,-0.05093 0.0288,-0.09728 0.0742,-0.12007 0.18483,-0.09204 0.55152,-0.246935 0.93114,-0.246935 0.30258,0 0.55375,0.100792 0.74621,0.299448 0.23957,0.247887 0.51618,0.373474 0.82103,0.373474 0.17317,0 0.35154,-0.04075 0.53096,-0.121294 0.0415,-0.01865 0.0896,-0.01494 0.12797,0.0098 0.0179,0.01157 0.0322,0.02692 0.0428,0.04489 h 0.0732 c 0.0741,0 0.13433,0.06009 0.13433,0.134331 v 0.220703 c 0,0.04557 -0.0232,0.08775 -0.0611,0.112547 l -0.1301,0.08458 -0.008,0.05548 c -0.0424,0.320696 -0.22251,0.736298 -0.48152,1.111892 z"
       id="path16701"
       style="fill:#000000;stroke:#000000;stroke-width:0.0529901;stroke-opacity:1" /><text
       xml:space="preserve"
       style="font-style:normal;font-variant:normal;font-weight:normal;font-stretch:normal;font-size:6.35px;line-height:1.25;font-family:Bahnschrift;-inkscape-font-specification:'Bahnschrift, @wght=300';font-variant-ligatures:normal;font-variant-caps:normal;font-variant-numeric:normal;font-variant-east-asian:normal;font-variation-settings:'wght' 300;text-align:center;text-anchor:middle;stroke-width:0.264584"
       x="102.95069"
       y="54.284115"
       id="text5820-6-4-0"><tspan
         sodipodi:role="line"
         style="font-style:normal;font-variant:normal;font-weight:normal;font-stretch:normal;font-size:6.35px;font-family:Bahnschrift;-inkscape-font-specification:'Bahnschrift, @wght=300';font-variant-ligatures:normal;font-variant-caps:normal;font-variant-numeric:normal;font-variant-east-asian:normal;font-variation-settings:'wght' 300;stroke-width:0.264584"
         x="102.95069"
         y="54.284115"
         id="tspan5954-7">Cost </tspan><tspan
         sodipodi:role="line"
         style="font-style:normal;font-variant:normal;font-weight:normal;font-stretch:normal;font-size:6.35px;font-family:Bahnschrift;-inkscape-font-specification:'Bahnschrift, @wght=300';font-variant-ligatures:normal;font-variant-caps:normal;font-variant-numeric:normal;font-variant-east-asian:normal;font-variation-settings:'wght' 300;stroke-width:0.264584"
         x="102.95069"
         y="62.221615"
         id="tspan5990">Analysis</tspan></text></g><g
     id="Ressources"
     transform="translate(-31.628769,13.19914)"><text
       xml:space="preserve"
       style="font-style:normal;font-variant:normal;font-weight:normal;font-stretch:normal;font-size:6.35px;line-height:1.25;font-family:Bahnschrift;-inkscape-font-specification:'Bahnschrift, @wght=300';font-variant-ligatures:normal;font-variant-caps:normal;font-variant-numeric:normal;font-variant-east-asian:normal;font-variation-settings:'wght' 300;text-align:center;text-anchor:middle;stroke-width:0.264584"
       x="248.78647"
       y="57.39616"
       id="text5820-6"><tspan
         sodipodi:role="line"
         style="font-style:normal;font-variant:normal;font-weight:normal;font-stretch:normal;font-size:6.35px;font-family:Bahnschrift;-inkscape-font-specification:'Bahnschrift, @wght=300';font-variant-ligatures:normal;font-variant-caps:normal;font-variant-numeric:normal;font-variant-east-asian:normal;font-variation-settings:'wght' 300;stroke-width:0.264584"
         x="248.78647"
         y="57.39616"
         id="tspan5874-2">Ressource</tspan><tspan
         sodipodi:role="line"
         style="font-style:normal;font-variant:normal;font-weight:normal;font-stretch:normal;font-size:6.35px;font-family:Bahnschrift;-inkscape-font-specification:'Bahnschrift, @wght=300';font-variant-ligatures:normal;font-variant-caps:normal;font-variant-numeric:normal;font-variant-east-asian:normal;font-variation-settings:'wght' 300;stroke-width:0.264584"
         x="248.78647"
         y="65.333656"
         id="tspan5918">Utilization</tspan></text><path
       id="path13765"
       style="fill:#000000;stroke:#000000;stroke-width:0.892967;stroke-dasharray:none;stroke-opacity:1"
       d="m 250.78344,4.004284 c -0.0759,0.01757 -0.0945,0.110884 -0.14267,0.162071 -1.31663,1.94059 -2.63326,3.881183 -3.9499,5.82177 -3.14329,1.667436 -6.28776,3.332744 -9.43051,5.001147 -0.0665,0.04476 -0.0267,0.135267 -0.0398,0.201093 0,0.648176 0,1.296352 0,1.944528 -0.39943,0.0021 -0.7995,-0.0041 -1.19854,0.0031 -0.0747,0.01703 -0.0805,0.132942 -0.008,0.157636 0.13537,0.01438 0.27399,0.0017 0.41054,0.006 0.26532,0 0.53063,0 0.79596,0 0,0.663926 0,1.327853 0,1.991781 -0.39878,0.002 -0.79812,-0.0039 -1.19655,0.0029 -0.0759,0.01526 -0.0832,0.133115 -0.009,0.157998 0.13229,0.01406 0.26782,0.0015 0.40128,0.0058 0.2684,0 0.53681,0 0.80521,0 0.002,0.398839 -0.004,0.79824 0.002,1.196732 0.0152,0.0754 0.13222,0.08387 0.15763,0.01067 0.015,-0.123138 0.001,-0.249969 0.006,-0.374421 0,-0.277659 0,-0.555318 0,-0.832976 0.39937,-0.0021 0.79938,0.0041 1.19836,-0.0031 0.0747,-0.01694 0.0803,-0.133045 0.008,-0.157636 -0.14778,-0.01416 -0.29864,-0.0019 -0.44757,-0.006 -0.25298,0 -0.50596,0 -0.75893,0 0,-0.663928 0,-1.327855 0,-1.991782 0.39861,-0.0018 0.7977,0.0036 1.19601,-0.0027 0.0763,-0.01476 0.0838,-0.133291 0.0106,-0.158178 -0.13231,-0.01407 -0.26783,-0.0015 -0.40129,-0.0058 -0.2684,0 -0.5368,0 -0.80521,0 0,-0.663988 0,-1.327975 0,-1.991963 3.09252,0 6.18504,0 9.27756,0 0,1.634389 0,3.268778 0,4.903166 -3.13467,1.66303 -6.27049,3.323942 -9.40482,4.987589 -0.0673,0.04846 -0.0286,0.145189 -0.0394,0.2144 0,0.623553 0,1.247107 0,1.870661 -0.39802,0.0015 -0.7964,-0.0029 -1.1942,0.0022 -0.0764,0.01295 -0.087,0.130505 -0.0148,0.157455 0.0942,0.0179 0.19354,0.0013 0.28945,0.0071 0.30653,0 0.61306,0 0.91957,0 0,0.663988 0,1.327975 0,1.991963 -0.39937,0.0021 -0.79938,-0.0041 -1.19836,0.0031 -0.0783,0.01773 -0.0791,0.140904 -0.001,0.159987 0.34069,0.0085 0.68276,0.0012 1.02398,0.0036 0.0586,0 0.11718,0 0.17582,0 0.002,0.398779 -0.004,0.79812 0.002,1.196551 0.0151,0.07585 0.13321,0.08306 0.158,0.0099 0.0141,-0.132296 10e-4,-0.267826 0.006,-0.401285 0,-0.268403 0,-0.536806 0,-0.805209 0.39961,-0.0022 0.79984,0.0044 1.19908,-0.0033 0.0756,-0.01808 0.0791,-0.136211 0.005,-0.15854 -0.17183,-0.01169 -0.34615,-0.0014 -0.5189,-0.0049 -0.22829,0 -0.45658,0 -0.68488,0 0,-0.663987 0,-1.327975 0,-1.991963 0.39802,-0.0015 0.7964,0.0029 1.19421,-0.0022 0.076,-0.01303 0.0879,-0.130405 0.0148,-0.157455 -0.0942,-0.0179 -0.19342,-0.0013 -0.28928,-0.0071 -0.30658,0 -0.61316,0 -0.91975,0 0,-0.643861 0,-1.287722 0,-1.931583 3.08771,0 6.17541,0 9.26311,0 -1.79362,7.834552 -3.58917,15.668706 -5.38168,23.503491 -0.008,0.06234 0.0595,0.106145 0.11718,0.09021 0.0775,0.0075 0.11272,-0.08202 0.16697,-0.120912 3.10745,-3.107325 6.21465,-6.214887 9.32225,-9.322062 2.37851,0 4.75704,0 7.13556,0 0.70366,3.072258 1.40715,6.144549 2.11073,9.216825 -1.39424,-1.393606 -2.7875,-2.788247 -4.18223,-4.181331 -0.0561,-0.05199 -0.15586,0.0093 -0.13378,0.08315 0.0255,0.06875 0.10144,0.104506 0.14556,0.160536 1.38789,1.354952 2.7738,2.712031 4.16291,4.065654 0.0438,0.02884 0.0767,0.08388 0.12631,0.09903 0.0696,0.0022 0.10285,-0.08207 0.0724,-0.138423 -1.79055,-7.818668 -3.58118,-15.63732 -5.37169,-23.455996 3.08777,0 6.17552,0 9.26329,0 0,0.6438 0,1.287601 0,1.931402 -0.39914,0.0021 -0.79888,-0.0041 -1.19763,0.0031 -0.0755,0.01627 -0.0822,0.133151 -0.009,0.157816 0.12921,0.01413 0.26168,0.0015 0.39203,0.0058 0.27149,0 0.54298,0 0.81447,0 0,0.663987 0,1.327975 0,1.991962 -0.39858,0.0018 -0.79784,-0.0037 -1.19601,0.0027 -0.0767,0.01469 -0.0845,0.133315 -0.0106,0.158178 0.12921,0.01413 0.26167,0.0015 0.39203,0.0058 0.27149,0 0.54298,0 0.81446,0 0.002,0.398778 -0.004,0.798127 0.002,1.196551 0.0149,0.07468 0.13033,0.08433 0.15692,0.01247 0.017,-0.10974 0.002,-0.224161 0.007,-0.335555 0,-0.291156 0,-0.582313 0,-0.873469 0.39907,-0.002 0.79875,0.0039 1.19746,-0.0029 0.0748,-0.01606 0.0823,-0.132049 0.009,-0.157274 -0.0969,-0.01677 -0.19862,-10e-4 -0.29709,-0.0065 -0.30343,0 -0.60687,0 -0.91031,0 0,-0.663987 0,-1.327975 0,-1.991963 0.39907,-0.002 0.79874,0.0039 1.19745,-0.0029 0.0755,-0.0162 0.082,-0.133226 0.009,-0.157816 -0.13841,-0.01432 -0.28003,-0.0017 -0.41961,-0.006 -0.26224,0 -0.52446,0 -0.7867,0 -10e-4,-0.674579 0.002,-1.349268 -0.002,-2.023779 -0.0122,-0.08035 -0.11307,-0.08969 -0.16817,-0.131021 -3.09139,-1.639217 -6.18302,-3.27799 -9.27426,-4.917488 0,-1.63445 0,-3.268898 0,-4.903348 3.09252,0 6.18505,0 9.27757,0 0,0.663988 0,1.327975 0,1.991963 -0.39914,0.002 -0.79886,-0.0039 -1.19764,0.0029 -0.0753,0.0163 -0.0823,0.133197 -0.009,0.157817 0.1092,0.01524 0.22246,0.001 0.33303,0.006 0.29116,0 0.58231,0 0.87347,0 0,0.663928 0,1.327854 0,1.991781 -0.39858,0.0018 -0.79784,-0.0037 -1.19601,0.0027 -0.0767,0.01469 -0.0845,0.133316 -0.0106,0.158178 0.12921,0.01413 0.26166,0.0015 0.39203,0.0058 0.27149,0 0.54298,0 0.81447,0 0.002,0.399432 -0.005,0.7995 0.004,1.19854 0.0168,0.07343 0.1302,0.0812 0.15655,0.01049 0.0169,-0.112883 0.002,-0.230296 0.007,-0.34481 0,-0.288072 0,-0.576143 0,-0.864214 0.39909,-0.002 0.79875,0.0039 1.19747,-0.0029 0.0748,-0.01606 0.0823,-0.132049 0.009,-0.157275 -0.0969,-0.01677 -0.19861,-0.001 -0.29708,-0.0065 -0.30344,0 -0.60688,0 -0.91032,0 0,-0.663927 0,-1.327854 0,-1.991781 0.39854,-0.0018 0.79773,0.0037 1.19584,-0.0027 0.0767,-0.01462 0.0844,-0.133387 0.0106,-0.158178 -0.12914,-0.01413 -0.26154,-0.0015 -0.39185,-0.0058 -0.27149,0 -0.54297,0 -0.81446,0 -0.002,-0.697723 0.004,-1.39601 -0.004,-2.093377 -0.0232,-0.0755 -0.11916,-0.08467 -0.17581,-0.126859 -1.89552,-1.004316 -3.79007,-2.010761 -5.68619,-3.013749 -0.0722,-0.02904 -0.14364,0.06512 -0.0952,0.126723 0.0611,0.05803 0.14921,0.08137 0.21987,0.126842 0.8222,0.43796 1.64783,0.869618 2.46784,1.311641 0.87618,0.484639 1.75236,0.969281 2.62854,1.453921 -1.09682,0.018 -2.19358,0.04205 -3.29044,0.05622 -1.83662,0 -3.67325,0 -5.50988,0 -8.4e-4,-1.635291 0.001,-3.270661 -0.001,-4.905902 8.4e-4,-0.08839 -0.0818,-0.147064 -0.11923,-0.221067 -1.3167,-1.939452 -2.63103,-3.880599 -3.9492,-5.818979 -0.018,-0.02036 -0.0464,-0.03011 -0.0731,-0.02621 z m 0.70918,1.257834 c 1.06435,1.568883 2.12878,3.137713 3.19304,4.706664 -2.59353,0 -5.18706,0 -7.78057,0 1.29682,-1.911329 2.5936,-3.8227 3.89045,-5.734009 0.23237,0.342449 0.46472,0.684896 0.69708,1.027345 z m -3.81906,4.873338 c 2.36201,0 4.72402,0 7.08603,0 0,1.613601 0,3.2272 0,4.840799 -2.64276,0 -5.2855,0 -7.92826,0 0,-1.613599 0,-3.227198 0,-4.840799 0.28074,0 0.56148,0 0.84223,0 z m -1.0089,1.45506 c 0,1.12858 0,2.25716 0,3.385739 -1.90759,-9.81e-4 -3.8152,0.002 -5.72276,-0.0015 -1.02585,-0.01825 -2.05171,-0.03649 -3.07756,-0.05474 0.96059,-0.52967 1.91829,-1.064659 2.8807,-1.590962 1.9732,-1.046158 3.94633,-2.092463 5.91962,-3.13848 0,0.466641 0,0.933282 0,1.399924 z m 1.0089,3.58188 c 2.36201,0 4.72402,0 7.08603,0 0,1.6136 0,3.2272 0,4.840799 -2.64276,0 -5.2855,0 -7.92826,0 0,-1.613599 0,-3.227199 0,-4.840799 0.28074,0 0.56148,0 0.84223,0 z m 0,5.007293 c 2.36201,0 4.72402,0 7.08603,0 0,1.6136 0,3.2272 0,4.840799 -2.64276,0 -5.2855,0 -7.92826,0 0,-1.613599 0,-3.227199 0,-4.840799 0.28074,0 0.56148,0 0.84223,0 z m 8.48956,0.710809 c 1.62309,0.861707 3.24804,1.719954 4.86995,2.58383 0.89777,0.496646 1.79556,0.993293 2.69333,1.489939 -1.09682,0.018 -2.19359,0.04205 -3.29044,0.05622 -1.83655,0 -3.67312,0 -5.50969,0 0,-1.59522 0,-3.190442 0,-4.785663 0.41228,0.218558 0.82457,0.437115 1.23685,0.655674 z m -9.49846,0.744432 c 0,1.12858 0,2.25716 0,3.385738 -1.90759,-9.81e-4 -3.8152,0.002 -5.72276,-0.0015 -1.02585,-0.01825 -2.05171,-0.03649 -3.07756,-0.05474 0.96059,-0.529671 1.91829,-1.064657 2.8807,-1.590961 1.9732,-1.046156 3.94633,-2.092464 5.91962,-3.138479 0,0.46664 0,0.933282 0,1.399923 z m 2.59484,3.58188 c 1.83902,0 3.67806,-10e-7 5.51708,0 0.61599,2.689493 1.23181,5.379025 1.8477,8.06854 -3.23112,-2.689503 -6.46212,-5.379148 -9.69335,-8.06854 0.77619,0 1.55238,-10e-7 2.32857,0 z m -1.4142,0.977271 c 2.8992,2.413363 5.7985,4.826601 8.69764,7.240047 -1.91222,1.9125 -3.82457,3.82488 -5.73709,5.737083 -2.39575,0 -4.7915,0 -7.18726,0 0.43325,-1.89189 0.86648,-3.783782 1.29995,-5.675619 1.01838,1.01732 2.03507,2.03648 3.05439,3.052751 0.0609,0.05039 0.15948,-0.02231 0.12744,-0.09599 -0.0458,-0.0736 -0.12306,-0.124243 -0.17949,-0.189976 -0.94944,-0.949497 -1.89901,-1.89886 -2.84831,-2.848494 1.19542,-0.996578 2.39374,-1.989984 3.58749,-2.988395 0.0521,-0.05631 -0.009,-0.154955 -0.0824,-0.134135 -0.0758,0.03316 -0.12933,0.104971 -0.19699,0.151969 -1.13804,0.947438 -2.27618,1.894745 -3.41435,2.842029 0.60849,-2.656114 1.21666,-5.312304 1.82528,-7.96839 0.35125,0.292374 0.70249,0.584747 1.05374,0.877121 z m 9.17543,8.822192 c 0.31714,1.38504 0.63425,2.770084 0.95142,4.155118 -2.31019,0 -4.62038,0 -6.93056,0 1.8797,-1.879881 3.75931,-3.759844 5.63928,-5.639463 0.1133,0.494782 0.22657,0.989563 0.33986,1.484345 z m -12.76906,4.321793 c 2.12923,0 4.25846,0 6.38769,0 -3.05185,3.051788 -6.10356,6.103711 -9.15554,9.155362 0.69888,-3.051785 1.39767,-6.103594 2.09663,-9.155362 0.22374,0 0.44747,0 0.67122,0 z" /><path
       style="fill:none;stroke:#000000;stroke-width:0.264584px;stroke-linecap:butt;stroke-linejoin:miter;stroke-opacity:1"
       d="m 237.93948,19.828725 c 0,0 -7.2795,9.570377 -12.0713,13.444223 -5.75288,4.650821 -21.50248,11.612924 -21.50248,11.612924"
       id="path4992"
       sodipodi:nodetypes="csc" /><path
       style="fill:none;stroke:#000000;stroke-width:0.264584px;stroke-linecap:butt;stroke-linejoin:miter;stroke-opacity:1"
       d="m 237.11332,30.767794 c 0,0 -7.27951,9.570376 -12.0713,13.444223 -5.75288,4.650821 -19.40451,11.065626 -19.40451,11.065626"
       id="path4992-2"
       sodipodi:nodetypes="csc" /></g><g
     id="Environment"
     transform="translate(-20.543468,6.1560318)"><path
       id="path857"
       style="fill:none;fill-rule:evenodd;stroke:#000000;stroke-width:0.563602pt;stroke-opacity:1"
       d="m 113.42873,12.784983 c 0.0868,8.639088 38.59068,8.795003 41.34478,2.201512 0.69869,-0.146451 1.37906,-0.316324 2.03698,-0.508589 3.57828,8.902366 15.92079,11.524917 23.39626,4.971266 4.70254,6.644892 13.28938,2.372811 13.30518,-6.61952 -0.004,-7.0251917 -5.54803,-11.7902057 -10.58421,-9.0972757 -4.28391,-7.33327 -14.80551,-12.154175 -21.79834,-6.859397 -3.71974,-2.062415 -9.00924,-0.19671 -14.37219,0.05721 -17.90247,-5.8276858 -32.41939,-2.9895981 -33.32846,15.8547937 z"
       sodipodi:nodetypes="ccccccccc" /><text
       xml:space="preserve"
       style="font-style:normal;font-variant:normal;font-weight:normal;font-stretch:normal;font-size:6.35px;line-height:1.25;font-family:Bahnschrift;-inkscape-font-specification:'Bahnschrift, @wght=300';font-variant-ligatures:normal;font-variant-caps:normal;font-variant-numeric:normal;font-variant-east-asian:normal;font-variation-settings:'wght' 300;text-align:center;text-anchor:middle;stroke-width:0.264584"
       x="146.63358"
       y="4.0833387"
       id="text5820-6-4-03-7-7-0"><tspan
         sodipodi:role="line"
         style="font-style:normal;font-variant:normal;font-weight:normal;font-stretch:normal;font-size:6.35px;font-family:Bahnschrift;-inkscape-font-specification:'Bahnschrift, @wght=300';font-variant-ligatures:normal;font-variant-caps:normal;font-variant-numeric:normal;font-variant-east-asian:normal;font-variation-settings:'wght' 300;stroke-width:0.264584"
         x="146.63358"
         y="4.0833387"
         id="tspan6170-7">Environmental &amp;</tspan><tspan
         sodipodi:role="line"
         style="font-style:normal;font-variant:normal;font-weight:normal;font-stretch:normal;font-size:6.35px;font-family:Bahnschrift;-inkscape-font-specification:'Bahnschrift, @wght=300';font-variant-ligatures:normal;font-variant-caps:normal;font-variant-numeric:normal;font-variant-east-asian:normal;font-variation-settings:'wght' 300;stroke-width:0.264584"
         x="146.63358"
         y="12.020839"
         id="tspan6206">Sustainability Metrics</tspan></text></g></svg>
