<?xml version="1.0" encoding="UTF-8" standalone="no"?>
<!-- Created with Inkscape (http://www.inkscape.org/) -->

<svg
   width="839.00061"
   height="420.10703"
   viewBox="0 0 221.98557 111.15331"
   version="1.1"
   id="svg5"
   inkscape:version="1.3.2 (091e20e, 2023-11-25, custom)"
   sodipodi:docname="single_node_arch.svg"
   xml:space="preserve"
   inkscape:export-filename="002_ProductionStatistics.png"
   inkscape:export-xdpi="96"
   inkscape:export-ydpi="96"
   xmlns:inkscape="http://www.inkscape.org/namespaces/inkscape"
   xmlns:sodipodi="http://sodipodi.sourceforge.net/DTD/sodipodi-0.dtd"
   xmlns:xlink="http://www.w3.org/1999/xlink"
   xmlns="http://www.w3.org/2000/svg"
   xmlns:svg="http://www.w3.org/2000/svg"><sodipodi:namedview
     id="namedview7"
     pagecolor="#ffffff"
     bordercolor="#666666"
     borderopacity="1.0"
     inkscape:showpageshadow="2"
     inkscape:pageopacity="0.0"
     inkscape:pagecheckerboard="0"
     inkscape:deskcolor="#d1d1d1"
     inkscape:document-units="mm"
     showgrid="false"
     inkscape:zoom="0.51276155"
     inkscape:cx="175.52018"
     inkscape:cy="104.337"
     inkscape:window-width="1920"
     inkscape:window-height="1017"
     inkscape:window-x="3832"
     inkscape:window-y="1300"
     inkscape:window-maximized="1"
     inkscape:current-layer="svg5"><inkscape:page
       x="0"
       y="0"
       width="221.98557"
       height="111.15331"
       id="page1"
       margin="0 0 0 0"
       bleed="0" /></sodipodi:namedview><defs
     id="defs2"><inkscape:path-effect
       effect="bspline"
       id="path-effect1841"
       is_visible="true"
       lpeversion="1"
       weight="33.333333"
       steps="2"
       helper_size="0"
       apply_no_weight="true"
       apply_with_weight="true"
       only_selected="false"
       uniform="false" /><inkscape:path-effect
       effect="bspline"
       id="path-effect1811"
       is_visible="true"
       lpeversion="1"
       weight="33.333333"
       steps="2"
       helper_size="0"
       apply_no_weight="true"
       apply_with_weight="true"
       only_selected="false"
       uniform="false" /><linearGradient
       id="linearGradient6703"><stop
         style="stop-color:#000000;stop-opacity:1.0000000;"
         offset="0.0000000"
         id="stop6704" /><stop
         style="stop-color:#7f7f7f;stop-opacity:1.0000000;"
         offset="0.50000000"
         id="stop6705" /><stop
         style="stop-color:#ffffff;stop-opacity:1.0000000;"
         offset="1.0000000"
         id="stop6706" /></linearGradient><linearGradient
       id="linearGradient879"><stop
         style="stop-color:#c3c3c3;stop-opacity:0.54918033;"
         offset="0.0000000"
         id="stop880" /><stop
         style="stop-color:#d4e1e4;stop-opacity:1.0000000;"
         offset="0.50000000"
         id="stop884" /><stop
         style="stop-color:#ddf0f0;stop-opacity:0.59016395;"
         offset="1.0000000"
         id="stop881" /></linearGradient><linearGradient
       x1="1453.8076"
       y1="384.45895"
       x2="1583.5951"
       y2="383.24872"
       id="linearGradient882"
       xlink:href="#linearGradient879"
       gradientTransform="scale(0.55994156,1.7859006)"
       gradientUnits="userSpaceOnUse" /><linearGradient
       x1="568.58307"
       y1="1189.8646"
       x2="567.13934"
       y2="1038.1013"
       id="linearGradient883"
       xlink:href="#linearGradient879"
       spreadMethod="pad"
       gradientTransform="scale(1.4640424,0.68304032)"
       gradientUnits="userSpaceOnUse" /><clipPath
       id="clip0_525_147"><rect
         width="24"
         height="24"
         fill="#ffffff"
         id="rect26341"
         x="0"
         y="0" /></clipPath><style
       id="style4881">.cls-1{fill:none;stroke:#020202;stroke-miterlimit:10;stroke-width:1.91px;}</style><clipPath
       clipPathUnits="userSpaceOnUse"
       id="clipPath2471"><path
         d="M 0,0 H 56.693 V 272.126 H 0 Z"
         id="path2469" /></clipPath><linearGradient
       x1="0"
       y1="0"
       x2="0"
       y2="272.12964"
       gradientUnits="userSpaceOnUse"
       id="linearGradient2477"
       gradientTransform="matrix(2.3384702,0,0,2.3384702,753.59705,-989.93593)"><stop
         style="stop-opacity:1;stop-color:#ebebf7"
         offset="0"
         id="stop2473" /><stop
         style="stop-opacity:1;stop-color:#ccccec"
         offset="1"
         id="stop2475" /></linearGradient><clipPath
       clipPathUnits="userSpaceOnUse"
       id="clipPath2719"><path
         d="m -17.00807,-24.09476 v 9.92137 h 34.01614 v -9.92137 z"
         id="path2717" /></clipPath><clipPath
       clipPathUnits="userSpaceOnUse"
       id="clipPath2743"><path
         d="m 209.76639,-26.92943 v 9.92137 h 34.01616 v -9.92137 z"
         id="path2741" /></clipPath><clipPath
       clipPathUnits="userSpaceOnUse"
       id="clipPath3023"><path
         d="m -17.00807,-24.09476 v 9.92137 h 34.01614 v -9.92137 z"
         id="path3021" /></clipPath><clipPath
       clipPathUnits="userSpaceOnUse"
       id="clipPath3043"><path
         d="m 209.76639,-24.09476 v 9.92137 h 34.01616 v -9.92137 z"
         id="path3041" /></clipPath><clipPath
       clipPathUnits="userSpaceOnUse"
       id="clipPath9141"><path
         d="m -17.00807,-24.09476 v 9.92137 h 34.01614 v -9.92137 z"
         id="path9139" /></clipPath><clipPath
       clipPathUnits="userSpaceOnUse"
       id="clipPath9165"><path
         d="m 209.76639,-26.92943 v 9.92137 h 34.01616 v -9.92137 z"
         id="path9163" /></clipPath><clipPath
       clipPathUnits="userSpaceOnUse"
       id="clipPath11751"><g
         id="g11755"><path
           d="m 753.59705,-989.93593 h 132.57489 v 636.35854 H 753.59705 Z"
           id="path11753"
           style="stroke-width:2.33847" /></g></clipPath><inkscape:path-effect
       effect="bspline"
       id="path-effect638"
       is_visible="true"
       lpeversion="1"
       weight="33.333333"
       steps="2"
       helper_size="0"
       apply_no_weight="true"
       apply_with_weight="true"
       only_selected="false"
       uniform="false" /><inkscape:path-effect
       effect="bspline"
       id="path-effect638-2"
       is_visible="true"
       lpeversion="1"
       weight="33.333333"
       steps="2"
       helper_size="0"
       apply_no_weight="true"
       apply_with_weight="true"
       only_selected="false"
       uniform="false" /><inkscape:path-effect
       effect="bspline"
       id="path-effect1867"
       is_visible="true"
       lpeversion="1"
       weight="33.333333"
       steps="2"
       helper_size="0"
       apply_no_weight="true"
       apply_with_weight="true"
       only_selected="false"
       uniform="false" /><inkscape:path-effect
       effect="bspline"
       id="path-effect1883"
       is_visible="true"
       lpeversion="1"
       weight="33.333333"
       steps="2"
       helper_size="0"
       apply_no_weight="true"
       apply_with_weight="true"
       only_selected="false"
       uniform="false" /><inkscape:path-effect
       effect="bspline"
       id="path-effect1899"
       is_visible="true"
       lpeversion="1"
       weight="33.333333"
       steps="2"
       helper_size="0"
       apply_no_weight="true"
       apply_with_weight="true"
       only_selected="false"
       uniform="false" /><inkscape:path-effect
       effect="bspline"
       id="path-effect1915"
       is_visible="true"
       lpeversion="1"
       weight="33.333333"
       steps="2"
       helper_size="0"
       apply_no_weight="true"
       apply_with_weight="true"
       only_selected="false"
       uniform="false" /><clipPath
       id="clipPath4348">
      <path
   clip-rule="nonzero"
   d="M 81,2 H 97 V 18.511719 H 81 Z m 0,0"
   id="path5274" />
    </clipPath><inkscape:path-effect
       effect="bspline"
       id="path-effect1811-0"
       is_visible="true"
       lpeversion="1"
       weight="33.333333"
       steps="2"
       helper_size="0"
       apply_no_weight="true"
       apply_with_weight="true"
       only_selected="false"
       uniform="false" /><inkscape:path-effect
       effect="bspline"
       id="path-effect1841-0"
       is_visible="true"
       lpeversion="1"
       weight="33.333333"
       steps="2"
       helper_size="0"
       apply_no_weight="true"
       apply_with_weight="true"
       only_selected="false"
       uniform="false" /><inkscape:path-effect
       effect="bspline"
       id="path-effect1841-0-0"
       is_visible="true"
       lpeversion="1"
       weight="33.333333"
       steps="2"
       helper_size="0"
       apply_no_weight="true"
       apply_with_weight="true"
       only_selected="false"
       uniform="false" /></defs><path
     id="rect1"
     style="font-variation-settings:'wght' 700;fill:none;fill-opacity:0;stroke:#000000;stroke-width:0.429201"
     d="M 47.556656,8.606492 H 95.789612 V 106.95161 H 47.556656 Z" /><path
     d="m 62.588372,76.177201 a 14.76274,14.76274 0 0 1 18.169527,0 v 22.711906 a 14.76274,14.76274 0 0 1 -18.169527,0 z"
     style="fill:none;stroke:#000000;stroke-width:0.454238"
     id="path1" /><path
     d="m 80.757899,76.177201 a 14.76274,14.76274 0 0 1 -18.169527,0"
     style="fill:none;stroke:#000000;stroke-width:0.454238;stroke-linecap:butt"
     id="path2" /><path
     d="m 80.757899,79.583988 a 14.76274,14.76274 0 0 1 -18.169527,0"
     style="fill:none;stroke:#000000;stroke-width:0.454238;stroke-linecap:butt"
     id="path3" /><path
     d="m 80.757899,82.990774 a 14.76274,14.76274 0 0 1 -18.169527,0"
     style="fill:none;stroke:#000000;stroke-width:0.454238;stroke-linecap:butt"
     id="path4" /><path
     id="rect4"
     style="fill:none;stroke:#000000;stroke-width:0.454238"
     d="M 58.045989,43.439846 H 85.300281 V 61.609373 H 58.045989 Z" /><path
     id="rect5"
     style="fill:none;stroke:#000000;stroke-width:0.454238"
     d="M 58.045989,13.8283 H 85.300281 V 31.997828 H 58.045989 Z" /><path
     style="font-size:8.47911px;font-family:Bahnschrift;-inkscape-font-specification:'Bahnschrift, @wght=600,wdth=75.0';font-variation-settings:'wdth' 75, 'wght' 600;stroke-width:0.429201"
     d="m 68.174679,25.985082 q -0.44714,0 -0.765935,-0.182168 -0.318795,-0.182169 -0.488543,-0.525804 -0.165607,-0.343636 -0.165607,-0.828038 v -3.067881 q 0,-0.488543 0.165607,-0.832179 0.169748,-0.343635 0.488543,-0.525804 0.318795,-0.182168 0.765935,-0.182168 0.447141,0 0.765935,0.182168 0.322935,0.182169 0.488543,0.529945 0.165607,0.343635 0.165607,0.828038 v 0.368477 h -0.914982 v -0.368477 q 0,-0.20287 -0.05796,-0.343636 -0.05796,-0.144907 -0.173888,-0.21943 -0.111785,-0.07452 -0.273253,-0.07452 -0.157327,0 -0.273252,0.07452 -0.111786,0.07452 -0.173888,0.21943 -0.05796,0.140766 -0.05796,0.343636 v 3.067881 q 0,0.198729 0.05796,0.343635 0.0621,0.140767 0.173888,0.21529 0.115925,0.07452 0.273252,0.07452 0.161468,0 0.273253,-0.07452 0.115925,-0.07452 0.173888,-0.21529 0.05796,-0.144906 0.05796,-0.347776 v -0.368477 h 0.914982 v 0.368477 q 0,0.484403 -0.165607,0.832179 -0.165608,0.343635 -0.488543,0.525804 -0.318794,0.182168 -0.765935,0.182168 z m 2.496535,-3.26247 h 1.10129 q 0.144907,0 0.248412,-0.06624 0.103505,-0.06624 0.157327,-0.190449 0.05796,-0.128345 0.05796,-0.302233 v -0.815618 q 0,-0.182168 -0.05382,-0.310514 -0.05382,-0.132486 -0.161467,-0.198729 -0.103505,-0.07038 -0.248412,-0.07038 h -1.10129 V 19.90315 h 1.109571 q 0.43472,0 0.741094,0.161467 0.310514,0.157327 0.471982,0.467842 0.161467,0.306374 0.161467,0.736953 v 0.981226 q 0,0.422299 -0.165608,0.724533 -0.161467,0.298094 -0.471981,0.455421 -0.306374,0.157327 -0.736954,0.157327 h -1.109571 z m -0.455421,-2.819469 h 0.902561 v 6.019836 h -0.902561 z m 4.968228,6.081939 q -0.443,0 -0.757655,-0.169748 -0.314654,-0.173888 -0.480262,-0.500963 -0.161467,-0.331215 -0.161467,-0.794916 v -4.616312 h 0.906702 v 4.645293 q 0,0.260832 0.128346,0.401599 0.128345,0.140766 0.364336,0.140766 0.240131,0 0.368477,-0.140766 0.132486,-0.140767 0.132486,-0.401599 v -4.645293 h 0.906702 v 4.616312 q 0,0.463701 -0.165608,0.794916 -0.165607,0.327075 -0.480262,0.500963 -0.314654,0.169748 -0.761795,0.169748 z"
     id="text1"
     aria-label="CPU" /><path
     style="font-size:8.47911px;font-family:Bahnschrift;-inkscape-font-specification:'Bahnschrift, @wght=600,wdth=75.0';font-variation-settings:'wdth' 75, 'wght' 600;stroke-width:0.429201"
     d="m 66.48341,95.356944 h 0.935683 q 0.21115,0 0.322935,-0.124205 0.115925,-0.128346 0.115925,-0.360197 V 91.55211 q 0,-0.231851 -0.115925,-0.356057 -0.111785,-0.128346 -0.322935,-0.128346 H 66.48341 v -0.865299 h 0.977085 q 0.414019,0 0.707973,0.153187 0.293953,0.153187 0.44714,0.44714 0.153187,0.289813 0.153187,0.703832 v 3.411517 q 0,0.409879 -0.157327,0.703833 -0.153187,0.293953 -0.447141,0.44714 -0.293953,0.153187 -0.707972,0.153187 H 66.48341 Z m -0.587907,-5.154536 h 0.902562 v 6.019836 h -0.902562 z m 3.655788,0.02898 h 0.902562 v 0.898421 h -0.902562 z m 0,1.693338 h 0.902562 v 4.297517 h -0.902562 z m 2.836031,4.35962 q -0.397459,0 -0.695552,-0.157327 -0.298094,-0.161468 -0.463702,-0.455421 -0.161467,-0.293954 -0.161467,-0.687272 v -0.04968 l 0.861159,-0.0041 v 0.04968 q 0,0.227711 0.124206,0.364337 0.124206,0.132486 0.335356,0.132486 0.211149,0 0.331215,-0.128346 0.124205,-0.128346 0.124205,-0.339495 0,-0.157328 -0.07866,-0.260832 -0.07866,-0.103505 -0.198729,-0.165608 -0.120066,-0.0621 -0.339496,-0.144907 -0.02484,-0.0083 -0.05382,-0.01656 -0.02484,-0.01242 -0.05382,-0.0207 -0.0083,-0.0041 -0.0207,-0.0083 -0.01242,-0.0041 -0.0207,-0.0083 -0.281533,-0.115926 -0.484402,-0.252552 -0.202869,-0.140766 -0.339496,-0.385038 -0.132486,-0.248411 -0.132486,-0.625168 0,-0.380898 0.149047,-0.670711 0.153187,-0.289813 0.43058,-0.443 0.281533,-0.157328 0.65415,-0.157328 0.376757,0 0.65415,0.149047 0.277393,0.149047 0.43058,0.43058 0.153187,0.277393 0.153187,0.65001 v 0.04968 l -0.8653,0.0041 V 93.0757 q 0,-0.194589 -0.09936,-0.306374 -0.09936,-0.111786 -0.273253,-0.111786 -0.169748,0 -0.269112,0.124206 -0.09937,0.120066 -0.09937,0.331215 0,0.165608 0.07866,0.277393 0.0828,0.107645 0.211149,0.169748 0.128346,0.0621 0.335356,0.132486 0.0083,0.0041 0.01656,0.0083 0.0083,0 0.01656,0.0041 0.0083,0.0041 0.01656,0.0083 0.0083,0 0.01242,0.0041 0.322934,0.107645 0.529944,0.231851 0.21115,0.120065 0.356056,0.376757 0.149047,0.252552 0.149047,0.683132 0,0.385037 -0.161467,0.674851 -0.161468,0.289813 -0.459561,0.44714 -0.298094,0.153187 -0.699692,0.153187 z m 2.463413,-1.784422 1.502889,-2.575198 h 0.927402 l -2.39303,3.771713 z m -0.517524,-4.297517 h 0.898421 v 6.019836 h -0.898421 z m 1.217216,3.817255 0.546505,-0.637589 1.353842,2.84017 H 76.48197 Z"
     id="text1-0"
     aria-label="Disk" /><path
     style="font-size:8.47911px;font-family:Bahnschrift;-inkscape-font-specification:'Bahnschrift, @wght=600,wdth=75.0';font-variation-settings:'wdth' 75, 'wght' 600;stroke-width:0.429201"
     d="m 63.800571,48.618339 h 0.823898 v 6.019837 h -0.815618 v -4.380321 l 0.06624,0.264972 -0.956384,3.092722 H 62.413604 L 61.45722,50.605631 61.5483,50.257855 v 4.380321 h -0.840458 v -6.019837 h 0.848739 l 1.109571,3.527442 z m 2.898133,6.08194 q -0.4223,0 -0.720393,-0.161468 -0.298094,-0.161467 -0.455421,-0.467841 -0.157327,-0.310514 -0.157327,-0.745234 v -1.606394 q 0,-0.459561 0.153187,-0.786636 0.153187,-0.327075 0.443,-0.496823 0.293953,-0.169748 0.703832,-0.169748 0.414019,0 0.707973,0.161467 0.293953,0.161468 0.44714,0.471982 0.157328,0.310514 0.157328,0.749375 v 1.171673 H 66.052834 V 52.12508 h 1.055749 v -0.492682 q 0,-0.264972 -0.115926,-0.409879 -0.115925,-0.144907 -0.327075,-0.144907 -0.207009,0 -0.318794,0.157328 -0.107645,0.153187 -0.107645,0.43886 v 1.680917 q 0,0.248411 0.115925,0.385038 0.120066,0.132486 0.343636,0.132486 0.202869,0 0.310514,-0.103505 0.111785,-0.103505 0.111785,-0.298094 v -0.08694 l 0.86944,0.0041 v 0.07452 q 0,0.592047 -0.339495,0.914982 -0.339496,0.322935 -0.952244,0.322935 z m 5.609958,-3.067881 q 0,-0.269113 -0.111785,-0.401599 -0.107645,-0.136626 -0.322935,-0.136626 -0.211149,0 -0.318794,0.136626 -0.103505,0.136627 -0.103505,0.409879 l -0.09522,-0.571346 q 0.136627,-0.393318 0.393319,-0.596187 0.256691,-0.20701 0.575486,-0.20701 0.285673,0 0.484402,0.132486 0.198729,0.132486 0.302234,0.385038 0.107645,0.248411 0.107645,0.608608 v 3.245909 h -0.910842 z m -3.535722,-1.29174 h 0.910842 v 4.297518 H 68.77294 Z m 1.767861,1.29174 q 0,-0.269113 -0.107645,-0.401599 -0.103505,-0.136626 -0.314654,-0.136626 -0.21529,0 -0.327075,0.136626 -0.107645,0.136627 -0.107645,0.409879 l -0.08694,-0.575486 q 0.140766,-0.393318 0.393318,-0.596188 0.252551,-0.202869 0.579626,-0.202869 0.281533,0 0.476122,0.124206 0.198729,0.124205 0.302234,0.368477 0.103505,0.240131 0.103505,0.587907 v 3.291451 h -0.910842 z m 4.723957,3.067881 q -0.397459,0 -0.683132,-0.140767 -0.281533,-0.144906 -0.43058,-0.414019 Q 74.002,53.872241 74.002,53.491343 V 51.45437 q 0,-0.376758 0.149046,-0.64173 0.149047,-0.269112 0.43058,-0.405739 0.285673,-0.140766 0.683132,-0.140766 0.397458,0 0.678991,0.140766 0.281533,0.136627 0.426439,0.405739 0.149047,0.264972 0.149047,0.64173 v 2.049394 q 0,0.376757 -0.149047,0.64587 -0.144906,0.269112 -0.426439,0.409878 -0.281533,0.140767 -0.678991,0.140767 z m -0.0041,-0.844599 q 0.173888,0 0.264973,-0.103505 0.09522,-0.107645 0.09522,-0.310514 v -1.929329 q 0,-0.194589 -0.09522,-0.298093 -0.09108,-0.107645 -0.264973,-0.107645 -0.165607,0 -0.264972,0.107645 -0.09522,0.107645 -0.09522,0.298093 v 1.929329 q 0,0.198729 0.09522,0.306374 0.09522,0.107645 0.264972,0.107645 z m 2.041114,-3.515022 h 0.902562 v 4.297518 h -0.902562 z m 2.007992,0.86116 q -0.03726,0 -0.08694,0 -0.04968,0 -0.115925,0 -0.422299,0 -0.66243,0.22771 -0.235991,0.223571 -0.240131,0.616889 l -0.08694,-0.956384 q 0.198729,-0.389178 0.509243,-0.604468 0.310514,-0.21943 0.683131,-0.21943 0,0 0,0 0,0 0,0 z m 3.328713,-0.86116 -1.221356,5.303584 q -0.0621,0.264972 -0.21943,0.43886 -0.153187,0.173888 -0.405739,0.260832 -0.252552,0.08694 -0.600328,0.08694 h -0.21943 v -0.88186 h 0.231851 q 0.248411,0 0.380897,-0.09936 0.132486,-0.09936 0.182169,-0.343636 l 0.993645,-4.765359 z m -2.976797,0 h 0.87772 l 0.86944,3.722032 -0.443,0.985365 z"
     id="text1-8"
     aria-label="Memory" /><g
     id="text5"
     style="font-size:9.87777px;font-family:Bahnschrift;-inkscape-font-specification:'Bahnschrift, @wght=600,wdth=75.0';font-variation-settings:'wdth' 75, 'wght' 600;stroke-width:0.499999"
     aria-label="Machine Learning&#10;Statistics&#10;&quot;Classical&quot; Data Mining"
     transform="translate(34.571786)"><path
       style="stroke-width:0.5"
       d="m 77.670992,43.55158 h 0.959803 v 7.012831 H 77.680638 V 45.46154 l 0.07717,0.30868 -1.114143,3.602878 H 76.055243 L 74.9411,45.866682 75.047208,45.46154 v 5.102871 H 74.068114 V 43.55158 h 0.988742 l 1.292599,4.109307 z m 3.930851,3.385837 q 0,-0.250802 -0.135047,-0.38585 -0.135048,-0.139871 -0.381028,-0.139871 -0.212217,0 -0.332796,0.139871 -0.115755,0.135048 -0.115755,0.38585 H 79.62436 q 0,-0.699354 0.38585,-1.080381 0.390674,-0.38585 1.094851,-0.38585 0.47749,0 0.815109,0.173632 0.337619,0.16881 0.511252,0.501606 0.178456,0.327973 0.178456,0.790993 v 3.626994 h -1.008035 z m -0.887456,3.699341 q -0.588421,0 -0.892279,-0.356912 -0.299034,-0.356911 -0.299034,-1.061088 0,-0.824755 0.40032,-1.244368 0.405143,-0.419612 1.196136,-0.419612 h 0.511252 l 0.06752,0.882633 h -0.545014 q -0.313503,0 -0.472666,0.197748 -0.159164,0.197748 -0.159164,0.583599 0,0.255626 0.120578,0.38585 0.120579,0.125402 0.356912,0.125402 0.294211,0 0.448551,-0.163987 0.15434,-0.163986 0.15434,-0.487136 l 0.09164,0.443728 q -0.0048,0.366558 -0.120578,0.617361 -0.110932,0.245979 -0.327973,0.371381 -0.217041,0.125401 -0.530545,0.125401 z m 4.350464,0 q -0.491959,0 -0.839225,-0.168809 -0.342442,-0.16881 -0.525721,-0.49196 -0.178456,-0.323149 -0.178456,-0.776524 v -2.218639 q 0,-0.47749 0.178456,-0.815109 0.183279,-0.33762 0.530544,-0.516075 0.347266,-0.178456 0.834402,-0.178456 0.487136,0 0.834401,0.178456 0.352089,0.178455 0.530545,0.520898 0.183279,0.337619 0.183279,0.819932 v 0.294211 h -1.036973 v -0.241157 q 0,-0.294211 -0.130225,-0.453374 -0.130224,-0.159163 -0.366558,-0.159163 -0.241156,0 -0.371381,0.159163 -0.130224,0.15434 -0.130224,0.438905 v 2.122177 q 0,0.250803 0.130224,0.390674 0.130225,0.135047 0.371381,0.135047 0.236334,0 0.366558,-0.144694 0.130225,-0.144694 0.130225,-0.405143 v -0.226687 l 1.046619,0.0048 v 0.274919 q 0,0.458197 -0.183279,0.78617 -0.183279,0.32315 -0.535368,0.496782 -0.347265,0.173633 -0.839224,0.173633 z m 2.28134,-7.085178 h 1.051443 v 7.012831 h -1.051443 z m 2.054654,3.520885 q 0,-0.313503 -0.125402,-0.467844 -0.125401,-0.159163 -0.376204,-0.159163 -0.250803,0 -0.376204,0.159163 -0.125401,0.159164 -0.125401,0.47749 l -0.09164,-0.665592 q 0.15434,-0.46302 0.448551,-0.704177 0.294211,-0.241156 0.660769,-0.241156 0.501606,0 0.766878,0.337619 0.270095,0.337619 0.270095,0.974272 v 3.781334 h -1.051442 z m 2.011245,-3.487123 h 1.051442 v 1.046619 H 91.41209 Z m 0,1.97266 h 1.051442 v 5.006409 H 91.41209 Z m 2.011245,0 h 1.056266 v 5.006409 h -1.056266 z m 2.054653,1.504817 q 0,-0.313504 -0.125401,-0.467844 -0.125401,-0.159163 -0.376204,-0.159163 -0.250803,0 -0.376204,0.159163 -0.120578,0.159163 -0.120578,0.47749 l -0.101286,-0.655946 q 0.163986,-0.467843 0.453374,-0.704177 0.294211,-0.241156 0.660769,-0.241156 0.496782,0 0.766878,0.342442 0.270095,0.337619 0.270095,0.969449 v 3.781334 h -1.051443 z m 3.516063,3.573939 q -0.491959,0 -0.839225,-0.188102 -0.347265,-0.188102 -0.530544,-0.545014 -0.183279,-0.361734 -0.183279,-0.868163 v -1.871375 q 0,-0.535367 0.178456,-0.916394 0.178456,-0.381028 0.516075,-0.578776 0.342442,-0.197748 0.819932,-0.197748 0.482313,0 0.824755,0.188102 0.342439,0.188102 0.520899,0.549837 0.18328,0.361734 0.18328,0.872986 v 1.364946 h -2.242757 v -0.810286 h 1.229898 v -0.573952 q 0,-0.308681 -0.135048,-0.47749 -0.135048,-0.16881 -0.381027,-0.16881 -0.241157,0 -0.371381,0.183279 -0.125402,0.178456 -0.125402,0.511252 v 1.958191 q 0,0.289388 0.135048,0.448551 0.139871,0.15434 0.40032,0.15434 0.236333,0 0.361735,-0.120578 0.130224,-0.120578 0.130224,-0.347266 v -0.101285 l 1.01286,0.0048 v 0.08682 q 0,0.689708 -0.3955,1.065912 -0.395496,0.376204 -1.109319,0.376204 z m 4.355289,-7.085178 h 1.05144 v 7.012831 h -1.05144 z m 0.49196,6.004797 h 2.46944 v 1.008034 h -2.46944 z m 4.64467,1.080381 q -0.49196,0 -0.83923,-0.188102 -0.34726,-0.188102 -0.53054,-0.545014 -0.18328,-0.361734 -0.18328,-0.868163 v -1.871375 q 0,-0.535367 0.17846,-0.916394 0.17845,-0.381028 0.51607,-0.578776 0.34244,-0.197748 0.81993,-0.197748 0.48232,0 0.82476,0.188102 0.34244,0.188102 0.5209,0.549837 0.18328,0.361734 0.18328,0.872986 v 1.364946 h -2.24276 v -0.810286 h 1.2299 v -0.573952 q 0,-0.308681 -0.13505,-0.47749 -0.13505,-0.16881 -0.38103,-0.16881 -0.24115,0 -0.37138,0.183279 -0.1254,0.178456 -0.1254,0.511252 v 1.958191 q 0,0.289388 0.13505,0.448551 0.13987,0.15434 0.40032,0.15434 0.23633,0 0.36173,-0.120578 0.13023,-0.120578 0.13023,-0.347266 v -0.101285 l 1.01286,0.0048 v 0.08682 q 0,0.689708 -0.3955,1.065912 -0.3955,0.376204 -1.10932,0.376204 z m 4.42281,-3.699341 q 0,-0.250802 -0.13505,-0.38585 -0.13504,-0.139871 -0.38102,-0.139871 -0.21222,0 -0.3328,0.139871 -0.11575,0.135048 -0.11575,0.38585 h -1.01286 q 0,-0.699354 0.38585,-1.080381 0.39067,-0.38585 1.09485,-0.38585 0.47749,0 0.81511,0.173632 0.33762,0.16881 0.51125,0.501606 0.17846,0.327973 0.17846,0.790993 v 3.626994 h -1.00804 z m -0.88745,3.699341 q -0.58843,0 -0.89228,-0.356912 -0.29904,-0.356911 -0.29904,-1.061088 0,-0.824755 0.40032,-1.244368 0.40515,-0.419612 1.19614,-0.419612 h 0.51125 l 0.0675,0.882633 h -0.54501 q -0.3135,0 -0.47267,0.197748 -0.15916,0.197748 -0.15916,0.583599 0,0.255626 0.12058,0.38585 0.12058,0.125402 0.35691,0.125402 0.29421,0 0.44855,-0.163987 0.15434,-0.163986 0.15434,-0.487136 l 0.0916,0.443728 q -0.005,0.366558 -0.12058,0.617361 -0.11093,0.245979 -0.32797,0.371381 -0.21704,0.125401 -0.53054,0.125401 z m 2.90834,-5.078756 h 1.05145 v 5.006409 h -1.05145 z m 2.33922,1.003211 q -0.0434,0 -0.10128,0 -0.0579,0 -0.13505,0 -0.49196,0 -0.7717,0.265272 -0.27492,0.260449 -0.27974,0.718647 l -0.10129,-1.114143 q 0.23151,-0.453375 0.59324,-0.704177 0.36174,-0.255626 0.79582,-0.255626 0,0 0,0 0,0 0,0 z m 0.74759,-1.003211 h 1.05626 v 5.006409 h -1.05626 z m 2.05465,1.504817 q 0,-0.313504 -0.1254,-0.467844 -0.1254,-0.159163 -0.37621,-0.159163 -0.2508,0 -0.3762,0.159163 -0.12058,0.159163 -0.12058,0.47749 l -0.10128,-0.655946 q 0.16398,-0.467843 0.45337,-0.704177 0.29421,-0.241156 0.66077,-0.241156 0.49678,0 0.76688,0.342442 0.27009,0.337619 0.27009,0.969449 v 3.781334 h -1.05144 z m 2.01125,-3.477477 h 1.05144 v 1.046619 h -1.05144 z m 0,1.97266 h 1.05144 v 5.006409 h -1.05144 z m 2.01124,0 h 1.05627 v 5.006409 h -1.05627 z m 2.05465,1.504817 q 0,-0.313504 -0.1254,-0.467844 -0.1254,-0.159163 -0.3762,-0.159163 -0.2508,0 -0.37621,0.159163 -0.12057,0.159163 -0.12057,0.47749 l -0.10129,-0.655946 q 0.16399,-0.467843 0.45338,-0.704177 0.29421,-0.241156 0.66076,-0.241156 0.49679,0 0.76688,0.342442 0.2701,0.337619 0.2701,0.969449 v 3.781334 h -1.05145 z m 3.47748,5.536953 q -0.709,0 -1.09968,-0.376204 -0.39067,-0.371381 -0.39067,-1.051442 v -0.183279 l 1.04662,-0.0048 v 0.183279 q 0,0.226688 0.1254,0.352089 0.1254,0.125401 0.35209,0.125401 0.22186,0 0.34244,-0.125401 0.12058,-0.120578 0.12058,-0.347265 v -5.614124 h 1.05144 v 5.614124 q 0,0.453374 -0.18328,0.7717 -0.17845,0.32315 -0.53054,0.487137 -0.34727,0.168809 -0.8344,0.168809 z m -0.46785,-1.948544 q -0.33279,0 -0.56912,-0.16881 -0.23152,-0.16881 -0.35692,-0.487136 -0.12057,-0.32315 -0.12057,-0.776524 v -2.290987 q 0,-0.458197 0.12057,-0.78617 0.1254,-0.327973 0.35692,-0.496783 0.23633,-0.173632 0.56912,-0.173632 0.3328,0 0.61254,0.236333 0.27974,0.236334 0.45338,0.660769 l -0.10129,0.655946 q 0,-0.188102 -0.0579,-0.32315 -0.0531,-0.135048 -0.16398,-0.202572 -0.10611,-0.07235 -0.26045,-0.07235 -0.23634,0 -0.36656,0.159163 -0.1254,0.159163 -0.1254,0.448551 v 2.098062 q 0,0.265272 0.1254,0.414789 0.13022,0.144694 0.36656,0.144694 0.15434,0 0.26045,-0.06752 0.11093,-0.06752 0.16398,-0.197749 0.0579,-0.130224 0.0579,-0.318326 l 0.0675,0.670415 q -0.13022,0.414789 -0.40032,0.646299 -0.27009,0.226688 -0.63183,0.226688 z"
       id="path5" /><path
       style="stroke-width:0.5"
       d="m 75.727271,62.983971 q -0.549837,0 -0.940511,-0.197748 -0.38585,-0.197749 -0.588421,-0.573953 -0.202572,-0.381027 -0.202572,-0.916394 v -0.361735 l 1.051442,-0.0048 v 0.342442 q 0,0.32315 0.173633,0.501605 0.178456,0.178456 0.506429,0.178456 0.313503,0 0.482313,-0.173632 0.173632,-0.178456 0.173632,-0.501606 v -0.612537 q 0,-0.226688 -0.120578,-0.385851 -0.115755,-0.159163 -0.294211,-0.265272 -0.178456,-0.110932 -0.491959,-0.260449 -0.01447,-0.0048 -0.02894,-0.0096 -0.01447,-0.0096 -0.02894,-0.01447 l -0.0627,-0.02894 Q 74.936277,59.496848 74.656536,59.294277 74.381618,59.091705 74.188692,58.74444 74.00059,58.397174 74.00059,57.876276 v -0.38585 q 0,-0.525721 0.197749,-0.897102 0.202571,-0.376204 0.588421,-0.56913 0.385851,-0.197748 0.930865,-0.197748 0.535367,0 0.911571,0.197748 0.376204,0.192926 0.569129,0.573953 0.197749,0.376204 0.197749,0.911571 v 0.381028 l -1.051443,0.0096 v -0.366558 q 0,-0.327973 -0.163986,-0.501605 -0.159163,-0.178456 -0.46302,-0.178456 -0.32315,0 -0.496783,0.163986 -0.168809,0.163987 -0.168809,0.463021 v 0.453374 q 0,0.23151 0.115755,0.395497 0.115755,0.163986 0.284564,0.270095 0.173633,0.106109 0.47749,0.24598 0.04341,0.01929 0.08682,0.04341 0.04341,0.01929 0.08682,0.04341 0.01929,0.0048 0.03376,0.01447 0.01929,0.0096 0.03376,0.01447 0.409966,0.202571 0.660769,0.381027 0.250802,0.173633 0.424435,0.501605 0.178456,0.32315 0.178456,0.839225 v 0.612538 q 0,0.535367 -0.197748,0.916394 -0.197749,0.376204 -0.583599,0.573953 -0.381028,0.197748 -0.926041,0.197748 z m 3.974259,-0.04823 q -0.641476,0 -0.94051,-0.332796 -0.299034,-0.332796 -0.299034,-0.993565 v -5.16075 h 1.051442 v 5.064286 q 0,0.192926 0.08682,0.299035 0.08682,0.101285 0.24598,0.101285 h 0.352088 v 1.022504 z m -1.712211,-5.030525 h 2.208993 v 0.979096 h -2.208993 z m 4.987117,1.379415 q 0,-0.250802 -0.135048,-0.38585 -0.135048,-0.139871 -0.381027,-0.139871 -0.212218,0 -0.332796,0.139871 -0.115755,0.135048 -0.115755,0.38585 h -1.012858 q 0,-0.699353 0.385851,-1.080381 0.390673,-0.38585 1.09485,-0.38585 0.47749,0 0.815109,0.173633 0.337619,0.168809 0.511252,0.501605 0.178456,0.327973 0.178456,0.790993 v 3.626994 h -1.008034 z m -0.887456,3.699341 q -0.588422,0 -0.892279,-0.356911 -0.299034,-0.356912 -0.299034,-1.061089 0,-0.824755 0.400319,-1.244368 0.405143,-0.419612 1.196137,-0.419612 h 0.511251 l 0.06752,0.882633 h -0.545013 q -0.313504,0 -0.472667,0.197748 -0.159163,0.197748 -0.159163,0.583599 0,0.255626 0.120578,0.38585 0.120578,0.125402 0.356911,0.125402 0.294211,0 0.448552,-0.163987 0.15434,-0.163986 0.15434,-0.487136 l 0.09164,0.443728 q -0.0048,0.366558 -0.120578,0.617361 -0.110932,0.245979 -0.327973,0.371381 -0.217041,0.125401 -0.530544,0.125401 z m 4.234708,-0.04823 q -0.641477,0 -0.940511,-0.332796 -0.299034,-0.332796 -0.299034,-0.993565 V 56.44863 h 1.051442 v 5.064286 q 0,0.192926 0.08682,0.299035 0.08682,0.101285 0.245979,0.101285 h 0.352089 v 1.022504 z m -1.712212,-5.030525 h 2.208994 v 0.979096 h -2.208994 z m 2.927641,-1.97266 h 1.051443 v 1.046619 h -1.051443 z m 0,1.97266 h 1.051443 v 5.006409 h -1.051443 z m 3.303843,5.078756 q -0.46302,0 -0.810285,-0.183279 -0.347266,-0.188102 -0.540191,-0.530544 -0.188102,-0.342442 -0.188102,-0.80064 v -0.05788 l 1.003211,-0.0048 v 0.05788 q 0,0.265272 0.144694,0.424436 0.144694,0.15434 0.390673,0.15434 0.24598,0 0.385851,-0.149517 0.144694,-0.149517 0.144694,-0.395497 0,-0.183279 -0.09164,-0.303857 -0.09164,-0.120578 -0.23151,-0.192925 -0.139871,-0.07235 -0.395497,-0.16881 -0.02894,-0.0096 -0.0627,-0.01929 -0.02894,-0.01447 -0.0627,-0.02412 -0.0096,-0.0048 -0.02412,-0.0096 -0.01447,-0.0048 -0.02411,-0.0096 -0.327973,-0.135047 -0.564307,-0.294211 -0.236333,-0.163986 -0.395496,-0.448551 -0.15434,-0.289387 -0.15434,-0.728292 0,-0.443728 0.173632,-0.781347 0.178456,-0.337619 0.501606,-0.516075 0.327973,-0.183279 0.762054,-0.183279 0.438905,0 0.762055,0.173633 0.32315,0.173632 0.501605,0.501605 0.178456,0.32315 0.178456,0.757231 v 0.05788 l -1.008034,0.0048 v -0.06752 q 0,-0.226687 -0.115755,-0.356911 -0.115755,-0.130225 -0.318327,-0.130225 -0.197748,0 -0.313503,0.144694 -0.115755,0.139871 -0.115755,0.38585 0,0.192926 0.09164,0.32315 0.09646,0.125402 0.24598,0.197749 0.149517,0.07235 0.390673,0.15434 0.0096,0.0048 0.01929,0.0096 0.0096,0 0.01929,0.0048 0.0096,0.0048 0.01929,0.0096 0.0096,0 0.01447,0.0048 0.376205,0.125402 0.617361,0.270096 0.24598,0.139871 0.414789,0.438905 0.173633,0.294211 0.173633,0.795816 0,0.448551 -0.188102,0.78617 -0.188102,0.337619 -0.535368,0.520898 -0.347265,0.178456 -0.815109,0.178456 z m 3.593233,-0.04823 q -0.641477,0 -0.940511,-0.332796 -0.299034,-0.332796 -0.299034,-0.993565 V 56.44863 h 1.051442 v 5.064286 q 0,0.192926 0.08682,0.299035 0.08682,0.101285 0.245979,0.101285 h 0.352089 v 1.022504 z m -1.712212,-5.030525 h 2.208994 v 0.979096 h -2.208994 z m 2.927641,-1.97266 h 1.051442 v 1.046619 h -1.051442 z m 0,1.97266 h 1.051442 v 5.006409 h -1.051442 z m 3.453361,5.078756 q -0.491959,0 -0.839224,-0.168809 -0.342442,-0.16881 -0.525721,-0.49196 -0.178456,-0.323149 -0.178456,-0.776524 v -2.218639 q 0,-0.47749 0.178456,-0.815109 0.183279,-0.33762 0.530544,-0.516075 0.347265,-0.178456 0.834401,-0.178456 0.487137,0 0.834402,0.178456 0.352085,0.178455 0.530545,0.520898 0.18328,0.337619 0.18328,0.819932 v 0.294211 h -1.036975 v -0.241157 q 0,-0.294211 -0.130224,-0.453374 -0.130225,-0.159163 -0.366558,-0.159163 -0.241157,0 -0.371381,0.159163 -0.130225,0.15434 -0.130225,0.438905 v 2.122177 q 0,0.250803 0.130225,0.390674 0.130224,0.135047 0.371381,0.135047 0.236333,0 0.366558,-0.144694 0.130224,-0.144694 0.130224,-0.405143 v -0.226687 l 1.046615,0.0048 v 0.274919 q 0,0.458197 -0.18327,0.78617 -0.18328,0.32315 -0.535372,0.496782 -0.347265,0.173633 -0.839225,0.173633 z m 3.573937,0 q -0.46302,0 -0.81028,-0.183279 -0.34727,-0.188102 -0.54019,-0.530544 -0.18811,-0.342442 -0.18811,-0.80064 v -0.05788 l 1.00321,-0.0048 v 0.05788 q 0,0.265272 0.1447,0.424436 0.14469,0.15434 0.39067,0.15434 0.24598,0 0.38585,-0.149517 0.1447,-0.149517 0.1447,-0.395497 0,-0.183279 -0.0916,-0.303857 -0.0916,-0.120578 -0.23151,-0.192925 -0.13987,-0.07235 -0.3955,-0.16881 -0.0289,-0.0096 -0.0627,-0.01929 -0.0289,-0.01447 -0.0627,-0.02412 -0.01,-0.0048 -0.0241,-0.0096 -0.0145,-0.0048 -0.0241,-0.0096 -0.32798,-0.135047 -0.56431,-0.294211 -0.23633,-0.163986 -0.3955,-0.448551 -0.15434,-0.289387 -0.15434,-0.728292 0,-0.443728 0.17364,-0.781347 0.17845,-0.337619 0.5016,-0.516075 0.32798,-0.183279 0.76206,-0.183279 0.4389,0 0.76205,0.173633 0.32315,0.173632 0.50161,0.501605 0.17845,0.32315 0.17845,0.757231 v 0.05788 l -1.00803,0.0048 v -0.06752 q 0,-0.226687 -0.11576,-0.356911 -0.11575,-0.130225 -0.31832,-0.130225 -0.19775,0 -0.31351,0.144694 -0.11575,0.139871 -0.11575,0.38585 0,0.192926 0.0916,0.32315 0.0965,0.125402 0.24598,0.197749 0.14951,0.07235 0.39067,0.15434 0.01,0.0048 0.0193,0.0096 0.01,0 0.0193,0.0048 0.01,0.0048 0.0193,0.0096 0.01,0 0.0145,0.0048 0.3762,0.125402 0.61736,0.270096 0.24598,0.139871 0.41479,0.438905 0.17363,0.294211 0.17363,0.795816 0,0.448551 -0.1881,0.78617 -0.1881,0.337619 -0.53537,0.520898 -0.34726,0.178456 -0.81511,0.178456 z"
       id="path6" /><path
       style="stroke-width:0.5"
       d="m 73.778726,68.246006 h 1.03215 v 2.459796 h -1.03215 z m 1.364946,0 h 1.03215 v 2.459796 h -1.03215 z m 3.120565,7.085178 q -0.520898,0 -0.892279,-0.212218 -0.371381,-0.212217 -0.569129,-0.612537 -0.192925,-0.40032 -0.192925,-0.964626 v -3.573939 q 0,-0.56913 0.192925,-0.96945 0.197748,-0.400319 0.569129,-0.612537 0.371381,-0.212218 0.892279,-0.212218 0.520898,0 0.892279,0.212218 0.376204,0.212218 0.56913,0.61736 0.192925,0.40032 0.192925,0.964627 v 0.429258 h -1.065912 v -0.429258 q 0,-0.236334 -0.06752,-0.40032 -0.06752,-0.16881 -0.202571,-0.255626 -0.130225,-0.08682 -0.318327,-0.08682 -0.183279,0 -0.318326,0.08682 -0.130225,0.08682 -0.202572,0.255626 -0.06752,0.163986 -0.06752,0.40032 v 3.573939 q 0,0.23151 0.06752,0.40032 0.07235,0.163986 0.202572,0.250802 0.135047,0.08682 0.318326,0.08682 0.188102,0 0.318327,-0.08682 0.135047,-0.08682 0.202571,-0.250802 0.06752,-0.16881 0.06752,-0.405143 v -0.429259 h 1.065912 v 0.429259 q 0,0.564306 -0.192925,0.969449 -0.192926,0.40032 -0.56913,0.612537 -0.371381,0.212218 -0.892279,0.212218 z m 3.573939,-1.49517 q 0,0.192925 0.08682,0.299034 0.09164,0.101286 0.255626,0.101286 h 0.212217 v 1.022503 H 81.98287 q -0.569129,0 -0.882632,-0.347265 -0.313504,-0.347266 -0.313504,-0.979096 v -5.68647 h 1.051442 z m 3.188089,-2.204171 q 0,-0.250802 -0.135047,-0.38585 -0.135048,-0.139871 -0.381028,-0.139871 -0.212217,0 -0.332796,0.139871 -0.115755,0.135048 -0.115755,0.38585 h -1.012857 q 0,-0.699353 0.38585,-1.080381 0.390674,-0.38585 1.094851,-0.38585 0.47749,0 0.815109,0.173633 0.337619,0.168809 0.511252,0.501605 0.178455,0.327973 0.178455,0.790993 v 3.626994 h -1.008034 z m -0.887456,3.699341 q -0.588422,0 -0.892279,-0.356911 -0.299034,-0.356912 -0.299034,-1.061089 0,-0.824755 0.40032,-1.244368 0.405143,-0.419612 1.196136,-0.419612 h 0.511252 l 0.06752,0.882633 H 84.57771 q -0.313503,0 -0.472667,0.197748 -0.159163,0.197749 -0.159163,0.583599 0,0.255626 0.120578,0.38585 0.120579,0.125402 0.356912,0.125402 0.294211,0 0.448551,-0.163987 0.15434,-0.163986 0.15434,-0.487136 l 0.09164,0.443728 q -0.0048,0.366558 -0.120579,0.617361 -0.110932,0.245979 -0.327972,0.371381 -0.217041,0.125401 -0.530545,0.125401 z m 4.200947,0 q -0.46302,0 -0.810286,-0.183279 -0.347265,-0.188102 -0.54019,-0.530544 -0.188102,-0.342442 -0.188102,-0.80064 v -0.05788 l 1.003211,-0.0048 v 0.05788 q 0,0.265272 0.144694,0.424436 0.144693,0.15434 0.390673,0.15434 0.24598,0 0.38585,-0.149517 0.144694,-0.149517 0.144694,-0.395497 0,-0.183279 -0.09164,-0.303857 -0.09164,-0.120578 -0.23151,-0.192925 -0.139871,-0.07235 -0.395497,-0.16881 -0.02894,-0.0096 -0.0627,-0.01929 -0.02894,-0.01447 -0.0627,-0.02412 -0.0096,-0.0048 -0.02412,-0.0096 -0.01447,-0.0048 -0.02412,-0.0096 -0.327973,-0.135047 -0.564306,-0.29421 -0.236333,-0.163987 -0.395497,-0.448552 -0.15434,-0.289387 -0.15434,-0.728292 0,-0.443728 0.173633,-0.781347 0.178456,-0.337619 0.501605,-0.516075 0.327973,-0.183279 0.762055,-0.183279 0.438905,0 0.762055,0.173633 0.323149,0.173632 0.501605,0.501605 0.178456,0.32315 0.178456,0.757231 v 0.05788 l -1.008034,0.0048 v -0.06752 q 0,-0.226687 -0.115755,-0.356911 -0.115755,-0.130225 -0.318327,-0.130225 -0.197748,0 -0.313503,0.144694 -0.115756,0.139871 -0.115756,0.385851 0,0.192925 0.09164,0.323149 0.09646,0.125402 0.24598,0.197749 0.149517,0.07235 0.390673,0.15434 0.0096,0.0048 0.01929,0.0096 0.0096,0 0.01929,0.0048 0.0096,0.0048 0.01929,0.0096 0.0096,0 0.01447,0.0048 0.376204,0.125401 0.617361,0.270095 0.245979,0.139871 0.414789,0.438905 0.173633,0.294211 0.173633,0.795816 0,0.448551 -0.188102,0.78617 -0.188103,0.337619 -0.535368,0.520898 -0.347265,0.178456 -0.815109,0.178456 z m 3.55947,0 q -0.46302,0 -0.810286,-0.183279 -0.347265,-0.188102 -0.54019,-0.530544 -0.188102,-0.342442 -0.188102,-0.80064 v -0.05788 l 1.003211,-0.0048 v 0.05788 q 0,0.265272 0.144694,0.424436 0.144694,0.15434 0.390673,0.15434 0.24598,0 0.385851,-0.149517 0.144694,-0.149517 0.144694,-0.395497 0,-0.183279 -0.09164,-0.303857 -0.09164,-0.120578 -0.23151,-0.192925 -0.139871,-0.07235 -0.395497,-0.16881 -0.02894,-0.0096 -0.0627,-0.01929 -0.02894,-0.01447 -0.0627,-0.02412 -0.0096,-0.0048 -0.02412,-0.0096 -0.01447,-0.0048 -0.02411,-0.0096 -0.327973,-0.135047 -0.564307,-0.29421 -0.236333,-0.163987 -0.395496,-0.448552 -0.154341,-0.289387 -0.154341,-0.728292 0,-0.443728 0.173633,-0.781347 0.178456,-0.337619 0.501606,-0.516075 0.327973,-0.183279 0.762054,-0.183279 0.438905,0 0.762055,0.173633 0.323149,0.173632 0.501605,0.501605 0.178456,0.32315 0.178456,0.757231 v 0.05788 l -1.008034,0.0048 v -0.06752 q 0,-0.226687 -0.115755,-0.356911 -0.115755,-0.130225 -0.318327,-0.130225 -0.197748,0 -0.313503,0.144694 -0.115755,0.139871 -0.115755,0.385851 0,0.192925 0.09164,0.323149 0.09646,0.125402 0.24598,0.197749 0.149517,0.07235 0.390673,0.15434 0.0096,0.0048 0.01929,0.0096 0.0096,0 0.01929,0.0048 0.0096,0.0048 0.01929,0.0096 0.0096,0 0.01447,0.0048 0.376204,0.125401 0.617361,0.270095 0.24598,0.139871 0.414789,0.438905 0.173633,0.294211 0.173633,0.795816 0,0.448551 -0.188102,0.78617 -0.188102,0.337619 -0.535368,0.520898 -0.347265,0.178456 -0.815109,0.178456 z m 2.213816,-7.051416 h 1.051443 v 1.046619 h -1.051443 z m 0,1.97266 h 1.051443 v 5.006409 h -1.051443 z m 3.453361,5.078756 q -0.491959,0 -0.839224,-0.168809 -0.342442,-0.16881 -0.525721,-0.49196 -0.178456,-0.323149 -0.178456,-0.776524 v -2.218639 q 0,-0.47749 0.178456,-0.815109 0.183279,-0.33762 0.530544,-0.516075 0.347265,-0.178456 0.834401,-0.178456 0.487137,0 0.834402,0.178456 0.352088,0.178455 0.530544,0.520898 0.183279,0.337619 0.183279,0.819932 v 0.294211 h -1.036973 v -0.241157 q 0,-0.294211 -0.130224,-0.453374 -0.130225,-0.159163 -0.366558,-0.159163 -0.241157,0 -0.371381,0.159163 -0.130225,0.15434 -0.130225,0.438905 v 2.122177 q 0,0.250803 0.130225,0.390674 0.130224,0.135047 0.371381,0.135047 0.236333,0 0.366558,-0.144694 0.130224,-0.144694 0.130224,-0.405143 v -0.226687 l 1.046619,0.0048 v 0.274919 q 0,0.458197 -0.183278,0.78617 -0.183279,0.32315 -0.535368,0.496782 -0.347265,0.173633 -0.839225,0.173633 z m 4.287767,-3.699341 q 0,-0.250802 -0.13505,-0.38585 -0.13505,-0.139871 -0.38103,-0.139871 -0.21222,0 -0.33279,0.139871 -0.11576,0.135048 -0.11576,0.38585 h -1.012856 q 0,-0.699353 0.385846,-1.080381 0.39068,-0.38585 1.09485,-0.38585 0.47749,0 0.81511,0.173633 0.33762,0.168809 0.51126,0.501605 0.17845,0.327973 0.17845,0.790993 v 3.626994 h -1.00803 z m -0.88746,3.699341 q -0.58842,0 -0.89228,-0.356911 -0.299032,-0.356912 -0.299032,-1.061089 0,-0.824755 0.400322,-1.244368 0.40514,-0.419612 1.19613,-0.419612 h 0.51126 l 0.0675,0.882633 h -0.54501 q -0.31351,0 -0.47267,0.197748 -0.15916,0.197749 -0.15916,0.583599 0,0.255626 0.12057,0.38585 0.12058,0.125402 0.35692,0.125402 0.29421,0 0.44855,-0.163987 0.15434,-0.163986 0.15434,-0.487136 l 0.0916,0.443728 q -0.005,0.366558 -0.12058,0.617361 -0.11093,0.245979 -0.32797,0.371381 -0.21705,0.125401 -0.53055,0.125401 z m 3.95979,-1.49517 q 0,0.192925 0.0868,0.299034 0.0916,0.101286 0.25562,0.101286 h 0.21222 v 1.022503 h -0.40997 q -0.56912,0 -0.88263,-0.347265 -0.3135,-0.347266 -0.3135,-0.979096 v -5.68647 h 1.05144 z m 0.89228,-5.590008 h 1.03215 v 2.459796 h -1.03215 z m 1.36495,0 h 1.03215 v 2.459796 h -1.03215 z m 4.33117,6.004797 h 1.09002 q 0.24598,0 0.37621,-0.144694 0.13505,-0.149517 0.13505,-0.419612 v -3.868151 q 0,-0.270095 -0.13505,-0.414789 -0.13023,-0.149517 -0.37621,-0.149517 h -1.09002 v -1.008034 h 1.13826 q 0.48231,0 0.82475,0.178456 0.34244,0.178456 0.5209,0.520898 0.17845,0.337619 0.17845,0.819932 v 3.974259 q 0,0.47749 -0.18327,0.819932 -0.17846,0.342443 -0.5209,0.520898 -0.34244,0.178456 -0.82476,0.178456 h -1.13343 z m -0.68489,-6.004797 h 1.05144 v 7.012831 h -1.05144 z m 6.3183,3.385837 q 0,-0.250802 -0.13505,-0.38585 -0.13504,-0.139871 -0.38102,-0.139871 -0.21222,0 -0.3328,0.139871 -0.11576,0.135048 -0.11576,0.38585 h -1.01285 q 0,-0.699353 0.38585,-1.080381 0.39067,-0.38585 1.09485,-0.38585 0.47749,0 0.81511,0.173633 0.33762,0.168809 0.51125,0.501605 0.17845,0.327973 0.17845,0.790993 v 3.626994 h -1.00803 z m -0.88746,3.699341 q -0.58842,0 -0.89227,-0.356911 -0.29904,-0.356912 -0.29904,-1.061089 0,-0.824755 0.40032,-1.244368 0.40514,-0.419612 1.19614,-0.419612 h 0.51125 l 0.0675,0.882633 h -0.54501 q -0.3135,0 -0.47267,0.197748 -0.15916,0.197749 -0.15916,0.583599 0,0.255626 0.12058,0.38585 0.12058,0.125402 0.35691,0.125402 0.29421,0 0.44855,-0.163987 0.15434,-0.163986 0.15434,-0.487136 l 0.0916,0.443728 q -0.005,0.366558 -0.12058,0.617361 -0.11093,0.245979 -0.32797,0.371381 -0.21704,0.125401 -0.53055,0.125401 z m 4.23471,-0.04823 q -0.64147,0 -0.94051,-0.332796 -0.29903,-0.332796 -0.29903,-0.993565 v -5.160749 h 1.05144 v 5.064286 q 0,0.192926 0.0868,0.299035 0.0868,0.101285 0.24598,0.101285 h 0.35208 v 1.022504 z m -1.71221,-5.030525 h 2.20899 v 0.979096 h -2.20899 z m 4.98712,1.379415 q 0,-0.250802 -0.13505,-0.38585 -0.13505,-0.139871 -0.38103,-0.139871 -0.21221,0 -0.33279,0.139871 -0.11576,0.135048 -0.11576,0.38585 h -1.01285 q 0,-0.699353 0.38585,-1.080381 0.39067,-0.38585 1.09485,-0.38585 0.47749,0 0.81511,0.173633 0.33761,0.168809 0.51125,0.501605 0.17845,0.327973 0.17845,0.790993 v 3.626994 h -1.00803 z m -0.88746,3.699341 q -0.58842,0 -0.89228,-0.356911 -0.29903,-0.356912 -0.29903,-1.061089 0,-0.824755 0.40032,-1.244368 0.40514,-0.419612 1.19614,-0.419612 h 0.51125 l 0.0675,0.882633 h -0.54501 q -0.31351,0 -0.47267,0.197748 -0.15916,0.197749 -0.15916,0.583599 0,0.255626 0.12058,0.38585 0.12057,0.125402 0.35691,0.125402 0.29421,0 0.44855,-0.163987 0.15434,-0.163986 0.15434,-0.487136 l 0.0916,0.443728 q -0.005,0.366558 -0.12058,0.617361 -0.11093,0.245979 -0.32797,0.371381 -0.21704,0.125401 -0.53055,0.125401 z m 8.45013,-7.085178 h 0.9598 v 7.012831 h -0.95016 v -5.102871 l 0.0772,0.30868 -1.11414,3.602878 h -0.58842 l -1.11415,-3.506415 0.10611,-0.405143 v 5.102871 h -0.97909 v -7.012831 h 0.98874 l 1.2926,4.109307 z m 1.87137,0.03376 h 1.05144 v 1.046619 h -1.05144 z m 0,1.97266 h 1.05144 v 5.006409 h -1.05144 z m 2.01125,0 h 1.05626 v 5.006409 h -1.05626 z m 2.05465,1.504817 q 0,-0.313504 -0.1254,-0.467844 -0.1254,-0.159163 -0.37621,-0.159163 -0.2508,0 -0.3762,0.159163 -0.12058,0.159163 -0.12058,0.47749 l -0.10128,-0.655946 q 0.16398,-0.467843 0.45337,-0.704177 0.29421,-0.241156 0.66077,-0.241156 0.49678,0 0.76688,0.342442 0.27009,0.337619 0.27009,0.969449 v 3.781334 h -1.05144 z m 2.01125,-3.477477 h 1.05144 v 1.046619 h -1.05144 z m 0,1.97266 h 1.05144 v 5.006409 h -1.05144 z m 2.01124,0 h 1.05627 v 5.006409 h -1.05627 z m 2.05466,1.504817 q 0,-0.313504 -0.1254,-0.467844 -0.1254,-0.159163 -0.37621,-0.159163 -0.2508,0 -0.3762,0.159163 -0.12058,0.159163 -0.12058,0.47749 l -0.10129,-0.655946 q 0.16399,-0.467843 0.45338,-0.704177 0.29421,-0.241156 0.66077,-0.241156 0.49678,0 0.76688,0.342442 0.27009,0.337619 0.27009,0.969449 v 3.781334 h -1.05144 z m 3.47747,5.536953 q -0.709,0 -1.09967,-0.376204 -0.39068,-0.371381 -0.39068,-1.051442 v -0.183279 l 1.04662,-0.0048 v 0.183278 q 0,0.226688 0.12541,0.352089 0.1254,0.125401 0.35208,0.125401 0.22187,0 0.34245,-0.125401 0.12057,-0.120578 0.12057,-0.347265 V 70.25245 h 1.05145 v 5.614124 q 0,0.453374 -0.18328,0.7717 -0.17846,0.32315 -0.53055,0.487137 -0.34726,0.168809 -0.8344,0.168809 z m -0.46784,-1.948544 q -0.3328,0 -0.56913,-0.16881 -0.23151,-0.16881 -0.35691,-0.487136 -0.12058,-0.32315 -0.12058,-0.776524 v -2.290987 q 0,-0.458197 0.12058,-0.78617 0.1254,-0.327973 0.35691,-0.496782 0.23633,-0.173633 0.56913,-0.173633 0.33279,0 0.61254,0.236333 0.27974,0.236334 0.45337,0.660769 l -0.10129,0.655946 q 0,-0.188102 -0.0579,-0.32315 -0.0531,-0.135048 -0.16399,-0.202571 -0.10611,-0.07235 -0.26045,-0.07235 -0.23633,0 -0.36656,0.159163 -0.1254,0.159163 -0.1254,0.448551 v 2.098062 q 0,0.265272 0.1254,0.414789 0.13023,0.144694 0.36656,0.144694 0.15434,0 0.26045,-0.06752 0.11093,-0.06752 0.16399,-0.197748 0.0579,-0.130225 0.0579,-0.318327 l 0.0675,0.670415 q -0.13023,0.414789 -0.40032,0.646299 -0.2701,0.226688 -0.63183,0.226688 z"
       id="path7" /></g></svg>
