<?xml version="1.0" encoding="UTF-8" standalone="no"?>
<svg
   version="1.1"
   viewBox="0 0 982.7 453.5"
   id="svg20"
   sodipodi:docname="006_LAHP.svg"
   inkscape:version="1.3.2 (091e20e, 2023-11-25, custom)"
   xmlns:inkscape="http://www.inkscape.org/namespaces/inkscape"
   xmlns:sodipodi="http://sodipodi.sourceforge.net/DTD/sodipodi-0.dtd"
   xmlns="http://www.w3.org/2000/svg"
   xmlns:svg="http://www.w3.org/2000/svg">
  <defs
     id="defs1">
    <style
       id="style1">
      .cls-1, .cls-2, .cls-3 {
        isolation: isolate;
      }

      .cls-4 {
        stroke-width: 1.2px;
      }

      .cls-4, .cls-5, .cls-6, .cls-7 {
        fill: none;
        stroke-linejoin: round;
      }

      .cls-4, .cls-6 {
        stroke: #ebebeb;
      }

      .cls-5 {
        stroke-width: 4.9px;
      }

      .cls-5, .cls-7 {
        stroke: #000;
      }

      .cls-2 {
        fill: #828282;
        opacity: .8;
      }

      .cls-8 {
        stroke: red;
        stroke-miterlimit: 15.1;
        stroke-width: 5.7px;
      }

      .cls-8, .cls-3 {
        fill: #4d4d4d;
      }

      .cls-6 {
        stroke-width: 1.6px;
      }

      .cls-3 {
        font-family: ArialMT, Arial;
        font-size: 25.3px;
      }

      .cls-7 {
        stroke-width: 1.2px;
      }
    </style>
  </defs>
  <!-- Generator: Adobe Illustrator 28.7.1, SVG Export Plug-In . SVG Version: 1.2.0 Build 142)  -->
  <g
     id="g20">
    <g
       id="svg5"
       inkscape:export-filename="007_LAHP.png"
       sodipodi:docname="006_LAHP.svg">
      <sodipodi:namedview
         id="namedview7"
         bordercolor="#666666"
         borderopacity="1.0"
         inkscape:current-layer="svg5"
         inkscape:cx="707.4356"
         inkscape:cy="207.88678"
         inkscape:deskcolor="#d1d1d1"
         inkscape:document-units="mm"
         inkscape:pagecheckerboard="0"
         inkscape:pageopacity="0.0"
         inkscape:showpageshadow="2"
         inkscape:window-height="1017"
         inkscape:window-maximized="1"
         inkscape:window-width="1920"
         inkscape:window-x="3832"
         inkscape:window-y="979"
         inkscape:zoom="1.4503087"
         pagecolor="#ffffff"
         showgrid="false" />
      <g
         id="_x3C_defs">
        <inkscape:path-effect
           id="path-effect779"
           apply_no_weight="true"
           apply_with_weight="true"
           effect="bspline"
           helper_size="0"
           is_visible="true"
           lpeversion="1"
           only_selected="false"
           steps="2"
           uniform="false"
           weight="33.333333" />
        <inkscape:path-effect
           id="path-effect765"
           apply_no_weight="true"
           apply_with_weight="true"
           effect="bspline"
           helper_size="0"
           is_visible="true"
           lpeversion="1"
           only_selected="false"
           steps="2"
           uniform="false"
           weight="33.333333" />
        <inkscape:path-effect
           id="path-effect638"
           apply_no_weight="true"
           apply_with_weight="true"
           effect="bspline"
           helper_size="0"
           is_visible="true"
           lpeversion="1"
           only_selected="false"
           steps="2"
           uniform="false"
           weight="33.333333" />
        <inkscape:path-effect
           id="path-effect638-2"
           apply_no_weight="true"
           apply_with_weight="true"
           effect="bspline"
           helper_size="0"
           is_visible="true"
           lpeversion="1"
           only_selected="false"
           steps="2"
           uniform="false"
           weight="33.333333" />
        <inkscape:path-effect
           id="path-effect1867"
           apply_no_weight="true"
           apply_with_weight="true"
           effect="bspline"
           helper_size="0"
           is_visible="true"
           lpeversion="1"
           only_selected="false"
           steps="2"
           uniform="false"
           weight="33.333333" />
        <inkscape:path-effect
           id="path-effect1883"
           apply_no_weight="true"
           apply_with_weight="true"
           effect="bspline"
           helper_size="0"
           is_visible="true"
           lpeversion="1"
           only_selected="false"
           steps="2"
           uniform="false"
           weight="33.333333" />
        <inkscape:path-effect
           id="path-effect1899"
           apply_no_weight="true"
           apply_with_weight="true"
           effect="bspline"
           helper_size="0"
           is_visible="true"
           lpeversion="1"
           only_selected="false"
           steps="2"
           uniform="false"
           weight="33.333333" />
        <inkscape:path-effect
           id="path-effect1915"
           apply_no_weight="true"
           apply_with_weight="true"
           effect="bspline"
           helper_size="0"
           is_visible="true"
           lpeversion="1"
           only_selected="false"
           steps="2"
           uniform="false"
           weight="33.333333" />
      </g>
      <g
         id="g1">
        <path
           id="path222-6"
           d="M235.5,64c-79,0-143.1,64.1-143.1,143.1s64.1,143.1,143.1,143.1,143.1-64.1,143.1-143.1h0c0-79-64.1-143-143.1-143.1h0ZM235.5,335.5c-71,0-128.5-57.5-128.5-128.5s57.5-128.5,128.5-128.5,128.5,57.5,128.5,128.5h0c0,70.9-57.6,128.4-128.5,128.5h0ZM235.5,112.5c-52.2,0-94.6,42.3-94.6,94.6s42.3,94.6,94.6,94.6,94.6-42.3,94.6-94.6h0c0-52.2-42.4-94.5-94.6-94.6h0ZM235.5,287c-44.2,0-80-35.8-80-80s35.8-80,80-80,80,35.8,80,80h0c0,44.2-35.8,80-80,80h0ZM235.5,160.9c-25.4,0-46.1,20.6-46.1,46.1s20.6,46.1,46.1,46.1,46.1-20.6,46.1-46.1h0c0-25.4-20.6-46-46.1-46.1h0ZM235.5,238.5c-17.4,0-31.5-14.1-31.5-31.5s14.1-31.5,31.5-31.5,31.5,14.1,31.5,31.5h0c0,17.4-14.1,31.5-31.5,31.5Z" />
        <circle
           id="path904-15"
           class="cls-2"
           cx="157.5"
           cy="140.1"
           r="10.2" />
        <circle
           id="path904-217"
           class="cls-2"
           cx="170"
           cy="115.3"
           r="10.2" />
        <circle
           id="path904-8"
           class="cls-2"
           cx="181"
           cy="131.9"
           r="10.2" />
        <circle
           id="path904-9"
           class="cls-2"
           cx="183.7"
           cy="162.2"
           r="10.2" />
        <circle
           id="path904-79"
           class="cls-2"
           cx="143.8"
           cy="153.9"
           r="10.2" />
        <circle
           id="path904-75"
           class="cls-2"
           cx="153.4"
           cy="115.3"
           r="10.2" />
        <g
           id="text12"
           class="cls-1">
          <g
             class="cls-1"
             id="g9">
            <path
               d="M167.6,438.1c-.9-.8-1.4-1.9-1.4-3.5s.4-2.6,1.2-3.3c.8-.7,2.1-1.1,3.8-1.1h4.2l.2,2.3h-4.4c-.8,0-1.3.2-1.7.5-.4.3-.6.9-.6,1.6s.3,1.3.8,1.7c.5.4,1.3.5,2.3.5s2-.1,2.5-.4c.5-.2.8-.6.8-1.1l.3,2.1c-.3.4-.6.7-1,1-.4.3-.8.5-1.3.6s-1.1.2-1.7.2c-1.8,0-3.2-.4-4.1-1.1ZM175.4,429.6c0-1-.3-1.7-.8-2.3-.5-.5-1.3-.8-2.2-.8s-1.2,0-1.7.3c-.6.2-1.1.4-1.5.8l-2.1-1.5c.6-.7,1.3-1.2,2.2-1.6.9-.4,1.9-.6,3.1-.6s2.3.2,3.2.7c.9.4,1.5,1.1,2,1.9.5.8.7,1.8.7,3v9.6h-2.8v-9.4Z"
               id="path1" />
            <path
               d="M180.6,441.7c1.4-1.6,2.5-3.4,3.2-5.4.7-2,1.1-4.2,1.1-6.6s-.4-4.6-1.1-6.6c-.7-2-1.8-3.8-3.2-5.4l2-1.8c1.7,1.8,3,3.9,3.8,6.2.8,2.3,1.3,4.8,1.3,7.6s-.4,5.3-1.3,7.6c-.8,2.3-2.1,4.4-3.8,6.2l-2-1.8Z"
               id="path2" />
            <path
               d="M197.9,418.2h14.7v2.8h-14.7v-2.8ZM203.8,419.9h2.9v19.1h-2.9v-19.1Z"
               id="path3" />
            <path
               d="M214.6,418.2h2.9v20.8h-2.9v-20.8ZM223.6,430c0-1-.3-1.9-.8-2.4-.5-.6-1.3-.9-2.3-.9s-1.7.2-2.2.7-.8,1.2-.8,2.1l-.3-2.9c.5-.9,1.1-1.6,1.8-2,.7-.5,1.6-.7,2.5-.7,1.6,0,2.9.5,3.7,1.6.9,1.1,1.3,2.5,1.3,4.5v9h-2.9v-9Z"
               id="path4" />
            <path
               d="M233.5,438.5c-1-.5-1.7-1.3-2.2-2.3-.5-1-.8-2.2-.8-3.6v-1.7c0-1.5.2-2.7.7-3.8.5-1,1.2-1.8,2.1-2.4.9-.5,2.1-.8,3.4-.8s2.3.3,3.2.9c.9.6,1.5,1.5,2,2.7.5,1.2.7,2.6.7,4.2v1h-10v-2.3h7.2c0-1.2-.4-2.2-.9-2.8-.5-.7-1.3-1-2.2-1s-2,.4-2.6,1.1c-.6.7-.9,1.8-.9,3.1v1.9c0,1.2.3,2.2,1,2.8.6.7,1.6,1,2.8,1s1.2-.1,1.8-.4,1.1-.6,1.6-1l1.9,1.9c-.7.7-1.6,1.3-2.5,1.6-.9.4-1.8.6-2.8.6-1.4,0-2.5-.3-3.5-.8Z"
               id="path5" />
            <path
               d="M254.6,418.2h2.9v2.9h-2.9v-2.9ZM254.6,424.2h2.9v14.9h-2.9v-14.9Z"
               id="path6" />
            <path
               d="M263.8,438.6c-.8-.5-1.4-1.2-1.8-2.1-.4-.9-.6-2-.6-3.3v-3.3c0-1.3.2-2.4.6-3.3.4-.9,1-1.6,1.7-2.1s1.6-.7,2.7-.7,1.7.2,2.4.7,1.3,1.1,1.8,1.9l-.3,3c0-.6-.1-1.2-.3-1.6s-.6-.8-1-1c-.4-.2-1-.4-1.6-.4-1,0-1.7.3-2.2.9-.5.6-.8,1.4-.8,2.5v3.2c0,1.1.3,1.9.8,2.5.5.6,1.3.9,2.2.9s1.1-.1,1.6-.4.8-.6,1-1.1.3-1,.3-1.6l.2,3.1c-.3.7-.8,1.4-1.5,1.8-.7.5-1.5.7-2.5.7s-2-.2-2.8-.7ZM270.4,418.2h2.9v20.8h-2.9v-20.8Z"
               id="path7" />
            <path
               d="M280.3,438.5c-1-.5-1.7-1.3-2.2-2.3-.5-1-.8-2.2-.8-3.6v-1.7c0-1.5.2-2.7.7-3.8.5-1,1.2-1.8,2.1-2.4.9-.5,2.1-.8,3.4-.8s2.3.3,3.2.9c.9.6,1.5,1.5,2,2.7.5,1.2.7,2.6.7,4.2v1h-10v-2.3h7.2c0-1.2-.4-2.2-.9-2.8-.5-.7-1.3-1-2.2-1s-2,.4-2.6,1.1c-.6.7-.9,1.8-.9,3.1v1.9c0,1.2.3,2.2,1,2.8.6.7,1.6,1,2.8,1s1.2-.1,1.8-.4,1.1-.6,1.6-1l1.9,1.9c-.7.7-1.6,1.3-2.5,1.6-.9.4-1.8.6-2.8.6-1.4,0-2.5-.3-3.5-.8Z"
               id="path8" />
            <path
               d="M294.1,438.1c-.9-.8-1.4-1.9-1.4-3.5s.4-2.6,1.2-3.3c.8-.7,2.1-1.1,3.8-1.1h4.2l.2,2.3h-4.4c-.8,0-1.3.2-1.7.5-.4.3-.6.9-.6,1.6s.3,1.3.8,1.7c.5.4,1.3.5,2.3.5s2-.1,2.5-.4c.5-.2.8-.6.8-1.1l.3,2.1c-.3.4-.6.7-1,1-.4.3-.8.5-1.3.6s-1.1.2-1.7.2c-1.8,0-3.2-.4-4.1-1.1ZM301.8,429.6c0-1-.3-1.7-.8-2.3-.5-.5-1.3-.8-2.2-.8s-1.2,0-1.7.3c-.6.2-1.1.4-1.5.8l-2.1-1.5c.6-.7,1.3-1.2,2.2-1.6.9-.4,1.9-.6,3.1-.6s2.3.2,3.2.7c.9.4,1.5,1.1,2,1.9.5.8.7,1.8.7,3v9.6h-2.8v-9.4Z"
               id="path9" />
          </g>
        </g>
      </g>
      <line
         id="polyline3"
         class="cls-6"
         x1="773.8"
         y1="380.9"
         x2="773.8"
         y2="10" />
      <line
         id="polyline4"
         class="cls-4"
         x1="642.2"
         y1="380.9"
         x2="642.2"
         y2="10" />
      <line
         id="polyline5"
         class="cls-4"
         x1="905.3"
         y1="380.9"
         x2="905.3"
         y2="10" />
      <polyline
         id="polyline6"
         class="cls-5"
         points="598.3 349.2 601.8 346 605.3 342.2 608.8 337.8 612.3 332.7 615.9 326.9 619.4 320.2 622.9 312.7 626.4 304.3 629.9 294.9 633.4 284.5 636.9 273.2 640.4 261 643.9 247.9 647.4 233.9 650.9 219.2 654.5 203.8 658 188 661.5 171.7 665 155.4 668.5 139.1 672 123.1 675.5 107.6 679 92.8 682.5 79 686 66.4 689.5 55.3 693 45.7 696.6 38 700.1 32.2 703.6 28.5 707.1 26.8 710.6 27.4 714.1 30.1 717.6 34.8 721.1 41.6 724.6 50.3 728.1 60.6 731.6 72.5 735.2 85.8 738.7 100.1 742.2 115.2 745.7 131 749.2 147.2 752.7 163.6 756.2 179.9 759.7 195.9 763.2 211.6 766.7 226.6 770.2 241 773.8 254.6 777.3 267.3 780.8 279 784.3 289.8 787.8 299.7 791.3 308.6 794.8 316.6 798.3 323.6 801.8 329.9 805.3 335.4 808.8 340.1 812.3 344.2 815.9 347.7 819.4 350.7 822.9 353.2 826.4 355.3 829.9 357 833.4 358.4 836.9 359.6 840.4 360.5 843.9 361.3 847.4 361.9 850.9 362.4 854.4 362.8 858 363.1 861.5 363.3 865 363.5 868.5 363.6 872 363.7 875.5 363.8 879 363.9 882.5 363.9 886 364 889.5 364 893 364 896.6 364 900.1 364 903.6 364 907.1 364 910.6 364 914.1 364.1 917.6 364.1 921.1 364.1 924.6 364.1 928.1 364.1 931.6 364.1 935.1 364.1 938.7 364.1 942.2 364.1 945.7 364.1 949.2 364.1" />
      <path
         id="path13"
         class="cls-8"
         d="M905.3,13.4v364.1"
         sodipodi:nodetypes="cc" />
      <path
         id="path13-9"
         class="cls-8"
         d="M642.2,13.4v364.1"
         sodipodi:nodetypes="cc" />
      <line
         id="line8"
         class="cls-7"
         x1="664.1"
         y1="195"
         x2="751.8"
         y2="195" />
      <text
         id="text8-6"
         class="cls-3"
         transform="translate(619.5,403.7)"><tspan
           x="0"
           y="0"
           id="tspan9">LSL</tspan></text>
      <text
         id="text9-8"
         class="cls-3"
         transform="translate(886.7,403.7)"><tspan
           x="0"
           y="0"
           id="tspan10">USL</tspan></text>
      <g
         id="text12-8"
         class="cls-1">
        <g
           class="cls-1"
           id="g19">
          <path
             d="M702.9,418.2h2.9v20.8h-2.9v-20.8ZM707.1,438.6c-.7-.4-1.2-1.1-1.5-1.9l.2-3.1c0,.6.1,1.2.3,1.6.2.4.6.8,1,1,.4.2,1,.4,1.6.4,1,0,1.7-.3,2.2-.9.5-.6.8-1.4.8-2.5v-3.2c0-1.1-.3-1.9-.8-2.5s-1.3-.9-2.2-.9-1.1.1-1.6.3c-.4.2-.8.6-1,1-.2.4-.3,1-.3,1.6l-.3-2.9c.4-.9,1-1.5,1.8-2,.7-.5,1.5-.7,2.4-.7s1.9.2,2.7.7,1.3,1.2,1.7,2.1c.4.9.6,2,.6,3.3v3.2c0,1.3-.2,2.3-.6,3.2-.4.9-1,1.6-1.8,2.1s-1.7.7-2.8.7-1.7-.2-2.4-.7Z"
             id="path10" />
          <path
             d="M716.8,441.7c1.4-1.6,2.5-3.4,3.2-5.4.7-2,1.1-4.2,1.1-6.6s-.4-4.6-1.1-6.6c-.7-2-1.8-3.8-3.2-5.4l2-1.8c1.7,1.8,3,3.9,3.8,6.2.8,2.3,1.3,4.8,1.3,7.6s-.4,5.3-1.3,7.6c-.8,2.3-2.1,4.4-3.8,6.2l-2-1.8Z"
             id="path11" />
          <path
             d="M734.1,418.2h14.7v2.8h-14.7v-2.8ZM740,419.9h2.9v19.1h-2.9v-19.1Z"
             id="path12" />
          <path
             d="M750.8,418.2h2.9v20.8h-2.9v-20.8ZM759.8,430c0-1-.3-1.9-.8-2.4-.5-.6-1.3-.9-2.3-.9s-1.7.2-2.2.7-.8,1.2-.8,2.1l-.3-2.9c.5-.9,1.1-1.6,1.8-2,.7-.5,1.6-.7,2.5-.7,1.6,0,2.9.5,3.7,1.6.9,1.1,1.3,2.5,1.3,4.5v9h-2.9v-9Z"
             id="path14" />
          <path
             d="M769.7,438.5c-1-.5-1.7-1.3-2.2-2.3-.5-1-.8-2.2-.8-3.6v-1.7c0-1.5.2-2.7.7-3.8.5-1,1.2-1.8,2.1-2.4.9-.5,2.1-.8,3.4-.8s2.3.3,3.2.9c.9.6,1.5,1.5,2,2.7.5,1.2.7,2.6.7,4.2v1h-10v-2.3h7.2c0-1.2-.4-2.2-.9-2.8-.5-.7-1.3-1-2.2-1s-2,.4-2.6,1.1c-.6.7-.9,1.8-.9,3.1v1.9c0,1.2.3,2.2,1,2.8.6.7,1.6,1,2.8,1s1.2-.1,1.8-.4c.6-.2,1.1-.6,1.6-1l1.9,1.9c-.7.7-1.6,1.3-2.5,1.6s-1.8.6-2.8.6c-1.4,0-2.5-.3-3.5-.8Z"
             id="path15" />
          <path
             d="M792.7,438.6c-.8-.5-1.4-1.2-1.8-2.1-.4-.9-.6-2-.6-3.3v-3.3c0-1.3.2-2.4.6-3.3.4-.9,1-1.6,1.7-2.1s1.6-.7,2.7-.7,1.7.2,2.4.7,1.3,1.1,1.8,1.9l-.3,3c0-.6-.1-1.2-.3-1.6-.2-.4-.6-.8-1-1-.4-.2-1-.4-1.6-.4-1,0-1.7.3-2.2.9-.5.6-.8,1.4-.8,2.5v3.2c0,1.1.3,1.9.8,2.5.5.6,1.3.9,2.2.9s1.1-.1,1.6-.4.8-.6,1-1.1c.2-.5.3-1,.3-1.6l.2,3.1c-.3.7-.8,1.4-1.5,1.8-.7.5-1.5.7-2.5.7s-2-.2-2.8-.7ZM799.2,418.2h2.9v20.8h-2.9v-20.8Z"
             id="path16" />
          <path
             d="M807.2,438.1c-.9-.8-1.4-1.9-1.4-3.5s.4-2.6,1.2-3.3c.8-.7,2.1-1.1,3.8-1.1h4.2l.2,2.3h-4.4c-.8,0-1.3.2-1.7.5-.4.3-.6.9-.6,1.6s.3,1.3.8,1.7c.5.4,1.3.5,2.3.5s1.9-.1,2.5-.4c.5-.2.8-.6.8-1.1l.3,2.1c-.3.4-.6.7-1,1-.4.3-.8.5-1.3.6s-1.1.2-1.7.2c-1.8,0-3.2-.4-4.1-1.1ZM815,429.6c0-1-.3-1.7-.8-2.3-.5-.5-1.3-.8-2.2-.8s-1.2,0-1.7.3c-.6.2-1.1.4-1.5.8l-2.1-1.5c.6-.7,1.3-1.2,2.2-1.6.9-.4,1.9-.6,3.1-.6s2.3.2,3.2.7c.9.4,1.5,1.1,2,1.9.5.8.7,1.8.7,3v9.6h-2.8v-9.4Z"
             id="path17" />
          <path
             d="M821.1,424.2h6.7v2.6h-6.7v-2.6ZM823.4,438.1c-.6-.7-.8-1.6-.8-2.9v-15.3h2.9v15.4c0,.4,0,.6.2.8.1.2.4.3.6.3h1.4v2.8h-1.7c-1.2,0-2.1-.3-2.6-1Z"
             id="path18" />
          <path
             d="M832.4,438.1c-.9-.8-1.4-1.9-1.4-3.5s.4-2.6,1.2-3.3c.8-.7,2.1-1.1,3.8-1.1h4.2l.2,2.3h-4.4c-.8,0-1.3.2-1.7.5-.4.3-.6.9-.6,1.6s.3,1.3.8,1.7c.5.4,1.3.5,2.3.5s1.9-.1,2.5-.4c.5-.2.8-.6.8-1.1l.3,2.1c-.3.4-.6.7-1,1-.4.3-.8.5-1.3.6s-1.1.2-1.7.2c-1.8,0-3.2-.4-4.1-1.1ZM840.2,429.6c0-1-.3-1.7-.8-2.3-.5-.5-1.3-.8-2.2-.8s-1.2,0-1.7.3c-.6.2-1.1.4-1.5.8l-2.1-1.5c.6-.7,1.3-1.2,2.2-1.6.9-.4,1.9-.6,3.1-.6s2.3.2,3.2.7c.9.4,1.5,1.1,2,1.9.5.8.7,1.8.7,3v9.6h-2.8v-9.4Z"
             id="path19" />
        </g>
      </g>
    </g>
  </g>
</svg>
