<?xml version="1.0" encoding="UTF-8" standalone="no"?>
<!-- Created with Inkscape (http://www.inkscape.org/) -->

<svg
   width="1050"
   height="700"
   viewBox="0 0 277.81249 185.20833"
   version="1.1"
   id="svg5"
   inkscape:version="1.3.2 (091e20e, 2023-11-25, custom)"
   sodipodi:docname="025_ANOVA_nd.svg"
   xml:space="preserve"
   inkscape:export-filename="025_ANOVA_nd.png"
   inkscape:export-xdpi="300"
   inkscape:export-ydpi="300"
   xmlns:inkscape="http://www.inkscape.org/namespaces/inkscape"
   xmlns:sodipodi="http://sodipodi.sourceforge.net/DTD/sodipodi-0.dtd"
   xmlns:xlink="http://www.w3.org/1999/xlink"
   xmlns="http://www.w3.org/2000/svg"
   xmlns:svg="http://www.w3.org/2000/svg"><sodipodi:namedview
     id="namedview7"
     pagecolor="#ffffff"
     bordercolor="#666666"
     borderopacity="1.0"
     inkscape:showpageshadow="2"
     inkscape:pageopacity="0.0"
     inkscape:pagecheckerboard="0"
     inkscape:deskcolor="#d1d1d1"
     inkscape:document-units="mm"
     showgrid="false"
     inkscape:zoom="0.79936738"
     inkscape:cx="578.58253"
     inkscape:cy="393.43612"
     inkscape:window-width="1920"
     inkscape:window-height="1017"
     inkscape:window-x="3832"
     inkscape:window-y="1300"
     inkscape:window-maximized="1"
     inkscape:current-layer="layer1"
     showguides="true" /><defs
     id="defs2"><marker
   style="overflow:visible"
   id="marker7512"
   refX="0"
   refY="0"
   orient="auto-start-reverse"
   inkscape:stockid="Arrow2"
   markerWidth="7.6999998"
   markerHeight="5.5999999"
   viewBox="0 0 7.7 5.6"
   inkscape:isstock="true"
   inkscape:collect="always"
   preserveAspectRatio="xMidYMid"><path
     transform="scale(0.7)"
     d="M -2,-4 9,0 -2,4 c 2,-2.33 2,-5.66 0,-8 z"
     style="fill:context-stroke;fill-rule:evenodd;stroke:none"
     id="path7510" /></marker><marker
   style="overflow:visible"
   id="marker7376"
   refX="0"
   refY="0"
   orient="auto-start-reverse"
   inkscape:stockid="Arrow2"
   markerWidth="7.6999998"
   markerHeight="5.5999999"
   viewBox="0 0 7.7 5.6"
   inkscape:isstock="true"
   inkscape:collect="always"
   preserveAspectRatio="xMidYMid"><path
     transform="scale(0.7)"
     d="M -2,-4 9,0 -2,4 c 2,-2.33 2,-5.66 0,-8 z"
     style="fill:context-stroke;fill-rule:evenodd;stroke:none"
     id="path7374" /></marker><inkscape:perspective
   sodipodi:type="inkscape:persp3d"
   inkscape:vp_x="-149.3461 : -1.8289019e-14 : 0"
   inkscape:vp_y="6.1230317e-14 : -1000 : 0"
   inkscape:vp_z="-124.418 : -124.418 : 0"
   inkscape:persp3d-origin="74.075527 : 125.63064 : 1"
   id="perspective5772" /><inkscape:path-effect
   effect="bspline"
   id="path-effect4166"
   is_visible="true"
   lpeversion="1"
   weight="33.333333"
   steps="2"
   helper_size="0"
   apply_no_weight="true"
   apply_with_weight="true"
   only_selected="false" /><inkscape:path-effect
   effect="bspline"
   id="path-effect1915"
   is_visible="true"
   lpeversion="1"
   weight="33.333333"
   steps="2"
   helper_size="0"
   apply_no_weight="true"
   apply_with_weight="true"
   only_selected="false" /><inkscape:path-effect
   effect="bspline"
   id="path-effect1899"
   is_visible="true"
   lpeversion="1"
   weight="33.333333"
   steps="2"
   helper_size="0"
   apply_no_weight="true"
   apply_with_weight="true"
   only_selected="false" /><inkscape:path-effect
   effect="bspline"
   id="path-effect1883"
   is_visible="true"
   lpeversion="1"
   weight="33.333333"
   steps="2"
   helper_size="0"
   apply_no_weight="true"
   apply_with_weight="true"
   only_selected="false" /><inkscape:path-effect
   effect="bspline"
   id="path-effect1867"
   is_visible="true"
   lpeversion="1"
   weight="33.333333"
   steps="2"
   helper_size="0"
   apply_no_weight="true"
   apply_with_weight="true"
   only_selected="false" /><marker
   style="overflow:visible"
   id="Arrow2"
   refX="0"
   refY="0"
   orient="auto-start-reverse"
   inkscape:stockid="Arrow2"
   markerWidth="7.6999998"
   markerHeight="5.5999999"
   viewBox="0 0 7.7 5.6"
   inkscape:isstock="true"
   inkscape:collect="always"
   preserveAspectRatio="xMidYMid"><path
     transform="scale(0.7)"
     d="M -2,-4 9,0 -2,4 c 2,-2.33 2,-5.66 0,-8 z"
     style="fill:context-stroke;fill-rule:evenodd;stroke:none"
     id="arrow2L" /></marker><inkscape:path-effect
   effect="bspline"
   id="path-effect638"
   is_visible="true"
   lpeversion="1"
   weight="33.333333"
   steps="2"
   helper_size="0"
   apply_no_weight="true"
   apply_with_weight="true"
   only_selected="false" /><linearGradient
   id="linearGradient6703"><stop
     style="stop-color:#000000;stop-opacity:1.0000000;"
     offset="0.0000000"
     id="stop6704" /><stop
     style="stop-color:#7f7f7f;stop-opacity:1.0000000;"
     offset="0.50000000"
     id="stop6705" /><stop
     style="stop-color:#ffffff;stop-opacity:1.0000000;"
     offset="1.0000000"
     id="stop6706" /></linearGradient><linearGradient
   id="linearGradient879"><stop
     style="stop-color:#c3c3c3;stop-opacity:0.54918033;"
     offset="0.0000000"
     id="stop880" /><stop
     style="stop-color:#d4e1e4;stop-opacity:1.0000000;"
     offset="0.50000000"
     id="stop884" /><stop
     style="stop-color:#ddf0f0;stop-opacity:0.59016395;"
     offset="1.0000000"
     id="stop881" /></linearGradient><linearGradient
   x1="1453.8076"
   y1="384.45894"
   x2="1583.5951"
   y2="383.24872"
   id="linearGradient882"
   xlink:href="#linearGradient879"
   gradientTransform="scale(0.55994156,1.7859006)"
   gradientUnits="userSpaceOnUse" /><linearGradient
   x1="568.58307"
   y1="1189.8646"
   x2="567.13932"
   y2="1038.1013"
   id="linearGradient883"
   xlink:href="#linearGradient879"
   spreadMethod="pad"
   gradientTransform="scale(1.4640424,0.68304032)"
   gradientUnits="userSpaceOnUse" /><clipPath
   id="clip0_525_147"><rect
     width="24"
     height="24"
     fill="white"
     id="rect26341" /></clipPath><style
   id="style4881">.cls-1{fill:none;stroke:#020202;stroke-miterlimit:10;stroke-width:1.91px;}</style><marker
   style="overflow:visible"
   id="Arrow2-1"
   refX="0"
   refY="0"
   orient="auto-start-reverse"
   inkscape:stockid="Arrow2"
   markerWidth="7.6999998"
   markerHeight="5.5999999"
   viewBox="0 0 7.7 5.6"
   inkscape:isstock="true"
   inkscape:collect="always"
   preserveAspectRatio="xMidYMid"><path
     transform="scale(0.7)"
     d="M -2,-4 9,0 -2,4 c 2,-2.33 2,-5.66 0,-8 z"
     style="fill:context-stroke;fill-rule:evenodd;stroke:none"
     id="arrow2L-5" /></marker><inkscape:path-effect
   effect="bspline"
   id="path-effect638-2"
   is_visible="true"
   lpeversion="1"
   weight="33.333333"
   steps="2"
   helper_size="0"
   apply_no_weight="true"
   apply_with_weight="true"
   only_selected="false" /><marker
   style="overflow:visible"
   id="Arrow2-1-7"
   refX="0"
   refY="0"
   orient="auto-start-reverse"
   inkscape:stockid="Arrow2"
   markerWidth="7.6999998"
   markerHeight="5.5999999"
   viewBox="0 0 7.7 5.6"
   inkscape:isstock="true"
   inkscape:collect="always"
   preserveAspectRatio="xMidYMid"><path
     transform="scale(0.7)"
     d="M -2,-4 9,0 -2,4 c 2,-2.33 2,-5.66 0,-8 z"
     style="fill:context-stroke;fill-rule:evenodd;stroke:none"
     id="arrow2L-5-8" /></marker><inkscape:path-effect
   effect="bspline"
   id="path-effect638-2-6"
   is_visible="true"
   lpeversion="1"
   weight="33.333333"
   steps="2"
   helper_size="0"
   apply_no_weight="true"
   apply_with_weight="true"
   only_selected="false" /><inkscape:path-effect
   effect="bspline"
   id="path-effect4166-3"
   is_visible="true"
   lpeversion="1"
   weight="33.333333"
   steps="2"
   helper_size="0"
   apply_no_weight="true"
   apply_with_weight="true"
   only_selected="false" /><inkscape:path-effect
   effect="bspline"
   id="path-effect4166-8"
   is_visible="true"
   lpeversion="1"
   weight="33.333333"
   steps="2"
   helper_size="0"
   apply_no_weight="true"
   apply_with_weight="true"
   only_selected="false" /><inkscape:path-effect
   effect="bspline"
   id="path-effect1883-9"
   is_visible="true"
   lpeversion="1"
   weight="33.333333"
   steps="2"
   helper_size="0"
   apply_no_weight="true"
   apply_with_weight="true"
   only_selected="false" /><inkscape:perspective
   sodipodi:type="inkscape:persp3d"
   inkscape:vp_x="-33.653483 : -4.0135824e-15 : 0"
   inkscape:vp_y="1.3797571e-14 : -219.45313 : 0"
   inkscape:vp_z="-28.036212 : -27.303919 : 0"
   inkscape:persp3d-origin="126.22519 : 166.9808 : 1"
   id="perspective5772-4" /><inkscape:path-effect
   effect="bspline"
   id="path-effect1915-0"
   is_visible="true"
   lpeversion="1"
   weight="33.333333"
   steps="2"
   helper_size="0"
   apply_no_weight="true"
   apply_with_weight="true"
   only_selected="false" /><inkscape:path-effect
   effect="bspline"
   id="path-effect1915-0-0"
   is_visible="true"
   lpeversion="1"
   weight="33.333333"
   steps="2"
   helper_size="0"
   apply_no_weight="true"
   apply_with_weight="true"
   only_selected="false" /><inkscape:path-effect
   effect="bspline"
   id="path-effect1915-0-0-7"
   is_visible="true"
   lpeversion="1"
   weight="33.333333"
   steps="2"
   helper_size="0"
   apply_no_weight="true"
   apply_with_weight="true"
   only_selected="false" /><clipPath
   id="clipPath3874">
      <path
   clip-rule="nonzero"
   d="m 73,7 h 8 v 17.378906 h -8 z m 0,0"
   id="path9388" />
    </clipPath>
    <clipPath
   id="clipPath1301">
      <path
   clip-rule="nonzero"
   d="m 133,7 h 10 v 17.378906 h -10 z m 0,0"
   id="path4916" />
    </clipPath>
    <clipPath
   id="clipPath2579">
      <path
   clip-rule="nonzero"
   d="m 195,7 h 8 v 17.378906 h -8 z m 0,0"
   id="path9102" />
    </clipPath>
    <clipPath
   id="clipPath8860">
      <path
   clip-rule="nonzero"
   d="m 256,7 h 10 v 17.378906 h -10 z m 0,0"
   id="path9738" />
    </clipPath>
  <clipPath
   id="clipPath9647">
      <path
   clip-rule="nonzero"
   d="m 73,7 h 8 v 17.378906 h -8 z m 0,0"
   id="path6766" />
    </clipPath>
    <clipPath
   id="clipPath6656">
      <path
   clip-rule="nonzero"
   d="m 133,7 h 10 v 17.378906 h -10 z m 0,0"
   id="path3032" />
    </clipPath>
    <clipPath
   id="clipPath2119">
      <path
   clip-rule="nonzero"
   d="m 195,7 h 8 v 17.378906 h -8 z m 0,0"
   id="path4555" />
    </clipPath>
    <clipPath
   id="clipPath7997">
      <path
   clip-rule="nonzero"
   d="m 243,7 h 11 v 17.378906 h -11 z m 0,0"
   id="path2380" />
    </clipPath>
  <clipPath
   id="clipPath1676">
      <path
   clip-rule="nonzero"
   d="m 74,7 h 9 v 17.378906 h -9 z m 0,0"
   id="path6703" />
    </clipPath>
    <clipPath
   id="clipPath1007">
      <path
   clip-rule="nonzero"
   d="m 134,7 h 10 v 17.378906 h -10 z m 0,0"
   id="path8889" />
    </clipPath>
    <clipPath
   id="clipPath4024">
      <path
   clip-rule="nonzero"
   d="m 196,7 h 8 v 17.378906 h -8 z m 0,0"
   id="path7996" />
    </clipPath>
    <clipPath
   id="clipPath3916">
      <path
   clip-rule="nonzero"
   d="m 245,7 h 10 v 17.378906 h -10 z m 0,0"
   id="path1765" />
    </clipPath>
    <clipPath
   id="clipPath1198">
      <path
   clip-rule="nonzero"
   d="m 286,6 h 8.83984 V 18 H 286 Z m 0,0"
   id="path9852" />
    </clipPath>
  <clipPath
   id="clipPath6491">
      <path
   clip-rule="nonzero"
   d="m 74,7 h 9 v 17.378906 h -9 z m 0,0"
   id="path1887" />
    </clipPath>
    <clipPath
   id="clipPath4822">
      <path
   clip-rule="nonzero"
   d="m 134,7 h 10 v 17.378906 h -10 z m 0,0"
   id="path8281" />
    </clipPath>
    <clipPath
   id="clipPath756">
      <path
   clip-rule="nonzero"
   d="m 196,7 h 8 v 17.378906 h -8 z m 0,0"
   id="path5431" />
    </clipPath>
    <clipPath
   id="clipPath5448">
      <path
   clip-rule="nonzero"
   d="m 245,7 h 10 v 17.378906 h -10 z m 0,0"
   id="path6537" />
    </clipPath>
    <clipPath
   id="clipPath9683">
      <path
   clip-rule="nonzero"
   d="m 286,6 h 8.83984 V 18 H 286 Z m 0,0"
   id="path8557" />
    </clipPath>
  </defs><g
     inkscape:label="Ebene 1"
     inkscape:groupmode="layer"
     id="layer1"><g
       id="response"
       transform="matrix(0.9,0,0,0.9,14.113924,9.2298049)"><path
         style="fill:none;stroke:#000000;stroke-width:0.840478;stroke-linecap:butt;stroke-linejoin:miter;stroke-dasharray:none;stroke-opacity:1;marker-end:url(#Arrow2-1)"
         d="m -58.673859,107.61863 c 0,0 0,-134.064882 0,-134.064882"
         id="path636-9"
         inkscape:path-effect="#path-effect638-2"
         inkscape:original-d="M -58.673859,107.61863 V -26.446252"
         sodipodi:nodetypes="cc"
         transform="matrix(1.17416,0,0,1.20565,89.898778,39.830273)" /><text
         xml:space="preserve"
         style="font-size:4.23334px;line-height:1.25;font-family:sans-serif;-inkscape-font-specification:'sans-serif, Normal';text-align:center;text-anchor:middle;stroke-width:0.264584"
         x="-85.55558"
         y="15.626175"
         id="text1661"
         transform="rotate(-90)"><tspan
           sodipodi:role="line"
           id="tspan1659"
           style="font-style:normal;font-variant:normal;font-weight:normal;font-stretch:normal;font-size:12.7001px;font-family:Bahnschrift;-inkscape-font-specification:'Bahnschrift, @wght=300,wdth=87.0';font-variant-ligatures:normal;font-variant-caps:normal;font-variant-numeric:normal;font-variant-east-asian:normal;font-variation-settings:'wdth' 87, 'wght' 300;stroke-width:0.264584"
           x="-85.55558"
           y="15.626175">Response (Y)</tspan></text></g><g
       id="predx1"
       transform="matrix(0.9,0,0,0.9,14.113924,9.2298049)"><path
         style="fill:none;stroke:#000000;stroke-width:0.840478;stroke-linecap:butt;stroke-linejoin:miter;stroke-dasharray:none;stroke-opacity:1;marker-end:url(#Arrow2)"
         d="m -61.027197,105.26529 c 0,0 208.199877,0 208.199877,0"
         id="path636"
         inkscape:path-effect="#path-effect638"
         inkscape:original-d="M -61.027197,105.26529 H 147.17268"
         sodipodi:nodetypes="cc"
         transform="matrix(1.17416,0,0,1.20565,89.898778,39.830273)" /><text
         xml:space="preserve"
         style="font-size:4.23334px;line-height:1.25;font-family:sans-serif;-inkscape-font-specification:'sans-serif, Normal';text-align:center;text-anchor:middle;stroke-width:0.264584"
         x="237.86313"
         y="180.49466"
         id="text1661-7"><tspan
           sodipodi:role="line"
           id="tspan1659-0"
           style="font-style:normal;font-variant:normal;font-weight:normal;font-stretch:normal;font-size:12.7001px;font-family:Bahnschrift;-inkscape-font-specification:'Bahnschrift, @wght=300,wdth=87.0';font-variant-ligatures:normal;font-variant-caps:normal;font-variant-numeric:normal;font-variant-east-asian:normal;font-variation-settings:'wdth' 87, 'wght' 300;stroke-width:0.264584"
           x="237.86313"
           y="180.49466">Predictor (X<tspan
   style="font-size:8.25503px;baseline-shift:sub;stroke-width:0.264584"
   id="tspan8448">1</tspan>)</tspan></text></g><g
       id="predx2"
       transform="matrix(0.9,0,0,0.9,14.113924,9.2298049)"><path
         style="fill:none;stroke:#000000;stroke-width:0.840478;stroke-linecap:butt;stroke-linejoin:miter;stroke-dasharray:none;stroke-opacity:1;marker-end:url(#Arrow2-1-7)"
         d="m -60.734001,107.31757 c 0,0 72.09972,-70.216501 72.09972,-70.216501"
         id="path636-9-6"
         inkscape:path-effect="#path-effect638-2-6"
         inkscape:original-d="M -60.734001,107.31757 11.365719,37.101069"
         sodipodi:nodetypes="cc"
         transform="matrix(1.17416,0,0,1.20565,89.898778,39.830273)" /><text
         xml:space="preserve"
         style="font-size:2.11667px;line-height:1.25;font-family:sans-serif;-inkscape-font-specification:'sans-serif, Normal';text-align:center;text-anchor:middle;stroke-width:0.132293"
         x="-94.054764"
         y="181.76126"
         id="text1661-7-4"
         transform="matrix(1.0000004,-0.99999958,1.0000004,0,0,0)"><tspan
           sodipodi:role="line"
           id="tspan1659-0-3"
           style="font-style:normal;font-variant:normal;font-weight:normal;font-stretch:normal;font-size:6.35003px;font-family:Bahnschrift;-inkscape-font-specification:'Bahnschrift, @wght=300,wdth=87.0';font-variant-ligatures:normal;font-variant-caps:normal;font-variant-numeric:normal;font-variant-east-asian:normal;font-variation-settings:'wdth' 87, 'wght' 300;stroke-width:0.132293"
           x="-94.054764"
           y="181.76126">Predictor (X<tspan
   style="font-size:4.12752px;baseline-shift:sub;stroke-width:0.132293"
   id="tspan8450">2</tspan>)</tspan></text></g><g
       id="pop"
       transform="matrix(0.9,0,0,0.9,14.113924,9.2298049)"><path
         style="opacity:0.135417;fill:#ececec;fill-opacity:1;stroke:#000000;stroke-width:1.35863;stroke-linecap:round;stroke-linejoin:round;stroke-miterlimit:10;stroke-dasharray:none"
         id="path2445-9-0-8"
         d="m 243.41749,105.9069 c 0.008,-1.87491 0.0231,-3.74983 0.0721,-5.62384 0.0472,-1.791987 0.12329,-3.590769 0.34792,-5.371481 0.23791,-1.885306 0.63258,-3.73694 1.35079,-5.511546 0.71593,-1.768274 1.80147,-3.331643 3.07048,-4.775957 1.23352,-1.404093 2.74945,-2.632644 4.29158,-3.713448 1.58687,-1.111983 3.23269,-2.143076 4.92642,-3.099625 1.74591,-0.986135 3.51577,-1.930038 5.29105,-2.866254 1.74004,-0.917461 3.47805,-1.836502 5.19641,-2.790787 1.67993,-0.932596 3.34813,-1.940659 4.85209,-3.12063 0.77919,-0.611349 1.47413,-1.284816 2.10059,-2.038932 0.60953,-0.733561 0.95317,-1.619398 1.02591,-2.546348 0.0736,-0.94006 -0.40755,-1.832435 -0.92874,-2.590857 -0.53319,-0.775808 -1.28277,-1.420808 -2.01341,-2.020402 -1.50418,-1.235326 -3.2187,-2.23028 -4.91376,-3.202411 -1.64291,-0.942084 -3.33099,-1.812784 -5.00823,-2.697041 -1.76669,-0.93124 -3.53383,-1.862033 -5.2714,-2.843206 -1.68603,-0.952021 -3.3488,-1.949464 -4.9289,-3.056916 -1.62053,-1.135699 -3.14413,-2.378714 -4.4922,-3.807209 -1.32457,-1.403423 -2.35771,-3.007462 -3.12854,-4.745464 -0.74216,-1.672713 -1.14654,-3.508082 -1.3736,-5.306867 -0.23315,-1.848479 -0.3337,-3.704181 -0.38971,-5.564636 -0.0553,-1.839675 -0.0683,-3.681152 -0.0761,-5.521497 -1.3e-4,-0.09362 -8.5e-4,-0.18661 -8.5e-4,-0.280133"
         stroke-miterlimit="10" /><path
         style="fill:#ececec;fill-opacity:1;stroke:#000000;stroke-width:1.35863;stroke-linecap:round;stroke-linejoin:round;stroke-miterlimit:10;stroke-dasharray:none"
         id="path2445-9-0"
         d="m 242.64806,126.33219 c 0.008,-1.87491 0.0231,-3.74983 0.0721,-5.62384 0.0472,-1.79199 0.12329,-3.59077 0.34792,-5.37148 0.23791,-1.88531 0.63258,-3.73694 1.35079,-5.51155 0.71593,-1.76827 1.80148,-3.33164 3.07049,-4.77596 1.2335,-1.40409 2.74944,-2.63264 4.29157,-3.71344 1.58687,-1.11199 3.23269,-2.14308 4.92643,-3.099629 1.7459,-0.986136 3.51576,-1.930039 5.29104,-2.866256 1.74004,-0.917459 3.47805,-1.8365 5.19641,-2.790785 1.67993,-0.932596 3.34813,-1.940659 4.85208,-3.12063 0.77921,-0.611349 1.47413,-1.284817 2.10061,-2.038932 0.60953,-0.733561 0.95317,-1.619398 1.02591,-2.546348 0.0736,-0.94006 -0.40755,-1.832435 -0.92875,-2.590857 -0.53319,-0.775809 -1.28277,-1.420808 -2.0134,-2.020403 -1.50419,-1.235327 -3.21871,-2.23028 -4.91378,-3.202412 -1.6429,-0.942085 -3.33098,-1.812786 -5.00822,-2.697042 -1.76668,-0.931241 -3.53383,-1.862035 -5.2714,-2.843209 -1.68602,-0.952022 -3.3488,-1.949463 -4.9289,-3.056916 -1.62053,-1.135698 -3.14413,-2.378714 -4.4922,-3.80721 -1.32457,-1.403422 -2.35771,-3.00746 -3.12853,-4.745462 -0.74217,-1.67271 -1.14655,-3.508077 -1.37361,-5.30686 -0.23315,-1.848475 -0.33369,-3.704177 -0.38971,-5.564632 -0.0553,-1.839674 -0.0683,-3.681152 -0.0761,-5.521497 -1.4e-4,-0.09362 -8.5e-4,-0.18661 -8.5e-4,-0.280133"
         stroke-miterlimit="10" /></g><g
       id="var02"
       transform="matrix(0.9,0,0,0.9,14.113924,9.2298049)"><path
         d="M 187.64119,114.97326 V 37.87291"
         style="font-variation-settings:'wdth' 87, 'wght' 300;opacity:0.641834;fill:none;fill-opacity:1;fill-rule:evenodd;stroke:#000000;stroke-width:0.3;stroke-linecap:round;stroke-linejoin:round;stroke-dasharray:none;stroke-dashoffset:0;stroke-opacity:1"
         id="path6931-5"
         sodipodi:nodetypes="cc" /><path
         d="M 72.920485,114.97326 H 187.64119 l -51.70636,51.70631"
         style="font-variation-settings:'wdth' 87, 'wght' 300;opacity:0.641834;fill:none;fill-opacity:1;fill-rule:evenodd;stroke:#000000;stroke-width:0.3;stroke-linecap:round;stroke-linejoin:round;stroke-dasharray:none;stroke-dashoffset:0;stroke-opacity:1"
         id="path6935-4"
         sodipodi:nodetypes="ccc" /><path
         style="fill:#ececec;fill-opacity:1;stroke:#000000;stroke-width:0.491203;stroke-linecap:round;stroke-linejoin:round;stroke-miterlimit:10;stroke-dasharray:none"
         id="path2445-7-7-84"
         d="m 187.76829,23.435891 c 0.002,0.67786 0.009,1.355721 0.026,2.03326 0.017,0.647879 0.0446,1.298214 0.12579,1.942019 0.086,0.681613 0.2287,1.351067 0.48836,1.992656 0.25884,0.639309 0.65132,1.204534 1.11011,1.726718 0.44597,0.507636 0.99404,0.95181 1.55158,1.342571 0.57373,0.402027 1.16876,0.774815 1.78112,1.120648 0.63122,0.356529 1.27111,0.697791 1.91294,1.036275 0.6291,0.331697 1.25747,0.663973 1.87873,1.008988 0.60737,0.337178 1.2105,0.701626 1.75424,1.128244 0.2817,0.221021 0.53296,0.464511 0.75945,0.737163 0.22037,0.265212 0.3446,0.585478 0.37091,0.920615 0.0267,0.339864 -0.14735,0.662502 -0.33579,0.9367 -0.19276,0.280489 -0.46377,0.513686 -0.72793,0.730466 -0.54382,0.446624 -1.16368,0.806344 -1.77653,1.157814 -0.59398,0.3406 -1.20429,0.655394 -1.81069,0.975089 -0.63873,0.336681 -1.27762,0.673207 -1.90582,1.027942 -0.60959,0.344196 -1.21075,0.704817 -1.78201,1.105207 -0.5859,0.410606 -1.13676,0.860014 -1.62414,1.37647 -0.47888,0.507395 -0.8524,1.087323 -1.1311,1.715691 -0.26832,0.604754 -0.41452,1.268319 -0.4966,1.918654 -0.0843,0.668311 -0.12067,1.339219 -0.1409,2.011851 -0.009,0.28796 -0.0145,0.576039 -0.0185,0.864161"
         stroke-miterlimit="10"
         sodipodi:nodetypes="cccccccccsccscccsccccsc" /><text
         xml:space="preserve"
         style="font-size:4.23334px;line-height:1.25;font-family:sans-serif;-inkscape-font-specification:'sans-serif, Normal';text-align:center;text-anchor:middle;stroke-width:0.264584"
         x="69.342514"
         y="130.82133"
         id="text1661-7-3-1"><tspan
           sodipodi:role="line"
           id="tspan1659-0-5-8"
           style="font-style:normal;font-variant:normal;font-weight:normal;font-stretch:normal;font-size:5.64445px;font-family:Bahnschrift;-inkscape-font-specification:'Bahnschrift, @wght=300,wdth=87.0';font-variant-ligatures:normal;font-variant-caps:normal;font-variant-numeric:normal;font-variant-east-asian:normal;font-variation-settings:'wdth' 87, 'wght' 300;stroke-width:0.264584"
           x="69.342514"
           y="130.82133">Level 2</tspan></text><text
         xml:space="preserve"
         style="font-size:4.23334px;line-height:1.25;font-family:sans-serif;-inkscape-font-specification:'sans-serif, Normal';text-align:center;text-anchor:middle;stroke-width:0.264584"
         x="135.64705"
         y="172.3893"
         id="text1661-7-3-1-2"><tspan
           sodipodi:role="line"
           id="tspan1659-0-5-8-56"
           style="font-style:normal;font-variant:normal;font-weight:normal;font-stretch:normal;font-size:5.64445px;font-family:Bahnschrift;-inkscape-font-specification:'Bahnschrift, @wght=300,wdth=87.0';font-variant-ligatures:normal;font-variant-caps:normal;font-variant-numeric:normal;font-variant-east-asian:normal;font-variation-settings:'wdth' 87, 'wght' 300;stroke-width:0.264584"
           x="135.64705"
           y="172.3893">Level 2</tspan></text></g><g
       id="var03"
       transform="matrix(0.9,0,0,0.9,14.113924,9.2298049)"><path
         d="M 61.961936,125.89598 H 220.53903 V 70.641052"
         style="font-variation-settings:'wdth' 87, 'wght' 300;opacity:0.641834;fill:none;fill-opacity:1;fill-rule:evenodd;stroke:#000000;stroke-width:0.3;stroke-linecap:round;stroke-linejoin:round;stroke-dasharray:none;stroke-dashoffset:0;stroke-opacity:1"
         id="path6931-5-4"
         sodipodi:nodetypes="ccc" /><path
         d="m 220.53903,125.89598 -40.76469,40.76465"
         style="font-variation-settings:'wdth' 87, 'wght' 300;opacity:0.641834;fill:none;fill-opacity:1;fill-rule:evenodd;stroke:#000000;stroke-width:0.3;stroke-linecap:round;stroke-linejoin:round;stroke-dasharray:none;stroke-dashoffset:0;stroke-opacity:1"
         id="path6935-4-5"
         sodipodi:nodetypes="cc" /><path
         style="fill:#ececec;fill-opacity:1;stroke:#000000;stroke-width:0.652085;stroke-linecap:round;stroke-linejoin:round;stroke-miterlimit:10;stroke-dasharray:none"
         id="path2445-7-7-84-6"
         d="m 220.7134,51.468103 c 0.004,0.899876 0.0106,1.799753 0.0346,2.699203 0.0225,0.860076 0.0592,1.72341 0.16699,2.578077 0.11424,0.904859 0.30359,1.793576 0.6483,2.645301 0.34362,0.848697 0.86464,1.599049 1.4737,2.292261 0.59203,0.673898 1.31961,1.263551 2.05976,1.782295 0.76164,0.5337 1.55156,1.028586 2.36449,1.487689 0.83795,0.473301 1.68742,0.926333 2.53947,1.375679 0.83514,0.440336 1.66931,0.881441 2.49406,1.339457 0.80629,0.447612 1.60696,0.931426 2.32879,1.497773 0.37397,0.29341 0.70753,0.616649 1.0082,0.978601 0.29255,0.352076 0.45747,0.777236 0.49239,1.222138 0.0353,0.451178 -0.19561,0.879489 -0.44576,1.243494 -0.2559,0.372356 -0.61567,0.68193 -0.96636,0.969712 -0.72193,0.592903 -1.54482,1.070441 -2.35839,1.537025 -0.78852,0.452155 -1.59873,0.870051 -2.40373,1.294455 -0.84793,0.446952 -1.69609,0.893699 -2.53003,1.364618 -0.80925,0.45693 -1.6073,0.935662 -2.36567,1.467191 -0.77778,0.545089 -1.50906,1.141689 -2.15607,1.827297 -0.63573,0.67358 -1.13159,1.443448 -1.50155,2.277621 -0.35621,0.802827 -0.55029,1.683727 -0.65927,2.547061 -0.1119,0.887201 -0.16018,1.777847 -0.18704,2.670783 -0.0106,0.382274 -0.0191,0.764706 -0.0247,1.147195"
         stroke-miterlimit="10"
         sodipodi:nodetypes="cccccccccsccscccsccccsc" /><text
         xml:space="preserve"
         style="font-size:4.23334px;line-height:1.25;font-family:sans-serif;-inkscape-font-specification:'sans-serif, Normal';text-align:center;text-anchor:middle;stroke-width:0.264584"
         x="80.347984"
         y="119.73312"
         id="text1661-7-3-1-6"><tspan
           sodipodi:role="line"
           id="tspan1659-0-5-8-5"
           style="font-style:normal;font-variant:normal;font-weight:normal;font-stretch:normal;font-size:5.64445px;font-family:Bahnschrift;-inkscape-font-specification:'Bahnschrift, @wght=300,wdth=87.0';font-variant-ligatures:normal;font-variant-caps:normal;font-variant-numeric:normal;font-variant-east-asian:normal;font-variation-settings:'wdth' 87, 'wght' 300;stroke-width:0.264584"
           x="80.347984"
           y="119.73312">Level 3</tspan></text><text
         xml:space="preserve"
         style="font-size:4.23334px;line-height:1.25;font-family:sans-serif;-inkscape-font-specification:'sans-serif, Normal';text-align:center;text-anchor:middle;stroke-width:0.264584"
         x="179.19861"
         y="172.3893"
         id="text1661-7-3-1-6-0"><tspan
           sodipodi:role="line"
           id="tspan1659-0-5-8-5-4"
           style="font-style:normal;font-variant:normal;font-weight:normal;font-stretch:normal;font-size:5.64445px;font-family:Bahnschrift;-inkscape-font-specification:'Bahnschrift, @wght=300,wdth=87.0';font-variant-ligatures:normal;font-variant-caps:normal;font-variant-numeric:normal;font-variant-east-asian:normal;font-variation-settings:'wdth' 87, 'wght' 300;stroke-width:0.264584"
           x="179.19861"
           y="172.3893">Level 3</tspan></text></g><g
       id="var01"
       transform="matrix(0.9,0,0,0.9,14.113924,9.2298049)"><text
         xml:space="preserve"
         style="font-size:4.23334px;line-height:1.25;font-family:sans-serif;-inkscape-font-specification:'sans-serif, Normal';text-align:center;text-anchor:middle;stroke-width:0.264584"
         x="48.61039"
         y="151.38695"
         id="text1661-7-3"><tspan
           sodipodi:role="line"
           id="tspan1659-0-5"
           style="font-style:normal;font-variant:normal;font-weight:normal;font-stretch:normal;font-size:5.64445px;font-family:Bahnschrift;-inkscape-font-specification:'Bahnschrift, @wght=300,wdth=87.0';font-variant-ligatures:normal;font-variant-caps:normal;font-variant-numeric:normal;font-variant-east-asian:normal;font-variation-settings:'wdth' 87, 'wght' 300;stroke-width:0.264584"
           x="48.61039"
           y="151.38695">Level 1</tspan></text><text
         xml:space="preserve"
         style="font-size:4.23334px;line-height:1.25;font-family:sans-serif;-inkscape-font-specification:'sans-serif, Normal';text-align:center;text-anchor:middle;stroke-width:0.264584"
         x="93.021919"
         y="172.36864"
         id="text1661-7-3-5"><tspan
           sodipodi:role="line"
           id="tspan1659-0-5-6"
           style="font-style:normal;font-variant:normal;font-weight:normal;font-stretch:normal;font-size:5.64445px;font-family:Bahnschrift;-inkscape-font-specification:'Bahnschrift, @wght=300,wdth=87.0';font-variant-ligatures:normal;font-variant-caps:normal;font-variant-numeric:normal;font-variant-east-asian:normal;font-variation-settings:'wdth' 87, 'wght' 300;stroke-width:0.264584"
           x="93.021919"
           y="172.36864">Level 1</tspan></text><path
         id="path6939"
         style="font-variation-settings:'wdth' 87, 'wght' 300;opacity:0.641834;fill:none;fill-opacity:1;fill-rule:evenodd;stroke:#000000;stroke-width:0.3;stroke-linecap:round;stroke-linejoin:round;stroke-dasharray:none;stroke-dashoffset:0;stroke-opacity:1"
         d="M 112.66629,146.61317 92.444882,166.83456 M 41.602392,146.61317 H 112.66629 V 91.689235"
         sodipodi:nodetypes="ccccc" /><path
         style="fill:#ececec;fill-opacity:1;stroke:#000000;stroke-width:0.814224;stroke-linecap:round;stroke-linejoin:round;stroke-miterlimit:10;stroke-dasharray:none"
         id="path2445-7-7"
         d="m 112.91581,66.743497 c 0.004,1.123628 0.0141,2.247255 0.0432,3.370349 0.0282,1.073931 0.0739,2.151929 0.2085,3.219105 0.14259,1.129848 0.3791,2.239539 0.80952,3.303042 0.42907,1.059723 1.07963,1.996646 1.84014,2.862222 0.73925,0.841459 1.64774,1.577728 2.57192,2.225455 0.95101,0.666401 1.93734,1.284339 2.95239,1.857594 1.04631,0.590986 2.10699,1.156663 3.17091,1.717737 1.0428,0.549824 2.08438,1.100609 3.11419,1.672506 1.00677,0.55891 2.00652,1.163022 2.90783,1.870188 0.46697,0.366367 0.88345,0.769976 1.25889,1.221926 0.36528,0.439619 0.57122,0.970493 0.61481,1.526019 0.0441,0.563362 -0.24424,1.098169 -0.55659,1.552682 -0.31954,0.464939 -0.76876,0.851489 -1.20663,1.210826 -0.90144,0.740325 -1.92894,1.336601 -2.9448,1.9192 -0.98458,0.564581 -1.99625,1.086386 -3.00141,1.616315 -1.05876,0.558086 -2.11781,1.115913 -3.15912,1.703925 -1.01045,0.570542 -2.00693,1.168312 -2.95387,1.832002 -0.97118,0.68062 -1.88428,1.42557 -2.69217,2.28165 -0.79381,0.84106 -1.41296,1.80235 -1.87493,2.84394 -0.44477,1.00244 -0.68712,2.10237 -0.82318,3.18037 -0.13971,1.1078 -0.20001,2.2199 -0.23355,3.33486 -0.0144,0.47733 -0.024,0.95485 -0.0307,1.43244"
         stroke-miterlimit="10"
         sodipodi:nodetypes="cccccccccsccscccsccccsc" /></g><g
       id="arrows"
       transform="matrix(0.9,0,0,0.9,14.113924,9.2298049)"><path
         style="fill:none;stroke:#000000;stroke-width:0.222377px;stroke-linecap:butt;stroke-linejoin:miter;stroke-dasharray:0.444754, 0.222377;stroke-dashoffset:0;stroke-opacity:1;marker-end:url(#marker7512)"
         d="m 89.672032,-2.7246218 c 14.897228,8.66e-5 29.794008,1.732e-4 44.691018,2.598e-4"
         id="path1913"
         sodipodi:nodetypes="cc"
         inkscape:original-d="m 89.672032,-2.7246218 c 14.897228,3.06e-4 44.691018,2.598e-4 44.691018,2.598e-4"
         inkscape:path-effect="#path-effect1915"
         transform="matrix(1.17416,0,0,1.20565,82.2366,41.6546)" /><path
         style="fill:none;stroke:#000000;stroke-width:0.222377px;stroke-linecap:butt;stroke-linejoin:miter;stroke-dasharray:0.444754, 0.222377;stroke-dashoffset:0;stroke-opacity:1;marker-end:url(#marker7376)"
         d="m 117.66288,24.43921 c 5.56695,7.7e-5 11.13345,1.55e-4 16.70017,2.32e-4"
         id="path1913-9"
         sodipodi:nodetypes="cc"
         inkscape:original-d="m 117.66288,24.43921 c 5.56695,2.97e-4 16.70017,2.32e-4 16.70017,2.32e-4"
         inkscape:path-effect="#path-effect1915-0"
         transform="matrix(1.17416,0,0,1.20565,82.2366,41.6546)" /><path
         style="fill:none;stroke:#000000;stroke-width:0.222377px;stroke-linecap:butt;stroke-linejoin:miter;stroke-dasharray:0.444754, 0.222377;stroke-dashoffset:0;stroke-opacity:1;marker-end:url(#Arrow2-1-7)"
         d="m 48.380169,32.236421 c 36.192318,8e-6 72.384201,1.7e-5 108.576301,2.5e-5"
         id="path1913-9-4"
         sodipodi:nodetypes="cc"
         inkscape:original-d="m 48.380169,32.236421 c 36.192318,2.28e-4 108.576301,2.5e-5 108.576301,2.5e-5"
         inkscape:path-effect="#path-effect1915-0-0"
         transform="matrix(1.17416,0,0,1.20565,55.707995,52.813169)" /></g><g
       id="msa1"
       transform="matrix(0.9,0,0,0.9,14.113924,9.2298049)"><path
         style="fill:#b9b9b9;fill-opacity:1;stroke:#000000;stroke-width:0.210105;stroke-linecap:round;stroke-linejoin:round;stroke-miterlimit:10;stroke-dasharray:none"
         id="path2445-7-7-8"
         d="m 86.860604,166.32327 c 0.289948,-0.001 0.579895,-0.004 0.869701,-0.0109 0.277125,-0.007 0.555295,-0.019 0.830671,-0.0538 0.291556,-0.0368 0.577898,-0.0978 0.852334,-0.20889 0.273451,-0.11068 0.515222,-0.2786 0.738571,-0.47485 0.217136,-0.19074 0.407126,-0.42518 0.574265,-0.66366 0.171963,-0.2454 0.331416,-0.49992 0.47934,-0.76184 0.152502,-0.27 0.29847,-0.5437 0.443251,-0.81824 0.14188,-0.26909 0.284005,-0.53785 0.43158,-0.80359 0.144221,-0.25979 0.300112,-0.51777 0.482591,-0.75034 0.09454,-0.12057 0.198688,-0.22796 0.315309,-0.32485 0.113435,-0.0943 0.25043,-0.1474 0.393778,-0.15865 0.145374,-0.0109 0.283376,0.063 0.400661,0.14363 0.119975,0.0825 0.219721,0.19837 0.312445,0.31136 0.191037,0.23261 0.344901,0.49774 0.495237,0.75989 0.145688,0.25405 0.280336,0.51511 0.417081,0.77448 0.144013,0.27322 0.287955,0.54649 0.439687,0.81519 0.147227,0.26074 0.301475,0.51788 0.472738,0.76223 0.175629,0.2506 0.367856,0.48622 0.588764,0.69469 0.217031,0.20484 0.465086,0.36461 0.733859,0.48382 0.258676,0.11477 0.542506,0.1773 0.820679,0.21242 0.285856,0.036 0.572828,0.0516 0.860541,0.0603 0.123169,0.004 0.24639,0.006 0.369628,0.008"
         stroke-miterlimit="10"
         sodipodi:nodetypes="cccccccccsccscccsccccsc" /><path
         style="fill:#b9b9b9;fill-opacity:1;stroke:#000000;stroke-width:0.210105;stroke-linecap:round;stroke-linejoin:round;stroke-miterlimit:10;stroke-dasharray:none"
         id="path2445-7-7-8-1"
         d="m 129.54501,166.32327 c 0.28995,-0.001 0.57989,-0.004 0.8697,-0.0109 0.27712,-0.007 0.5553,-0.019 0.83067,-0.0538 0.29156,-0.0368 0.5779,-0.0978 0.85234,-0.20889 0.27345,-0.11068 0.51522,-0.2786 0.73857,-0.47485 0.21713,-0.19074 0.40712,-0.42518 0.57426,-0.66366 0.17196,-0.2454 0.33142,-0.49992 0.47934,-0.76184 0.1525,-0.27 0.29847,-0.5437 0.44325,-0.81824 0.14188,-0.26909 0.28401,-0.53785 0.43158,-0.80359 0.14422,-0.25979 0.30011,-0.51777 0.48259,-0.75034 0.0945,-0.12057 0.19869,-0.22796 0.31531,-0.32485 0.11344,-0.0943 0.25043,-0.1474 0.39378,-0.15865 0.14537,-0.0109 0.28338,0.0631 0.40066,0.14363 0.11998,0.0825 0.21972,0.19838 0.31245,0.31136 0.19103,0.23261 0.3449,0.49774 0.49523,0.75989 0.14569,0.25405 0.28034,0.51511 0.41708,0.77448 0.14402,0.27322 0.28796,0.54649 0.43969,0.81519 0.14723,0.26074 0.30147,0.51788 0.47274,0.76223 0.17563,0.2506 0.36785,0.48622 0.58876,0.69469 0.21703,0.20484 0.46509,0.36461 0.73386,0.48382 0.25868,0.11477 0.54251,0.1773 0.82068,0.21242 0.28586,0.036 0.57283,0.0516 0.86054,0.0603 0.12317,0.004 0.24639,0.006 0.36963,0.008"
         stroke-miterlimit="10"
         sodipodi:nodetypes="cccccccccsccscccsccccsc" /><path
         style="fill:#b9b9b9;fill-opacity:1;stroke:#000000;stroke-width:0.210105;stroke-linecap:round;stroke-linejoin:round;stroke-miterlimit:10;stroke-dasharray:none"
         id="path2445-7-7-8-5"
         d="m 173.07041,166.32327 c 0.28994,-0.001 0.57989,-0.004 0.8697,-0.0109 0.27712,-0.007 0.55529,-0.019 0.83067,-0.0538 0.29155,-0.0368 0.5779,-0.0978 0.85233,-0.20889 0.27345,-0.11068 0.51522,-0.2786 0.73857,-0.47485 0.21714,-0.19074 0.40713,-0.42518 0.57427,-0.66366 0.17196,-0.2454 0.33141,-0.49992 0.47934,-0.76184 0.1525,-0.27 0.29847,-0.5437 0.44325,-0.81824 0.14188,-0.26909 0.284,-0.53785 0.43158,-0.80359 0.14422,-0.25979 0.30011,-0.51777 0.48259,-0.75034 0.0945,-0.12057 0.19869,-0.22797 0.31531,-0.32485 0.11343,-0.0943 0.25043,-0.1474 0.39378,-0.15865 0.14537,-0.0109 0.28337,0.063 0.40066,0.14363 0.11997,0.0825 0.21972,0.19837 0.31244,0.31136 0.19104,0.23261 0.3449,0.49774 0.49524,0.75989 0.14569,0.25405 0.28034,0.51511 0.41708,0.77448 0.14401,0.27322 0.28796,0.54649 0.43969,0.81519 0.14722,0.26074 0.30147,0.51788 0.47274,0.76223 0.17562,0.2506 0.36785,0.48622 0.58876,0.69469 0.21703,0.20484 0.46508,0.36461 0.73386,0.48382 0.25867,0.11477 0.5425,0.1773 0.82068,0.21242 0.28585,0.036 0.57282,0.0516 0.86054,0.0603 0.12317,0.004 0.24639,0.006 0.36962,0.008"
         stroke-miterlimit="10"
         sodipodi:nodetypes="cccccccccsccscccsccccsc" /><path
         style="fill:#b9b9b9;fill-opacity:1;stroke:#000000;stroke-width:0.16498;stroke-linecap:round;stroke-linejoin:round;stroke-miterlimit:10;stroke-dasharray:none"
         id="path2445-7-5"
         d="m 45.781445,141.95441 c -0.227607,0.22679 -0.455344,0.45255 -0.682915,0.67415 -0.2176,0.21188 -0.436035,0.42106 -0.652265,0.61002 -0.228936,0.20005 -0.453783,0.37697 -0.669278,0.50525 -0.214723,0.12778 -0.404566,0.18581 -0.579948,0.2071 -0.170502,0.0207 -0.319685,-0.0142 -0.450929,-0.0702 -0.135032,-0.0577 -0.260238,-0.13231 -0.376393,-0.22183 -0.119746,-0.0923 -0.234366,-0.19256 -0.348052,-0.29444 -0.111405,-0.0999 -0.22301,-0.19934 -0.338889,-0.29212 -0.113248,-0.0907 -0.235658,-0.17091 -0.378943,-0.21025 -0.07424,-0.0204 -0.156015,-0.023 -0.247591,-0.007 -0.08907,0.0151 -0.196645,0.0809 -0.309207,0.18463 -0.114163,0.10521 -0.222514,0.27201 -0.314609,0.42739 -0.0942,0.15895 -0.172531,0.3283 -0.245342,0.48983 -0.150006,0.33267 -0.270826,0.66168 -0.388873,0.98556 -0.114399,0.3139 -0.220127,0.62461 -0.327503,0.93566 -0.113083,0.32761 -0.22611,0.65523 -0.345255,0.98536 -0.115607,0.32035 -0.236727,0.64338 -0.371206,0.96973 -0.137912,0.33469 -0.288852,0.67065 -0.462313,1.00781 -0.170419,0.33126 -0.365201,0.6515 -0.576246,0.95615 -0.203122,0.29324 -0.425994,0.56521 -0.644422,0.81121 -0.224464,0.25278 -0.449802,0.49033 -0.675723,0.72305 -0.09672,0.0996 -0.193473,0.19832 -0.290246,0.29643"
         stroke-miterlimit="10"
         sodipodi:nodetypes="cccccccccsccscccsccccsc" /><path
         style="fill:#b9b9b9;fill-opacity:1;stroke:#000000;stroke-width:0.16498;stroke-linecap:round;stroke-linejoin:round;stroke-miterlimit:10;stroke-dasharray:none"
         id="path2445-7-5-0"
         d="m 66.509106,121.1973 c -0.227606,0.22679 -0.455344,0.45255 -0.682915,0.67416 -0.2176,0.21187 -0.436035,0.42105 -0.652265,0.61001 -0.228936,0.20005 -0.453783,0.37697 -0.669278,0.50525 -0.214723,0.12779 -0.404566,0.18581 -0.579948,0.2071 -0.170502,0.0207 -0.319685,-0.0142 -0.450929,-0.0702 -0.135032,-0.0577 -0.260237,-0.13231 -0.376392,-0.22183 -0.119747,-0.0923 -0.234366,-0.19255 -0.348053,-0.29444 -0.111404,-0.0999 -0.223009,-0.19934 -0.338888,-0.29212 -0.113248,-0.0907 -0.235659,-0.17091 -0.378944,-0.21025 -0.07424,-0.0204 -0.156014,-0.023 -0.247591,-0.007 -0.08907,0.0151 -0.196644,0.0809 -0.309206,0.18463 -0.114164,0.1052 -0.222514,0.272 -0.31461,0.42739 -0.0942,0.15895 -0.172531,0.3283 -0.245341,0.48983 -0.150006,0.33266 -0.270826,0.66167 -0.388874,0.98556 -0.114398,0.31389 -0.220127,0.62461 -0.327503,0.93565 -0.113083,0.32761 -0.22611,0.65523 -0.345254,0.98537 -0.115608,0.32034 -0.236727,0.64337 -0.371206,0.96972 -0.137912,0.3347 -0.288853,0.67065 -0.462314,1.00781 -0.170419,0.33126 -0.3652,0.6515 -0.576246,0.95615 -0.203121,0.29324 -0.425994,0.56522 -0.644421,0.81121 -0.224464,0.25278 -0.449802,0.49033 -0.675724,0.72305 -0.09672,0.0996 -0.193473,0.19832 -0.290246,0.29644"
         stroke-miterlimit="10"
         sodipodi:nodetypes="cccccccccsccscccsccccsc" /><path
         style="fill:#b9b9b9;fill-opacity:1;stroke:#000000;stroke-width:0.16498;stroke-linecap:round;stroke-linejoin:round;stroke-miterlimit:10;stroke-dasharray:none"
         id="path2445-7-5-0-5"
         d="m 77.275242,110.66523 c -0.227606,0.22678 -0.455344,0.45255 -0.682915,0.67415 -0.2176,0.21187 -0.436035,0.42105 -0.652265,0.61002 -0.228936,0.20004 -0.453783,0.37696 -0.669278,0.50524 -0.214723,0.12779 -0.404566,0.18581 -0.579948,0.2071 -0.170502,0.0207 -0.319685,-0.0142 -0.450929,-0.0702 -0.135032,-0.0577 -0.260238,-0.13232 -0.376392,-0.22183 -0.119747,-0.0923 -0.234366,-0.19256 -0.348053,-0.29445 -0.111405,-0.0999 -0.22301,-0.19933 -0.338889,-0.29212 -0.113247,-0.0907 -0.235658,-0.17091 -0.378943,-0.21025 -0.07424,-0.0204 -0.156014,-0.023 -0.247591,-0.007 -0.08907,0.0151 -0.196645,0.0809 -0.309207,0.18463 -0.114163,0.1052 -0.222513,0.272 -0.314609,0.42739 -0.0942,0.15895 -0.172531,0.3283 -0.245342,0.48983 -0.150006,0.33266 -0.270825,0.66167 -0.388873,0.98556 -0.114399,0.31389 -0.220127,0.62461 -0.327503,0.93565 -0.113083,0.32762 -0.22611,0.65523 -0.345254,0.98537 -0.115608,0.32034 -0.236727,0.64337 -0.371206,0.96973 -0.137912,0.33469 -0.288853,0.67064 -0.462314,1.0078 -0.170419,0.33127 -0.3652,0.6515 -0.576246,0.95615 -0.203121,0.29324 -0.425993,0.56522 -0.644421,0.81122 -0.224464,0.25277 -0.449802,0.49032 -0.675723,0.72304 -0.09672,0.0996 -0.193474,0.19832 -0.290247,0.29644"
         stroke-miterlimit="10"
         sodipodi:nodetypes="cccccccccsccscccsccccsc" /></g><g
       inkscape:label="model"
       transform="matrix(0.9,0,0,0.9,44.797018,42.891595)"
       id="model"><g
   fill="#000000"
   fill-opacity="1"
   id="g1033"
   transform="matrix(0.352778,0,0,0.352778,-0.286632,-0.00568845)">
    <g
   id="g1031"
   transform="translate(0,16.938)">
      <path
   d="m 14.578125,-14.171875 0.5625,-0.578125 c 1.09375,-1.109375 2.015625,-1.375 2.875,-1.453125 0.265625,-0.03125 0.5,-0.04687 0.5,-0.46875 0,-0.25 -0.25,-0.25 -0.296875,-0.25 -0.296875,0 -0.625,0.04687 -0.921875,0.04687 H 16.28125 c -0.71875,0 -1.484375,-0.04687 -2.1875,-0.04687 -0.171875,0 -0.4375,0 -0.4375,0.46875 0,0.21875 0.25,0.25 0.328125,0.25 0.734375,0.04687 0.734375,0.421875 0.734375,0.5625 0,0.28125 -0.203125,0.640625 -0.6875,1.21875 L 8.125,-7.65625 5.328125,-15.1875 c -0.15625,-0.34375 -0.15625,-0.40625 -0.15625,-0.453125 0,-0.515625 1.015625,-0.5625 1.328125,-0.5625 0.296875,0 0.5625,0 0.5625,-0.453125 0,-0.265625 -0.21875,-0.265625 -0.375,-0.265625 -0.421875,0 -0.90625,0.04687 -1.328125,0.04687 h -2.75 c -0.453125,0 -0.921875,-0.04687 -1.34375,-0.04687 -0.171875,0 -0.453125,0 -0.453125,0.46875 0,0.25 0.234375,0.25 0.59375,0.25 1.21875,0 1.4375,0.21875 1.671875,0.796875 l 3.0625,8.25 C 6.171875,-7.09375 6.25,-6.8125 6.25,-6.734375 c 0,0.0625 -1.21875,4.953125 -1.296875,5.203125 -0.1875,0.65625 -0.4375,0.78125 -2.03125,0.8125 -0.421875,0 -0.625,0 -0.625,0.46875 0,0.25 0.28125,0.25 0.359375,0.25 0.4375,0 0.96875,-0.046875 1.4375,-0.046875 h 2.921875 c 0.4375,0 0.96875,0.046875 1.40625,0.046875 0.171875,0 0.46875,0 0.46875,-0.453125 0,-0.265625 -0.171875,-0.265625 -0.59375,-0.265625 -1.53125,0 -1.53125,-0.171875 -1.53125,-0.453125 C 6.765625,-1.34375 6.96875,-2.125 7.09375,-2.625 L 7.984375,-6.1875 C 8.125,-6.71875 8.125,-6.765625 8.34375,-7.015625 Z m 0,0"
   id="path1029" />
    </g>
  </g>
  <g
   fill="#000000"
   fill-opacity="1"
   id="g1039"
   transform="matrix(0.352778,0,0,0.352778,-0.286632,-0.00568845)">
    <g
   id="g1037"
   transform="translate(26.360001,16.938)">
      <path
   d="m 17.890625,-8.28125 c 0,-0.546875 -0.140625,-0.78125 -0.34375,-0.78125 -0.125,0 -0.328125,0.171875 -0.34375,0.640625 -0.109375,2.375 -1.734375,3.734375 -3.46875,3.734375 -1.5625,0 -2.75,-1.0625 -3.96875,-2.125 C 8.5,-7.953125 7.21875,-9.09375 5.53125,-9.09375 c -2.703125,0 -4.171875,2.71875 -4.171875,4.984375 0,0.78125 0.328125,0.78125 0.34375,0.78125 0.28125,0 0.359375,-0.484375 0.359375,-0.5625 0.09375,-2.71875 1.953125,-3.8125 3.46875,-3.8125 1.5625,0 2.75,1.0625 3.953125,2.125 1.265625,1.140625 2.5625,2.28125 4.25,2.28125 2.703125,0 4.15625,-2.71875 4.15625,-4.984375 z m 0,0"
   id="path1035" />
    </g>
  </g>
  <g
   fill="#000000"
   fill-opacity="1"
   id="g1045"
   transform="matrix(0.352778,0,0,0.352778,-0.286632,-0.00568845)">
    <g
   id="g1043"
   transform="translate(52.525002,16.938)">
      <path
   d="M 11.765625,-10.0625 9.4375,-15.484375 c 0.328125,-0.59375 1.0625,-0.703125 1.359375,-0.71875 0.15625,0 0.421875,-0.03125 0.421875,-0.453125 0,-0.265625 -0.21875,-0.265625 -0.359375,-0.265625 -0.421875,0 -0.921875,0.04687 -1.34375,0.04687 h -1.4375 c -1.515625,0 -2.59375,-0.04687 -2.625,-0.04687 -0.203125,0 -0.453125,0 -0.453125,0.46875 0,0.25 0.234375,0.25 0.546875,0.25 1.4375,0 1.546875,0.25 1.78125,0.84375 l 2.953125,6.890625 -5.375,5.75 c -0.890625,0.953125 -1.953125,1.90625 -3.796875,2 C 0.8125,-0.6875 0.625,-0.6875 0.625,-0.25 0.625,-0.171875 0.640625,0 0.921875,0 c 0.34375,0 0.71875,-0.046875 1.0625,-0.046875 h 1.15625 C 3.9375,-0.046875 4.8125,0 5.578125,0 5.75,0 6.046875,0 6.046875,-0.453125 6.046875,-0.6875 5.875,-0.71875 5.71875,-0.71875 5.234375,-0.765625 4.90625,-1.046875 4.90625,-1.4375 c 0,-0.421875 0.296875,-0.71875 1.015625,-1.46875 L 8.125,-5.296875 C 8.671875,-5.875 9.984375,-7.3125 10.53125,-7.859375 l 2.609375,6.09375 c 0.01563,0.0625 0.125,0.296875 0.125,0.328125 0,0.21875 -0.546875,0.671875 -1.34375,0.71875 C 11.765625,-0.71875 11.5,-0.6875 11.5,-0.25 11.5,0 11.75,0 11.875,0 c 0.421875,0 0.90625,-0.046875 1.328125,-0.046875 H 15.9375 C 16.375,-0.046875 16.84375,0 17.265625,0 c 0.1875,0 0.453125,0 0.453125,-0.46875 0,-0.25 -0.25,-0.25 -0.46875,-0.25 C 15.765625,-0.75 15.71875,-0.875 15.296875,-1.78125 l -3.28125,-7.6875 3.15625,-3.375 c 0.234375,-0.234375 0.8125,-0.859375 1.03125,-1.109375 1.0625,-1.109375 2.0625,-2.125 4.0625,-2.25 0.25,-0.03125 0.5,-0.03125 0.5,-0.453125 0,-0.265625 -0.21875,-0.265625 -0.328125,-0.265625 -0.34375,0 -0.71875,0.04687 -1.0625,0.04687 h -1.140625 c -0.78125,0 -1.65625,-0.04687 -2.421875,-0.04687 -0.171875,0 -0.46875,0 -0.46875,0.4375 0,0.25 0.171875,0.28125 0.3125,0.28125 0.40625,0.04687 0.828125,0.25 0.828125,0.71875 l -0.03125,0.04687 c -0.01563,0.171875 -0.07813,0.421875 -0.34375,0.71875 z m 0,0"
   id="path1041" />
    </g>
  </g>
  <g
   clip-path="url(#clipPath6491)"
   id="g1053"
   transform="matrix(0.352778,0,0,0.352778,-0.286632,-0.00568845)">
    <g
   fill="#000000"
   fill-opacity="1"
   id="g1051">
      <g
   id="g1049"
   transform="translate(72.667,24.378)">
        <path
   d="m 6.59375,-15.828125 c 0,-0.53125 -0.03125,-0.546875 -0.375,-0.546875 -0.96875,1.15625 -2.421875,1.53125 -3.8125,1.578125 -0.078125,0 -0.203125,0 -0.21875,0.04687 -0.03125,0.0625 -0.03125,0.109375 -0.03125,0.625 0.765625,0 2.0625,-0.15625 3.046875,-0.75 v 13.0625 c 0,0.875 -0.046875,1.171875 -2.1875,1.171875 H 2.28125 V 0 c 1.1875,-0.03125 2.421875,-0.046875 3.609375,-0.046875 1.203125,0 2.4375,0.015625 3.625,0.046875 v -0.640625 h -0.75 c -2.125,0 -2.171875,-0.28125 -2.171875,-1.171875 z m 0,0"
   id="path1047" />
      </g>
    </g>
  </g>
  <g
   fill="#000000"
   fill-opacity="1"
   id="g1059"
   transform="matrix(0.352778,0,0,0.352778,-0.286632,-0.00568845)">
    <g
   id="g1057"
   transform="translate(90.042,16.938)">
      <path
   d="m 9.34375,-5.75 h 6.5625 c 0.34375,0 0.765625,0 0.765625,-0.421875 0,-0.4375 -0.390625,-0.4375 -0.765625,-0.4375 H 9.34375 V -13.1875 c 0,-0.34375 0,-0.765625 -0.421875,-0.765625 -0.453125,0 -0.453125,0.390625 -0.453125,0.765625 v 6.578125 h -6.5625 c -0.34375,0 -0.765625,0 -0.765625,0.421875 0,0.4375 0.390625,0.4375 0.765625,0.4375 h 6.5625 v 6.5625 c 0,0.359375 0,0.78125 0.421875,0.78125 0.453125,0 0.453125,-0.40625 0.453125,-0.78125 z m 0,0"
   id="path1055" />
    </g>
  </g>
  <g
   fill="#000000"
   fill-opacity="1"
   id="g1065"
   transform="matrix(0.352778,0,0,0.352778,-0.286632,-0.00568845)">
    <g
   id="g1063"
   transform="translate(113.392,16.938)">
      <path
   d="M 11.765625,-10.0625 9.4375,-15.484375 c 0.328125,-0.59375 1.0625,-0.703125 1.359375,-0.71875 0.15625,0 0.421875,-0.03125 0.421875,-0.453125 0,-0.265625 -0.21875,-0.265625 -0.359375,-0.265625 -0.421875,0 -0.921875,0.04687 -1.34375,0.04687 h -1.4375 c -1.515625,0 -2.59375,-0.04687 -2.625,-0.04687 -0.203125,0 -0.453125,0 -0.453125,0.46875 0,0.25 0.234375,0.25 0.546875,0.25 1.4375,0 1.546875,0.25 1.78125,0.84375 l 2.953125,6.890625 -5.375,5.75 c -0.890625,0.953125 -1.953125,1.90625 -3.796875,2 C 0.8125,-0.6875 0.625,-0.6875 0.625,-0.25 0.625,-0.171875 0.640625,0 0.921875,0 c 0.34375,0 0.71875,-0.046875 1.0625,-0.046875 h 1.15625 C 3.9375,-0.046875 4.8125,0 5.578125,0 5.75,0 6.046875,0 6.046875,-0.453125 6.046875,-0.6875 5.875,-0.71875 5.71875,-0.71875 5.234375,-0.765625 4.90625,-1.046875 4.90625,-1.4375 c 0,-0.421875 0.296875,-0.71875 1.015625,-1.46875 L 8.125,-5.296875 C 8.671875,-5.875 9.984375,-7.3125 10.53125,-7.859375 l 2.609375,6.09375 c 0.01563,0.0625 0.125,0.296875 0.125,0.328125 0,0.21875 -0.546875,0.671875 -1.34375,0.71875 C 11.765625,-0.71875 11.5,-0.6875 11.5,-0.25 11.5,0 11.75,0 11.875,0 c 0.421875,0 0.90625,-0.046875 1.328125,-0.046875 H 15.9375 C 16.375,-0.046875 16.84375,0 17.265625,0 c 0.1875,0 0.453125,0 0.453125,-0.46875 0,-0.25 -0.25,-0.25 -0.46875,-0.25 C 15.765625,-0.75 15.71875,-0.875 15.296875,-1.78125 l -3.28125,-7.6875 3.15625,-3.375 c 0.234375,-0.234375 0.8125,-0.859375 1.03125,-1.109375 1.0625,-1.109375 2.0625,-2.125 4.0625,-2.25 0.25,-0.03125 0.5,-0.03125 0.5,-0.453125 0,-0.265625 -0.21875,-0.265625 -0.328125,-0.265625 -0.34375,0 -0.71875,0.04687 -1.0625,0.04687 h -1.140625 c -0.78125,0 -1.65625,-0.04687 -2.421875,-0.04687 -0.171875,0 -0.46875,0 -0.46875,0.4375 0,0.25 0.171875,0.28125 0.3125,0.28125 0.40625,0.04687 0.828125,0.25 0.828125,0.71875 l -0.03125,0.04687 c -0.01563,0.171875 -0.07813,0.421875 -0.34375,0.71875 z m 0,0"
   id="path1061" />
    </g>
  </g>
  <g
   clip-path="url(#clipPath4822)"
   id="g1073"
   transform="matrix(0.352778,0,0,0.352778,-0.286632,-0.00568845)">
    <g
   fill="#000000"
   fill-opacity="1"
   id="g1071">
      <g
   id="g1069"
   transform="translate(133.535,24.378)">
        <path
   d="m 10.328125,-3.84375 h -0.4375 C 9.640625,-2.078125 9.4375,-1.78125 9.34375,-1.640625 9.21875,-1.4375 7.4375,-1.4375 7.09375,-1.4375 H 2.328125 c 0.890625,-0.96875 2.625,-2.71875 4.734375,-4.75 1.515625,-1.4375 3.265625,-3.125 3.265625,-5.578125 C 10.328125,-14.6875 8,-16.375 5.40625,-16.375 c -2.734375,0 -4.390625,2.390625 -4.390625,4.625 0,0.96875 0.71875,1.09375 1.015625,1.09375 0.25,0 0.984375,-0.140625 0.984375,-1.015625 0,-0.765625 -0.640625,-0.984375 -0.984375,-0.984375 -0.140625,0 -0.296875,0.01563 -0.390625,0.0625 0.46875,-2.09375 1.90625,-3.140625 3.421875,-3.140625 2.15625,0 3.5625,1.703125 3.5625,3.96875 0,2.15625 -1.265625,4.015625 -2.671875,5.625 L 1.015625,-0.5625 V 0 h 8.71875 z m 0,0"
   id="path1067" />
      </g>
    </g>
  </g>
  <g
   fill="#000000"
   fill-opacity="1"
   id="g1079"
   transform="matrix(0.352778,0,0,0.352778,-0.286632,-0.00568845)">
    <g
   id="g1077"
   transform="translate(150.909,16.938)">
      <path
   d="m 9.34375,-5.75 h 6.5625 c 0.34375,0 0.765625,0 0.765625,-0.421875 0,-0.4375 -0.390625,-0.4375 -0.765625,-0.4375 H 9.34375 V -13.1875 c 0,-0.34375 0,-0.765625 -0.421875,-0.765625 -0.453125,0 -0.453125,0.390625 -0.453125,0.765625 v 6.578125 h -6.5625 c -0.34375,0 -0.765625,0 -0.765625,0.421875 0,0.4375 0.390625,0.4375 0.765625,0.4375 h 6.5625 v 6.5625 c 0,0.359375 0,0.78125 0.421875,0.78125 0.453125,0 0.453125,-0.40625 0.453125,-0.78125 z m 0,0"
   id="path1075" />
    </g>
  </g>
  <g
   fill="#000000"
   fill-opacity="1"
   id="g1085"
   transform="matrix(0.352778,0,0,0.352778,-0.286632,-0.00568845)">
    <g
   id="g1083"
   transform="translate(174.25999,16.938)">
      <path
   d="M 11.765625,-10.0625 9.4375,-15.484375 c 0.328125,-0.59375 1.0625,-0.703125 1.359375,-0.71875 0.15625,0 0.421875,-0.03125 0.421875,-0.453125 0,-0.265625 -0.21875,-0.265625 -0.359375,-0.265625 -0.421875,0 -0.921875,0.04687 -1.34375,0.04687 h -1.4375 c -1.515625,0 -2.59375,-0.04687 -2.625,-0.04687 -0.203125,0 -0.453125,0 -0.453125,0.46875 0,0.25 0.234375,0.25 0.546875,0.25 1.4375,0 1.546875,0.25 1.78125,0.84375 l 2.953125,6.890625 -5.375,5.75 c -0.890625,0.953125 -1.953125,1.90625 -3.796875,2 C 0.8125,-0.6875 0.625,-0.6875 0.625,-0.25 0.625,-0.171875 0.640625,0 0.921875,0 c 0.34375,0 0.71875,-0.046875 1.0625,-0.046875 h 1.15625 C 3.9375,-0.046875 4.8125,0 5.578125,0 5.75,0 6.046875,0 6.046875,-0.453125 6.046875,-0.6875 5.875,-0.71875 5.71875,-0.71875 5.234375,-0.765625 4.90625,-1.046875 4.90625,-1.4375 c 0,-0.421875 0.296875,-0.71875 1.015625,-1.46875 L 8.125,-5.296875 C 8.671875,-5.875 9.984375,-7.3125 10.53125,-7.859375 l 2.609375,6.09375 c 0.01563,0.0625 0.125,0.296875 0.125,0.328125 0,0.21875 -0.546875,0.671875 -1.34375,0.71875 C 11.765625,-0.71875 11.5,-0.6875 11.5,-0.25 11.5,0 11.75,0 11.875,0 c 0.421875,0 0.90625,-0.046875 1.328125,-0.046875 H 15.9375 C 16.375,-0.046875 16.84375,0 17.265625,0 c 0.1875,0 0.453125,0 0.453125,-0.46875 0,-0.25 -0.25,-0.25 -0.46875,-0.25 C 15.765625,-0.75 15.71875,-0.875 15.296875,-1.78125 l -3.28125,-7.6875 3.15625,-3.375 c 0.234375,-0.234375 0.8125,-0.859375 1.03125,-1.109375 1.0625,-1.109375 2.0625,-2.125 4.0625,-2.25 0.25,-0.03125 0.5,-0.03125 0.5,-0.453125 0,-0.265625 -0.21875,-0.265625 -0.328125,-0.265625 -0.34375,0 -0.71875,0.04687 -1.0625,0.04687 h -1.140625 c -0.78125,0 -1.65625,-0.04687 -2.421875,-0.04687 -0.171875,0 -0.46875,0 -0.46875,0.4375 0,0.25 0.171875,0.28125 0.3125,0.28125 0.40625,0.04687 0.828125,0.25 0.828125,0.71875 l -0.03125,0.04687 c -0.01563,0.171875 -0.07813,0.421875 -0.34375,0.71875 z m 0,0"
   id="path1081" />
    </g>
  </g>
  <g
   clip-path="url(#clipPath756)"
   id="g1093"
   transform="matrix(0.352778,0,0,0.352778,-0.286632,-0.00568845)">
    <g
   fill="#000000"
   fill-opacity="1"
   id="g1091">
      <g
   id="g1089"
   transform="translate(194.403,24.378)">
        <path
   d="m 6.59375,-15.828125 c 0,-0.53125 -0.03125,-0.546875 -0.375,-0.546875 -0.96875,1.15625 -2.421875,1.53125 -3.8125,1.578125 -0.078125,0 -0.203125,0 -0.21875,0.04687 -0.03125,0.0625 -0.03125,0.109375 -0.03125,0.625 0.765625,0 2.0625,-0.15625 3.046875,-0.75 v 13.0625 c 0,0.875 -0.046875,1.171875 -2.1875,1.171875 H 2.28125 V 0 c 1.1875,-0.03125 2.421875,-0.046875 3.609375,-0.046875 1.203125,0 2.4375,0.015625 3.625,0.046875 v -0.640625 h -0.75 c -2.125,0 -2.171875,-0.28125 -2.171875,-1.171875 z m 0,0"
   id="path1087" />
      </g>
    </g>
  </g>
  <g
   fill="#000000"
   fill-opacity="1"
   id="g1099"
   transform="matrix(0.352778,0,0,0.352778,-0.286632,-0.00568845)">
    <g
   id="g1097"
   transform="translate(211.77699,16.938)">
      <path
   d="m 4.765625,-6.1875 c 0,-0.71875 -0.609375,-1.328125 -1.328125,-1.328125 -0.71875,0 -1.3125,0.609375 -1.3125,1.328125 0,0.703125 0.59375,1.3125 1.3125,1.3125 0.71875,0 1.328125,-0.609375 1.328125,-1.3125 z m 0,0"
   id="path1095" />
    </g>
  </g>
  <g
   fill="#000000"
   fill-opacity="1"
   id="g1105"
   transform="matrix(0.352778,0,0,0.352778,-0.286632,-0.00568845)">
    <g
   id="g1103"
   transform="translate(224.17101,16.938)">
      <path
   d="M 11.765625,-10.0625 9.4375,-15.484375 c 0.328125,-0.59375 1.0625,-0.703125 1.359375,-0.71875 0.15625,0 0.421875,-0.03125 0.421875,-0.453125 0,-0.265625 -0.21875,-0.265625 -0.359375,-0.265625 -0.421875,0 -0.921875,0.04687 -1.34375,0.04687 h -1.4375 c -1.515625,0 -2.59375,-0.04687 -2.625,-0.04687 -0.203125,0 -0.453125,0 -0.453125,0.46875 0,0.25 0.234375,0.25 0.546875,0.25 1.4375,0 1.546875,0.25 1.78125,0.84375 l 2.953125,6.890625 -5.375,5.75 c -0.890625,0.953125 -1.953125,1.90625 -3.796875,2 C 0.8125,-0.6875 0.625,-0.6875 0.625,-0.25 0.625,-0.171875 0.640625,0 0.921875,0 c 0.34375,0 0.71875,-0.046875 1.0625,-0.046875 h 1.15625 C 3.9375,-0.046875 4.8125,0 5.578125,0 5.75,0 6.046875,0 6.046875,-0.453125 6.046875,-0.6875 5.875,-0.71875 5.71875,-0.71875 5.234375,-0.765625 4.90625,-1.046875 4.90625,-1.4375 c 0,-0.421875 0.296875,-0.71875 1.015625,-1.46875 L 8.125,-5.296875 C 8.671875,-5.875 9.984375,-7.3125 10.53125,-7.859375 l 2.609375,6.09375 c 0.01563,0.0625 0.125,0.296875 0.125,0.328125 0,0.21875 -0.546875,0.671875 -1.34375,0.71875 C 11.765625,-0.71875 11.5,-0.6875 11.5,-0.25 11.5,0 11.75,0 11.875,0 c 0.421875,0 0.90625,-0.046875 1.328125,-0.046875 H 15.9375 C 16.375,-0.046875 16.84375,0 17.265625,0 c 0.1875,0 0.453125,0 0.453125,-0.46875 0,-0.25 -0.25,-0.25 -0.46875,-0.25 C 15.765625,-0.75 15.71875,-0.875 15.296875,-1.78125 l -3.28125,-7.6875 3.15625,-3.375 c 0.234375,-0.234375 0.8125,-0.859375 1.03125,-1.109375 1.0625,-1.109375 2.0625,-2.125 4.0625,-2.25 0.25,-0.03125 0.5,-0.03125 0.5,-0.453125 0,-0.265625 -0.21875,-0.265625 -0.328125,-0.265625 -0.34375,0 -0.71875,0.04687 -1.0625,0.04687 h -1.140625 c -0.78125,0 -1.65625,-0.04687 -2.421875,-0.04687 -0.171875,0 -0.46875,0 -0.46875,0.4375 0,0.25 0.171875,0.28125 0.3125,0.28125 0.40625,0.04687 0.828125,0.25 0.828125,0.71875 l -0.03125,0.04687 c -0.01563,0.171875 -0.07813,0.421875 -0.34375,0.71875 z m 0,0"
   id="path1101" />
    </g>
  </g>
  <g
   clip-path="url(#clipPath5448)"
   id="g1113"
   transform="matrix(0.352778,0,0,0.352778,-0.286632,-0.00568845)">
    <g
   fill="#000000"
   fill-opacity="1"
   id="g1111">
      <g
   id="g1109"
   transform="translate(244.314,24.378)">
        <path
   d="m 10.328125,-3.84375 h -0.4375 C 9.640625,-2.078125 9.4375,-1.78125 9.34375,-1.640625 9.21875,-1.4375 7.4375,-1.4375 7.09375,-1.4375 H 2.328125 c 0.890625,-0.96875 2.625,-2.71875 4.734375,-4.75 1.515625,-1.4375 3.265625,-3.125 3.265625,-5.578125 C 10.328125,-14.6875 8,-16.375 5.40625,-16.375 c -2.734375,0 -4.390625,2.390625 -4.390625,4.625 0,0.96875 0.71875,1.09375 1.015625,1.09375 0.25,0 0.984375,-0.140625 0.984375,-1.015625 0,-0.765625 -0.640625,-0.984375 -0.984375,-0.984375 -0.140625,0 -0.296875,0.01563 -0.390625,0.0625 0.46875,-2.09375 1.90625,-3.140625 3.421875,-3.140625 2.15625,0 3.5625,1.703125 3.5625,3.96875 0,2.15625 -1.265625,4.015625 -2.671875,5.625 L 1.015625,-0.5625 V 0 h 8.71875 z m 0,0"
   id="path1107" />
      </g>
    </g>
  </g>
  <g
   fill="#000000"
   fill-opacity="1"
   id="g1119"
   transform="matrix(0.352778,0,0,0.352778,-0.286632,-0.00568845)">
    <g
   id="g1117"
   transform="translate(261.68799,16.938)">
      <path
   d="m 9.34375,-5.75 h 6.5625 c 0.34375,0 0.765625,0 0.765625,-0.421875 0,-0.4375 -0.390625,-0.4375 -0.765625,-0.4375 H 9.34375 V -13.1875 c 0,-0.34375 0,-0.765625 -0.421875,-0.765625 -0.453125,0 -0.453125,0.390625 -0.453125,0.765625 v 6.578125 h -6.5625 c -0.34375,0 -0.765625,0 -0.765625,0.421875 0,0.4375 0.390625,0.4375 0.765625,0.4375 h 6.5625 v 6.5625 c 0,0.359375 0,0.78125 0.421875,0.78125 0.453125,0 0.453125,-0.40625 0.453125,-0.78125 z m 0,0"
   id="path1115" />
    </g>
  </g>
  <g
   clip-path="url(#clipPath9683)"
   id="g1127"
   transform="matrix(0.352778,0,0,0.352778,-0.286632,-0.00568845)">
    <g
   fill="#000000"
   fill-opacity="1"
   id="g1125">
      <g
   id="g1123"
   transform="translate(285.039,16.938)">
        <path
   d="M 7.21875,-5.625 C 7.578125,-5.625 8,-5.625 8,-6.015625 8,-6.34375 7.75,-6.34375 7.3125,-6.34375 H 3.296875 c 0.625,-2.25 2.078125,-3.625 4.28125,-3.625 h 0.71875 c 0.421875,0 0.796875,0 0.796875,-0.390625 0,-0.328125 -0.265625,-0.328125 -0.71875,-0.328125 H 7.53125 c -3.046875,0 -6.390625,2.4375 -6.390625,6.328125 0,2.75 1.859375,4.609375 4.3125,4.609375 1.578125,0 3.140625,-1 3.140625,-1.234375 0,-0.15625 -0.0625,-0.296875 -0.21875,-0.296875 -0.078125,0 -0.125,0.015625 -0.25,0.109375 C 7.1875,-0.546875 6.265625,-0.25 5.53125,-0.25 c -1.3125,0 -2.703125,-0.859375 -2.703125,-3.265625 0,-0.46875 0.046875,-1.125 0.265625,-2.109375 z m 0,0"
   id="path1121" />
      </g>
    </g>
  </g>
</g></g></svg>
