<?xml version="1.0" encoding="UTF-8" standalone="no"?>
<!-- Created with Inkscape (http://www.inkscape.org/) -->

<svg
   width="878.48096"
   height="517.07111"
   viewBox="0 0 232.4314 136.80839"
   version="1.1"
   id="svg5"
   inkscape:version="1.3.2 (091e20e, 2023-11-25, custom)"
   sodipodi:docname="top_down_bottom_up.svg"
   xml:space="preserve"
   inkscape:export-filename="002_ProductionStatistics.png"
   inkscape:export-xdpi="96"
   inkscape:export-ydpi="96"
   xmlns:inkscape="http://www.inkscape.org/namespaces/inkscape"
   xmlns:sodipodi="http://sodipodi.sourceforge.net/DTD/sodipodi-0.dtd"
   xmlns:xlink="http://www.w3.org/1999/xlink"
   xmlns="http://www.w3.org/2000/svg"
   xmlns:svg="http://www.w3.org/2000/svg"><sodipodi:namedview
     id="namedview7"
     pagecolor="#ffffff"
     bordercolor="#666666"
     borderopacity="1.0"
     inkscape:showpageshadow="2"
     inkscape:pageopacity="0.0"
     inkscape:pagecheckerboard="0"
     inkscape:deskcolor="#d1d1d1"
     inkscape:document-units="mm"
     showgrid="false"
     inkscape:zoom="1.0255231"
     inkscape:cx="448.55157"
     inkscape:cy="322.27455"
     inkscape:window-width="1920"
     inkscape:window-height="1017"
     inkscape:window-x="3832"
     inkscape:window-y="1300"
     inkscape:window-maximized="1"
     inkscape:current-layer="svg5" /><defs
     id="defs2"><inkscape:path-effect
   effect="bspline"
   id="path-effect1841"
   is_visible="true"
   lpeversion="1"
   weight="33.333333"
   steps="2"
   helper_size="0"
   apply_no_weight="true"
   apply_with_weight="true"
   only_selected="false"
   uniform="false" /><inkscape:path-effect
   effect="bspline"
   id="path-effect1811"
   is_visible="true"
   lpeversion="1"
   weight="33.333333"
   steps="2"
   helper_size="0"
   apply_no_weight="true"
   apply_with_weight="true"
   only_selected="false"
   uniform="false" /><linearGradient
   id="linearGradient6703"><stop
     style="stop-color:#000000;stop-opacity:1.0000000;"
     offset="0.0000000"
     id="stop6704" /><stop
     style="stop-color:#7f7f7f;stop-opacity:1.0000000;"
     offset="0.50000000"
     id="stop6705" /><stop
     style="stop-color:#ffffff;stop-opacity:1.0000000;"
     offset="1.0000000"
     id="stop6706" /></linearGradient><linearGradient
   id="linearGradient879"><stop
     style="stop-color:#c3c3c3;stop-opacity:0.54918033;"
     offset="0.0000000"
     id="stop880" /><stop
     style="stop-color:#d4e1e4;stop-opacity:1.0000000;"
     offset="0.50000000"
     id="stop884" /><stop
     style="stop-color:#ddf0f0;stop-opacity:0.59016395;"
     offset="1.0000000"
     id="stop881" /></linearGradient><linearGradient
   x1="1453.8076"
   y1="384.45895"
   x2="1583.5951"
   y2="383.24872"
   id="linearGradient882"
   xlink:href="#linearGradient879"
   gradientTransform="scale(0.55994156,1.7859006)"
   gradientUnits="userSpaceOnUse" /><linearGradient
   x1="568.58307"
   y1="1189.8646"
   x2="567.13934"
   y2="1038.1013"
   id="linearGradient883"
   xlink:href="#linearGradient879"
   spreadMethod="pad"
   gradientTransform="scale(1.4640424,0.68304032)"
   gradientUnits="userSpaceOnUse" /><clipPath
   id="clip0_525_147"><rect
     width="24"
     height="24"
     fill="#ffffff"
     id="rect26341"
     x="0"
     y="0" /></clipPath><style
   id="style4881">.cls-1{fill:none;stroke:#020202;stroke-miterlimit:10;stroke-width:1.91px;}</style><clipPath
   clipPathUnits="userSpaceOnUse"
   id="clipPath2471"><path
     d="M 0,0 H 56.693 V 272.126 H 0 Z"
     id="path2469" /></clipPath><linearGradient
   x1="0"
   y1="0"
   x2="0"
   y2="272.12964"
   gradientUnits="userSpaceOnUse"
   id="linearGradient2477"
   gradientTransform="matrix(2.3384702,0,0,2.3384702,753.59705,-989.93593)"><stop
     style="stop-opacity:1;stop-color:#ebebf7"
     offset="0"
     id="stop2473" /><stop
     style="stop-opacity:1;stop-color:#ccccec"
     offset="1"
     id="stop2475" /></linearGradient><clipPath
   clipPathUnits="userSpaceOnUse"
   id="clipPath2719"><path
     d="m -17.00807,-24.09476 v 9.92137 h 34.01614 v -9.92137 z"
     id="path2717" /></clipPath><clipPath
   clipPathUnits="userSpaceOnUse"
   id="clipPath2743"><path
     d="m 209.76639,-26.92943 v 9.92137 h 34.01616 v -9.92137 z"
     id="path2741" /></clipPath><clipPath
   clipPathUnits="userSpaceOnUse"
   id="clipPath3023"><path
     d="m -17.00807,-24.09476 v 9.92137 h 34.01614 v -9.92137 z"
     id="path3021" /></clipPath><clipPath
   clipPathUnits="userSpaceOnUse"
   id="clipPath3043"><path
     d="m 209.76639,-24.09476 v 9.92137 h 34.01616 v -9.92137 z"
     id="path3041" /></clipPath><clipPath
   clipPathUnits="userSpaceOnUse"
   id="clipPath9141"><path
     d="m -17.00807,-24.09476 v 9.92137 h 34.01614 v -9.92137 z"
     id="path9139" /></clipPath><clipPath
   clipPathUnits="userSpaceOnUse"
   id="clipPath9165"><path
     d="m 209.76639,-26.92943 v 9.92137 h 34.01616 v -9.92137 z"
     id="path9163" /></clipPath><clipPath
   clipPathUnits="userSpaceOnUse"
   id="clipPath11751"><g
     id="g11755"><path
       d="m 753.59705,-989.93593 h 132.57489 v 636.35854 H 753.59705 Z"
       id="path11753"
       style="stroke-width:2.33847" /></g></clipPath><inkscape:path-effect
   effect="bspline"
   id="path-effect638"
   is_visible="true"
   lpeversion="1"
   weight="33.333333"
   steps="2"
   helper_size="0"
   apply_no_weight="true"
   apply_with_weight="true"
   only_selected="false"
   uniform="false" /><inkscape:path-effect
   effect="bspline"
   id="path-effect638-2"
   is_visible="true"
   lpeversion="1"
   weight="33.333333"
   steps="2"
   helper_size="0"
   apply_no_weight="true"
   apply_with_weight="true"
   only_selected="false"
   uniform="false" /><inkscape:path-effect
   effect="bspline"
   id="path-effect1867"
   is_visible="true"
   lpeversion="1"
   weight="33.333333"
   steps="2"
   helper_size="0"
   apply_no_weight="true"
   apply_with_weight="true"
   only_selected="false"
   uniform="false" /><inkscape:path-effect
   effect="bspline"
   id="path-effect1883"
   is_visible="true"
   lpeversion="1"
   weight="33.333333"
   steps="2"
   helper_size="0"
   apply_no_weight="true"
   apply_with_weight="true"
   only_selected="false"
   uniform="false" /><inkscape:path-effect
   effect="bspline"
   id="path-effect1899"
   is_visible="true"
   lpeversion="1"
   weight="33.333333"
   steps="2"
   helper_size="0"
   apply_no_weight="true"
   apply_with_weight="true"
   only_selected="false"
   uniform="false" /><inkscape:path-effect
   effect="bspline"
   id="path-effect1915"
   is_visible="true"
   lpeversion="1"
   weight="33.333333"
   steps="2"
   helper_size="0"
   apply_no_weight="true"
   apply_with_weight="true"
   only_selected="false"
   uniform="false" /><clipPath
   id="clipPath4348">
      <path
   clip-rule="nonzero"
   d="M 81,2 H 97 V 18.511719 H 81 Z m 0,0"
   id="path5274" />
    </clipPath><inkscape:path-effect
   effect="bspline"
   id="path-effect1811-0"
   is_visible="true"
   lpeversion="1"
   weight="33.333333"
   steps="2"
   helper_size="0"
   apply_no_weight="true"
   apply_with_weight="true"
   only_selected="false"
   uniform="false" /><inkscape:path-effect
   effect="bspline"
   id="path-effect1841-0"
   is_visible="true"
   lpeversion="1"
   weight="33.333333"
   steps="2"
   helper_size="0"
   apply_no_weight="true"
   apply_with_weight="true"
   only_selected="false"
   uniform="false" /><inkscape:path-effect
   effect="bspline"
   id="path-effect1841-0-0"
   is_visible="true"
   lpeversion="1"
   weight="33.333333"
   steps="2"
   helper_size="0"
   apply_no_weight="true"
   apply_with_weight="true"
   only_selected="false"
   uniform="false" /><style
   id="style1">.cls-1{fill:none;stroke:#020202;stroke-miterlimit:10;stroke-width:1.91px;}</style><style
   id="style1-6">.cls-1{fill:#ffffff;}</style>
	
	
	

	
	
	

	
	
	

	
	
	

	
	
	

	
	
	

	
	
	

	
	
	

	
	
	

	

		
	
			
			
			
			
			
			
			
			
			
			
			
			
			
		</defs><g
     id="Cathedral"
     transform="matrix(0.73728,0,0,0.73728,27.60583,0)"><path
       d="m 60.152101,57.745125 h 1.356903 v 1.356904 c 0,0.748976 0.607927,1.356903 1.356904,1.356903 0.748976,0 1.356903,-0.607927 1.356903,-1.356903 v -1.356904 h 13.569672 v 1.356904 c 0,0.748976 0.607927,1.356903 1.356904,1.356903 0.748976,0 1.356903,-0.607927 1.356903,-1.356903 v -1.356904 h 1.356904 c 0.748976,0 1.356903,-0.607927 1.356903,-1.356903 0,-0.748977 -0.607768,-1.357063 -1.356744,-1.357063 H 60.152101 c -0.748977,0 -1.356904,0.607927 -1.356904,1.356904 0,0.748976 0.607768,1.357062 1.356904,1.357062 z"
       id="path1"
       style="fill:#000000;stroke-width:0.159018" /><path
       d="M 34.369819,69.957734 V 80.81344 c 0,0.748977 0.607928,1.356904 1.356904,1.356904 0.748976,0 1.356904,-0.607927 1.356904,-1.356904 V 69.957734 c 0,-0.748976 -0.607928,-1.356903 -1.356904,-1.356903 -0.748976,-1.59e-4 -1.356904,0.607768 -1.356904,1.356903 z"
       id="path2"
       style="fill:#000000;stroke-width:0.159018" /><path
       d="M 24.871176,65.886865 H 26.22808 V 80.81344 c 0,0.748977 0.607927,1.356904 1.356903,1.356904 0.748977,0 1.356904,-0.607927 1.356904,-1.356904 V 65.886865 H 42.5114 V 80.81344 c 0,0.748977 0.607927,1.356904 1.356903,1.356904 0.748977,0 1.356904,-0.607927 1.356904,-1.356904 V 65.886865 h 1.356904 c 0.748976,0 1.356903,-0.607927 1.356903,-1.356904 0,-0.748976 -0.607927,-1.356903 -1.356903,-1.356903 H 24.871176 c -0.748976,0 -1.356903,0.607927 -1.356903,1.356903 0,0.748977 0.607927,1.356904 1.356903,1.356904 z"
       id="path3"
       style="fill:#000000;stroke-width:0.159018" /><path
       d="m 60.152101,65.886865 h 1.356903 V 80.81344 c 0,0.748977 0.607927,1.356904 1.356904,1.356904 0.748976,0 1.356903,-0.607927 1.356903,-1.356904 V 65.886865 H 77.792483 V 80.81344 c 0,0.748977 0.607927,1.356904 1.356904,1.356904 0.748976,0 1.356903,-0.607927 1.356903,-1.356904 V 65.886865 h 1.356904 c 0.748976,0 1.356903,-0.607927 1.356903,-1.356904 0,-0.748976 -0.607768,-1.357062 -1.356744,-1.357062 H 60.152101 c -0.748977,0 -1.356904,0.607927 -1.356904,1.356903 0,0.748977 0.607768,1.357063 1.356904,1.357063 z"
       id="path4"
       style="fill:#000000;stroke-width:0.159018" /><path
       d="M 69.650744,69.957734 V 80.81344 c 0,0.748977 0.607927,1.356904 1.356903,1.356904 0.748977,0 1.356904,-0.607927 1.356904,-1.356904 V 69.957734 c 0,-0.748976 -0.607927,-1.356903 -1.356904,-1.356903 -0.748976,0 -1.356903,0.607768 -1.356903,1.356903 z"
       id="path5"
       style="fill:#000000;stroke-width:0.159018" /><path
       d="m 24.871176,57.745125 h 1.356904 v 1.356904 c 0,0.748976 0.607927,1.356903 1.356903,1.356903 0.748977,0 1.356904,-0.607927 1.356904,-1.356903 V 57.745125 H 42.5114 v 1.356904 c 0,0.748976 0.607927,1.356903 1.356903,1.356903 0.748977,0 1.357222,-0.607927 1.357222,-1.356903 v -1.356904 h 1.356904 c 0.748976,0 1.356903,-0.607927 1.356903,-1.356903 0,-0.748977 -0.607768,-1.357063 -1.356903,-1.357063 H 24.871176 c -0.748976,0 -1.356903,0.607927 -1.356903,1.356904 0,0.748976 0.607927,1.357062 1.356903,1.357062 z"
       id="path6"
       style="fill:#000000;stroke-width:0.159018" /><path
       d="m 35.726882,105.2385 v 8.14174 c 0,0.74898 0.607927,1.3569 1.356904,1.3569 0.748976,0 1.356903,-0.60792 1.356903,-1.3569 v -8.14174 c 0,-0.74898 -0.607927,-1.3569 -1.356903,-1.3569 -0.748977,0 -1.356904,0.60792 -1.356904,1.3569 z"
       id="path7"
       style="fill:#000000;stroke-width:0.159018" /><path
       d="m 47.939491,109.30937 c 0,2.99352 2.434412,5.42777 5.427774,5.42777 2.99352,0 5.427773,-2.43441 5.427773,-5.42777 0,-2.99352 -2.434412,-5.42777 -5.427773,-5.42777 -2.993521,0 -5.427774,2.43441 -5.427774,5.42777 z m 8.14174,0 c 0,1.49668 -1.217127,2.71397 -2.713966,2.71397 -1.496681,0 -2.713967,-1.21713 -2.713967,-2.71397 0,-1.49668 1.217127,-2.71397 2.713967,-2.71397 1.49668,1.6e-4 2.713966,1.21729 2.713966,2.71397 z"
       id="path8"
       style="fill:#000000;stroke-width:0.159018" /><path
       d="m 30.29895,105.2385 v 8.14174 c 0,0.74898 0.607927,1.3569 1.356903,1.3569 0.748977,0 1.356904,-0.60792 1.356904,-1.3569 v -8.14174 c 0,-0.74898 -0.607927,-1.3569 -1.356904,-1.3569 -0.748976,0 -1.356903,0.60792 -1.356903,1.3569 z"
       id="path9"
       style="fill:#000000;stroke-width:0.159018" /><path
       d="M 92.719059,133.73459 H 83.220416 V 105.2385 c 0,-0.74898 -0.607928,-1.3569 -1.356904,-1.3569 -0.748976,0 -1.356904,0.60792 -1.356904,1.3569 v 28.49609 h -4.070869 v -6.78484 c 0,-3.27562 -1.724713,-5.00176 -3.111512,-6.38713 -0.530645,-0.53064 -1.388231,-0.53064 -1.918716,0 -1.386799,1.38553 -3.111512,3.11151 -3.111512,6.38713 v 6.78484 h -4.07087 V 105.2385 c 0,-0.74898 -0.607927,-1.3569 -1.356903,-1.3569 -0.748977,0 -1.356904,0.60792 -1.356904,1.3569 v 28.49609 h -4.07087 v -6.78484 c 0,-3.27562 -1.724713,-5.00176 -3.111512,-6.38713 -0.530644,-0.53064 -1.38823,-0.53064 -1.918715,0 -1.386799,1.38553 -3.111512,3.11151 -3.111512,6.38713 v 6.78484 h -4.07087 V 105.2385 c 0,-0.74898 -0.607927,-1.3569 -1.356903,-1.3569 -0.748977,0 -1.356904,0.60792 -1.356904,1.3569 v 28.49609 h -4.07087 v -6.78484 c 0,-3.27562 -1.724713,-5.00176 -3.111512,-6.38713 -0.530644,-0.53064 -1.38823,-0.53064 -1.918715,0 -1.386799,1.38553 -3.111512,3.11151 -3.111512,6.38713 v 6.78484 h -4.07087 V 105.2385 c 0,-0.74898 -0.607927,-1.3569 -1.356904,-1.3569 -0.748976,0 -1.356903,0.60792 -1.356903,1.3569 v 28.49609 h -9.499279 c -0.748977,0 -1.356904,0.60793 -1.356904,1.3569 0,0.74898 0.607927,1.35706 1.356904,1.35706 H 92.7189 c 0.748976,0 1.356903,-0.60792 1.356903,-1.3569 0,-0.74898 -0.607768,-1.35706 -1.356744,-1.35706 z m -56.992177,0 h -2.713966 v -6.78484 c 0,-1.5808 0.550998,-2.55113 1.356903,-3.46835 0.806064,0.91722 1.356904,1.88755 1.356904,3.46835 v 6.78484 z m 18.997286,0 h -2.713966 v -6.78484 c 0,-1.5808 0.550999,-2.55113 1.356904,-3.46835 0.806064,0.91722 1.356903,1.88755 1.356903,3.46835 v 6.78484 z m 18.997445,0 h -2.713966 v -6.78484 c 0,-1.5808 0.550999,-2.55113 1.356904,-3.46835 0.806064,0.91722 1.356903,1.88755 1.356903,3.46835 v 6.78484 z"
       id="path10"
       style="fill:#000000;stroke-width:0.159018" /><path
       d="m 68.29384,105.2385 v 8.14174 c 0,0.74898 0.607927,1.3569 1.356904,1.3569 0.748976,0 1.356903,-0.60792 1.356903,-1.3569 v -8.14174 c 0,-0.74898 -0.607927,-1.3569 -1.356903,-1.3569 -0.748977,0 -1.356904,0.60792 -1.356904,1.3569 z"
       id="path11"
       style="fill:#000000;stroke-width:0.159018" /><path
       d="m 22.15721,101.16763 h 62.41995 c 0.748977,0 1.356904,-0.60793 1.356904,-1.356904 0,-0.748976 -0.607927,-1.356903 -1.356904,-1.356903 h -1.356903 v -12.21261 c 0,-0.748976 -0.607928,-1.356903 -1.356904,-1.356903 H 24.871176 c -0.748976,0 -1.356903,0.607927 -1.356903,1.356903 v 12.21261 h -1.356904 c -0.748976,0 -1.356903,0.607927 -1.356903,1.356903 0,0.748974 0.607768,1.356904 1.356744,1.356904 z M 64.22297,87.598117 H 80.506449 V 98.453823 H 76.43558 v -6.784836 c 0,-0.748977 -0.607928,-1.356904 -1.356904,-1.356904 -0.748976,0 -1.356904,0.607927 -1.356904,1.356904 v 6.784836 h -2.713966 v -6.784836 c 0,-0.748977 -0.607927,-1.356904 -1.356903,-1.356904 -0.748977,0 -1.356904,0.607927 -1.356904,1.356904 v 6.784836 h -4.07087 V 87.598117 Z m -18.997445,0 h 16.283479 v 10.855706 h -4.07087 v -6.784836 c 0,-0.748977 -0.607927,-1.356904 -1.356903,-1.356904 -0.748977,0 -1.356904,0.607927 -1.356904,1.356904 v 6.784836 h -2.713966 v -6.784836 c 0,-0.748977 -0.607927,-1.356904 -1.356904,-1.356904 -0.748976,0 -1.356903,0.607927 -1.356903,1.356904 v 6.784836 h -4.07087 V 87.598117 Z m -18.997445,0 h 16.283479 v 10.855706 h -4.07087 v -6.784836 c 0,-0.748977 -0.607927,-1.356904 -1.356903,-1.356904 -0.748977,0 -1.356904,0.607927 -1.356904,1.356904 v 6.784836 h -2.713966 v -6.784836 c 0,-0.748977 -0.607927,-1.356904 -1.356904,-1.356904 -0.748976,0 -1.356903,0.607927 -1.356903,1.356904 v 6.784836 h -4.07087 V 87.598117 Z"
       id="path12"
       style="fill:#000000;stroke-width:0.159018" /><path
       d="m 73.721613,105.2385 v 8.14174 c 0,0.74898 0.607928,1.3569 1.356904,1.3569 0.748976,0 1.356904,-0.60792 1.356904,-1.3569 v -8.14174 c 0,-0.74898 -0.607928,-1.3569 -1.356904,-1.3569 -0.748976,0 -1.356904,0.60792 -1.356904,1.3569 z"
       id="path13"
       style="fill:#000000;stroke-width:0.159018" /></g><g
     id="Bishop"
     transform="matrix(0.73728,0,0,0.73728,27.60583,0)"><path
       d="m 50.210718,30.247398 c 3.742149,0 6.786636,-3.044486 6.786636,-6.786701 v -9.114026 l -6.786636,-3.283849 -6.786701,3.283849 v 9.114092 c 0,3.742149 3.044553,6.786635 6.786701,6.786635 z m 0,-16.247112 4.142475,2.004473 v 4.627744 h -8.285015 v -4.627811 z m -4.138376,9.276311 h 8.276752 c 0.0028,0.06135 0.0042,0.122756 0.0042,0.184166 0,2.284158 -1.858316,4.142541 -4.142475,4.142541 -2.284224,0 -4.14254,-1.858316 -4.14254,-4.142541 -6.6e-5,-0.06141 0.0013,-0.122821 0.0041,-0.184166 z"
       id="path1-3"
       style="fill:#000000;stroke-width:0.066104" /><polygon
       points="387.859,310.718 387.859,497.218 427.859,497.218 427.859,310.718 465.359,310.718 465.359,270.718 427.859,270.718 427.859,230.718 387.859,230.718 387.859,270.718 350.359,270.718 350.359,310.718 "
       id="polygon1"
       transform="matrix(0.06610402,0,0,0.06610402,36.933131,11.062822)"
       style="fill:#000000" /><path
       d="m 50.210718,31.437271 c -6.160035,0 -11.171579,5.011544 -11.171579,11.171579 v 1.322081 H 61.382298 V 42.60885 c 0,-6.160035 -5.011544,-11.171579 -11.17158,-11.171579 z m -8.425089,9.849499 c 0.637044,-4.076701 4.172486,-7.205338 8.425089,-7.205338 4.252604,0 7.788045,3.128637 8.42509,7.205338 z"
       id="path2-8"
       style="fill:#000000;stroke-width:0.066104" /></g><path
     d="m 168.98509,110.76675 v -2.16339 l 1.00026,1.66934 c 0.11806,0.19743 0.32726,0.30676 0.54186,0.30676 0.11002,0 0.222,-0.0289 0.32362,-0.0899 0.29865,-0.17923 0.39586,-0.56644 0.21654,-0.86539 l -2.01063,-3.35609 c -0.12446,-0.20824 -0.3505,-0.31113 -0.57685,-0.29833 -0.015,-0.002 -2.32959,-0.002 -2.3437,-7.1e-4 -0.22938,-0.0158 -0.45878,0.0881 -0.58522,0.29904 l -2.01068,3.35609 c -0.17928,0.29895 -0.0822,0.68616 0.21658,0.86539 0.10161,0.061 0.21362,0.0899 0.32362,0.0899 0.2146,0 0.4238,-0.10933 0.54186,-0.30676 l 1.00666,-1.68005 v 2.1741 z"
     id="path1-2-4"
     sodipodi:nodetypes="cccsccccccccscccc"
     style="fill:#000000;stroke-width:0.0423925" /><path
     d="m 167.30364,102.42437 c -0.72555,0 -1.31447,0.67306 -1.31447,1.50383 0,0.83008 0.58892,1.50378 1.31447,1.50378 0.72617,0 1.31481,-0.6737 1.31481,-1.50378 -5e-5,-0.83077 -0.58864,-1.50383 -1.31481,-1.50383 z"
     id="path2-6-1"
     style="fill:#000000;stroke-width:0.0423925" /><path
     d="m 177.57877,110.76675 v -2.16339 l 1.00025,1.66934 c 0.11806,0.19743 0.32727,0.30676 0.54187,0.30676 0.11001,0 0.222,-0.0289 0.32362,-0.0899 0.29866,-0.17923 0.39586,-0.56644 0.21654,-0.86539 l -2.01064,-3.35609 c -0.12446,-0.20824 -0.35049,-0.31113 -0.57684,-0.29833 -0.015,-0.002 -2.32959,-0.002 -2.3437,-7.1e-4 -0.22939,-0.0158 -0.45878,0.0881 -0.58524,0.29904 l -2.01066,3.35609 c -0.17929,0.29895 -0.0822,0.68616 0.21658,0.86539 0.10161,0.061 0.21362,0.0899 0.32362,0.0899 0.2146,0 0.4238,-0.10933 0.54186,-0.30676 l 1.00665,-1.68005 v 2.1741 z"
     id="path1-2-4-5"
     sodipodi:nodetypes="cccsccccccccscccc"
     style="fill:#000000;stroke-width:0.0423925" /><path
     d="m 175.89732,102.42437 c -0.72555,0 -1.31447,0.67306 -1.31447,1.50383 0,0.83008 0.58892,1.50378 1.31447,1.50378 0.72618,0 1.31481,-0.6737 1.31481,-1.50378 -4e-5,-0.83077 -0.58863,-1.50383 -1.31481,-1.50383 z"
     id="path2-6-1-8"
     style="fill:#000000;stroke-width:0.0423925" /><path
     d="m 186.17243,110.76675 v -2.16339 l 1.00026,1.66934 c 0.11806,0.19743 0.32728,0.30676 0.54185,0.30676 0.11002,0 0.22203,-0.0289 0.32364,-0.0899 0.29866,-0.17923 0.39586,-0.56644 0.21654,-0.86539 l -2.01063,-3.35609 c -0.12446,-0.20824 -0.35052,-0.31113 -0.57684,-0.29833 -0.015,-0.002 -2.3296,-0.002 -2.34372,-7.1e-4 -0.22938,-0.0158 -0.45876,0.0881 -0.58522,0.29904 l -2.01067,3.35609 c -0.17928,0.29895 -0.0822,0.68616 0.21658,0.86539 0.10161,0.061 0.2136,0.0899 0.32362,0.0899 0.2146,0 0.4238,-0.10933 0.54185,-0.30676 l 1.00665,-1.68005 v 2.1741 z"
     id="path1-2-4-2"
     sodipodi:nodetypes="cccsccccccccscccc"
     style="fill:#000000;stroke-width:0.0423925" /><path
     d="m 184.49099,102.42437 c -0.72555,0 -1.31447,0.67306 -1.31447,1.50383 0,0.83008 0.58892,1.50378 1.31447,1.50378 0.72618,0 1.31479,-0.6737 1.31479,-1.50378 -3e-5,-0.83077 -0.58861,-1.50383 -1.31479,-1.50383 z"
     id="path2-6-1-4"
     style="fill:#000000;stroke-width:0.0423925" /><path
     d="m 194.76612,110.76675 v -2.16339 l 1.00025,1.66934 c 0.11807,0.19743 0.32728,0.30676 0.54186,0.30676 0.11002,0 0.222,-0.0289 0.32363,-0.0899 0.29863,-0.17923 0.39586,-0.56644 0.21654,-0.86539 l -2.01063,-3.35609 c -0.12447,-0.20824 -0.35052,-0.31113 -0.57684,-0.29833 -0.015,-0.002 -2.3296,-0.002 -2.34372,-7.1e-4 -0.22938,-0.0158 -0.45877,0.0881 -0.58522,0.29904 l -2.01069,3.35609 c -0.17928,0.29895 -0.0822,0.68616 0.2166,0.86539 0.10161,0.061 0.21361,0.0899 0.32362,0.0899 0.2146,0 0.4238,-0.10933 0.54185,-0.30676 l 1.00665,-1.68005 v 2.1741 z"
     id="path1-2-4-9"
     sodipodi:nodetypes="cccsccccccccscccc"
     style="fill:#000000;stroke-width:0.0423925" /><path
     d="m 193.08466,102.42437 c -0.72555,0 -1.31446,0.67306 -1.31446,1.50383 0,0.83008 0.58891,1.50378 1.31446,1.50378 0.72618,0 1.3148,-0.6737 1.3148,-1.50378 -5e-5,-0.83077 -0.58862,-1.50383 -1.3148,-1.50383 z"
     id="path2-6-1-6"
     style="fill:#000000;stroke-width:0.0423925" /><path
     d="m 203.3598,110.76675 v -2.16339 l 1.00026,1.66934 c 0.11805,0.19743 0.32727,0.30676 0.54185,0.30676 0.11002,0 0.22202,-0.0289 0.32364,-0.0899 0.29863,-0.17923 0.39586,-0.56644 0.21653,-0.86539 l -2.01063,-3.35609 c -0.12447,-0.20824 -0.35052,-0.31113 -0.57684,-0.29833 -0.015,-0.002 -2.3296,-0.002 -2.34371,-7.1e-4 -0.22939,-0.0158 -0.45877,0.0881 -0.58523,0.29904 l -2.01067,3.35609 c -0.17928,0.29895 -0.0822,0.68616 0.21657,0.86539 0.1016,0.061 0.21362,0.0899 0.32363,0.0899 0.21458,0 0.42379,-0.10933 0.54185,-0.30676 l 1.00667,-1.68005 v 2.1741 z"
     id="path1-2-4-4"
     sodipodi:nodetypes="cccsccccccccscccc"
     style="fill:#000000;stroke-width:0.0423925" /><path
     d="m 201.67835,102.42437 c -0.72555,0 -1.31447,0.67306 -1.31447,1.50383 0,0.83008 0.58892,1.50378 1.31447,1.50378 0.72618,0 1.31481,-0.6737 1.31481,-1.50378 -5e-5,-0.83077 -0.58863,-1.50383 -1.31481,-1.50383 z"
     id="path2-6-1-7"
     style="fill:#000000;stroke-width:0.0423925" /><g
     id="Merchant"
     transform="matrix(0.73728,0,0,0.73728,27.60583,0)"><path
       d="m 250.0375,150.23701 v -2.93427 l 1.35668,2.26418 c 0.16013,0.26777 0.44389,0.41606 0.73494,0.41606 0.14921,0 0.30112,-0.0393 0.43895,-0.12184 0.40507,-0.2431 0.53692,-0.76829 0.2937,-1.17377 l -2.7271,-4.55199 c -0.16881,-0.28243 -0.4754,-0.42198 -0.78238,-0.40462 -0.0205,-0.002 -3.15972,-0.002 -3.17886,-9.7e-4 -0.31113,-0.0214 -0.62225,0.11954 -0.79377,0.40559 l -2.72715,4.55199 c -0.24317,0.40548 -0.11138,0.93067 0.29376,1.17377 0.13782,0.0826 0.28973,0.12184 0.43894,0.12184 0.29106,0 0.57481,-0.14829 0.73494,-0.41606 l 1.36536,-2.27872 v 2.94881 z"
       id="path1-2-4-46"
       sodipodi:nodetypes="cccsccccccccscccc"
       style="fill:#000000;stroke-width:0.0574985" /><path
       d="m 247.75688,138.92193 c -0.98409,0 -1.78286,0.91291 -1.78286,2.03971 0,1.12587 0.79877,2.03964 1.78286,2.03964 0.98495,0 1.78332,-0.91377 1.78332,-2.03964 -6e-5,-1.1268 -0.79837,-2.03971 -1.78332,-2.03971 z"
       id="path2-6-1-3"
       style="fill:#000000;stroke-width:0.0574985" /></g><path
     d="m 220.54716,110.76675 v -2.16339 l 1.00024,1.66934 c 0.11806,0.19743 0.32728,0.30676 0.54185,0.30676 0.11002,0 0.22202,-0.0289 0.32364,-0.0899 0.29865,-0.17923 0.39587,-0.56644 0.21654,-0.86539 l -2.01062,-3.35609 c -0.12447,-0.20824 -0.35052,-0.31113 -0.57684,-0.29833 -0.015,-0.002 -2.3296,-0.002 -2.34372,-7.1e-4 -0.22939,-0.0158 -0.45877,0.0881 -0.58524,0.29904 l -2.01067,3.35609 c -0.17928,0.29895 -0.0822,0.68616 0.21659,0.86539 0.1016,0.061 0.21362,0.0899 0.32362,0.0899 0.21459,0 0.4238,-0.10933 0.54187,-0.30676 l 1.00663,-1.68005 v 2.1741 z"
     id="path1-2-4-41"
     sodipodi:nodetypes="cccsccccccccscccc"
     style="fill:#000000;stroke-width:0.0423925" /><path
     d="m 218.8657,102.42437 c -0.72554,0 -1.31447,0.67306 -1.31447,1.50383 0,0.83008 0.58893,1.50378 1.31447,1.50378 0.72618,0 1.3148,-0.6737 1.3148,-1.50378 -3e-5,-0.83077 -0.58862,-1.50383 -1.3148,-1.50383 z"
     id="path2-6-1-83"
     style="fill:#000000;stroke-width:0.0423925" /><g
     id="SingleMarket"
     transform="matrix(0.73728,0,0,0.73728,27.60583,0)"><path
       d="m 238.4778,83.5208 h -0.5083 V 71.00416 h -4.2e-4 c -0.62441,0 -1.2156,-0.203799 -1.70753,-0.546959 -0.33128,0.232942 -0.71262,0.405116 -1.13443,0.489188 -0.19357,0.03855 -0.39028,0.05777 -0.58504,0.05777 -0.12913,0 -0.25542,-0.01437 -0.38088,-0.03075 v 9.310643 c 0,0.531301 -0.4309,0.96215 -0.96262,0.96215 h -3.45811 v -2.636975 l 1.21923,2.034778 c 0.14391,0.240642 0.39891,0.373906 0.66048,0.373906 0.13409,0 0.27061,-0.03529 0.39447,-0.109495 0.36404,-0.218473 0.48252,-0.690454 0.26395,-1.054852 l -2.4508,-4.090794 c -0.15171,-0.253818 -0.42723,-0.379228 -0.70311,-0.363623 -0.0184,-0.0017 -2.83959,-0.0021 -2.8568,-8.78e-4 -0.2796,-0.01922 -0.5592,0.107428 -0.71334,0.364501 l -2.45085,4.090794 c -0.21853,0.364398 -0.10009,0.836379 0.264,1.054852 0.12386,0.0742 0.26038,0.109495 0.39447,0.109495 0.26157,0 0.51657,-0.133264 0.66048,-0.373906 l 1.22703,-2.047851 v 2.650048 h -3.4655 c -0.53177,0 -0.96262,-0.430797 -0.96262,-0.96215 v -9.310643 c -0.12541,0.01638 -0.25175,0.03075 -0.38088,0.03075 -0.19351,0 -0.39034,-0.01922 -0.58705,-0.05818 -0.4215,-0.08402 -0.80197,-0.255833 -1.13283,-0.488775 -0.49193,0.34316 -1.08271,0.546959 -1.70717,0.546959 h -4.2e-4 V 83.5208 h -0.5083 c -0.6654,0 -1.20455,0.539104 -1.20455,1.204548 0,0.665393 0.53915,1.204549 1.20455,1.204549 h 21.57305 c 0.66544,0 1.20455,-0.539156 1.20455,-1.204549 -1.6e-4,-0.665444 -0.53926,-1.204548 -1.20471,-1.204548 z"
       id="path1-2"
       style="fill:#000000;stroke-width:0.051673" /><path
       d="m 227.69092,71.077535 c -0.88439,0 -1.60223,0.820412 -1.60223,1.833047 0,1.011809 0.71784,1.832995 1.60223,1.832995 0.88515,0 1.60263,-0.821186 1.60263,-1.832995 -5e-5,-1.012635 -0.71748,-1.833047 -1.60263,-1.833047 z"
       id="path2-6"
       style="fill:#000000;stroke-width:0.051673" /><path
       d="m 216.92315,69.647589 c 0.16365,0.04837 0.32843,0.07167 0.4912,0.07167 0.73712,0 1.41858,-0.480041 1.64031,-1.222892 l 0.0902,-0.301357 c 0.0808,0.722027 0.60963,1.341844 1.35993,1.491127 0.11269,0.02253 0.22544,0.03317 0.33618,0.03317 0.80067,0 1.51609,-0.564062 1.67844,-1.378738 l 0.0418,-0.209482 c 0.0591,0.815399 0.69288,1.496036 1.53411,1.579642 0.0579,0.0057 0.11523,0.0082 0.17223,0.0082 0.86919,0 1.61411,-0.659192 1.70226,-1.54311 l 0.0127,-0.127116 c 0.0234,0.926135 0.77737,1.670226 1.70883,1.670226 0.9314,0 1.68542,-0.744091 1.70877,-1.670226 l 0.0127,0.127116 c 0.0882,0.883918 0.83313,1.54311 1.70232,1.54311 0.057,0 0.11435,-0.0024 0.17217,-0.0082 0.84124,-0.08361 1.47552,-0.764243 1.53412,-1.579642 l 0.0418,0.209482 c 0.16241,0.815038 0.87777,1.378738 1.67839,1.378738 0.11079,0 0.22354,-0.01064 0.33624,-0.03317 0.75029,-0.149283 1.27963,-0.7691 1.35993,-1.491127 l 0.0902,0.301357 c 0.22178,0.742902 0.90319,1.222892 1.6403,1.222892 0.16272,0 0.32756,-0.02336 0.49121,-0.07167 0.90681,-0.271076 1.42178,-1.225476 1.15122,-2.13151 l -1.54611,-5.17479 c -0.25785,-0.863403 -1.05196,-1.455007 -1.95308,-1.455007 H 219.2712 c -0.90113,0 -1.69524,0.591604 -1.95309,1.455007 l -1.5461,5.17479 c -0.27056,0.906034 0.24441,1.860434 1.15122,2.13151 z"
       id="path3-2"
       style="fill:#000000;stroke-width:0.051673" /></g><path
     class="cls-1"
     d="M 217.71853,34.673738 H 206.76949 L 205.40085,37.411 v 1.368632 a 1.368635,1.368635 0 0 0 2.73727,0 1.368632,1.368632 0 0 0 2.73726,0 1.368635,1.368635 0 0 0 2.73727,0 1.3686313,1.3686313 0 1 0 2.73725,0 1.368636,1.368636 0 1 0 2.73727,0 V 37.411 Z"
     id="path1-7" /><path
     class="cls-1"
     d="m 212.24401,43.566257 v 0 a 2.7372625,2.7372625 0 0 1 2.73727,2.737263 v 0.71656 h -5.47454 v -0.71656 a 2.7372625,2.7372625 0 0 1 2.73727,-2.737263 z"
     id="path2-2" /><line
     class="cls-1"
     x1="212.244"
     y1="42.197628"
     x2="212.244"
     y2="43.566261"
     id="line2" /><line
     class="cls-1"
     x1="208.13812"
     y1="46.984245"
     x2="216.34991"
     y2="46.984245"
     id="line3" /><line
     class="cls-1"
     x1="204.03938"
     y1="49.721512"
     x2="220.44862"
     y2="49.721512"
     id="line4" /><line
     class="cls-1"
     x1="206.08876"
     y1="39.460361"
     x2="206.08876"
     y2="49.721512"
     id="line5" /><line
     class="cls-1"
     x1="218.39928"
     y1="39.460361"
     x2="218.39928"
     y2="49.721512"
     id="line6" /><line
     class="cls-1"
     x1="205.40086"
     y1="37.410995"
     x2="219.08716"
     y2="37.410995"
     id="line7" /><line
     class="cls-1"
     x1="208.13812"
     y1="37.410995"
     x2="208.13812"
     y2="38.779629"
     id="line8" /><line
     class="cls-1"
     x1="210.87538"
     y1="37.410995"
     x2="210.87538"
     y2="38.779629"
     id="line9" /><line
     class="cls-1"
     x1="213.61264"
     y1="37.410995"
     x2="213.61264"
     y2="38.779629"
     id="line10" /><line
     class="cls-1"
     x1="216.34991"
     y1="37.410995"
     x2="216.34991"
     y2="38.779629"
     id="line11" /><path
     class="cls-1"
     d="m 204.94951,70.143004 h -10.94905 l -1.36862,2.737262 v 1.36863 a 1.3686313,1.3686313 0 0 0 2.73725,0 1.368635,1.368635 0 0 0 2.73727,0 1.3686313,1.3686313 0 0 0 2.73725,0 1.368636,1.368636 0 1 0 2.73727,0 1.3686336,1.3686336 0 1 0 2.73726,0 v -1.36863 z"
     id="path1-7-7"
     style="fill:none;stroke:#020202;stroke-width:1.36863px;stroke-miterlimit:10" /><path
     class="cls-1"
     d="m 199.475,79.03553 v 0 a 2.7372625,2.7372625 0 0 1 2.73725,2.737254 v 0.716568 h -5.47452 V 81.772784 A 2.7372625,2.7372625 0 0 1 199.475,79.03553 Z"
     id="path2-2-0"
     style="fill:none;stroke:#020202;stroke-width:1.36863px;stroke-miterlimit:10" /><line
     class="cls-1"
     x1="199.47498"
     y1="77.666893"
     x2="199.47498"
     y2="79.03553"
     id="line2-5"
     style="fill:none;stroke:#020202;stroke-width:1.36863px;stroke-miterlimit:10" /><line
     class="cls-1"
     x1="195.36909"
     y1="82.453499"
     x2="203.58089"
     y2="82.453499"
     id="line3-0"
     style="fill:none;stroke:#020202;stroke-width:1.36863px;stroke-miterlimit:10" /><line
     class="cls-1"
     x1="191.27037"
     y1="85.190765"
     x2="207.6796"
     y2="85.190765"
     id="line4-7"
     style="fill:none;stroke:#020202;stroke-width:1.36863px;stroke-miterlimit:10" /><line
     class="cls-1"
     x1="193.31973"
     y1="74.929619"
     x2="193.31973"
     y2="85.190765"
     id="line5-2"
     style="fill:none;stroke:#020202;stroke-width:1.36863px;stroke-miterlimit:10" /><line
     class="cls-1"
     x1="205.63025"
     y1="74.929619"
     x2="205.63025"
     y2="85.190765"
     id="line6-8"
     style="fill:none;stroke:#020202;stroke-width:1.36863px;stroke-miterlimit:10" /><line
     class="cls-1"
     x1="192.63184"
     y1="72.880257"
     x2="206.31815"
     y2="72.880257"
     id="line7-0"
     style="fill:none;stroke:#020202;stroke-width:1.36863px;stroke-miterlimit:10" /><line
     class="cls-1"
     x1="195.36909"
     y1="72.880257"
     x2="195.36909"
     y2="74.248894"
     id="line8-2"
     style="fill:none;stroke:#020202;stroke-width:1.36863px;stroke-miterlimit:10" /><line
     class="cls-1"
     x1="198.10635"
     y1="72.880257"
     x2="198.10635"
     y2="74.248894"
     id="line9-4"
     style="fill:none;stroke:#020202;stroke-width:1.36863px;stroke-miterlimit:10" /><line
     class="cls-1"
     x1="200.84363"
     y1="72.880257"
     x2="200.84363"
     y2="74.248894"
     id="line10-7"
     style="fill:none;stroke:#020202;stroke-width:1.36863px;stroke-miterlimit:10" /><line
     class="cls-1"
     x1="203.58089"
     y1="72.880257"
     x2="203.58089"
     y2="74.248894"
     id="line11-3"
     style="fill:none;stroke:#020202;stroke-width:1.36863px;stroke-miterlimit:10" /><path
     class="cls-1"
     d="m 183.75089,37.088347 h -10.94906 l -1.36862,2.737262 v 1.368632 a 1.3686336,1.3686336 0 0 0 2.73726,0 1.3686313,1.3686313 0 0 0 2.73726,0 1.368636,1.368636 0 0 0 2.73727,0 1.3686336,1.3686336 0 1 0 2.73726,0 1.3686313,1.3686313 0 1 0 2.73726,0 v -1.368632 z"
     id="path1-7-5"
     style="fill:none;stroke:#020202;stroke-width:1.36863px;stroke-miterlimit:10" /><path
     class="cls-1"
     d="m 178.27635,45.980868 v 0 a 2.7372625,2.7372625 0 0 1 2.73727,2.737263 v 0.716559 h -5.47453 v -0.716559 a 2.7372625,2.7372625 0 0 1 2.73726,-2.737263 z"
     id="path2-2-01"
     style="fill:none;stroke:#020202;stroke-width:1.36863px;stroke-miterlimit:10" /><line
     class="cls-1"
     x1="178.27637"
     y1="44.612236"
     x2="178.27637"
     y2="45.980869"
     id="line2-7"
     style="fill:none;stroke:#020202;stroke-width:1.36863px;stroke-miterlimit:10" /><line
     class="cls-1"
     x1="174.17047"
     y1="49.398865"
     x2="182.38226"
     y2="49.398865"
     id="line3-3"
     style="fill:none;stroke:#020202;stroke-width:1.36863px;stroke-miterlimit:10" /><line
     class="cls-1"
     x1="170.07176"
     y1="52.136124"
     x2="186.48099"
     y2="52.136124"
     id="line4-4"
     style="fill:none;stroke:#020202;stroke-width:1.36863px;stroke-miterlimit:10" /><line
     class="cls-1"
     x1="172.12111"
     y1="41.874969"
     x2="172.12111"
     y2="52.136124"
     id="line5-3"
     style="fill:none;stroke:#020202;stroke-width:1.36863px;stroke-miterlimit:10" /><line
     class="cls-1"
     x1="184.43163"
     y1="41.874969"
     x2="184.43163"
     y2="52.136124"
     id="line6-9"
     style="fill:none;stroke:#020202;stroke-width:1.36863px;stroke-miterlimit:10" /><line
     class="cls-1"
     x1="171.43321"
     y1="39.825607"
     x2="185.11952"
     y2="39.825607"
     id="line7-5"
     style="fill:none;stroke:#020202;stroke-width:1.36863px;stroke-miterlimit:10" /><line
     class="cls-1"
     x1="174.17047"
     y1="39.825607"
     x2="174.17047"
     y2="41.194241"
     id="line8-0"
     style="fill:none;stroke:#020202;stroke-width:1.36863px;stroke-miterlimit:10" /><line
     class="cls-1"
     x1="176.90775"
     y1="39.825607"
     x2="176.90775"
     y2="41.194241"
     id="line9-6"
     style="fill:none;stroke:#020202;stroke-width:1.36863px;stroke-miterlimit:10" /><line
     class="cls-1"
     x1="179.645"
     y1="39.825607"
     x2="179.645"
     y2="41.194241"
     id="line10-8"
     style="fill:none;stroke:#020202;stroke-width:1.36863px;stroke-miterlimit:10" /><line
     class="cls-1"
     x1="182.38226"
     y1="39.825607"
     x2="182.38226"
     y2="41.194241"
     id="line11-5"
     style="fill:none;stroke:#020202;stroke-width:1.36863px;stroke-miterlimit:10" /><path
     d="m 197.43093,30.922223 c 0,0.764549 -0.21848,1.267637 -0.53288,1.883317 -0.55936,0.939962 -0.92012,1.496066 -1.08567,1.658206 l -0.0398,0.04306 c -0.27141,0.258142 -0.57261,0.393887 -0.9003,0.393887 -0.45015,0 -0.80761,-0.192005 -1.06574,-0.522921 h -0.0133 c -0.26146,0.330992 -0.61229,0.522921 -1.06244,0.522921 -0.32767,0 -0.62557,-0.138986 -0.90029,-0.397205 l -0.0398,-0.03974 c -0.16223,-0.162216 -0.52624,-0.714926 -1.08567,-1.658205 -0.3144,-0.615607 -0.53287,-1.118693 -0.53287,-1.883318 0,-0.585817 0.20851,-1.088905 0.62225,-1.505943 0.41703,-0.417041 0.92012,-0.622242 1.50593,-0.622242 0.58915,0 1.07904,0.188685 1.48944,0.618923 h 0.0133 c 0.4104,-0.430312 0.90693,-0.618923 1.49606,-0.618923 0.58914,0 1.08891,0.205201 1.50594,0.622242 0.4172,0.416963 0.62572,0.916734 0.62572,1.505943 z m -0.50972,0.152262 c 0.0198,-0.420358 -0.13244,-0.827445 -0.43032,-1.141921 -0.31773,-0.33431 -0.76455,-0.526239 -1.22798,-0.526239 -0.11255,0 -0.20188,0.08938 -0.20188,0.201883 0,0.112516 0.0894,0.201884 0.20188,0.201884 0.35084,0 0.69178,0.145625 0.9334,0.400525 0.22505,0.234991 0.33764,0.532876 0.32105,0.844034 -0.0133,0.274733 -0.10921,0.59909 -0.28793,0.959871 -0.0495,0.09933 -0.006,0.218474 0.0927,0.268097 0.0298,0.01326 0.0595,0.01983 0.0894,0.01983 0.0762,0 0.14562,-0.03974 0.18205,-0.112516 0.20189,-0.410481 0.31117,-0.787777 0.32769,-1.11545 z m -1.89653,-2.71076 c -0.24826,0.175412 -1.22464,0.787775 -1.22464,0.787775 l -0.51967,-2.101716 0.43355,-0.307839 0.2846,1.247801 c 0.0662,-0.728197 0.51637,-1.079024 1.60195,-1.446367 0.12918,0.913417 0.0167,1.386714 -0.57579,1.820346 z M 184.29951,23.40389 c 0,1.031513 0.72586,1.908127 1.6591,2.230447 v 10.137466 h -1.6591 v 1.357453 h 19.00436 v -1.357453 h -1.65911 V 25.632679 c 0.97209,-0.297509 1.63641,-1.161075 1.65911,-2.228789 v -0.603314 h -19.00436 z m 4.77296,-0.04931 c 0,0.488456 0.50942,2.373281 2.39267,2.373281 1.63565,0 2.35307,-1.479247 2.35307,-2.373281 0,0.833477 0.55881,2.371547 2.37284,2.371547 1.63896,0 2.3652,-1.583621 2.3652,-2.371547 0,1.087848 0.73348,1.992139 1.73105,2.274037 V 35.771801 H 187.31608 V 25.635693 c 1.01069,-0.273602 1.75639,-1.183927 1.75639,-2.281126 z m 11.8809,-3.495142 h 0.0126 v -1.50829 h -14.25324 v 1.508282 l -2.41325,2.41325 h 19.00436 z"
     id="path1-73"
     style="fill:#000000;stroke-width:0.0754142" /><path
     d="m 221.19338,68.631858 c 0,0.764548 -0.21848,1.267636 -0.53288,1.883318 -0.55934,0.93996 -0.92013,1.496064 -1.08566,1.658204 l -0.0398,0.04306 c -0.27141,0.258143 -0.57262,0.393888 -0.9003,0.393888 -0.45015,0 -0.80761,-0.192004 -1.06573,-0.522921 h -0.0133 c -0.26148,0.330993 -0.61229,0.522921 -1.06244,0.522921 -0.32767,0 -0.62556,-0.138988 -0.90029,-0.397205 l -0.0398,-0.03974 c -0.16223,-0.162216 -0.52625,-0.714927 -1.08567,-1.658207 -0.3144,-0.615605 -0.53287,-1.118692 -0.53287,-1.883316 0,-0.585816 0.20851,-1.088904 0.62224,-1.505944 0.41703,-0.417041 0.92012,-0.622242 1.50595,-0.622242 0.58912,0 1.07901,0.188686 1.48943,0.618923 h 0.0133 c 0.4104,-0.430312 0.90692,-0.618923 1.49605,-0.618923 0.58914,0 1.08891,0.205201 1.50595,0.622242 0.41719,0.416964 0.6257,0.916735 0.6257,1.505944 z m -0.50971,0.152261 c 0.0198,-0.420359 -0.13243,-0.827443 -0.43032,-1.14192 -0.31773,-0.334311 -0.76456,-0.526239 -1.22798,-0.526239 -0.11255,0 -0.20188,0.08938 -0.20188,0.201883 0,0.112516 0.0894,0.201884 0.20188,0.201884 0.35084,0 0.69178,0.145624 0.9334,0.400525 0.22504,0.234989 0.33764,0.532874 0.32106,0.844033 -0.0133,0.274734 -0.10922,0.599091 -0.28794,0.959871 -0.0495,0.09932 -0.006,0.218475 0.0927,0.268097 0.0298,0.01326 0.0595,0.01983 0.0894,0.01983 0.0762,0 0.14562,-0.03974 0.18203,-0.112516 0.20189,-0.41048 0.31118,-0.787776 0.32769,-1.115451 z m -1.89653,-2.71076 c -0.24825,0.175413 -1.22464,0.787776 -1.22464,0.787776 l -0.51968,-2.101715 0.43355,-0.30784 0.28462,1.2478 c 0.0662,-0.728198 0.51634,-1.079023 1.60194,-1.446366 0.12918,0.913415 0.0167,1.386714 -0.57579,1.820345 z m -10.72517,-4.959834 c 0,1.031513 0.72587,1.908127 1.65912,2.230447 v 10.137466 h -1.65912 v 1.357452 h 19.00436 v -1.357452 h -1.65911 V 63.342312 c 0.97208,-0.297509 1.63641,-1.161074 1.65911,-2.228787 v -0.603313 h -19.00436 z m 4.77296,-0.04933 c 0,0.488455 0.50943,2.373281 2.39267,2.373281 1.63565,0 2.35307,-1.479249 2.35307,-2.373281 0,0.833477 0.55882,2.371547 2.37282,2.371547 1.63898,0 2.36522,-1.583622 2.36522,-2.371547 0,1.087847 0.73348,1.992137 1.73106,2.274036 v 10.1432 H 211.07853 V 63.345325 c 1.01071,-0.273601 1.7564,-1.183926 1.7564,-2.281126 z m 11.88088,-3.495148 h 0.0126 v -1.508273 h -14.25326 v 1.508283 l -2.41326,2.41325 h 19.00436 z"
     id="path1-73-6"
     style="fill:#000000;stroke-width:0.0754142" /><path
     d="m 179.12057,68.647685 c 0,0.764549 -0.21845,1.267637 -0.53286,1.883318 -0.55935,0.939961 -0.92012,1.496064 -1.08566,1.658206 l -0.0398,0.04306 c -0.27142,0.258141 -0.57264,0.393887 -0.9003,0.393887 -0.45014,0 -0.80762,-0.192004 -1.06576,-0.52292 h -0.0133 c -0.26146,0.330991 -0.61227,0.52292 -1.06243,0.52292 -0.32767,0 -0.62555,-0.138988 -0.90029,-0.397207 l -0.0398,-0.03974 c -0.16222,-0.162215 -0.52624,-0.714925 -1.08566,-1.658205 -0.31441,-0.615604 -0.53288,-1.118692 -0.53288,-1.883316 0,-0.585816 0.20852,-1.088904 0.62224,-1.505944 0.41704,-0.417041 0.92014,-0.622243 1.50595,-0.622243 0.58913,0 1.07902,0.188687 1.48942,0.618923 h 0.0133 c 0.41041,-0.430312 0.90693,-0.618923 1.49607,-0.618923 0.58915,0 1.08891,0.205202 1.50595,0.622243 0.41719,0.416964 0.6257,0.916733 0.6257,1.505944 z m -0.50972,0.152263 c 0.0198,-0.42036 -0.13242,-0.827445 -0.43031,-1.14192 -0.31772,-0.334312 -0.76455,-0.526241 -1.22797,-0.526241 -0.11255,0 -0.20187,0.08938 -0.20187,0.201884 0,0.112516 0.0894,0.201882 0.20187,0.201882 0.35083,0 0.6918,0.145627 0.9334,0.400526 0.22504,0.23499 0.33763,0.532875 0.32104,0.844035 -0.0133,0.274734 -0.10921,0.59909 -0.28792,0.95987 -0.0495,0.09931 -0.006,0.218475 0.0926,0.268097 0.0298,0.01326 0.0595,0.01983 0.0894,0.01983 0.0762,0 0.14562,-0.03974 0.18206,-0.112516 0.20188,-0.410478 0.31115,-0.787776 0.32768,-1.115449 z m -1.89652,-2.71076 c -0.24825,0.175412 -1.22464,0.787776 -1.22464,0.787776 l -0.51968,-2.101716 0.43357,-0.30784 0.2846,1.2478 c 0.0662,-0.728197 0.51637,-1.079024 1.60195,-1.446367 0.12917,0.913415 0.0167,1.386715 -0.5758,1.820347 z m -10.72516,-4.959836 c 0,1.031515 0.72586,1.908128 1.65912,2.230447 v 10.137468 h -1.65912 v 1.357452 h 19.00435 v -1.357452 h -1.6591 V 63.35814 c 0.9721,-0.297508 1.6364,-1.161076 1.6591,-2.228788 V 60.52604 h -19.00435 z m 4.77296,-0.04933 c 0,0.488457 0.50943,2.373282 2.39267,2.373282 1.63565,0 2.35306,-1.479248 2.35306,-2.373282 0,0.833476 0.55882,2.371548 2.37283,2.371548 1.63899,0 2.36522,-1.583623 2.36522,-2.371548 0,1.087848 0.73347,1.992139 1.73105,2.274037 V 73.49726 H 169.00575 V 63.36115 c 1.01069,-0.273601 1.75638,-1.183925 1.75638,-2.281124 z m 11.8809,-3.495143 h 0.0126 V 56.0766 h -14.25328 v 1.508281 l -2.41326,2.413251 h 19.00436 z"
     id="path1-73-5"
     style="fill:#000000;stroke-width:0.0754142" /><style
     type="text/css"
     id="style1-63">
	.st0{fill:#000000;}
</style><style
     type="text/css"
     id="style1-1">
	.st0{fill:#000000;}
</style><g
     id="TopDown"
     transform="matrix(0.73728,0,0,0.73728,27.60583,0)"><path
       id="arrow_up-[#283]"
       style="fill:#000000;fill-rule:evenodd;stroke:none;stroke-width:10.3556"
       d="M 0,0.51598553 C 0,44.85012 0,89.184254 0,133.51839 c 17.789934,17.22912 35.578412,34.45968 53.367186,51.68994 17.788774,-17.23026 35.577258,-34.46082 53.367184,-51.68994 0,-44.506131 0,-89.01226 0,-133.51839 C 71.156249,0 35.578124,0 0,0 0,0.17199518 0,0.34399035 0,0.51598553 Z M 103.9414,3.092105 c 0,43.014659 0,86.029317 0,129.043975 -16.858066,16.32495 -33.716141,32.64989 -50.574214,48.97483 -16.858072,-16.32494 -33.716145,-32.64988 -50.574217,-48.97483 0,-43.014658 0,-86.029316 0,-129.043975 33.716145,0 67.43229,0 101.148431,0 z" /><text
       xml:space="preserve"
       style="font-size:11.0932px;font-family:Bahnschrift;-inkscape-font-specification:'Bahnschrift, Normal';fill:#000000;stroke-width:0.982662"
       x="112.91332"
       y="48.009285"
       id="text9"><tspan
         sodipodi:role="line"
         id="tspan9"
         style="text-align:center;text-anchor:middle;stroke-width:0.982664"
         x="112.91332"
         y="48.009285">T</tspan><tspan
         sodipodi:role="line"
         style="text-align:center;text-anchor:middle;stroke-width:0.982664"
         x="112.91332"
         y="61.875786"
         id="tspan10">o</tspan><tspan
         sodipodi:role="line"
         style="text-align:center;text-anchor:middle;stroke-width:0.982664"
         x="112.91332"
         y="75.742287"
         id="tspan11">p</tspan><tspan
         sodipodi:role="line"
         style="text-align:center;text-anchor:middle;stroke-width:0.982664"
         x="112.91332"
         y="89.608788"
         id="tspan12" /><tspan
         sodipodi:role="line"
         style="text-align:center;text-anchor:middle;stroke-width:0.982664"
         x="112.91332"
         y="103.47528"
         id="tspan13">D</tspan><tspan
         sodipodi:role="line"
         style="text-align:center;text-anchor:middle;stroke-width:0.982664"
         x="112.91332"
         y="117.34178"
         id="tspan14">o</tspan><tspan
         sodipodi:role="line"
         style="text-align:center;text-anchor:middle;stroke-width:0.982664"
         x="112.91332"
         y="131.20828"
         id="tspan15">w</tspan><tspan
         sodipodi:role="line"
         style="text-align:center;text-anchor:middle;stroke-width:0.982664"
         x="112.91332"
         y="145.07478"
         id="tspan16">n</tspan></text></g><g
     id="BottomUp"
     transform="matrix(0.73728,0,0,0.73728,27.60583,0)"><path
       id="arrow_up-[#283]-2"
       style="fill:#000000;fill-rule:evenodd;stroke:none;stroke-width:10.3556"
       d="m 171.07813,184.69234 c 0,-44.33413 0,-88.668261 0,-133.002397 C 188.86806,34.460826 206.65654,17.230266 224.44532,6.3333333e-6 242.23409,17.230266 260.02257,34.460826 277.8125,51.689943 c 0,44.506131 0,89.012257 0,133.518387 -35.57812,0 -71.15625,0 -106.73437,0 0,-0.172 0,-0.34399 0,-0.51599 z m 103.9414,-2.57612 c 0,-43.01465 0,-86.029309 0,-129.043967 C 258.16146,36.747306 241.30339,20.422366 224.44532,4.0974263 207.58724,20.422366 190.72917,36.747306 173.8711,53.072253 c 0,43.014658 0,86.029317 0,129.043967 33.71614,0 67.43229,0 101.14843,0 z" /><text
       xml:space="preserve"
       style="font-size:10.5833px;font-family:Bahnschrift;-inkscape-font-specification:'Bahnschrift, Normal';fill:#000000;stroke-width:0.937499"
       x="163.41774"
       y="42.354164"
       id="text9-2"><tspan
         sodipodi:role="line"
         style="text-align:center;text-anchor:middle;stroke-width:0.9375"
         x="163.41774"
         y="42.354164"
         id="tspan16-9">B</tspan><tspan
         sodipodi:role="line"
         style="text-align:center;text-anchor:middle;stroke-width:0.9375"
         x="163.41774"
         y="55.58329"
         id="tspan23">o</tspan><tspan
         sodipodi:role="line"
         style="text-align:center;text-anchor:middle;stroke-width:0.9375"
         x="163.41774"
         y="68.812416"
         id="tspan24">t</tspan><tspan
         sodipodi:role="line"
         style="text-align:center;text-anchor:middle;stroke-width:0.9375"
         x="163.41774"
         y="82.041534"
         id="tspan25">t</tspan><tspan
         sodipodi:role="line"
         style="text-align:center;text-anchor:middle;stroke-width:0.9375"
         x="163.41774"
         y="95.27066"
         id="tspan26">o</tspan><tspan
         sodipodi:role="line"
         style="text-align:center;text-anchor:middle;stroke-width:0.9375"
         x="163.41774"
         y="108.49979"
         id="tspan27">m</tspan><tspan
         sodipodi:role="line"
         style="text-align:center;text-anchor:middle;stroke-width:0.9375"
         x="163.41774"
         y="121.72891"
         id="tspan28" /><tspan
         sodipodi:role="line"
         style="text-align:center;text-anchor:middle;stroke-width:0.9375"
         x="163.41774"
         y="134.95804"
         id="tspan29">U</tspan><tspan
         sodipodi:role="line"
         style="text-align:center;text-anchor:middle;stroke-width:0.9375"
         x="163.41774"
         y="148.18716"
         id="tspan30">p</tspan></text></g><rect
     style="fill:#ffffff;fill-opacity:1;stroke-width:0.624999"
     id="DelMerchant"
     width="9.5459414"
     height="12.641922"
     x="205.36673"
     y="100.10339" /><rect
     style="fill:#ffffff;fill-opacity:1;stroke-width:0.624999"
     id="DelStand"
     width="19.091883"
     height="20.639874"
     x="185.50087"
     y="43.60173" /><rect
     style="fill:#ffffff;fill-opacity:1;stroke-width:0.624999"
     id="DelBishop"
     width="26.315838"
     height="26.831835"
     x="53.147675"
     y="7.2239552" /><rect
     style="fill:#ffffff;fill-opacity:1;stroke-width:0.624999"
     id="DelAll"
     width="61.661617"
     height="63.725609"
     x="35.861778"
     y="37.925766" /></svg>
